%FSTAX23Y23*%
%MOIN*%
%SFA1B1*%

%IPPOS*%
%ADD92C,0.010000*%
%ADD95C,0.003937*%
%ADD131C,0.006000*%
%LNhardwarecontrollerpcb_mechanical_1-1*%
%LPD*%
G54D92*
X-00092Y0006D02*
X-00072Y0D01*
X-00052Y0006*
X-00072Y04401D02*
X-00052Y04341D01*
X-00092D02*
X-00072Y04401D01*
Y0D02*
Y02018D01*
Y0235D02*
Y04401D01*
X-00082Y0D02*
X0D01*
X-00082Y04401D02*
X0D01*
Y-00043D02*
X0006Y-00023D01*
X0Y-00043D02*
X0006Y-00063D01*
X04812D02*
X04872Y-00043D01*
X04812Y-00023D02*
X04872Y-00043D01*
X0D02*
X02244D01*
X02595D02*
X04872D01*
X0Y-00053D02*
Y0D01*
X04872Y-00053D02*
Y-00001D01*
G54D95*
X01848Y00803D02*
D01*
X01848Y00806*
X01847Y00809*
X01847Y00812*
X01846Y00816*
X01845Y00819*
X01844Y00822*
X01842Y00825*
X01841Y00828*
X01839Y0083*
X01837Y00833*
X01835Y00835*
X01832Y00838*
X0183Y0084*
X01827Y00842*
X01824Y00844*
X01821Y00845*
X01818Y00846*
X01815Y00848*
X01812Y00848*
X01809Y00849*
X01806Y0085*
X01802Y0085*
X01801Y0085*
X04872Y04265D02*
D01*
X04871Y04275*
X0487Y04284*
X04869Y04294*
X04866Y04303*
X04863Y04312*
X0486Y04321*
X04855Y0433*
X04851Y04338*
X04845Y04346*
X04839Y04354*
X04833Y04361*
X04826Y04368*
X04819Y04374*
X04811Y04379*
X04803Y04385*
X04794Y04389*
X04785Y04393*
X04776Y04396*
X04767Y04399*
X04758Y04401*
X04748Y04402*
X04739Y04403*
X04734Y04403*
Y0D02*
D01*
X04743Y0*
X04753Y00001*
X04762Y00003*
X04772Y00005*
X04781Y00008*
X0479Y00011*
X04798Y00016*
X04807Y0002*
X04815Y00026*
X04822Y00032*
X04829Y00038*
X04836Y00045*
X04842Y00052*
X04848Y0006*
X04853Y00068*
X04858Y00077*
X04862Y00086*
X04865Y00095*
X04867Y00104*
X04869Y00113*
X04871Y00123*
X04871Y00132*
X04872Y00137*
X00137Y04403D02*
D01*
X00128Y04403*
X00118Y04402*
X00109Y044*
X00099Y04398*
X0009Y04395*
X00081Y04391*
X00073Y04387*
X00064Y04382*
X00056Y04377*
X00049Y04371*
X00042Y04364*
X00035Y04357*
X00029Y0435*
X00023Y04342*
X00018Y04334*
X00013Y04326*
X0001Y04317*
X00006Y04308*
X00004Y04299*
X00002Y04289*
X0Y0428*
X0Y0427*
X0Y04265*
Y00137D02*
D01*
X0Y00128*
X00001Y00118*
X00003Y00109*
X00005Y00099*
X00008Y0009*
X00011Y00081*
X00016Y00073*
X0002Y00064*
X00026Y00056*
X00032Y00049*
X00038Y00042*
X00045Y00035*
X00052Y00029*
X0006Y00023*
X00068Y00018*
X00077Y00013*
X00086Y0001*
X00095Y00006*
X00104Y00004*
X00113Y00002*
X00123Y0*
X00132Y0*
X00137Y0*
X0111Y0085D02*
D01*
X01106Y0085*
X01103Y00849*
X011Y00849*
X01097Y00848*
X01094Y00847*
X01091Y00846*
X01088Y00844*
X01085Y00843*
X01082Y00841*
X01079Y00839*
X01077Y00837*
X01075Y00834*
X01073Y00832*
X01071Y00829*
X01069Y00826*
X01067Y00823*
X01066Y0082*
X01065Y00817*
X01064Y00814*
X01063Y00811*
X01063Y00808*
X01063Y00804*
X01062Y00803*
X04872Y04266D02*
X04872Y00137D01*
X0Y04265D02*
X0Y00137D01*
X00137Y0D02*
X01062D01*
X00137Y04403D02*
X04734D01*
X01848Y0D02*
X04734D01*
X01062D02*
Y00803D01*
X01848Y0D02*
Y00803D01*
X0111Y0085D02*
X01801D01*
G54D131*
X-00036Y02034D02*
Y02054D01*
Y02044*
X-00096*
X-00086Y02034*
X-00036Y02084D02*
Y02104D01*
Y02094*
X-00096*
X-00086Y02084*
X-00036Y02134D02*
Y02154D01*
Y02144*
X-00096*
X-00086Y02134*
X-00036Y02184D02*
X-00046D01*
Y02194*
X-00036*
Y02184*
X-00086Y02234D02*
X-00096Y02244D01*
Y02264*
X-00086Y02274*
X-00076*
X-00066Y02264*
X-00056Y02274*
X-00046*
X-00036Y02264*
Y02244*
X-00046Y02234*
X-00056*
X-00066Y02244*
X-00076Y02234*
X-00086*
X-00066Y02244D02*
Y02264D01*
X-00086Y02294D02*
X-00096Y02304D01*
Y02324*
X-00086Y02334*
X-00046*
X-00036Y02324*
Y02304*
X-00046Y02294*
X-00086*
X0226Y-00079D02*
X0228D01*
X0227*
Y-00019*
X0226Y-00029*
X0235Y-00079D02*
X0231D01*
X0235Y-00039*
Y-00029*
X0234Y-00019*
X0232*
X0231Y-00029*
X0237D02*
X0238Y-00019D01*
X024*
X0241Y-00029*
Y-00039*
X024Y-00049*
X0239*
X024*
X0241Y-00059*
Y-00069*
X024Y-00079*
X0238*
X0237Y-00069*
X0243Y-00079D02*
Y-00069D01*
X0244*
Y-00079*
X0243*
X0248Y-00019D02*
X02519D01*
Y-00029*
X0248Y-00069*
Y-00079*
X02579Y-00019D02*
X02539D01*
Y-00049*
X02559Y-00039*
X02569*
X02579Y-00049*
Y-00069*
X02569Y-00079*
X02549*
X02539Y-00069*
M02*