%FSTAX23Y23*%
%MOIN*%
%SFA1B1*%

%IPPOS*%
%ADD72C,0.058000*%
%ADD73R,0.058000X0.058000*%
%ADD74C,0.148000*%
%ADD75C,0.078000*%
%ADD76C,0.086740*%
%ADD77R,0.073000X0.073000*%
%ADD78C,0.073000*%
%ADD79O,0.118236X0.137921*%
%ADD80O,0.126110X0.106425*%
%ADD81C,0.068000*%
%ADD82R,0.068000X0.068000*%
%ADD83R,0.086740X0.086740*%
%ADD84C,0.082409*%
%ADD85C,0.145795*%
%ADD86C,0.279654*%
%ADD87C,0.032000*%
%LNhardwarecontrollerpcb_soldermask_bot-1*%
%LPD*%
G54D72*
X04761Y02816D03*
Y02738D03*
Y03625D03*
Y03547D03*
G54D73*
X04761Y02659D03*
Y03468D03*
G54D74*
X0422Y03775D03*
Y0409D03*
X03236Y03775D03*
Y0409D03*
X01921Y0409D03*
Y03775D03*
X02905Y0409D03*
Y03775D03*
G54D75*
X03892Y0409D03*
X03783D03*
X03674D03*
X03565D03*
X03946Y03978D03*
X03837D03*
X03728D03*
X03619D03*
X0351D03*
Y03712D03*
X03619D03*
X03728D03*
X03837D03*
X03946D03*
X03565Y03824D03*
X03674D03*
X03783D03*
X03892D03*
X02576Y03824D03*
X02467D03*
X02358D03*
X02249D03*
X02631Y03712D03*
X02522D03*
X02413D03*
X02304D03*
X02195D03*
Y03978D03*
X02304D03*
X02413D03*
X02522D03*
X02631D03*
X02249Y0409D03*
X02358D03*
X02467D03*
X02576D03*
G54D76*
X04675Y0042D03*
Y0082D03*
Y0122D03*
X03875Y0042D03*
Y0072D03*
Y0092D03*
X03586Y00127D03*
Y00324D03*
G54D77*
X02255Y00781D03*
X00355D03*
X0058Y01681D03*
X00057Y03028D03*
G54D78*
X02355Y00781D03*
X02255Y00881D03*
X02355D03*
X02255Y00981D03*
X02355D03*
X02255Y01081D03*
X02355D03*
X02255Y01181D03*
X02355D03*
X02255Y01281D03*
X02355D03*
X02255Y01381D03*
X02355D03*
X02255Y01481D03*
X02355D03*
X02255Y01581D03*
X02355D03*
X02255Y01681D03*
X02355D03*
X02255Y01781D03*
X02355D03*
X02255Y01881D03*
X02355D03*
X02255Y01981D03*
X02355D03*
X02255Y02081D03*
X02355D03*
X02255Y02181D03*
X02355D03*
X02255Y02281D03*
X02355D03*
X02255Y02381D03*
X02355D03*
X02255Y02481D03*
X02355D03*
X02255Y02581D03*
X02355D03*
X02255Y02681D03*
X02355D03*
X02255Y02781D03*
X02355D03*
X02255Y02881D03*
X02355D03*
X02255Y02981D03*
X02355D03*
X00455Y00781D03*
X00355Y00881D03*
X00455D03*
X00355Y00981D03*
X00455D03*
X00355Y01081D03*
X00455D03*
X00355Y01181D03*
X00455D03*
X00355Y01281D03*
X00455D03*
X00355Y01381D03*
X00455D03*
X00355Y01481D03*
X00455D03*
X00355Y01581D03*
X00455D03*
X00355Y01681D03*
X00455D03*
X00355Y01781D03*
X00455D03*
X00355Y01881D03*
X00455D03*
X00355Y01981D03*
X00455D03*
X00355Y02081D03*
X00455D03*
X00355Y02181D03*
X00455D03*
X00355Y02281D03*
X00455D03*
X00355Y02381D03*
X00455D03*
X00355Y02481D03*
X00455D03*
X00355Y02581D03*
X00455D03*
X00355Y02681D03*
X00455D03*
X00355Y02781D03*
X00455D03*
X00355Y02881D03*
X00455D03*
X00355Y02981D03*
X00455D03*
X0058Y01781D03*
Y01881D03*
Y01981D03*
Y02081D03*
Y02181D03*
X00057Y02528D03*
Y02628D03*
Y02728D03*
X00057Y02828D03*
X00057Y02928D03*
G54D79*
X02543Y00192D03*
X02744D03*
G54D80*
X02643Y007D03*
Y0085D03*
Y01D03*
G54D81*
X00057Y02023D03*
Y01923D03*
Y01823D03*
Y01623D03*
Y01723D03*
G54D82*
X00057Y01523D03*
G54D83*
X03449Y00127D03*
Y00324D03*
G54D84*
X00883Y03979D03*
X00993D03*
X01102D03*
X01211D03*
X0132D03*
X00938Y04091D03*
X01047D03*
X01156D03*
X01265D03*
G54D85*
X01594Y04035D03*
X00609D03*
G54D86*
X0473Y00141D03*
Y04133D03*
X00141D03*
Y00141D03*
G54D87*
X02854Y01201D03*
X02835Y0122D03*
X02854Y01272D03*
X02887Y01201D03*
X02906Y0122D03*
Y01254D03*
X02887Y01272D03*
X02835Y01254D03*
M02*