%FSTAX23Y23*%
%MOIN*%
%SFA1B1*%

%IPPOS*%
%ADD10R,0.021654X0.017716*%
%ADD11R,0.019685X0.027559*%
%ADD12R,0.047244X0.031496*%
%ADD13R,0.084646X0.037402*%
%ADD14R,0.084646X0.127953*%
%ADD15R,0.035433X0.035433*%
%ADD16R,0.027559X0.009842*%
%ADD17R,0.009842X0.027559*%
%ADD18R,0.014764X0.014764*%
%ADD19R,0.044291X0.044291*%
%ADD20O,0.023622X0.057087*%
%ADD21O,0.023622X0.057087*%
%ADD22R,0.023622X0.057087*%
%ADD23R,0.057087X0.023622*%
%ADD24O,0.057087X0.023622*%
%ADD25O,0.057087X0.023622*%
%ADD26R,0.009842X0.021654*%
%ADD27R,0.021654X0.009842*%
%ADD28R,0.023622X0.039370*%
%ADD29O,0.055118X0.015748*%
%ADD30O,0.015748X0.055118*%
%ADD31R,0.027559X0.035433*%
%ADD32R,0.037402X0.051181*%
%ADD33R,0.035433X0.027559*%
%ADD34R,0.051181X0.037402*%
%ADD35R,0.035433X0.023622*%
%ADD36R,0.153937X0.147638*%
%ADD37R,0.024016X0.050000*%
%ADD38R,0.212598X0.114173*%
%ADD39R,0.072835X0.133858*%
%ADD40R,0.066929X0.041339*%
%ADD41R,0.084646X0.064961*%
%ADD42R,0.017716X0.021654*%
%ADD43R,0.098425X0.125000*%
%ADD44R,0.041339X0.066929*%
%ADD53C,0.050000*%
%ADD54R,0.050000X0.050000*%
%ADD55C,0.140000*%
%ADD56C,0.070000*%
%ADD57C,0.078740*%
%ADD58R,0.065000X0.065000*%
%ADD59C,0.065000*%
%ADD60O,0.110236X0.129921*%
%ADD61O,0.118110X0.098425*%
%ADD62C,0.060000*%
%ADD63R,0.060000X0.060000*%
%ADD64R,0.078740X0.078740*%
%ADD65C,0.074409*%
%ADD66C,0.137795*%
%ADD67C,0.271654*%
%LNhardwarecontrollerpcb_pads_top-1*%
%LPD*%
G54D10*
X00171Y0221D03*
X00068D03*
G54D11*
X03003Y03425D03*
X03035D03*
X03066D03*
X03098D03*
X03003Y03488D03*
X03035D03*
X03066D03*
X03098D03*
X02529Y03425D03*
X02561D03*
X02592D03*
X02624D03*
X02529Y03488D03*
X02561D03*
X02592D03*
X02624D03*
X02657Y02694D03*
X02688D03*
X0272D03*
X02751D03*
X02657Y02757D03*
X02688D03*
X0272D03*
X02751D03*
X03131Y02694D03*
X03163D03*
X03194D03*
X03226D03*
X03131Y02757D03*
X03163D03*
X03194D03*
X03226D03*
X03576Y03342D03*
X03545D03*
X03513D03*
X03482D03*
X03576Y03279D03*
X03545D03*
X03513D03*
X03482D03*
X039Y03586D03*
X03869D03*
X03837D03*
X03806D03*
X039Y03523D03*
X03869D03*
X03837D03*
X03806D03*
G54D12*
X0448Y02251D03*
Y02301D03*
X04232Y02251D03*
Y02301D03*
G54D13*
X0333Y01734D03*
Y01643D03*
Y01553D03*
G54D14*
X03559Y01643D03*
G54D15*
X02849Y01215D03*
G54D16*
X02795Y01188D03*
Y01207D03*
Y01227D03*
Y01247D03*
Y01266D03*
Y01286D03*
X02945D03*
Y01266D03*
Y01247D03*
Y01227D03*
Y01207D03*
Y01188D03*
G54D17*
X02821Y01312D03*
X02841D03*
X0286D03*
X0288D03*
X029D03*
X02919D03*
Y01162D03*
X029D03*
X0288D03*
X0286D03*
X02841D03*
X02821D03*
G54D18*
X02798Y01165D03*
Y01309D03*
X02942D03*
Y01165D03*
G54D19*
X02896Y01263D03*
X02844D03*
X02896Y01211D03*
G54D20*
X04218Y0249D03*
X04268D03*
X04318D03*
X04368D03*
X04218Y02704D03*
X04268D03*
X04318D03*
X04368D03*
X03938Y0249D03*
X03988D03*
X04038D03*
X04088D03*
X03938Y02705D03*
X03988D03*
X04038D03*
X04088D03*
G54D21*
X03004Y02976D03*
X03054D03*
X03104D03*
X03154D03*
X03204D03*
X03254D03*
X03304D03*
X03354D03*
X03004Y0319D03*
X03054D03*
X03104D03*
X03154D03*
X03204D03*
X03254D03*
X03304D03*
X02529Y02977D03*
X02579D03*
X02629D03*
X02679D03*
X02729D03*
X02779D03*
X02829D03*
X02879D03*
X02529Y03191D03*
X02579D03*
X02629D03*
X02679D03*
X02729D03*
X02779D03*
X02829D03*
G54D22*
X03354Y0319D03*
X02879Y03191D03*
G54D23*
X0025Y03827D03*
G54D24*
X0025Y03777D03*
Y03727D03*
Y03677D03*
Y03627D03*
Y03577D03*
Y03527D03*
Y03477D03*
X00636Y03827D03*
Y03777D03*
Y03727D03*
Y03677D03*
Y03627D03*
Y03577D03*
Y03527D03*
Y03477D03*
G54D25*
X02804Y02419D03*
Y02369D03*
Y02319D03*
Y02269D03*
X03018Y02419D03*
Y02369D03*
Y02319D03*
Y02269D03*
X04211Y03225D03*
Y03275D03*
Y03325D03*
Y03375D03*
X03996Y03225D03*
Y03275D03*
Y03325D03*
Y03375D03*
G54D26*
X02823Y01851D03*
X02842D03*
X02862D03*
X02882D03*
Y01944D03*
X02862D03*
X02842D03*
X02823D03*
G54D27*
X02888Y01877D03*
Y01897D03*
Y01917D03*
X02817D03*
Y01897D03*
Y01877D03*
G54D28*
X0393Y02294D03*
X03893D03*
X03856D03*
Y02188D03*
X0393D03*
X03726Y02294D03*
X03688D03*
X03651D03*
Y02188D03*
X03726D03*
G54D29*
X04507Y02925D03*
Y02951D03*
Y02976D03*
Y03002D03*
Y03028D03*
Y03053D03*
Y03079D03*
Y03104D03*
X04275Y02925D03*
Y02951D03*
Y02976D03*
Y03002D03*
Y03028D03*
Y03053D03*
Y03079D03*
Y03104D03*
X03885Y02934D03*
Y0296D03*
Y02985D03*
Y03011D03*
Y03036D03*
Y03062D03*
Y03088D03*
Y03113D03*
X03653Y02934D03*
Y0296D03*
Y02985D03*
Y03011D03*
Y03036D03*
Y03062D03*
Y03088D03*
Y03113D03*
G54D30*
X03587Y02481D03*
X03612D03*
X03638D03*
X03664D03*
X03689D03*
X03715D03*
X0374D03*
X03766D03*
X03792D03*
X03817D03*
X03587Y02714D03*
X03612D03*
X03638D03*
X03664D03*
X03689D03*
X03715D03*
X0374D03*
X03766D03*
X03792D03*
X03817D03*
G54D31*
X00165Y00437D03*
X0022D03*
X00165Y00687D03*
X0022D03*
X00165Y00935D03*
X0022D03*
X00165Y01183D03*
X0022D03*
X00059Y0233D03*
X00114D03*
X04108Y02198D03*
X04163D03*
X03838Y00226D03*
X03783D03*
X02765Y01372D03*
X0271D03*
X04027Y02369D03*
X04082D03*
X03728Y02355D03*
X03783D03*
X00165Y005D03*
X0011D03*
X00165Y0075D03*
X0011D03*
X00165Y00998D03*
X0011D03*
X00165Y01246D03*
X0011D03*
X04033Y00145D03*
X03978D03*
X03246Y01529D03*
X0319D03*
X02714Y01269D03*
X02659D03*
X02911Y01374D03*
X02856D03*
X02911Y01084D03*
X02856D03*
X04163Y02419D03*
X04218D03*
X04163Y02771D03*
X04218D03*
X00772Y03652D03*
X00827D03*
X04511Y03212D03*
X04456D03*
X04395Y03275D03*
X0445D03*
X04389Y03212D03*
X04334D03*
X0405Y03158D03*
X03995D03*
X04161Y03003D03*
X04106D03*
X03883Y0242D03*
X03938D03*
X03883Y02773D03*
X03938D03*
X0378Y0213D03*
X03725D03*
X03564Y03173D03*
X0362D03*
X03513D03*
X03458D03*
X0358Y02965D03*
X03525D03*
G54D32*
X04397Y021D03*
X0447D03*
X00754Y03581D03*
X00827D03*
X00828Y03722D03*
X00755D03*
X0472Y02062D03*
X04647D03*
X04409Y01417D03*
X04482D03*
X02842Y01013D03*
X02915D03*
X04161Y02932D03*
X04088D03*
X0358Y02896D03*
X03507D03*
G54D33*
X03492Y00625D03*
Y00681D03*
X02578Y01212D03*
Y01267D03*
X027Y01157D03*
Y01212D03*
X03181Y00092D03*
Y00147D03*
X04647Y03232D03*
Y03287D03*
X04761Y03232D03*
Y03287D03*
X03092Y02214D03*
Y02269D03*
X03198Y02263D03*
Y02318D03*
X02724Y02214D03*
Y02269D03*
X02771Y01982D03*
Y01927D03*
X02482Y0148D03*
Y01535D03*
X02553Y0148D03*
Y01535D03*
X04511Y03275D03*
Y0333D03*
X04334Y03275D03*
Y0333D03*
X02637Y01157D03*
Y01212D03*
X00698Y03834D03*
Y03779D03*
X00178Y03774D03*
Y03829D03*
X03092Y02364D03*
Y02419D03*
X02935Y01933D03*
Y01877D03*
X03996Y03437D03*
Y03492D03*
X04143Y0344D03*
Y03496D03*
X03995Y02243D03*
Y02188D03*
X03818Y03204D03*
Y03259D03*
X03529Y02714D03*
Y02769D03*
X03515Y02427D03*
Y02482D03*
G54D34*
X03435Y01044D03*
Y00971D03*
G54D35*
X03547Y00681D03*
Y00606D03*
X03637Y00643D03*
G54D36*
X03013Y00181D03*
G54D37*
X03088Y00354D03*
X03038D03*
X02988D03*
X02938D03*
Y00105D03*
X02988D03*
X03038D03*
X03088D03*
G54D38*
X04566Y01966D03*
Y01576D03*
X0308Y0085D03*
Y0046D03*
G54D39*
X03017Y01269D03*
X03236D03*
G54D40*
X016Y03783D03*
Y03667D03*
X01501Y03783D03*
Y03667D03*
X01403Y03783D03*
Y03667D03*
X0351Y036D03*
Y03484D03*
X03368Y036D03*
Y03484D03*
X0323Y01643D03*
Y01759D03*
X0371Y00845D03*
Y00729D03*
X03379Y00826D03*
Y0071D03*
X03196Y00358D03*
Y00242D03*
G54D41*
X04759Y02218D03*
X04606D03*
X01093Y03827D03*
X00939D03*
G54D42*
X031Y01564D03*
Y01667D03*
X03297Y00222D03*
Y0012D03*
G54D43*
X04216Y01708D03*
Y01938D03*
X03649Y01385D03*
Y01155D03*
X03438Y01385D03*
Y01155D03*
G54D44*
X04649Y01417D03*
X04765D03*
X03142Y01454D03*
X03026D03*
G54D53*
X04761Y02816D03*
Y02738D03*
Y03625D03*
Y03547D03*
G54D54*
X04761Y02659D03*
Y03468D03*
G54D55*
X0422Y03775D03*
Y0409D03*
X03236Y03775D03*
Y0409D03*
X01921Y0409D03*
Y03775D03*
X02905Y0409D03*
Y03775D03*
G54D56*
X03892Y0409D03*
X03783D03*
X03674D03*
X03565D03*
X03946Y03978D03*
X03837D03*
X03728D03*
X03619D03*
X0351D03*
Y03712D03*
X03619D03*
X03728D03*
X03837D03*
X03946D03*
X03565Y03824D03*
X03674D03*
X03783D03*
X03892D03*
X02576Y03824D03*
X02467D03*
X02358D03*
X02249D03*
X02631Y03712D03*
X02522D03*
X02413D03*
X02304D03*
X02195D03*
Y03978D03*
X02304D03*
X02413D03*
X02522D03*
X02631D03*
X02249Y0409D03*
X02358D03*
X02467D03*
X02576D03*
G54D57*
X04675Y0042D03*
Y0082D03*
Y0122D03*
X03875Y0042D03*
Y0072D03*
Y0092D03*
X03586Y00127D03*
Y00324D03*
G54D58*
X02255Y00781D03*
X00355D03*
X0058Y01681D03*
X00057Y03028D03*
G54D59*
X02355Y00781D03*
X02255Y00881D03*
X02355D03*
X02255Y00981D03*
X02355D03*
X02255Y01081D03*
X02355D03*
X02255Y01181D03*
X02355D03*
X02255Y01281D03*
X02355D03*
X02255Y01381D03*
X02355D03*
X02255Y01481D03*
X02355D03*
X02255Y01581D03*
X02355D03*
X02255Y01681D03*
X02355D03*
X02255Y01781D03*
X02355D03*
X02255Y01881D03*
X02355D03*
X02255Y01981D03*
X02355D03*
X02255Y02081D03*
X02355D03*
X02255Y02181D03*
X02355D03*
X02255Y02281D03*
X02355D03*
X02255Y02381D03*
X02355D03*
X02255Y02481D03*
X02355D03*
X02255Y02581D03*
X02355D03*
X02255Y02681D03*
X02355D03*
X02255Y02781D03*
X02355D03*
X02255Y02881D03*
X02355D03*
X02255Y02981D03*
X02355D03*
X00455Y00781D03*
X00355Y00881D03*
X00455D03*
X00355Y00981D03*
X00455D03*
X00355Y01081D03*
X00455D03*
X00355Y01181D03*
X00455D03*
X00355Y01281D03*
X00455D03*
X00355Y01381D03*
X00455D03*
X00355Y01481D03*
X00455D03*
X00355Y01581D03*
X00455D03*
X00355Y01681D03*
X00455D03*
X00355Y01781D03*
X00455D03*
X00355Y01881D03*
X00455D03*
X00355Y01981D03*
X00455D03*
X00355Y02081D03*
X00455D03*
X00355Y02181D03*
X00455D03*
X00355Y02281D03*
X00455D03*
X00355Y02381D03*
X00455D03*
X00355Y02481D03*
X00455D03*
X00355Y02581D03*
X00455D03*
X00355Y02681D03*
X00455D03*
X00355Y02781D03*
X00455D03*
X00355Y02881D03*
X00455D03*
X00355Y02981D03*
X00455D03*
X0058Y01781D03*
Y01881D03*
Y01981D03*
Y02081D03*
Y02181D03*
X00057Y02528D03*
Y02628D03*
Y02728D03*
X00057Y02828D03*
X00057Y02928D03*
G54D60*
X02543Y00192D03*
X02744D03*
G54D61*
X02643Y007D03*
Y0085D03*
Y01D03*
G54D62*
X00057Y02023D03*
Y01923D03*
Y01823D03*
Y01623D03*
Y01723D03*
G54D63*
X00057Y01523D03*
G54D64*
X03449Y00127D03*
Y00324D03*
G54D65*
X00883Y03979D03*
X00993D03*
X01102D03*
X01211D03*
X0132D03*
X00938Y04091D03*
X01047D03*
X01156D03*
X01265D03*
G54D66*
X01594Y04035D03*
X00609D03*
G54D67*
X0473Y00141D03*
Y04133D03*
X00141D03*
Y00141D03*
M02*