%FSTAX23Y23*%
%MOIN*%
%SFA1B1*%

%IPPOS*%
%ADD47C,0.009842*%
%ADD49C,0.010000*%
%ADD50C,0.039370*%
%ADD53C,0.050000*%
%ADD54R,0.050000X0.050000*%
%ADD55C,0.140000*%
%ADD56C,0.070000*%
%ADD57C,0.078740*%
%ADD58R,0.065000X0.065000*%
%ADD59C,0.065000*%
%ADD60O,0.110236X0.129921*%
%ADD61O,0.118110X0.098425*%
%ADD62C,0.060000*%
%ADD63R,0.060000X0.060000*%
%ADD64R,0.078740X0.078740*%
%ADD65C,0.074409*%
%ADD66C,0.137795*%
%ADD67C,0.271654*%
%ADD68C,0.031496*%
%ADD69C,0.023622*%
%ADD70C,0.024000*%
%ADD71C,0.118110*%
%LNhardwarecontrollerpcb_copper_signal_bot-1*%
%LPD*%
G36*
X04742Y04393D02*
X04759Y04391D01*
X04775Y04386*
X0479Y0438*
X04805Y04372*
X04818Y04361*
X0483Y0435*
X0484Y04336*
X04848Y04322*
X04855Y04306*
X04859Y0429*
X04861Y04274*
X04861Y04266*
Y04266*
X04861Y00137*
Y00129*
X04859Y00112*
X04855Y00096*
X04848Y00081*
X0484Y00066*
X0483Y00053*
X04818Y00041*
X04805Y00031*
X0479Y00023*
X04775Y00016*
X04759Y00012*
X04742Y0001*
X04734*
X04125*
Y02021*
X04438Y02334*
X04443Y02332*
Y02203*
X04307Y02068*
X04303Y02061*
X043Y02054*
X04299Y02047*
Y01566*
X043Y01559*
X04303Y01552*
X04307Y01546*
X04394Y01459*
X044Y01454*
X04407Y01451*
X04415Y0145*
X04415*
X04606*
X04613Y01451*
X0462Y01454*
X04627Y01459*
X04631Y01465*
X04634Y01472*
X04635Y0148*
X04634Y01487*
X04631Y01495*
X04627Y01501*
X0462Y01505*
X04613Y01508*
X04606Y01509*
X04427*
X04358Y01579*
Y02035*
X04493Y0217*
X04497Y02176*
X045Y02183*
X04501Y0219*
Y0219*
Y02911*
X045Y02919*
X04497Y02926*
X04493Y02932*
X04401Y03024*
X04395Y03028*
X04388Y03031*
X0438Y03032*
X04243*
X04241Y03036*
X04241Y03037*
X04245Y03044*
X04247Y03052*
X04245Y03061*
X04241Y03068*
X04234Y03072*
X04225Y03074*
X04225Y03074*
X04165Y03134*
X0416Y03137*
X04155Y03138*
X04054*
X03944Y03248*
X03946Y03252*
X03946Y03253*
X03954Y03255*
X03961Y03259*
X03966Y03266*
X03968Y03275*
X03968Y03275*
X04043Y0335*
X04495*
X04496Y0335*
X04503Y03345*
X04511Y03343*
X04519Y03345*
X04526Y0335*
X04531Y03357*
X04533Y03365*
X04531Y03373*
X04526Y0338*
X04519Y03385*
X04511Y03387*
X04503Y03385*
X04496Y0338*
X04495Y0338*
X04037*
X04031Y03379*
X04026Y03375*
X03947Y03296*
X03946Y03296*
X03938Y03295*
X03931Y0329*
X03926Y03283*
X03924Y03275*
X03923Y03274*
X0392Y03273*
X03527Y03665*
X03528Y03671*
X03533Y03673*
X03542Y0368*
X03549Y0369*
X03554Y037*
X03555Y03712*
X03554Y03724*
X03549Y03734*
X03542Y03744*
X03533Y03751*
X03522Y03755*
X0351Y03757*
X03499Y03755*
X03488Y03751*
X03479Y03744*
X03472Y03734*
X03467Y03724*
X03466Y03712*
X03467Y037*
X03472Y0369*
X03479Y0368*
X03488Y03673*
X03496Y0367*
Y03661*
X03497Y03655*
X035Y03651*
X03958Y03193*
X03956Y03188*
X03956Y03188*
X03727*
X03719Y03187*
X03712Y03184*
X03706Y03179*
X03559Y03033*
X03554Y03026*
X03552Y03019*
X03551Y03012*
X03552Y03004*
X03554Y02997*
X03559Y02991*
X03565Y02986*
X03572Y02983*
X0358Y02982*
X03588Y02983*
X03595Y02986*
X03601Y02991*
X03739Y03129*
X03944*
X04023Y03049*
X0403Y03045*
X04037Y03042*
X04044Y03041*
X04125*
X04183Y02982*
X04189Y02977*
X04196Y02975*
X04204Y02974*
X04204*
X04368*
X04443Y02899*
Y02539*
X04438Y02537*
X04346Y02629*
X03507Y02629*
X03476Y02661*
Y03025*
X03374Y03127*
X0074Y03127*
X00486Y03381*
Y0386*
X00364Y03982*
X0001Y03982*
Y04265*
Y04274*
X00012Y0429*
X00016Y04306*
X00023Y04322*
X00031Y04336*
X00041Y0435*
X00053Y04361*
X00066Y04372*
X00081Y0438*
X00096Y04386*
X00112Y04391*
X00129Y04393*
X00137*
X04734*
X04742*
G37*
G36*
X02227Y03012D02*
X02225Y03011D01*
X02219Y03002*
X02215Y02992*
X02213Y02981*
X02215Y0297*
X02219Y02959*
X02225Y02952*
X02223Y02947*
X00863*
X00862Y02946*
X00859Y02951*
X00925Y03016*
X02225*
X02227Y03012*
G37*
G36*
X02644Y03043D02*
X02715Y02972D01*
Y02946*
X02714Y02946*
X0271Y02939*
X02708Y02931*
X0271Y02922*
X02714Y02915*
X02722Y02911*
X0273Y02909*
X02738Y02911*
X02745Y02915*
X0275Y02922*
X02751Y02931*
X0275Y02939*
X02745Y02946*
X02744Y02946*
Y02978*
X02743Y02983*
X0274Y02988*
X0269Y03038*
X02692Y03043*
X02745*
X02814Y02974*
Y02946*
X02813Y02946*
X02808Y02939*
X02807Y02931*
X02808Y02922*
X02813Y02915*
X0282Y02911*
X02828Y02909*
X02837Y02911*
X02844Y02915*
X02848Y02922*
X0285Y02931*
X02848Y02939*
X02844Y02946*
X02843Y02946*
Y0298*
X02842Y02985*
X02839Y0299*
X02791Y03038*
X02793Y03043*
X03336*
X03401Y02978*
X03401Y02629*
X03464Y02566*
X0433*
X04393Y02503*
X04393Y02368*
X04061Y02035*
X04061Y0001*
X01858*
Y00803*
X01858Y00803*
X01858Y00803*
X01858Y00808*
X01858Y00809*
Y00809*
X01856Y00818*
X01856Y00819*
X01855Y0082*
X01852Y00829*
X01851Y0083*
X01851Y00831*
X01846Y00838*
X01845Y00839*
X01844Y0084*
X01838Y00846*
X01837Y00847*
X01836Y00848*
X01829Y00853*
X01828Y00853*
X01827Y00854*
X01818Y00857*
X01817Y00857*
X01816Y00858*
X01807Y0086*
X01807*
X01806Y0086*
X01801Y0086*
X01801Y0086*
X01801Y0086*
X0111*
X01109Y0086*
X01109Y0086*
X01105Y0086*
X01104Y0086*
X01103*
X01094Y00858*
X01093Y00857*
X01092Y00857*
X01084Y00854*
X01083Y00853*
X01082Y00853*
X01074Y00848*
X01073Y00847*
X01073Y00846*
X01066Y0084*
X01065Y00839*
X01065Y00838*
X0106Y00831*
X01059Y0083*
X01059Y00829*
X01055Y0082*
X01055Y00819*
X01055Y00818*
X01053Y00809*
Y00809*
X01053Y00808*
X01052Y00803*
X01052Y00803*
X01052Y00803*
Y0001*
X00305*
Y00216*
X0022Y00301*
X0001*
Y02524*
X00015Y02525*
X00016Y02517*
X0002Y02507*
X00027Y02498*
X00035Y02491*
X00046Y02487*
X00057Y02486*
X00068Y02487*
X00078Y02491*
X00087Y02498*
X00093Y02507*
X00097Y02517*
X00099Y02528*
X00097Y02539*
X00093Y02549*
X00087Y02558*
X00078Y02564*
X00068Y02569*
X00057Y0257*
X00046Y02569*
X00035Y02564*
X00027Y02558*
X0002Y02549*
X00016Y02539*
X00015Y02531*
X0001Y02531*
Y02624*
X00015Y02625*
X00016Y02617*
X0002Y02607*
X00027Y02598*
X00035Y02591*
X00046Y02587*
X00057Y02586*
X00068Y02587*
X00078Y02591*
X00087Y02598*
X00093Y02607*
X00096Y02613*
X00321*
X00324Y02608*
X00319Y02602*
X00315Y02592*
X00313Y02581*
X00315Y0257*
X00319Y02559*
X00325Y02551*
X00334Y02544*
X00344Y0254*
X00355Y02538*
X00366Y0254*
X00377Y02544*
X00385Y02551*
X00392Y02559*
X00396Y0257*
X00398Y02581*
X00396Y02592*
X00392Y02602*
X00387Y02608*
X0039Y02613*
X00421*
X00424Y02608*
X00419Y02602*
X00415Y02592*
X00413Y02581*
X00415Y0257*
X00419Y02559*
X00425Y02551*
X00434Y02544*
X00444Y0254*
X00455Y02538*
X00466Y0254*
X00477Y02544*
X00485Y02551*
X00492Y02559*
X00496Y0257*
X00498Y02581*
X00496Y02592*
X00492Y02602*
X00487Y02608*
X0049Y02613*
X00501*
X00625Y02489*
Y02197*
X0062Y02196*
X00617Y02202*
X0061Y02211*
X00602Y02217*
X00595Y0222*
Y02259*
Y02259*
X00594Y02265*
X00591Y0227*
X00591*
X0052Y02341*
X00515Y02344*
X00509Y02345*
X00486*
X00484Y0235*
X00485Y02351*
X00492Y02359*
X00496Y0237*
X00498Y02381*
X00496Y02392*
X00492Y02402*
X00485Y02411*
X00477Y02417*
X00466Y02421*
X00455Y02423*
X00444Y02421*
X00434Y02417*
X00425Y02411*
X00419Y02402*
X00415Y02392*
X00413Y02381*
X00415Y0237*
X00419Y02359*
X00425Y02351*
X00427Y0235*
X00425Y02345*
X00386*
X00384Y0235*
X00385Y02351*
X00392Y02359*
X00396Y0237*
X00398Y02381*
X00396Y02392*
X00392Y02402*
X00385Y02411*
X00377Y02417*
X00366Y02421*
X00355Y02423*
X00344Y02421*
X00334Y02417*
X00325Y02411*
X00319Y02402*
X00315Y02392*
X00313Y02381*
X00315Y0237*
X00319Y02359*
X00325Y02351*
X00327Y0235*
X00325Y02345*
X00183*
X00182Y02346*
X00175Y0235*
X00167Y02352*
X00159Y0235*
X00151Y02346*
X00147Y02339*
X00145Y0233*
X00147Y02322*
X00151Y02315*
X00159Y0231*
X00167Y02309*
X00175Y0231*
X00182Y02315*
X00183Y02316*
X00324*
X00326Y02311*
X00325Y02311*
X00319Y02302*
X00315Y02292*
X00313Y02281*
X00315Y0227*
X00319Y02259*
X00325Y02251*
X00334Y02244*
X00344Y0224*
X00355Y02238*
X00366Y0224*
X00373Y02242*
X00396Y02219*
X00401Y02216*
X00406Y02215*
X00424*
X00425Y02213*
X00425Y0221*
X00419Y02202*
X00415Y02192*
X00413Y02181*
X00415Y0217*
X00417Y02163*
X00398Y02144*
X00384*
X00383Y02149*
X00385Y02151*
X00392Y02159*
X00396Y0217*
X00398Y02181*
X00396Y02192*
X00392Y02202*
X00385Y02211*
X00377Y02217*
X00366Y02221*
X00355Y02223*
X00344Y02221*
X00334Y02217*
X00325Y02211*
X00319Y02202*
X00316Y02195*
X0019*
X00185Y02194*
X0018Y02191*
X00107Y02118*
X00104Y02113*
X00103Y02108*
Y0199*
X00072Y01959*
X00067Y01962*
X00057Y01963*
X00046Y01962*
X00037Y01958*
X00028Y01951*
X00022Y01943*
X00018Y01933*
X00017Y01923*
X00018Y01913*
X00022Y01903*
X00028Y01895*
X00037Y01889*
X00046Y01885*
X00057Y01883*
X00067Y01885*
X00076Y01889*
X00085Y01895*
X00091Y01903*
X00095Y01913*
X00096Y01923*
X00095Y01933*
X00093Y01939*
X00128Y01974*
X00131Y01979*
X00132Y01984*
Y02102*
X00197Y02166*
X00316*
X00319Y02159*
X00325Y02151*
X00328Y02149*
X00326Y02144*
X00212*
X00212*
X00206Y02143*
X00202Y0214*
Y0214*
X00147Y02085*
X00143Y0208*
X00142Y02074*
Y0193*
X00072Y01859*
X00067Y01862*
X00057Y01863*
X00046Y01862*
X00037Y01858*
X00028Y01851*
X00022Y01843*
X00018Y01833*
X00017Y01823*
X00018Y01813*
X00022Y01803*
X00028Y01795*
X00037Y01789*
X00046Y01785*
X00057Y01783*
X00067Y01785*
X00076Y01789*
X00085Y01795*
X00091Y01803*
X00095Y01813*
X00096Y01823*
X00095Y01833*
X00093Y01839*
X00167Y01913*
X00171Y01918*
X00172Y01924*
Y02068*
X00218Y02115*
X00324*
X00325Y0211*
X00319Y02102*
X00315Y02092*
X00313Y02081*
X00315Y0207*
X00319Y02059*
X00325Y02051*
X00328Y02049*
X00326Y02044*
X00251*
X00246Y02043*
X00241Y02039*
X00188Y01986*
X00185Y01981*
X00184Y01976*
Y01871*
X00072Y01759*
X00067Y01762*
X00057Y01763*
X00046Y01762*
X00037Y01758*
X00028Y01751*
X00022Y01743*
X00018Y01733*
X00017Y01723*
X00018Y01713*
X00022Y01703*
X00028Y01695*
X00037Y01689*
X00046Y01685*
X00057Y01683*
X00067Y01685*
X00076Y01689*
X00085Y01695*
X00091Y01703*
X00095Y01713*
X00096Y01723*
X00095Y01733*
X00093Y01739*
X00209Y01854*
X00212Y01859*
X00213Y01865*
Y0197*
X00258Y02014*
X00323*
X00325Y02009*
X00319Y02002*
X00315Y01992*
X00313Y01981*
X00315Y0197*
X00319Y01959*
X00325Y01951*
X00334Y01944*
X00344Y0194*
X00355Y01938*
X00366Y0194*
X00373Y01942*
X00393Y01922*
X00398Y01919*
X00403Y01918*
X00427*
X00429Y01913*
X00425Y01911*
X00419Y01902*
X00415Y01892*
X00413Y01881*
X00415Y0187*
X00419Y01859*
X00425Y01851*
X00434Y01844*
X00444Y0184*
X00455Y01838*
X00466Y0184*
X00477Y01844*
X00485Y01851*
X00492Y01859*
X00496Y01868*
X00501Y01867*
Y01794*
X00496Y01793*
X00492Y01802*
X00485Y01811*
X00477Y01817*
X00466Y01821*
X00455Y01823*
X00444Y01821*
X00434Y01817*
X00425Y01811*
X00424Y01809*
X0042Y01811*
Y01831*
X00419Y01837*
X00415Y01841*
X00394Y01863*
X00396Y0187*
X00398Y01881*
X00396Y01892*
X00392Y01902*
X00385Y01911*
X00377Y01917*
X00366Y01921*
X00355Y01923*
X00344Y01921*
X00334Y01917*
X00325Y01911*
X00319Y01902*
X00315Y01892*
X00313Y01881*
X00315Y0187*
X00319Y01859*
X00325Y01851*
X00334Y01844*
X00344Y0184*
X00355Y01838*
X00366Y0184*
X00373Y01842*
X0039Y01825*
Y01812*
X00386Y0181*
X00385Y01811*
X00377Y01817*
X00366Y01821*
X00355Y01823*
X00344Y01821*
X00334Y01817*
X00325Y01811*
X00319Y01802*
X00315Y01792*
X00313Y01781*
X00315Y0177*
X00319Y01759*
X00325Y01751*
X00334Y01744*
X00344Y0174*
X00355Y01738*
X00366Y0174*
X00377Y01744*
X00385Y01751*
X00386Y01751*
X0039Y01749*
Y01712*
X00386Y0171*
X00385Y01711*
X00377Y01717*
X00366Y01721*
X00355Y01723*
X00344Y01721*
X00334Y01717*
X00325Y01711*
X00319Y01702*
X00315Y01692*
X00313Y01681*
X00315Y0167*
X00319Y01659*
X00325Y01651*
X00334Y01644*
X00344Y0164*
X00355Y01638*
X00366Y0164*
X00377Y01644*
X00385Y01651*
X00386Y01652*
X00391Y0165*
X00391Y01649*
X00395Y01645*
X00418Y01621*
X00423Y01618*
X00426Y01617*
X00427Y01612*
X00425Y01611*
X00419Y01602*
X00415Y01592*
X00413Y01581*
X00415Y0157*
X00419Y01559*
X00425Y01551*
X00428Y01549*
X00426Y01544*
X00404*
X00398Y01543*
X00393Y01539*
X00373Y01519*
X00366Y01521*
X00355Y01523*
X00344Y01521*
X00334Y01517*
X00325Y01511*
X00319Y01502*
X00315Y01492*
X00313Y01481*
X00315Y0147*
X00319Y01459*
X00325Y01451*
X00334Y01444*
X00344Y0144*
X00355Y01438*
X00366Y0144*
X00377Y01444*
X00385Y01451*
X00392Y01459*
X00396Y0147*
X00398Y01481*
X00396Y01492*
X00394Y01498*
X0041Y01514*
X00423*
X00425Y01509*
X00419Y01502*
X00415Y01492*
X00413Y01481*
X00415Y0147*
X00419Y01459*
X00425Y01451*
X00434Y01444*
X00444Y0144*
X00455Y01438*
X00466Y0144*
X00477Y01444*
X00485Y01451*
X00492Y01459*
X00496Y0147*
X00498Y01481*
X00496Y01492*
X00492Y01502*
X00486Y01509*
X00488Y01514*
X0058*
X00586Y01515*
X00591Y01519*
X00797Y01725*
X00799Y01725*
X00802Y01723*
Y01648*
X00473Y01319*
X00466Y01321*
X00455Y01323*
X00444Y01321*
X00434Y01317*
X00425Y01311*
X00419Y01302*
X00415Y01292*
X00413Y01281*
X00415Y0127*
X00419Y01259*
X00425Y01251*
X00434Y01244*
X00444Y0124*
X00455Y01238*
X00466Y0124*
X00477Y01244*
X00485Y01251*
X00492Y01259*
X00496Y0127*
X00498Y01281*
X00496Y01292*
X00494Y01298*
X00827Y01631*
X0083Y01636*
X00831Y01642*
Y02879*
X00869Y02917*
X02226*
X02228Y02912*
X02225Y02911*
X02219Y02902*
X02215Y02892*
X02213Y02881*
X02215Y0287*
X02219Y02859*
X02225Y02851*
X02234Y02844*
X02244Y0284*
X02255Y02838*
X02266Y0284*
X02277Y02844*
X02285Y02851*
X02292Y02859*
X02296Y0287*
X02298Y02881*
X02296Y02892*
X02292Y02902*
X02285Y02911*
X02283Y02912*
X02285Y02917*
X02326*
X02328Y02912*
X02325Y02911*
X02319Y02902*
X02315Y02892*
X02313Y02881*
X02315Y0287*
X02319Y02859*
X02325Y02851*
X02334Y02844*
X02344Y0284*
X02355Y02838*
X02366Y0284*
X02377Y02844*
X02385Y02851*
X02392Y02859*
X02396Y0287*
X02398Y02881*
X02396Y02892*
X02392Y02902*
X02385Y02911*
X02383Y02912*
X02385Y02917*
X02513*
X02514Y02917*
X02521Y02912*
X02529Y0291*
X02538Y02912*
X02545Y02917*
X02549Y02924*
X02551Y02932*
X02549Y0294*
X02545Y02947*
X02538Y02952*
X02529Y02954*
X02521Y02952*
X02514Y02947*
X02513Y02947*
X02387*
X02386Y02952*
X02392Y02959*
X02396Y0297*
X02398Y02981*
X02396Y02992*
X02392Y03002*
X02385Y03011*
X02384Y03012*
X02386Y03016*
X02568*
X02615Y02969*
Y02947*
X02614Y02947*
X0261Y0294*
X02608Y02932*
X0261Y02923*
X02614Y02916*
X02621Y02912*
X0263Y0291*
X02638Y02912*
X02645Y02916*
X0265Y02923*
X02651Y02932*
X0265Y0294*
X02645Y02947*
X02644Y02947*
Y02976*
X02643Y02981*
X0264Y02986*
X02588Y03038*
X0259Y03043*
X02644*
G37*
G36*
X00016Y02917D02*
X0002Y02907D01*
X00027Y02898*
X00035Y02891*
X00046Y02887*
X00057Y02886*
X00068Y02887*
X00078Y02891*
X00087Y02898*
X00093Y02907*
X00096Y02913*
X00321*
X00323Y02908*
X00318Y02902*
X00314Y02892*
X00314Y02888*
X00355*
X00397*
X00397Y02892*
X00393Y02902*
X00388Y02908*
X0039Y02913*
X00421*
X00423Y02908*
X00418Y02902*
X00414Y02892*
X00414Y02888*
X00455*
X00497*
X00497Y02892*
X00493Y02902*
X00488Y02908*
X0049Y02913*
X005*
X00684Y0273*
Y02577*
X00681Y02576*
X00679Y02575*
X00516Y02738*
X00511Y02741*
X00505Y02742*
X00483*
X00481Y02747*
X00485Y02751*
X00492Y02759*
X00496Y0277*
X00498Y02781*
X00496Y02792*
X00492Y02802*
X00485Y02811*
X00477Y02817*
X00466Y02821*
X00455Y02823*
X00444Y02821*
X00434Y02817*
X00425Y02811*
X00419Y02802*
X00415Y02792*
X00413Y02781*
X00415Y0277*
X00419Y02759*
X00425Y02751*
X0043Y02747*
X00428Y02742*
X00383*
X00381Y02747*
X00385Y02751*
X00392Y02759*
X00396Y0277*
X00398Y02781*
X00396Y02792*
X00392Y02802*
X00385Y02811*
X00377Y02817*
X00366Y02821*
X00355Y02823*
X00344Y02821*
X00334Y02817*
X00325Y02811*
X00319Y02802*
X00315Y02792*
X00313Y02781*
X00315Y0277*
X00319Y02759*
X00325Y02751*
X0033Y02747*
X00328Y02742*
X00096*
X00093Y02749*
X00087Y02758*
X00078Y02764*
X00068Y02769*
X00057Y0277*
X00046Y02769*
X00035Y02764*
X00027Y02758*
X0002Y02749*
X00016Y02739*
X00015Y02731*
X0001Y02731*
Y02824*
X00015Y02825*
X00016Y02817*
X0002Y02807*
X00027Y02798*
X00035Y02791*
X00046Y02787*
X00057Y02786*
X00068Y02787*
X00078Y02791*
X00087Y02798*
X00093Y02807*
X00097Y02817*
X00099Y02828*
X00097Y02839*
X00093Y02849*
X00087Y02858*
X00078Y02864*
X00068Y02869*
X00057Y0287*
X00046Y02869*
X00035Y02864*
X00027Y02858*
X0002Y02849*
X00016Y02839*
X00015Y02831*
X0001Y02831*
Y02924*
X00015Y02925*
X00016Y02917*
G37*
G36*
X00397Y03816D02*
Y03356D01*
X0071Y03043*
X00813*
X00815Y03038*
X00717Y02941*
X00714Y02936*
X00713Y02931*
Y02748*
X0071Y02747*
X00708Y02747*
X00517Y02938*
X00512Y02941*
X00506Y02943*
X00484*
X00482Y02948*
X00486Y0295*
X00493Y02959*
X00497Y0297*
X00497Y02973*
X00455*
X00414*
X00414Y0297*
X00418Y02959*
X00425Y0295*
X00429Y02948*
X00427Y02943*
X00384*
X00382Y02948*
X00386Y0295*
X00393Y02959*
X00397Y0297*
X00397Y02973*
X00355*
X00314*
X00314Y0297*
X00318Y02959*
X00325Y0295*
X00329Y02948*
X00327Y02943*
X00096*
X00093Y02949*
X00087Y02958*
X00078Y02964*
X00068Y02969*
X00057Y0297*
X00046Y02969*
X00035Y02964*
X00027Y02958*
X0002Y02949*
X00016Y02939*
X00015Y02931*
X0001Y02931*
Y02984*
X00014Y02985*
X00015*
X00049*
Y03028*
Y0307*
X00015*
X00014*
X0001Y03072*
Y03909*
X00305*
X00397Y03816*
G37*
G36*
X00016Y02717D02*
X0002Y02707D01*
X00027Y02698*
X00035Y02691*
X00046Y02687*
X00057Y02686*
X00068Y02687*
X00078Y02691*
X00087Y02698*
X00093Y02707*
X00096Y02713*
X00321*
X00324Y02708*
X00319Y02702*
X00315Y02692*
X00313Y02681*
X00315Y0267*
X00319Y02659*
X00325Y02651*
X0033Y02647*
X00328Y02642*
X00096*
X00093Y02649*
X00087Y02658*
X00078Y02664*
X00068Y02669*
X00057Y0267*
X00046Y02669*
X00035Y02664*
X00027Y02658*
X0002Y02649*
X00016Y02639*
X00015Y02631*
X0001Y02631*
Y02724*
X00015Y02725*
X00016Y02717*
G37*
G36*
X00654Y02558D02*
Y02508D01*
X00651Y02507*
X00649Y02506*
X00517Y02638*
X00513Y02641*
X00507Y02642*
X00483*
X00481Y02647*
X00485Y02651*
X00492Y02659*
X00496Y0267*
X00498Y02681*
X00496Y02692*
X00492Y02702*
X00487Y02708*
X0049Y02713*
X00499*
X00654Y02558*
G37*
G36*
X00491Y0215D02*
Y02111D01*
X00486Y0211*
X00485Y02111*
X00477Y02117*
X00466Y02121*
X00455Y02123*
X00444Y02121*
X00434Y02117*
X00425Y02111*
X00419Y02102*
X00415Y02092*
X00413Y02081*
X00415Y0207*
X00419Y02059*
X00425Y02051*
X00428Y02049*
X00426Y02044*
X00384*
X00383Y02049*
X00385Y02051*
X00392Y02059*
X00396Y0207*
X00398Y02081*
X00396Y02092*
X00392Y02102*
X00386Y0211*
X00387Y02115*
X00404*
X0041Y02116*
X00415Y02119*
X00438Y02142*
X00444Y0214*
X00455Y02138*
X00466Y0214*
X00477Y02144*
X00485Y02151*
X00486Y02152*
X00491Y0215*
G37*
G36*
X00566Y02253D02*
Y0222D01*
X00559Y02217*
X0055Y02211*
X00544Y02202*
X0054Y02192*
X00538Y02181*
X0054Y0217*
X00544Y02159*
X0055Y02151*
X00559Y02144*
X00569Y0214*
X0058Y02138*
X00591Y0214*
X00602Y02144*
X0061Y02151*
X00617Y02159*
X0062Y02166*
X00625Y02165*
Y02146*
X00598Y02119*
X00591Y02121*
X0058Y02123*
X00569Y02121*
X00559Y02117*
X0055Y02111*
X00544Y02102*
X0054Y02092*
X00538Y02081*
X0054Y0207*
X00544Y02059*
X0055Y02051*
X00559Y02044*
X00569Y0204*
X0058Y02038*
X00591Y0204*
X00602Y02044*
X0061Y02051*
X00617Y02059*
X00621Y0207*
X00623Y02081*
X00621Y02092*
X00619Y02098*
X00649Y02129*
X00651Y02128*
X00654Y02127*
Y02075*
X00598Y02019*
X00591Y02021*
X0058Y02023*
X00569Y02021*
X00559Y02017*
X0055Y02011*
X00544Y02002*
X0054Y01992*
X00538Y01981*
X0054Y0197*
X00544Y01959*
X0055Y01951*
X00559Y01944*
X00569Y0194*
X0058Y01938*
X00591Y0194*
X00602Y01944*
X0061Y01951*
X00617Y01959*
X00621Y0197*
X00623Y01981*
X00621Y01992*
X00619Y01998*
X00679Y02058*
X00681Y02058*
X00684Y02056*
Y01905*
X00598Y01819*
X00591Y01821*
X0058Y01823*
X00569Y01821*
X00559Y01817*
X0055Y01811*
X00544Y01802*
X0054Y01792*
X00538Y01781*
X0054Y0177*
X0054Y01768*
X00536Y01765*
X0053Y01771*
Y01897*
X0053Y01897*
X00529Y01903*
X00526Y01907*
X0049Y01943*
X00487Y01945*
X00486Y0195*
X00486Y01951*
X00492Y01959*
X00496Y0197*
X00498Y01981*
X00496Y01992*
X00492Y02002*
X00486Y0201*
X00486Y02013*
X00488Y02015*
X00489Y02015*
X00494Y02019*
X00516Y0204*
X00519Y02045*
X0052Y02051*
Y02051*
Y0221*
X00519Y02216*
X00516Y0222*
X00516*
X00496Y0224*
X00491Y02243*
X00486Y02244*
X00485*
X00483Y02249*
X00485Y02251*
X00492Y02259*
X00496Y0227*
X00498Y02281*
X00496Y02292*
X00492Y02302*
X00485Y02311*
X00485Y02311*
X00487Y02316*
X00503*
X00566Y02253*
G37*
G36*
X0071Y01887D02*
X00713Y01886D01*
Y01864*
X00627Y01778*
X00623Y0178*
X00623Y01781*
X00621Y01792*
X00619Y01798*
X00708Y01888*
X0071Y01887*
G37*
G36*
X0074Y01847D02*
X00743Y01845D01*
Y01769*
X00628Y01654*
X00623Y01656*
Y01673*
X0058*
X00538*
Y01646*
X00487*
X00486Y01648*
X00486Y01651*
X00492Y01659*
X00496Y0167*
X00498Y01681*
X00496Y01692*
X00492Y01702*
X00485Y01711*
X00477Y01717*
X00466Y01721*
X00455Y01723*
X00444Y01721*
X00434Y01717*
X00425Y01711*
X00424Y01709*
X0042Y01711*
Y0175*
X00424Y01752*
X00425Y01751*
X00434Y01744*
X00444Y0174*
X00455Y01738*
X00466Y0174*
X00477Y01744*
X00485Y01751*
X00492Y01759*
X00496Y01768*
X00501Y01767*
Y01765*
X00502Y0176*
X00505Y01755*
X00538Y01722*
Y01688*
X0058*
X00623*
Y01723*
X0062*
X00619Y01728*
X00738Y01847*
X0074Y01847*
G37*
G36*
X00769Y01752D02*
X00772Y01751D01*
Y01742*
X00574Y01544*
X00484*
X00483Y01549*
X00485Y01551*
X00492Y01559*
X00496Y0157*
X00498Y01581*
X00496Y01592*
X00492Y01602*
X00485Y01611*
X00483Y01612*
X00485Y01617*
X00625*
X00631Y01618*
X00636Y01621*
X00767Y01752*
X00769Y01752*
G37*
%LNhardwarecontrollerpcb_copper_signal_bot-2*%
%LPC*%
G36*
X03791Y04134D02*
Y04098D01*
X03827*
X03827Y04102*
X03822Y04113*
X03815Y04122*
X03806Y04129*
X03795Y04134*
X03791Y04134*
G37*
G36*
X03775D02*
X03771Y04134D01*
X0376Y04129*
X03751Y04122*
X03744Y04113*
X03739Y04102*
X03739Y04098*
X03775*
Y04134*
G37*
G36*
X02257Y04134D02*
Y04098D01*
X02294*
X02293Y04102*
X02289Y04113*
X02281Y04122*
X02272Y04129*
X02261Y04134*
X02257Y04134*
G37*
G36*
X02584D02*
Y04098D01*
X02621*
X0262Y04102*
X02616Y04113*
X02608Y04122*
X02599Y04129*
X02588Y04134*
X02584Y04134*
G37*
G36*
X02475D02*
Y04098D01*
X02512*
X02511Y04102*
X02507Y04113*
X02499Y04122*
X0249Y04129*
X02479Y04134*
X02475Y04134*
G37*
G36*
X02366D02*
Y04098D01*
X02403*
X02402Y04102*
X02398Y04113*
X0239Y04122*
X02381Y04129*
X0237Y04134*
X02366Y04134*
G37*
G36*
X02351D02*
X02347Y04134D01*
X02336Y04129*
X02326Y04122*
X02319Y04113*
X02315Y04102*
X02314Y04098*
X02351*
Y04134*
G37*
G36*
X02242D02*
X02238Y04134D01*
X02227Y04129*
X02217Y04122*
X0221Y04113*
X02206Y04102*
X02205Y04098*
X02242*
Y04134*
G37*
G36*
X02569D02*
X02565Y04134D01*
X02554Y04129*
X02544Y04122*
X02537Y04113*
X02533Y04102*
X02532Y04098*
X02569*
Y04134*
G37*
G36*
X0246D02*
X02456Y04134D01*
X02445Y04129*
X02435Y04122*
X02428Y04113*
X02424Y04102*
X02423Y04098*
X0246*
Y04134*
G37*
G36*
X03827Y04082D02*
X03791D01*
Y04046*
X03795Y04046*
X03806Y04051*
X03815Y04058*
X03822Y04067*
X03827Y04078*
X03827Y04082*
G37*
G36*
X03775D02*
X03739D01*
X03739Y04078*
X03744Y04067*
X03751Y04058*
X0376Y04051*
X03771Y04046*
X03775Y04046*
Y04082*
G37*
G36*
X02621Y04082D02*
X02584D01*
Y04045*
X02588Y04046*
X02599Y04051*
X02608Y04058*
X02616Y04067*
X0262Y04078*
X02621Y04082*
G37*
G36*
X02512D02*
X02475D01*
Y04045*
X02479Y04046*
X0249Y04051*
X02499Y04058*
X02507Y04067*
X02511Y04078*
X02512Y04082*
G37*
G36*
X02403D02*
X02366D01*
Y04045*
X0237Y04046*
X02381Y04051*
X0239Y04058*
X02398Y04067*
X02402Y04078*
X02403Y04082*
G37*
G36*
X02294D02*
X02257D01*
Y04045*
X02261Y04046*
X02272Y04051*
X02281Y04058*
X02289Y04067*
X02293Y04078*
X02294Y04082*
G37*
G36*
X02569D02*
X02532D01*
X02533Y04078*
X02537Y04067*
X02544Y04058*
X02554Y04051*
X02565Y04046*
X02569Y04045*
Y04082*
G37*
G36*
X0246D02*
X02423D01*
X02424Y04078*
X02428Y04067*
X02435Y04058*
X02445Y04051*
X02456Y04046*
X0246Y04045*
Y04082*
G37*
G36*
X02351D02*
X02314D01*
X02315Y04078*
X02319Y04067*
X02326Y04058*
X02336Y04051*
X02347Y04046*
X02351Y04045*
Y04082*
G37*
G36*
X02242D02*
X02205D01*
X02206Y04078*
X0221Y04067*
X02217Y04058*
X02227Y04051*
X02238Y04046*
X02242Y04045*
Y04082*
G37*
G36*
X03892Y04135D02*
X0388Y04133D01*
X0387Y04129*
X0386Y04122*
X03853Y04112*
X03849Y04102*
X03847Y0409*
X03849Y04078*
X03853Y04068*
X0386Y04058*
X0387Y04051*
X0388Y04047*
X03892Y04045*
X03904Y04047*
X03914Y04051*
X03924Y04058*
X03931Y04068*
X03935Y04078*
X03937Y0409*
X03935Y04102*
X03931Y04112*
X03924Y04122*
X03914Y04129*
X03904Y04133*
X03892Y04135*
G37*
G36*
X03674D02*
X03662Y04133D01*
X03652Y04129*
X03642Y04122*
X03635Y04112*
X03631Y04102*
X03629Y0409*
X03631Y04078*
X03635Y04068*
X03642Y04058*
X03652Y04051*
X03662Y04047*
X03674Y04045*
X03686Y04047*
X03696Y04051*
X03706Y04058*
X03713Y04068*
X03717Y04078*
X03719Y0409*
X03717Y04102*
X03713Y04112*
X03706Y04122*
X03696Y04129*
X03686Y04133*
X03674Y04135*
G37*
G36*
X03565D02*
X03553Y04133D01*
X03543Y04129*
X03533Y04122*
X03526Y04112*
X03522Y04102*
X0352Y0409*
X03522Y04078*
X03526Y04068*
X03533Y04058*
X03543Y04051*
X03553Y04047*
X03565Y04045*
X03577Y04047*
X03587Y04051*
X03597Y04058*
X03604Y04068*
X03608Y04078*
X0361Y0409*
X03608Y04102*
X03604Y04112*
X03597Y04122*
X03587Y04129*
X03577Y04133*
X03565Y04135*
G37*
G36*
X01265Y04138D02*
X01253Y04137D01*
X01242Y04132*
X01232Y04125*
X01224Y04115*
X0122Y04103*
X01218Y04091*
X0122Y04079*
X01224Y04068*
X01232Y04058*
X01242Y04051*
X01253Y04046*
X01265Y04044*
X01277Y04046*
X01289Y04051*
X01298Y04058*
X01306Y04068*
X01311Y04079*
X01312Y04091*
X01311Y04103*
X01306Y04115*
X01298Y04125*
X01289Y04132*
X01277Y04137*
X01265Y04138*
G37*
G36*
X01156D02*
X01144Y04137D01*
X01133Y04132*
X01123Y04125*
X01115Y04115*
X01111Y04103*
X01109Y04091*
X01111Y04079*
X01115Y04068*
X01123Y04058*
X01133Y04051*
X01144Y04046*
X01156Y04044*
X01168Y04046*
X0118Y04051*
X01189Y04058*
X01197Y04068*
X01202Y04079*
X01203Y04091*
X01202Y04103*
X01197Y04115*
X01189Y04125*
X0118Y04132*
X01168Y04137*
X01156Y04138*
G37*
G36*
X01047D02*
X01035Y04137D01*
X01024Y04132*
X01014Y04125*
X01006Y04115*
X01002Y04103*
X01Y04091*
X01002Y04079*
X01006Y04068*
X01014Y04058*
X01024Y04051*
X01035Y04046*
X01047Y04044*
X01059Y04046*
X01071Y04051*
X0108Y04058*
X01088Y04068*
X01092Y04079*
X01094Y04091*
X01092Y04103*
X01088Y04115*
X0108Y04125*
X01071Y04132*
X01059Y04137*
X01047Y04138*
G37*
G36*
X00938D02*
X00926Y04137D01*
X00914Y04132*
X00905Y04125*
X00897Y04115*
X00893Y04103*
X00891Y04091*
X00893Y04079*
X00897Y04068*
X00905Y04058*
X00914Y04051*
X00926Y04046*
X00938Y04044*
X0095Y04046*
X00962Y04051*
X00971Y04058*
X00979Y04068*
X00983Y04079*
X00985Y04091*
X00983Y04103*
X00979Y04115*
X00971Y04125*
X00962Y04132*
X0095Y04137*
X00938Y04138*
G37*
G36*
X0422Y0417D02*
X04205Y04168D01*
X0419Y04164*
X04176Y04156*
X04164Y04147*
X04154Y04134*
X04147Y04121*
X04142Y04106*
X04141Y0409*
X04142Y04074*
X04147Y0406*
X04154Y04046*
X04164Y04034*
X04176Y04024*
X0419Y04016*
X04205Y04012*
X0422Y0401*
X04236Y04012*
X04251Y04016*
X04265Y04024*
X04277Y04034*
X04287Y04046*
X04294Y0406*
X04299Y04074*
X043Y0409*
X04299Y04106*
X04294Y04121*
X04287Y04134*
X04277Y04147*
X04265Y04156*
X04251Y04164*
X04236Y04168*
X0422Y0417*
G37*
G36*
X03236D02*
X03221Y04168D01*
X03206Y04164*
X03192Y04156*
X0318Y04147*
X0317Y04134*
X03163Y04121*
X03158Y04106*
X03157Y0409*
X03158Y04074*
X03163Y0406*
X0317Y04046*
X0318Y04034*
X03192Y04024*
X03206Y04016*
X03221Y04012*
X03236Y0401*
X03252Y04012*
X03267Y04016*
X03281Y04024*
X03293Y04034*
X03303Y04046*
X0331Y0406*
X03315Y04074*
X03316Y0409*
X03315Y04106*
X0331Y04121*
X03303Y04134*
X03293Y04147*
X03281Y04156*
X03267Y04164*
X03252Y04168*
X03236Y0417*
G37*
G36*
X02905Y0417D02*
X02889Y04168D01*
X02874Y04164*
X02861Y04156*
X02848Y04146*
X02839Y04134*
X02831Y0412*
X02827Y04105*
X02825Y0409*
X02827Y04074*
X02831Y04059*
X02839Y04045*
X02848Y04033*
X02861Y04023*
X02874Y04016*
X02889Y04012*
X02905Y0401*
X0292Y04012*
X02935Y04016*
X02949Y04023*
X02961Y04033*
X02971Y04045*
X02979Y04059*
X02983Y04074*
X02985Y0409*
X02983Y04105*
X02979Y0412*
X02971Y04134*
X02961Y04146*
X02949Y04156*
X02935Y04164*
X0292Y04168*
X02905Y0417*
G37*
G36*
X01921D02*
X01905Y04168D01*
X0189Y04164*
X01877Y04156*
X01864Y04146*
X01855Y04134*
X01847Y0412*
X01843Y04105*
X01841Y0409*
X01843Y04074*
X01847Y04059*
X01855Y04045*
X01864Y04033*
X01877Y04023*
X0189Y04016*
X01905Y04012*
X01921Y0401*
X01936Y04012*
X01951Y04016*
X01965Y04023*
X01977Y04033*
X01987Y04045*
X01995Y04059*
X01999Y04074*
X02001Y0409*
X01999Y04105*
X01995Y0412*
X01987Y04134*
X01977Y04146*
X01965Y04156*
X01951Y04164*
X01936Y04168*
X01921Y0417*
G37*
G36*
X01109Y04026D02*
Y03987D01*
X01148*
X01148Y03992*
X01143Y04003*
X01135Y04013*
X01125Y04021*
X01114Y04025*
X01109Y04026*
G37*
G36*
X01218D02*
Y03987D01*
X01257*
X01257Y03992*
X01252Y04003*
X01244Y04013*
X01234Y04021*
X01223Y04025*
X01218Y04026*
G37*
G36*
X01328D02*
Y03987D01*
X01366*
X01366Y03992*
X01361Y04003*
X01353Y04013*
X01343Y04021*
X01332Y04025*
X01328Y04026*
G37*
G36*
X00891D02*
Y03987D01*
X0093*
X00929Y03992*
X00925Y04003*
X00917Y04013*
X00907Y04021*
X00896Y04025*
X00891Y04026*
G37*
G36*
X01312D02*
X01307Y04025D01*
X01296Y04021*
X01286Y04013*
X01278Y04003*
X01274Y03992*
X01273Y03987*
X01312*
Y04026*
G37*
G36*
X00876D02*
X00871Y04025D01*
X0086Y04021*
X0085Y04013*
X00842Y04003*
X00837Y03992*
X00837Y03987*
X00876*
Y04026*
G37*
G36*
X01203D02*
X01198Y04025D01*
X01187Y04021*
X01177Y04013*
X01169Y04003*
X01165Y03992*
X01164Y03987*
X01203*
Y04026*
G37*
G36*
X01094D02*
X01089Y04025D01*
X01078Y04021*
X01068Y04013*
X0106Y04003*
X01056Y03992*
X01055Y03987*
X01094*
Y04026*
G37*
G36*
X03736Y04022D02*
Y03986D01*
X03773*
X03772Y0399*
X03768Y04001*
X03761Y0401*
X03751Y04017*
X0374Y04022*
X03736Y04022*
G37*
G36*
X03721D02*
X03717Y04022D01*
X03706Y04017*
X03696Y0401*
X03689Y04001*
X03685Y0399*
X03684Y03986*
X03721*
Y04022*
G37*
G36*
X01594Y04114D02*
X01578Y04113D01*
X01564Y04108*
X0155Y04101*
X01538Y04091*
X01528Y04079*
X01521Y04066*
X01516Y04051*
X01515Y04035*
X01516Y0402*
X01521Y04005*
X01528Y03992*
X01538Y0398*
X0155Y0397*
X01564Y03963*
X01578Y03958*
X01594Y03957*
X01609Y03958*
X01624Y03963*
X01637Y0397*
X01649Y0398*
X01659Y03992*
X01666Y04005*
X01671Y0402*
X01672Y04035*
X01671Y04051*
X01666Y04066*
X01659Y04079*
X01649Y04091*
X01637Y04101*
X01624Y04108*
X01609Y04113*
X01594Y04114*
G37*
G36*
X00609D02*
X00594Y04113D01*
X00579Y04108*
X00566Y04101*
X00554Y04091*
X00544Y04079*
X00537Y04066*
X00532Y04051*
X00531Y04035*
X00532Y0402*
X00537Y04005*
X00544Y03992*
X00554Y0398*
X00566Y0397*
X00579Y03963*
X00594Y03958*
X00609Y03957*
X00625Y03958*
X0064Y03963*
X00653Y0397*
X00665Y0398*
X00675Y03992*
X00682Y04005*
X00687Y0402*
X00688Y04035*
X00687Y04051*
X00682Y04066*
X00675Y04079*
X00665Y04091*
X00653Y04101*
X0064Y04108*
X00625Y04113*
X00609Y04114*
G37*
G36*
X03773Y0397D02*
X03736D01*
Y03934*
X0374Y03934*
X03751Y03939*
X03761Y03946*
X03768Y03955*
X03772Y03966*
X03773Y0397*
G37*
G36*
X03721D02*
X03684D01*
X03685Y03966*
X03689Y03955*
X03696Y03946*
X03706Y03939*
X03717Y03934*
X03721Y03934*
Y0397*
G37*
G36*
X03946Y04023D02*
X03935Y04021D01*
X03924Y04017*
X03915Y0401*
X03908Y04*
X03903Y0399*
X03902Y03978*
X03903Y03966*
X03908Y03956*
X03915Y03946*
X03924Y03939*
X03935Y03935*
X03946Y03933*
X03958Y03935*
X03969Y03939*
X03978Y03946*
X03985Y03956*
X0399Y03966*
X03991Y03978*
X0399Y0399*
X03985Y04*
X03978Y0401*
X03969Y04017*
X03958Y04021*
X03946Y04023*
G37*
G36*
X03837D02*
X03826Y04021D01*
X03815Y04017*
X03806Y0401*
X03799Y04*
X03794Y0399*
X03793Y03978*
X03794Y03966*
X03799Y03956*
X03806Y03946*
X03815Y03939*
X03826Y03935*
X03837Y03933*
X03849Y03935*
X0386Y03939*
X03869Y03946*
X03876Y03956*
X03881Y03966*
X03882Y03978*
X03881Y0399*
X03876Y04*
X03869Y0401*
X0386Y04017*
X03849Y04021*
X03837Y04023*
G37*
G36*
X03619D02*
X03608Y04021D01*
X03597Y04017*
X03588Y0401*
X03581Y04*
X03576Y0399*
X03575Y03978*
X03576Y03966*
X03581Y03956*
X03588Y03946*
X03597Y03939*
X03608Y03935*
X03619Y03933*
X03631Y03935*
X03642Y03939*
X03651Y03946*
X03658Y03956*
X03663Y03966*
X03664Y03978*
X03663Y0399*
X03658Y04*
X03651Y0401*
X03642Y04017*
X03631Y04021*
X03619Y04023*
G37*
G36*
X0351D02*
X03499Y04021D01*
X03488Y04017*
X03479Y0401*
X03472Y04*
X03467Y0399*
X03466Y03978*
X03467Y03966*
X03472Y03956*
X03479Y03946*
X03488Y03939*
X03499Y03935*
X0351Y03933*
X03522Y03935*
X03533Y03939*
X03542Y03946*
X03549Y03956*
X03554Y03966*
X03555Y03978*
X03554Y0399*
X03549Y04*
X03542Y0401*
X03533Y04017*
X03522Y04021*
X0351Y04023*
G37*
G36*
X02631Y04023D02*
X02619Y04021D01*
X02608Y04017*
X02599Y0401*
X02592Y04*
X02588Y03989*
X02586Y03978*
X02588Y03966*
X02592Y03955*
X02599Y03946*
X02608Y03939*
X02619Y03935*
X02631Y03933*
X02642Y03935*
X02653Y03939*
X02663Y03946*
X0267Y03955*
X02674Y03966*
X02676Y03978*
X02674Y03989*
X0267Y04*
X02663Y0401*
X02653Y04017*
X02642Y04021*
X02631Y04023*
G37*
G36*
X02522D02*
X0251Y04021D01*
X02499Y04017*
X0249Y0401*
X02483Y04*
X02479Y03989*
X02477Y03978*
X02479Y03966*
X02483Y03955*
X0249Y03946*
X02499Y03939*
X0251Y03935*
X02522Y03933*
X02533Y03935*
X02544Y03939*
X02554Y03946*
X02561Y03955*
X02565Y03966*
X02567Y03978*
X02565Y03989*
X02561Y04*
X02554Y0401*
X02544Y04017*
X02533Y04021*
X02522Y04023*
G37*
G36*
X02413D02*
X02401Y04021D01*
X0239Y04017*
X02381Y0401*
X02374Y04*
X0237Y03989*
X02368Y03978*
X0237Y03966*
X02374Y03955*
X02381Y03946*
X0239Y03939*
X02401Y03935*
X02413Y03933*
X02424Y03935*
X02435Y03939*
X02445Y03946*
X02452Y03955*
X02456Y03966*
X02458Y03978*
X02456Y03989*
X02452Y04*
X02445Y0401*
X02435Y04017*
X02424Y04021*
X02413Y04023*
G37*
G36*
X02304D02*
X02292Y04021D01*
X02281Y04017*
X02272Y0401*
X02265Y04*
X02261Y03989*
X02259Y03978*
X02261Y03966*
X02265Y03955*
X02272Y03946*
X02281Y03939*
X02292Y03935*
X02304Y03933*
X02315Y03935*
X02326Y03939*
X02336Y03946*
X02343Y03955*
X02347Y03966*
X02349Y03978*
X02347Y03989*
X02343Y04*
X02336Y0401*
X02326Y04017*
X02315Y04021*
X02304Y04023*
G37*
G36*
X02195D02*
X02183Y04021D01*
X02172Y04017*
X02163Y0401*
X02156Y04*
X02152Y03989*
X0215Y03978*
X02152Y03966*
X02156Y03955*
X02163Y03946*
X02172Y03939*
X02183Y03935*
X02195Y03933*
X02206Y03935*
X02217Y03939*
X02227Y03946*
X02234Y03955*
X02238Y03966*
X0224Y03978*
X02238Y03989*
X02234Y04*
X02227Y0401*
X02217Y04017*
X02206Y04021*
X02195Y04023*
G37*
G36*
X01148Y03972D02*
X01109D01*
Y03933*
X01114Y03933*
X01125Y03938*
X01135Y03946*
X01143Y03956*
X01148Y03967*
X01148Y03972*
G37*
G36*
X01312D02*
X01273D01*
X01274Y03967*
X01278Y03956*
X01286Y03946*
X01296Y03938*
X01307Y03933*
X01312Y03933*
Y03972*
G37*
G36*
X00876D02*
X00837D01*
X00837Y03967*
X00842Y03956*
X0085Y03946*
X0086Y03938*
X00871Y03933*
X00876Y03933*
Y03972*
G37*
G36*
X01257D02*
X01218D01*
Y03933*
X01223Y03933*
X01234Y03938*
X01244Y03946*
X01252Y03956*
X01257Y03967*
X01257Y03972*
G37*
G36*
X01203D02*
X01164D01*
X01165Y03967*
X01169Y03956*
X01177Y03946*
X01187Y03938*
X01198Y03933*
X01203Y03933*
Y03972*
G37*
G36*
X01366D02*
X01328D01*
Y03933*
X01332Y03933*
X01343Y03938*
X01353Y03946*
X01361Y03956*
X01366Y03967*
X01366Y03972*
G37*
G36*
X0093D02*
X00891D01*
Y03933*
X00896Y03933*
X00907Y03938*
X00917Y03946*
X00925Y03956*
X00929Y03967*
X0093Y03972*
G37*
G36*
X01094D02*
X01055D01*
X01056Y03967*
X0106Y03956*
X01068Y03946*
X01078Y03938*
X01089Y03933*
X01094Y03933*
Y03972*
G37*
G36*
X00993Y04027D02*
X0098Y04025D01*
X00969Y0402*
X00959Y04013*
X00952Y04003*
X00947Y03992*
X00945Y03979*
X00947Y03967*
X00952Y03956*
X00959Y03946*
X00969Y03939*
X0098Y03934*
X00993Y03932*
X01005Y03934*
X01016Y03939*
X01026Y03946*
X01033Y03956*
X01038Y03967*
X0104Y03979*
X01038Y03992*
X01033Y04003*
X01026Y04013*
X01016Y0402*
X01005Y04025*
X00993Y04027*
G37*
G36*
X00698Y03899D02*
X00688Y03897D01*
X0068Y03892*
X00675Y03883*
X00673Y03874*
X00675Y03864*
X0068Y03855*
X00688Y0385*
X00698Y03848*
X00708Y0385*
X00716Y03855*
X00722Y03864*
X00724Y03874*
X00722Y03883*
X00716Y03892*
X00708Y03897*
X00698Y03899*
G37*
G36*
X039Y03868D02*
Y03832D01*
X03936*
X03936Y03836*
X03931Y03847*
X03924Y03856*
X03915Y03863*
X03904Y03868*
X039Y03868*
G37*
G36*
X03884D02*
X0388Y03868D01*
X03869Y03863*
X0386Y03856*
X03853Y03847*
X03848Y03836*
X03848Y03832*
X03884*
Y03868*
G37*
G36*
X02257Y03868D02*
Y03832D01*
X02294*
X02293Y03836*
X02289Y03847*
X02281Y03856*
X02272Y03863*
X02261Y03868*
X02257Y03868*
G37*
G36*
X02584D02*
Y03832D01*
X02621*
X0262Y03836*
X02616Y03847*
X02608Y03856*
X02599Y03863*
X02588Y03868*
X02584Y03868*
G37*
G36*
X02475D02*
Y03832D01*
X02512*
X02511Y03836*
X02507Y03847*
X02499Y03856*
X0249Y03863*
X02479Y03868*
X02475Y03868*
G37*
G36*
X02366D02*
Y03832D01*
X02403*
X02402Y03836*
X02398Y03847*
X0239Y03856*
X02381Y03863*
X0237Y03868*
X02366Y03868*
G37*
G36*
X02351D02*
X02347Y03868D01*
X02336Y03863*
X02326Y03856*
X02319Y03847*
X02315Y03836*
X02314Y03832*
X02351*
Y03868*
G37*
G36*
X02242D02*
X02238Y03868D01*
X02227Y03863*
X02217Y03856*
X0221Y03847*
X02206Y03836*
X02205Y03832*
X02242*
Y03868*
G37*
G36*
X02569D02*
X02565Y03868D01*
X02554Y03863*
X02544Y03856*
X02537Y03847*
X02533Y03836*
X02532Y03832*
X02569*
Y03868*
G37*
G36*
X0246D02*
X02456Y03868D01*
X02445Y03863*
X02435Y03856*
X02428Y03847*
X02424Y03836*
X02423Y03832*
X0246*
Y03868*
G37*
G36*
X03936Y03816D02*
X039D01*
Y0378*
X03904Y0378*
X03915Y03785*
X03924Y03792*
X03931Y03801*
X03936Y03812*
X03936Y03816*
G37*
G36*
X03884D02*
X03848D01*
X03848Y03812*
X03853Y03801*
X0386Y03792*
X03869Y03785*
X0388Y0378*
X03884Y0378*
Y03816*
G37*
G36*
X02621Y03816D02*
X02584D01*
Y03779*
X02588Y0378*
X02599Y03785*
X02608Y03792*
X02616Y03801*
X0262Y03812*
X02621Y03816*
G37*
G36*
X02512D02*
X02475D01*
Y03779*
X02479Y0378*
X0249Y03785*
X02499Y03792*
X02507Y03801*
X02511Y03812*
X02512Y03816*
G37*
G36*
X02403D02*
X02366D01*
Y03779*
X0237Y0378*
X02381Y03785*
X0239Y03792*
X02398Y03801*
X02402Y03812*
X02403Y03816*
G37*
G36*
X02294D02*
X02257D01*
Y03779*
X02261Y0378*
X02272Y03785*
X02281Y03792*
X02289Y03801*
X02293Y03812*
X02294Y03816*
G37*
G36*
X02569D02*
X02532D01*
X02533Y03812*
X02537Y03801*
X02544Y03792*
X02554Y03785*
X02565Y0378*
X02569Y03779*
Y03816*
G37*
G36*
X0246D02*
X02423D01*
X02424Y03812*
X02428Y03801*
X02435Y03792*
X02445Y03785*
X02456Y0378*
X0246Y03779*
Y03816*
G37*
G36*
X02351D02*
X02314D01*
X02315Y03812*
X02319Y03801*
X02326Y03792*
X02336Y03785*
X02347Y0378*
X02351Y03779*
Y03816*
G37*
G36*
X02242D02*
X02205D01*
X02206Y03812*
X0221Y03801*
X02217Y03792*
X02227Y03785*
X02238Y0378*
X02242Y03779*
Y03816*
G37*
G36*
X03783Y03869D02*
X03771Y03867D01*
X03761Y03863*
X03751Y03856*
X03744Y03846*
X0374Y03836*
X03738Y03824*
X0374Y03812*
X03744Y03802*
X03751Y03792*
X03761Y03785*
X03771Y03781*
X03783Y03779*
X03795Y03781*
X03805Y03785*
X03815Y03792*
X03822Y03802*
X03826Y03812*
X03828Y03824*
X03826Y03836*
X03822Y03846*
X03815Y03856*
X03805Y03863*
X03795Y03867*
X03783Y03869*
G37*
G36*
X03674D02*
X03662Y03867D01*
X03652Y03863*
X03642Y03856*
X03635Y03846*
X03631Y03836*
X03629Y03824*
X03631Y03812*
X03635Y03802*
X03642Y03792*
X03652Y03785*
X03662Y03781*
X03674Y03779*
X03686Y03781*
X03696Y03785*
X03706Y03792*
X03713Y03802*
X03717Y03812*
X03719Y03824*
X03717Y03836*
X03713Y03846*
X03706Y03856*
X03696Y03863*
X03686Y03867*
X03674Y03869*
G37*
G36*
X03565D02*
X03553Y03867D01*
X03543Y03863*
X03533Y03856*
X03526Y03846*
X03522Y03836*
X0352Y03824*
X03522Y03812*
X03526Y03802*
X03533Y03792*
X03543Y03785*
X03553Y03781*
X03565Y03779*
X03577Y03781*
X03587Y03785*
X03597Y03792*
X03604Y03802*
X03608Y03812*
X0361Y03824*
X03608Y03836*
X03604Y03846*
X03597Y03856*
X03587Y03863*
X03577Y03867*
X03565Y03869*
G37*
G36*
X03736Y03756D02*
Y0372D01*
X03773*
X03772Y03724*
X03768Y03735*
X03761Y03744*
X03751Y03751*
X0374Y03756*
X03736Y03756*
G37*
G36*
X03954D02*
Y0372D01*
X03991*
X0399Y03724*
X03986Y03735*
X03979Y03744*
X03969Y03751*
X03958Y03756*
X03954Y03756*
G37*
G36*
X03939D02*
X03935Y03756D01*
X03924Y03751*
X03914Y03744*
X03907Y03735*
X03903Y03724*
X03902Y0372*
X03939*
Y03756*
G37*
G36*
X03721D02*
X03717Y03756D01*
X03706Y03751*
X03696Y03744*
X03689Y03735*
X03685Y03724*
X03684Y0372*
X03721*
Y03756*
G37*
G36*
X0422Y03855D02*
X04205Y03853D01*
X0419Y03849*
X04176Y03841*
X04164Y03832*
X04154Y03819*
X04147Y03806*
X04142Y03791*
X04141Y03775*
X04142Y03759*
X04147Y03745*
X04154Y03731*
X04164Y03719*
X04176Y03709*
X0419Y03701*
X04205Y03697*
X0422Y03695*
X04236Y03697*
X04251Y03701*
X04265Y03709*
X04277Y03719*
X04287Y03731*
X04294Y03745*
X04299Y03759*
X043Y03775*
X04299Y03791*
X04294Y03806*
X04287Y03819*
X04277Y03832*
X04265Y03841*
X04251Y03849*
X04236Y03853*
X0422Y03855*
G37*
G36*
X03236D02*
X03221Y03853D01*
X03206Y03849*
X03192Y03841*
X0318Y03832*
X0317Y03819*
X03163Y03806*
X03158Y03791*
X03157Y03775*
X03158Y03759*
X03163Y03745*
X0317Y03731*
X0318Y03719*
X03192Y03709*
X03206Y03701*
X03221Y03697*
X03236Y03695*
X03252Y03697*
X03267Y03701*
X03281Y03709*
X03293Y03719*
X03303Y03731*
X0331Y03745*
X03315Y03759*
X03316Y03775*
X03315Y03791*
X0331Y03806*
X03303Y03819*
X03293Y03832*
X03281Y03841*
X03267Y03849*
X03252Y03853*
X03236Y03855*
G37*
G36*
X02905Y03855D02*
X02889Y03853D01*
X02874Y03849*
X02861Y03841*
X02848Y03831*
X02839Y03819*
X02831Y03805*
X02827Y0379*
X02825Y03775*
X02827Y03759*
X02831Y03744*
X02839Y0373*
X02848Y03718*
X02861Y03708*
X02874Y03701*
X02889Y03697*
X02905Y03695*
X0292Y03697*
X02935Y03701*
X02949Y03708*
X02961Y03718*
X02971Y0373*
X02979Y03744*
X02983Y03759*
X02985Y03775*
X02983Y0379*
X02979Y03805*
X02971Y03819*
X02961Y03831*
X02949Y03841*
X02935Y03849*
X0292Y03853*
X02905Y03855*
G37*
G36*
X01921D02*
X01905Y03853D01*
X0189Y03849*
X01877Y03841*
X01864Y03831*
X01855Y03819*
X01847Y03805*
X01843Y0379*
X01841Y03775*
X01843Y03759*
X01847Y03744*
X01855Y0373*
X01864Y03718*
X01877Y03708*
X0189Y03701*
X01905Y03697*
X01921Y03695*
X01936Y03697*
X01951Y03701*
X01965Y03708*
X01977Y03718*
X01987Y0373*
X01995Y03744*
X01999Y03759*
X02001Y03775*
X01999Y0379*
X01995Y03805*
X01987Y03819*
X01977Y03831*
X01965Y03841*
X01951Y03849*
X01936Y03853*
X01921Y03855*
G37*
G36*
X03991Y03704D02*
X03954D01*
Y03668*
X03958Y03668*
X03969Y03673*
X03979Y0368*
X03986Y03689*
X0399Y037*
X03991Y03704*
G37*
G36*
X03773D02*
X03736D01*
Y03668*
X0374Y03668*
X03751Y03673*
X03761Y0368*
X03768Y03689*
X03772Y037*
X03773Y03704*
G37*
G36*
X03939D02*
X03902D01*
X03903Y037*
X03907Y03689*
X03914Y0368*
X03924Y03673*
X03935Y03668*
X03939Y03668*
Y03704*
G37*
G36*
X03721D02*
X03684D01*
X03685Y037*
X03689Y03689*
X03696Y0368*
X03706Y03673*
X03717Y03668*
X03721Y03668*
Y03704*
G37*
G36*
X03837Y03757D02*
X03826Y03755D01*
X03815Y03751*
X03806Y03744*
X03799Y03734*
X03794Y03724*
X03793Y03712*
X03794Y037*
X03799Y0369*
X03806Y0368*
X03815Y03673*
X03826Y03669*
X03837Y03667*
X03849Y03669*
X0386Y03673*
X03869Y0368*
X03876Y0369*
X03881Y037*
X03882Y03712*
X03881Y03724*
X03876Y03734*
X03869Y03744*
X0386Y03751*
X03849Y03755*
X03837Y03757*
G37*
G36*
X03619D02*
X03608Y03755D01*
X03597Y03751*
X03588Y03744*
X03581Y03734*
X03576Y03724*
X03575Y03712*
X03576Y037*
X03581Y0369*
X03588Y0368*
X03597Y03673*
X03608Y03669*
X03619Y03667*
X03631Y03669*
X03642Y03673*
X03651Y0368*
X03658Y0369*
X03663Y037*
X03664Y03712*
X03663Y03724*
X03658Y03734*
X03651Y03744*
X03642Y03751*
X03631Y03755*
X03619Y03757*
G37*
G36*
X02631Y03757D02*
X02619Y03755D01*
X02608Y03751*
X02599Y03744*
X02592Y03734*
X02588Y03723*
X02586Y03712*
X02588Y037*
X02592Y03689*
X02599Y0368*
X02608Y03673*
X02619Y03669*
X02631Y03667*
X02642Y03669*
X02653Y03673*
X02663Y0368*
X0267Y03689*
X02674Y037*
X02676Y03712*
X02674Y03723*
X0267Y03734*
X02663Y03744*
X02653Y03751*
X02642Y03755*
X02631Y03757*
G37*
G36*
X01531Y0365D02*
X01521Y03648D01*
X01516Y03645*
X01511Y03648*
X01501Y0365*
X01492Y03648*
X01487Y03645*
X01482Y03648*
X01472Y0365*
X01462Y03648*
X01456Y03644*
X01452Y03643*
X01449Y03644*
X01442Y03648*
X01433Y0365*
X01423Y03648*
X01418Y03645*
X01413Y03648*
X01403Y0365*
X01393Y03648*
X01388Y03645*
X01383Y03648*
X01374Y0365*
X01364Y03648*
X01355Y03643*
X0135Y03634*
X01348Y03625*
X0135Y03615*
X01355Y03606*
X01364Y03601*
X01374Y03599*
X01383Y03601*
X01388Y03604*
X01393Y03601*
X01403Y03599*
X01413Y03601*
X01418Y03604*
X01423Y03601*
X01433Y03599*
X01442Y03601*
X01449Y03605*
X01452Y03606*
X01456Y03605*
X01462Y03601*
X01472Y03599*
X01482Y03601*
X01487Y03604*
X01492Y03601*
X01501Y03599*
X01511Y03601*
X01516Y03604*
X01521Y03601*
X01531Y03599*
X01541Y03601*
X01549Y03606*
X0155*
X0155Y03605*
X01559Y036*
X01568Y03598*
X01578Y036*
X01583Y03603*
X01588Y036*
X01598Y03598*
X01608Y036*
X01613Y03603*
X01618Y036*
X01627Y03598*
X01637Y036*
X01646Y03605*
X01651Y03614*
X01653Y03624*
X01651Y03633*
X01646Y03642*
X01637Y03647*
X01627Y03649*
X01618Y03647*
X01613Y03644*
X01608Y03647*
X01598Y03649*
X01588Y03647*
X01583Y03644*
X01578Y03647*
X01568Y03649*
X01559Y03647*
X0155Y03642*
X0155*
X01549Y03643*
X01541Y03648*
X01531Y0365*
G37*
G36*
X02522Y03757D02*
X0251Y03755D01*
X02499Y03751*
X0249Y03744*
X02483Y03734*
X02479Y03723*
X02477Y03712*
X02479Y037*
X02483Y03689*
X0249Y0368*
X02499Y03673*
X0251Y03669*
X02522Y03667*
X02533Y03669*
X02541Y03672*
X02611Y03602*
X02611Y036*
X02609Y03597*
X02549*
X02453Y03692*
X02456Y037*
X02458Y03712*
X02456Y03723*
X02452Y03734*
X02445Y03744*
X02435Y03751*
X02424Y03755*
X02413Y03757*
X02401Y03755*
X0239Y03751*
X02381Y03744*
X02374Y03734*
X0237Y03723*
X02368Y03712*
X0237Y037*
X02374Y03689*
X02381Y0368*
X0239Y03673*
X02401Y03669*
X02413Y03667*
X02424Y03669*
X02432Y03672*
X02532Y03572*
X02531Y0357*
X0253Y03567*
X02469*
X02344Y03692*
X02347Y037*
X02349Y03712*
X02347Y03723*
X02343Y03734*
X02336Y03744*
X02326Y03751*
X02315Y03755*
X02304Y03757*
X02292Y03755*
X02281Y03751*
X02272Y03744*
X02265Y03734*
X02261Y03723*
X02259Y03712*
X02261Y037*
X02265Y03689*
X02272Y0368*
X02281Y03673*
X02292Y03669*
X02304Y03667*
X02315Y03669*
X02323Y03672*
X02452Y03543*
X02452Y03541*
X0245Y03538*
X0239*
X02235Y03692*
X02238Y037*
X0224Y03712*
X02238Y03723*
X02234Y03734*
X02227Y03744*
X02217Y03751*
X02206Y03755*
X02195Y03757*
X02183Y03755*
X02172Y03751*
X02163Y03744*
X02156Y03734*
X02152Y03723*
X0215Y03712*
X02152Y037*
X02156Y03689*
X02163Y0368*
X02172Y03673*
X02183Y03669*
X02195Y03667*
X02206Y03669*
X02214Y03672*
X02373Y03513*
X02378Y0351*
X02384Y03508*
X03082*
X03083Y03508*
X0309Y03503*
X03098Y03501*
X03106Y03503*
X03113Y03508*
X03118Y03515*
X0312Y03523*
X03118Y03531*
X03113Y03538*
X03106Y03543*
X03098Y03545*
X03091Y03543*
X03088Y03546*
X03087Y03547*
X03088Y03553*
X03086Y03561*
X03082Y03568*
X03075Y03573*
X03066Y03574*
X0306Y03573*
X03056Y03576*
X03056Y03577*
X03057Y03582*
X03055Y0359*
X0305Y03598*
X03043Y03602*
X03035Y03604*
X03028Y03603*
X03025Y03605*
X03024Y03606*
X03025Y03612*
X03023Y0362*
X03019Y03627*
X03012Y03632*
X03003Y03633*
X02995Y03632*
X02988Y03627*
X02988Y03626*
X02628*
X02562Y03692*
X02565Y037*
X02567Y03712*
X02565Y03723*
X02561Y03734*
X02554Y03744*
X02544Y03751*
X02533Y03755*
X02522Y03757*
G37*
G36*
X04761Y0366D02*
X04752Y03659D01*
X04744Y03656*
X04737Y0365*
X04731Y03643*
X04728Y03634*
X04727Y03625*
X04728Y03616*
X04729Y03614*
X04588Y03472*
X04584Y03468*
X04583Y03462*
Y02389*
X04583Y02389*
X04578Y02382*
X04576Y02374*
X04578Y02365*
X04583Y02358*
X0459Y02353*
X04598Y02352*
X04605Y02353*
X04606Y02353*
X04611Y02351*
X04611Y02348*
X04616Y0234*
X04623Y02336*
X04631Y02334*
X0464Y02336*
X04647Y0234*
X04651Y02348*
X04653Y02356*
X04651Y02364*
X04647Y02371*
X04646Y02372*
Y03058*
X04759Y03171*
X04761Y03171*
X0477Y03172*
X04777Y03177*
X04781Y03184*
X04783Y03192*
X04781Y03201*
X04777Y03208*
X0477Y03212*
X04761Y03214*
X04753Y03212*
X04746Y03208*
X04741Y03201*
X0474Y03194*
X04621Y03075*
X04618Y0307*
X04618Y03069*
X04613Y03069*
Y03456*
X0475Y03593*
X04752Y03592*
X04761Y03591*
X0477Y03592*
X04779Y03595*
X04786Y03601*
X04791Y03608*
X04795Y03616*
X04796Y03625*
X04795Y03634*
X04791Y03643*
X04786Y0365*
X04779Y03656*
X0477Y03659*
X04761Y0366*
G37*
G36*
Y03581D02*
X04752Y0358D01*
X04744Y03577*
X04737Y03571*
X04731Y03564*
X04728Y03556*
X04727Y03547*
X04728Y03538*
X04731Y03529*
X04737Y03522*
X04744Y03517*
X04752Y03513*
X04761Y03512*
X0477Y03513*
X04779Y03517*
X04786Y03522*
X04791Y03529*
X04795Y03538*
X04796Y03547*
X04795Y03556*
X04791Y03564*
X04786Y03571*
X04779Y03577*
X0477Y0358*
X04761Y03581*
G37*
G36*
X0354Y03466D02*
X0353Y03464D01*
X03525Y03461*
X0352Y03464*
X0351Y03466*
X035Y03464*
X03495Y03461*
X0349Y03464*
X03481Y03466*
X03471Y03464*
X03462Y03459*
X03457Y0345*
X03455Y0344*
X03457Y03431*
X03462Y03422*
X03471Y03417*
X03481Y03415*
X0349Y03417*
X03495Y0342*
X035Y03417*
X0351Y03415*
X0352Y03417*
X03525Y0342*
X0353Y03417*
X0354Y03415*
X03549Y03417*
X03558Y03422*
X03563Y03431*
X03565Y0344*
X03563Y0345*
X03558Y03459*
X03549Y03464*
X0354Y03466*
G37*
G36*
X034D02*
X0339Y03464D01*
X03385Y03461*
X0338Y03464*
X0337Y03466*
X0336Y03464*
X03356Y03461*
X03351Y03464*
X03341Y03466*
X03331Y03464*
X03323Y03459*
X03317Y0345*
X03315Y0344*
X03317Y03431*
X03323Y03422*
X03331Y03417*
X03341Y03415*
X03351Y03417*
X03356Y0342*
X0336Y03417*
X0337Y03415*
X0338Y03417*
X03385Y0342*
X0339Y03417*
X034Y03415*
X0341Y03417*
X03418Y03422*
X03424Y03431*
X03426Y0344*
X03424Y0345*
X03418Y03459*
X0341Y03464*
X034Y03466*
G37*
G36*
X04796Y03502D02*
X04727D01*
Y03434*
X04796*
Y03502*
G37*
G36*
X03354Y03261D02*
X03346Y0326D01*
X03339Y03255*
X03334Y03248*
X03332Y0324*
X03334Y03231*
X03339Y03224*
X03346Y0322*
X03354Y03218*
X03362Y0322*
X03369Y03224*
X03374Y03231*
X03376Y0324*
X03374Y03248*
X03369Y03255*
X03362Y0326*
X03354Y03261*
G37*
G36*
X03253D02*
X03245Y0326D01*
X03238Y03255*
X03233Y03248*
X03232Y0324*
X03233Y03231*
X03238Y03224*
X03245Y0322*
X03253Y03218*
X03262Y0322*
X03269Y03224*
X03273Y03231*
X03275Y0324*
X03273Y03248*
X03269Y03255*
X03262Y0326*
X03253Y03261*
G37*
G36*
X03154Y03261D02*
X03146Y03259D01*
X03139Y03255*
X03134Y03248*
X03132Y03239*
X03134Y03231*
X03139Y03224*
X03146Y03219*
X03154Y03218*
X03162Y03219*
X03169Y03224*
X03174Y03231*
X03176Y03239*
X03174Y03248*
X03169Y03255*
X03162Y03259*
X03154Y03261*
G37*
G36*
X03054D02*
X03046Y03259D01*
X03039Y03255*
X03034Y03248*
X03032Y03239*
X03034Y03231*
X03039Y03224*
X03046Y03219*
X03054Y03218*
X03062Y03219*
X03069Y03224*
X03074Y03231*
X03076Y03239*
X03074Y03248*
X03069Y03255*
X03062Y03259*
X03054Y03261*
G37*
G36*
X0288Y0326D02*
X02871Y03259D01*
X02864Y03254*
X0286Y03247*
X02858Y03239*
X0286Y0323*
X02864Y03223*
X02871Y03219*
X0288Y03217*
X02888Y03219*
X02895Y03223*
X029Y0323*
X02901Y03239*
X029Y03247*
X02895Y03254*
X02888Y03259*
X0288Y0326*
G37*
G36*
X02779D02*
X02771Y03259D01*
X02764Y03254*
X02759Y03247*
X02758Y03239*
X02759Y0323*
X02764Y03223*
X02771Y03219*
X02779Y03217*
X02788Y03219*
X02795Y03223*
X02799Y0323*
X02801Y03239*
X02799Y03247*
X02795Y03254*
X02788Y03259*
X02779Y0326*
G37*
G36*
X02679D02*
X02671Y03259D01*
X02664Y03254*
X02659Y03247*
X02657Y03239*
X02659Y0323*
X02664Y03223*
X02671Y03219*
X02679Y03217*
X02687Y03219*
X02694Y03223*
X02699Y0323*
X02701Y03239*
X02699Y03247*
X02694Y03254*
X02687Y03259*
X02679Y0326*
G37*
G36*
X02578D02*
X0257Y03259D01*
X02563Y03254*
X02558Y03247*
X02557Y03239*
X02558Y0323*
X02563Y03223*
X0257Y03219*
X02578Y03217*
X02587Y03219*
X02594Y03223*
X02598Y0323*
X026Y03239*
X02598Y03247*
X02594Y03254*
X02587Y03259*
X02578Y0326*
G37*
G36*
X03958Y02981D02*
X03949Y0298D01*
X03942Y02975*
X03942Y02974*
X03841*
X03836Y02973*
X03831Y0297*
X03716Y02855*
X03716Y02855*
X03707Y02854*
X037Y02849*
X03696Y02842*
X03694Y02834*
X03696Y02826*
X03697Y02823*
X03695Y02819*
X03655*
X03654Y0282*
X03647Y02824*
X03639Y02826*
X03631Y02824*
X03624Y0282*
X03619Y02813*
X03617Y02804*
X03619Y02796*
X03624Y02789*
X03631Y02784*
X03638Y02783*
X0364Y02782*
X03643Y02779*
X03642Y02776*
X03644Y02767*
X03648Y0276*
X03655Y02756*
X03664Y02754*
X03672Y02756*
X03679Y0276*
X03679Y02761*
X03752*
X03757Y02762*
X03762Y02765*
X03832Y02835*
X03919*
X03921Y0283*
X0392Y0283*
X03914Y02822*
X03912Y02812*
X03914Y02802*
X0392Y02794*
X03928Y02788*
X03938Y02786*
X03948Y02788*
X03956Y02794*
X03962Y02802*
X03964Y02812*
X03962Y02822*
X03956Y0283*
X03956Y0283*
X03957Y02835*
X04216*
X04216Y02835*
X04223Y0283*
X04232Y02828*
X0424Y0283*
X04247Y02835*
X04252Y02842*
X04253Y0285*
X04252Y02858*
X04247Y02865*
X0424Y0287*
X04232Y02872*
X04223Y0287*
X04216Y02865*
X04216Y02865*
X03826*
X03824Y02864*
X03821Y02869*
X03872Y0292*
X03918*
X03919Y02919*
X03926Y02914*
X03934Y02913*
X03935Y02913*
X03963Y02884*
X03968Y02881*
X03973Y0288*
X04379*
X04379Y0288*
X04386Y02875*
X04395Y02873*
X04403Y02875*
X0441Y0288*
X04415Y02887*
X04416Y02895*
X04415Y02903*
X0441Y0291*
X04403Y02915*
X04395Y02917*
X04386Y02915*
X04379Y0291*
X04379Y02909*
X0398*
X03959Y02931*
X03959Y02937*
X0396Y02938*
X03966Y0294*
X03973Y02944*
X03978Y02951*
X03979Y0296*
X03978Y02968*
X03973Y02975*
X03966Y0298*
X03958Y02981*
G37*
G36*
X04761Y02851D02*
X04752Y0285D01*
X04744Y02847*
X04737Y02841*
X04731Y02834*
X04728Y02825*
X04727Y02816*
X04728Y02807*
X04731Y02799*
X04737Y02792*
X04744Y02786*
X04752Y02783*
X04761Y02782*
X0477Y02783*
X04779Y02786*
X04786Y02792*
X04791Y02799*
X04795Y02807*
X04796Y02816*
X04795Y02825*
X04791Y02834*
X04786Y02841*
X04779Y02847*
X0477Y0285*
X04761Y02851*
G37*
G36*
X04262Y02813D02*
X04252Y02811D01*
X04244Y02805*
X04239Y02797*
X04237Y02787*
X04239Y02777*
X04244Y02769*
X04252Y02763*
X04262Y02761*
X04272Y02763*
X0428Y02769*
X04286Y02777*
X04288Y02787*
X04286Y02797*
X0428Y02805*
X04272Y02811*
X04262Y02813*
G37*
G36*
X04761Y02772D02*
X04752Y02771D01*
X04744Y02768*
X04737Y02762*
X04731Y02755*
X04728Y02747*
X04727Y02738*
X04728Y02729*
X04731Y0272*
X04737Y02713*
X04744Y02708*
X04752Y02704*
X04761Y02703*
X0477Y02704*
X04779Y02708*
X04786Y02713*
X04791Y0272*
X04795Y02729*
X04796Y02738*
X04795Y02747*
X04791Y02755*
X04786Y02762*
X04779Y02768*
X0477Y02771*
X04761Y02772*
G37*
G36*
X04796Y02694D02*
X04769D01*
Y02667*
X04796*
Y02694*
G37*
G36*
X04753D02*
X04726D01*
Y02667*
X04753*
Y02694*
G37*
G36*
X03529Y02698D02*
X0352Y02696D01*
X03511Y02691*
X03506Y02683*
X03504Y02673*
X03506Y02663*
X03511Y02655*
X0352Y02649*
X03529Y02647*
X03539Y02649*
X03548Y02655*
X03553Y02663*
X03555Y02673*
X03553Y02683*
X03548Y02691*
X03539Y02696*
X03529Y02698*
G37*
G36*
X04796Y02651D02*
X04769D01*
Y02624*
X04796*
Y02651*
G37*
G36*
X04753D02*
X04726D01*
Y02624*
X04753*
Y02651*
G37*
G36*
X0459Y02137D02*
X0458Y02135D01*
X04574Y02131*
X0457Y0213*
X04567Y02131*
X04561Y02135*
X04551Y02137*
X04541Y02135*
X04535Y02131*
X04531Y0213*
X04527Y02131*
X04521Y02135*
X04511Y02137*
X04501Y02135*
X04493Y0213*
X04488Y02122*
X04486Y02112*
X04488Y02102*
X04493Y02094*
X04488Y02086*
X04486Y02076*
X04487Y02069*
X04484Y02069*
X04475Y02063*
X0447Y02055*
X04468Y02045*
X0447Y02035*
X04475Y02027*
X04484Y02021*
X04494Y02019*
X04503Y02021*
X04508Y02024*
X04512Y02026*
X04516Y02024*
X04521Y02021*
X04531Y02019*
X04541Y02021*
X04547Y02025*
X04551Y02026*
X04554Y02025*
X04561Y02021*
X0457Y02019*
X0458Y02021*
X04589Y02027*
X04594Y02025*
X046Y02021*
X0461Y02019*
X0462Y02021*
X04628Y02027*
X04633Y02035*
X04635Y02045*
X04633Y02055*
X04628Y02063*
X0462Y02069*
X04614Y0207*
X04616Y02076*
X04614Y02086*
X04609Y02094*
X04614Y02102*
X04616Y02112*
X04614Y02122*
X04608Y0213*
X046Y02135*
X0459Y02137*
G37*
G36*
X04675Y01269D02*
X04663Y01268D01*
X04651Y01263*
X04641Y01255*
X04633Y01245*
X04628Y01233*
X04626Y0122*
X04628Y01207*
X04633Y01195*
X04641Y01185*
X04651Y01177*
X04663Y01172*
X04675Y01171*
X04688Y01172*
X047Y01177*
X0471Y01185*
X04718Y01195*
X04723Y01207*
X04725Y0122*
X04723Y01233*
X04718Y01245*
X0471Y01255*
X047Y01263*
X04688Y01268*
X04675Y01269*
G37*
G36*
Y00869D02*
X04663Y00868D01*
X04651Y00863*
X04641Y00855*
X04633Y00845*
X04628Y00833*
X04626Y0082*
X04628Y00807*
X04633Y00795*
X04641Y00785*
X04651Y00777*
X04663Y00772*
X04675Y00771*
X04688Y00772*
X047Y00777*
X0471Y00785*
X04718Y00795*
X04723Y00807*
X04725Y0082*
X04723Y00833*
X04718Y00845*
X0471Y00855*
X047Y00863*
X04688Y00868*
X04675Y00869*
G37*
G36*
X04683Y00469D02*
Y00428D01*
X04724*
X04724Y00433*
X04719Y00445*
X04711Y00455*
X047Y00463*
X04688Y00468*
X04683Y00469*
G37*
G36*
X04668D02*
X04663Y00468D01*
X04651Y00463*
X0464Y00455*
X04632Y00445*
X04627Y00433*
X04627Y00428*
X04668*
Y00469*
G37*
G36*
X04724Y00412D02*
X04683D01*
Y00371*
X04688Y00372*
X047Y00377*
X04711Y00385*
X04719Y00395*
X04724Y00407*
X04724Y00412*
G37*
G36*
X04668D02*
X04627D01*
X04627Y00407*
X04632Y00395*
X0464Y00385*
X04651Y00377*
X04663Y00372*
X04668Y00371*
Y00412*
G37*
G36*
X02879Y02954D02*
X02871Y02952D01*
X02864Y02947*
X02859Y0294*
X02858Y02932*
X02859Y02924*
X02864Y02917*
X02871Y02912*
X02879Y0291*
X02888Y02912*
X02895Y02917*
X02899Y02924*
X02901Y02932*
X02899Y0294*
X02895Y02947*
X02888Y02952*
X02879Y02954*
G37*
G36*
X02779D02*
X02771Y02952D01*
X02764Y02947*
X02759Y0294*
X02757Y02932*
X02759Y02924*
X02764Y02917*
X02771Y02912*
X02779Y0291*
X02787Y02912*
X02794Y02917*
X02799Y02924*
X02801Y02932*
X02799Y0294*
X02794Y02947*
X02787Y02952*
X02779Y02954*
G37*
G36*
X02678D02*
X0267Y02952D01*
X02663Y02947*
X02658Y0294*
X02657Y02932*
X02658Y02924*
X02663Y02917*
X0267Y02912*
X02678Y0291*
X02687Y02912*
X02694Y02917*
X02698Y02924*
X027Y02932*
X02698Y0294*
X02694Y02947*
X02687Y02952*
X02678Y02954*
G37*
G36*
X02578D02*
X0257Y02952D01*
X02563Y02947*
X02558Y0294*
X02556Y02932*
X02558Y02924*
X02563Y02917*
X0257Y02912*
X02578Y0291*
X02586Y02912*
X02593Y02917*
X02598Y02924*
X026Y02932*
X02598Y0294*
X02593Y02947*
X02586Y02952*
X02578Y02954*
G37*
G36*
X03155Y02952D02*
X03146Y0295D01*
X03139Y02945*
X03135Y02938*
X03133Y0293*
X03135Y02922*
X03139Y02915*
X03146Y0291*
X03155Y02908*
X03163Y0291*
X0317Y02915*
X03175Y02922*
X03176Y0293*
X03175Y02938*
X0317Y02945*
X03163Y0295*
X03155Y02952*
G37*
G36*
X03354Y0295D02*
X03346Y02949D01*
X03339Y02944*
X03334Y02937*
X03332Y02929*
X03334Y0292*
X03339Y02913*
X03346Y02909*
X03354Y02907*
X03362Y02909*
X03369Y02913*
X03374Y0292*
X03376Y02929*
X03374Y02937*
X03369Y02944*
X03362Y02949*
X03354Y0295*
G37*
G36*
X03253D02*
X03245Y02949D01*
X03238Y02944*
X03233Y02937*
X03232Y02929*
X03233Y0292*
X03238Y02913*
X03245Y02909*
X03253Y02907*
X03262Y02909*
X03269Y02913*
X03273Y0292*
X03275Y02929*
X03273Y02937*
X03269Y02944*
X03262Y02949*
X03253Y0295*
G37*
G36*
X03053D02*
X03044Y02949D01*
X03037Y02944*
X03033Y02937*
X03031Y02929*
X03033Y0292*
X03037Y02913*
X03044Y02909*
X03053Y02907*
X03057Y02908*
X0306Y02903*
X02801Y02644*
X02384*
X02383Y02649*
X02385Y02651*
X02392Y02659*
X02396Y0267*
X02398Y02681*
X02396Y02692*
X02392Y02702*
X02386Y0271*
X02386Y02713*
X02387Y02715*
X02807*
X02812Y02716*
X02817Y02719*
X03003Y02905*
X03003Y02905*
X03012Y02907*
X03019Y02911*
X03023Y02918*
X03025Y02927*
X03023Y02935*
X03019Y02942*
X03012Y02947*
X03003Y02948*
X02995Y02947*
X02988Y02942*
X02983Y02935*
X02982Y02927*
X02982Y02926*
X02801Y02744*
X02385*
X02383Y02749*
X02385Y02751*
X02392Y02759*
X02396Y0277*
X02398Y02781*
X02396Y02792*
X02392Y02802*
X02385Y02811*
X02377Y02817*
X02366Y02821*
X02355Y02823*
X02344Y02821*
X02334Y02817*
X02325Y02811*
X02319Y02802*
X02315Y02792*
X02313Y02781*
X02315Y0277*
X02319Y02759*
X02325Y02751*
X02327Y02749*
X02326Y02744*
X02285*
X02283Y02749*
X02285Y02751*
X02292Y02759*
X02296Y0277*
X02298Y02781*
X02296Y02792*
X02292Y02802*
X02285Y02811*
X02277Y02817*
X02266Y02821*
X02255Y02823*
X02244Y02821*
X02234Y02817*
X02225Y02811*
X02219Y02802*
X02215Y02792*
X02213Y02781*
X02215Y0277*
X02219Y02759*
X02225Y02751*
X02227Y02749*
X02226Y02744*
X02222Y02743*
X02217Y0274*
X02135Y02657*
X02132Y02653*
X02131Y02647*
Y01533*
X02132Y01527*
X02135Y01523*
X02187Y0147*
X02192Y01467*
X02198Y01466*
X02216*
X02219Y01459*
X02225Y01451*
X02234Y01444*
X02244Y0144*
X02255Y01438*
X02266Y0144*
X02277Y01444*
X02285Y01451*
X02292Y01459*
X02296Y0147*
X02298Y01481*
X02296Y01492*
X02292Y01502*
X02285Y01511*
X02284Y01512*
X02286Y01516*
X02299*
X02317Y01498*
X02315Y01492*
X02313Y01481*
X02315Y0147*
X02319Y01459*
X02325Y01451*
X02334Y01444*
X02344Y0144*
X02355Y01438*
X02366Y0144*
X02377Y01444*
X02385Y01451*
X02389Y01456*
X02394Y01454*
Y01407*
X02389Y01405*
X02385Y01411*
X02377Y01417*
X02366Y01421*
X02355Y01423*
X02344Y01421*
X02334Y01417*
X02325Y01411*
X02319Y01402*
X02315Y01392*
X02313Y01381*
X02315Y0137*
X02319Y01359*
X02325Y01351*
X02334Y01344*
X02344Y0134*
X02355Y01338*
X02366Y0134*
X02377Y01344*
X02385Y01351*
X02389Y01356*
X02394Y01354*
Y01307*
X02389Y01305*
X02385Y01311*
X02377Y01317*
X02366Y01321*
X02355Y01323*
X02344Y01321*
X02334Y01317*
X02325Y01311*
X02319Y01302*
X02315Y01292*
X02313Y01281*
X02315Y0127*
X02319Y01259*
X02325Y01251*
X02327Y01249*
X02326Y01244*
X02305*
X02305Y01244*
X02299Y01243*
X02294Y0124*
X02273Y01219*
X02266Y01221*
X02255Y01223*
X02244Y01221*
X02234Y01217*
X02225Y01211*
X02219Y01202*
X02216Y01195*
X02202*
X02197Y01194*
X02192Y01191*
X0195Y00949*
X0049*
X00488Y00954*
X00492Y00959*
X00496Y0097*
X00498Y00981*
X00496Y00992*
X00492Y01002*
X00485Y01011*
X00477Y01017*
X00466Y01021*
X00455Y01023*
X00444Y01021*
X00434Y01017*
X00425Y01011*
X00419Y01002*
X00415Y00992*
X00413Y00981*
X00415Y0097*
X00419Y00959*
X00423Y00954*
X0042Y00949*
X0039*
X00388Y00954*
X00392Y00959*
X00396Y0097*
X00398Y00981*
X00396Y00992*
X00392Y01002*
X00385Y01011*
X00377Y01017*
X00366Y01021*
X00355Y01023*
X00344Y01021*
X00334Y01017*
X00325Y01011*
X00319Y01002*
X00315Y00992*
X00313Y00981*
X00315Y0097*
X00319Y00959*
X00323Y00954*
X0032Y00949*
X00275*
X00275Y0095*
X00268Y00955*
X00259Y00956*
X00251Y00955*
X00244Y0095*
X00239Y00943*
X00238Y00935*
X00239Y00926*
X00244Y00919*
X00251Y00915*
X00259Y00913*
X00268Y00915*
X00275Y00919*
X00275Y0092*
X00329*
X00331Y00915*
X00325Y00911*
X00319Y00902*
X00315Y00892*
X00313Y00881*
X00315Y0087*
X00319Y00859*
X00325Y00851*
X00334Y00844*
X00344Y0084*
X00355Y00838*
X00366Y0084*
X00377Y00844*
X00385Y00851*
X00392Y00859*
X00396Y0087*
X00398Y00881*
X00396Y00892*
X00392Y00902*
X00385Y00911*
X0038Y00915*
X00381Y0092*
X00429*
X00431Y00915*
X00425Y00911*
X00419Y00902*
X00415Y00892*
X00413Y00881*
X00415Y0087*
X00419Y00859*
X00425Y00851*
X00434Y00844*
X00444Y0084*
X00455Y00838*
X00466Y0084*
X00477Y00844*
X00485Y00851*
X00492Y00859*
X00496Y0087*
X00498Y00881*
X00496Y00892*
X00492Y00902*
X00485Y00911*
X0048Y00915*
X00481Y0092*
X00713*
X00715Y00917*
X00715Y00915*
X00258Y00458*
X00257Y00458*
X00249Y00457*
X00242Y00452*
X00237Y00445*
X00236Y00437*
X00237Y00428*
X00242Y00421*
X00249Y00416*
X00257Y00415*
X00266Y00416*
X00273Y00421*
X00277Y00428*
X00279Y00437*
X00279Y00437*
X00732Y0089*
X01968*
X01974Y00891*
X01978Y00895*
X02198Y01115*
X02224*
X02225Y0111*
X02219Y01102*
X02215Y01092*
X02213Y01081*
X02215Y0107*
X02219Y01059*
X02225Y01051*
X02234Y01044*
X02244Y0104*
X02255Y01038*
X02266Y0104*
X02273Y01042*
X02297Y01019*
Y01019*
X02301Y01015*
X02307Y01014*
X02323*
X02325Y01009*
X02319Y01002*
X02315Y00992*
X02313Y00981*
X02315Y0097*
X02319Y00959*
X02325Y00951*
X02334Y00944*
X02344Y0094*
X02355Y00938*
X02366Y0094*
X02377Y00944*
X02385Y00951*
X02392Y00959*
X02396Y0097*
X02398Y00981*
X02396Y00992*
X02392Y01002*
X02385Y01011*
X02385Y01011*
X02386Y01016*
X0239Y01019*
X02417Y01046*
X02421Y01051*
X02422Y01057*
Y01131*
X02512Y01221*
X02515Y01226*
X02516Y01232*
Y01308*
X0272Y01513*
X02724Y01518*
X02725Y01523*
X02725*
Y01913*
X02725Y01913*
X0273Y0192*
X02732Y01929*
X0273Y01937*
X02725Y01944*
X02718Y01949*
X0271Y0195*
X02702Y01949*
X02696Y01945*
X02691Y01947*
Y02403*
X02692Y02403*
X02697Y0241*
X02698Y02419*
X02697Y02427*
X02692Y02434*
X02685Y02439*
X02677Y0244*
X02668Y02439*
X02661Y02434*
X02657Y02427*
X02655Y02419*
X02657Y0241*
X02661Y02403*
X02662Y02403*
Y02388*
X02658Y02386*
X02655Y02387*
X02647Y02389*
X02639Y02387*
X02632Y02383*
X02627Y02376*
X02625Y02367*
X02627Y02359*
X02632Y02352*
X02632Y02352*
Y02339*
X02628Y02337*
X02626Y02338*
X02618Y0234*
X02609Y02338*
X02602Y02334*
X02598Y02327*
X02596Y02318*
X02598Y0231*
X02602Y02303*
X02603Y02303*
Y01881*
X02602Y01881*
X02598Y01874*
X02596Y01866*
X02598Y01857*
X02602Y0185*
X02609Y01846*
X02618Y01844*
X02626Y01846*
X02626Y01845*
X02629Y01842*
X02627Y01839*
X02625Y0183*
X02627Y01822*
X02632Y01815*
X02639Y0181*
X02647Y01809*
X02655Y0181*
X02662Y01815*
X02667Y01822*
X02669Y0183*
X02667Y01839*
X02662Y01846*
X02662Y01846*
Y01876*
X02666Y01879*
X02668Y01877*
X02677Y01875*
X02685Y01877*
X0269Y01881*
X02695Y01879*
Y01778*
X0269Y01776*
X02685Y01779*
X02677Y01781*
X02668Y01779*
X02661Y01775*
X02657Y01768*
X02655Y01759*
X02657Y01751*
X02661Y01744*
X02662Y01744*
Y01533*
X02464Y01335*
X0246Y0133*
X02459Y01324*
Y01254*
X02401Y01195*
X02395*
X02392Y01202*
X02385Y01211*
X02385Y01211*
X02386Y01216*
X02387Y01216*
X02392Y01219*
X02419Y01247*
X02422Y01252*
X02424Y01257*
Y0168*
X02545Y01802*
X02548Y01807*
X0255Y01812*
Y02253*
X0255Y02254*
X02555Y02261*
X02557Y02269*
X02555Y02277*
X0255Y02285*
X02543Y02289*
X02535Y02291*
X02527Y02289*
X0252Y02285*
X02515Y02277*
X02513Y02269*
X02515Y02261*
X0252Y02254*
X0252Y02253*
Y02202*
X02516Y02199*
X02514Y02201*
X02505Y02202*
X02497Y02201*
X02495Y02199*
X02491Y02202*
Y02222*
X02491Y02222*
X02496Y02229*
X02498Y02238*
X02496Y02246*
X02491Y02253*
X02484Y02258*
X02476Y02259*
X02468Y02258*
X02461Y02253*
X02456Y02246*
X02454Y02238*
X02456Y02229*
X02461Y02222*
X02461Y02222*
Y01996*
X02461Y01996*
X02456Y01989*
X02454Y01981*
X02456Y01972*
X02461Y01965*
X02468Y01961*
X02476Y01959*
X02484Y01961*
X02486Y01962*
X02491Y0196*
Y01836*
X02399Y01744*
X02385*
X02383Y01749*
X02385Y01751*
X02392Y01759*
X02396Y0177*
X02398Y01781*
X02396Y01792*
X02392Y01802*
X02385Y01811*
X02377Y01817*
X02366Y01821*
X02355Y01823*
X02344Y01821*
X02334Y01817*
X02325Y01811*
X02319Y01802*
X02315Y01792*
X02313Y01781*
X02315Y0177*
X02319Y01759*
X02325Y01751*
X02327Y01749*
X02326Y01744*
X02285*
X02283Y01749*
X02285Y01751*
X02292Y01759*
X02296Y0177*
X02298Y01781*
X02296Y01792*
X02292Y01802*
X02285Y01811*
X02277Y01817*
X02266Y01821*
X02255Y01823*
X02244Y01821*
X02234Y01817*
X02225Y01811*
X02219Y01802*
X02215Y01792*
X02213Y01781*
X02215Y0177*
X02219Y01759*
X02225Y01751*
X02227Y01749*
X02226Y01744*
X02222Y01743*
X02217Y0174*
X02194Y01717*
X02189Y01719*
Y02572*
X0221Y02593*
X02214Y0259*
X02213Y02581*
X02215Y0257*
X02219Y02559*
X02225Y02551*
X02234Y02544*
X02244Y0254*
X02255Y02538*
X02266Y0254*
X02277Y02544*
X02285Y02551*
X02292Y02559*
X02296Y0257*
X02298Y02581*
X02296Y02592*
X02292Y02602*
X02286Y0261*
X02287Y02615*
X02324*
X02325Y0261*
X02319Y02602*
X02315Y02592*
X02313Y02581*
X02315Y0257*
X02319Y02559*
X02325Y02551*
X02334Y02544*
X02344Y0254*
X02355Y02538*
X02366Y0254*
X02377Y02544*
X02385Y02551*
X02392Y02559*
X02396Y0257*
X02398Y02581*
X02396Y02592*
X02392Y02602*
X02386Y0261*
X02387Y02615*
X02807*
X02812Y02616*
X02817Y02619*
X03103Y02905*
X03104Y02905*
X03112Y02907*
X03119Y02911*
X03124Y02918*
X03126Y02927*
X03124Y02935*
X03119Y02942*
X03112Y02947*
X03104Y02948*
X03096Y02947*
X03089Y02942*
X03084Y02935*
X03082Y02927*
X03082Y02926*
X03078Y02922*
X03073Y02924*
X03074Y02929*
X03073Y02937*
X03068Y02944*
X03061Y02949*
X03053Y0295*
G37*
G36*
X04149Y02515D02*
X04139Y02513D01*
X04131Y02508*
X04125Y02499*
X04123Y0249*
X04125Y0248*
X04131Y02471*
X04139Y02466*
X04149Y02464*
X04159Y02466*
X04167Y02471*
X04173Y0248*
X04175Y0249*
X04173Y02499*
X04167Y02508*
X04159Y02513*
X04149Y02515*
G37*
G36*
X03472Y02507D02*
X03462Y02505D01*
X03453Y025*
X03448Y02491*
X03446Y02481*
X03448Y02472*
X03453Y02463*
X03462Y02458*
X03472Y02456*
X03481Y02458*
X0349Y02463*
X03495Y02472*
X03497Y02481*
X03495Y02491*
X0349Y025*
X03481Y02505*
X03472Y02507*
G37*
G36*
X02355Y02523D02*
X02344Y02521D01*
X02334Y02517*
X02325Y02511*
X02319Y02502*
X02315Y02492*
X02313Y02481*
X02315Y0247*
X02319Y02459*
X02325Y02451*
X02334Y02444*
X02344Y0244*
X02355Y02438*
X02366Y0244*
X02377Y02444*
X02385Y02451*
X02392Y02459*
X02396Y0247*
X02398Y02481*
X02396Y02492*
X02392Y02502*
X02385Y02511*
X02377Y02517*
X02366Y02521*
X02355Y02523*
G37*
G36*
X02255D02*
X02244Y02521D01*
X02234Y02517*
X02225Y02511*
X02219Y02502*
X02215Y02492*
X02213Y02481*
X02215Y0247*
X02219Y02459*
X02225Y02451*
X02234Y02444*
X02244Y0244*
X02255Y02438*
X02266Y0244*
X02277Y02444*
X02285Y02451*
X02292Y02459*
X02296Y0247*
X02298Y02481*
X02296Y02492*
X02292Y02502*
X02285Y02511*
X02277Y02517*
X02266Y02521*
X02255Y02523*
G37*
G36*
X00455D02*
X00444Y02521D01*
X00434Y02517*
X00425Y02511*
X00419Y02502*
X00415Y02492*
X00413Y02481*
X00415Y0247*
X00419Y02459*
X00425Y02451*
X00434Y02444*
X00444Y0244*
X00455Y02438*
X00466Y0244*
X00477Y02444*
X00485Y02451*
X00492Y02459*
X00496Y0247*
X00498Y02481*
X00496Y02492*
X00492Y02502*
X00485Y02511*
X00477Y02517*
X00466Y02521*
X00455Y02523*
G37*
G36*
X00355D02*
X00344Y02521D01*
X00334Y02517*
X00325Y02511*
X00319Y02502*
X00315Y02492*
X00313Y02481*
X00315Y0247*
X00319Y02459*
X00325Y02451*
X00334Y02444*
X00344Y0244*
X00355Y02438*
X00366Y0244*
X00377Y02444*
X00385Y02451*
X00392Y02459*
X00396Y0247*
X00398Y02481*
X00396Y02492*
X00392Y02502*
X00385Y02511*
X00377Y02517*
X00366Y02521*
X00355Y02523*
G37*
G36*
X03092Y02484D02*
X03082Y02482D01*
X03074Y02476*
X03068Y02468*
X03066Y02458*
X03068Y02448*
X03074Y0244*
X03082Y02434*
X03092Y02432*
X03102Y02434*
X0311Y0244*
X03116Y02448*
X03118Y02458*
X03116Y02468*
X0311Y02476*
X03102Y02482*
X03092Y02484*
G37*
G36*
X03781Y02436D02*
X03772Y02435D01*
X03765Y0243*
X0376*
X03753Y02435*
X03745Y02436*
X03737Y02435*
X0373Y0243*
X03725Y02423*
X03723Y02415*
X03725Y02406*
X0373Y02399*
X0373Y02399*
Y02379*
X03714Y02362*
X0371Y02357*
X03709Y02352*
Y02285*
X0371Y02279*
X03714Y02275*
X03725Y02263*
Y01925*
X03724Y01924*
X0372Y01917*
X03718Y01909*
X0372Y01901*
X03724Y01894*
X03731Y01889*
X0374Y01887*
X03748Y01889*
X03755Y01894*
X0376Y01901*
X03761Y01909*
X0376Y01917*
X03755Y01924*
X03754Y01925*
Y01977*
X03759Y01979*
X03761Y01978*
X03769Y01976*
X03777Y01978*
X03785Y01982*
X03789Y01989*
X03791Y01998*
X03789Y02006*
X03785Y02013*
X03784Y02013*
Y02285*
X03783Y02291*
X0378Y02295*
X03776Y02298*
X03779Y02303*
X03783Y02302*
X03791Y02304*
X03798Y02309*
X03803Y02316*
X03804Y02324*
X03803Y02332*
X03798Y02339*
X03791Y02344*
X03784Y02345*
X03782Y0235*
X03791Y02359*
X03794Y02364*
X03795Y02369*
Y02369*
Y02399*
X03796Y02399*
X03801Y02406*
X03802Y02415*
X03801Y02423*
X03796Y0243*
X03789Y02435*
X03781Y02436*
G37*
G36*
X03938Y02407D02*
X03928Y02405D01*
X0392Y02399*
X03914Y02391*
X03912Y02381*
X03914Y02371*
X0392Y02363*
X03928Y02357*
X03938Y02355*
X03948Y02357*
X03956Y02363*
X03962Y02371*
X03964Y02381*
X03962Y02391*
X03956Y02399*
X03948Y02405*
X03938Y02407*
G37*
G36*
X04117Y02391D02*
X04109Y02389D01*
X04102Y02384*
X04097Y02377*
X04096Y02369*
X04097Y02361*
X04102Y02354*
X04109Y02349*
X04117Y02347*
X04126Y02349*
X04133Y02354*
X04137Y02361*
X04139Y02369*
X04137Y02377*
X04133Y02384*
X04126Y02389*
X04117Y02391*
G37*
G36*
X02355Y02423D02*
X02344Y02421D01*
X02334Y02417*
X02325Y02411*
X02319Y02402*
X02315Y02392*
X02313Y02381*
X02315Y0237*
X02319Y02359*
X02325Y02351*
X02334Y02344*
X02344Y0234*
X02355Y02338*
X02366Y0234*
X02377Y02344*
X02385Y02351*
X02392Y02359*
X02396Y0237*
X02398Y02381*
X02396Y02392*
X02392Y02402*
X02385Y02411*
X02377Y02417*
X02366Y02421*
X02355Y02423*
G37*
G36*
X02255D02*
X02244Y02421D01*
X02234Y02417*
X02225Y02411*
X02219Y02402*
X02215Y02392*
X02213Y02381*
X02215Y0237*
X02219Y02359*
X02225Y02351*
X02234Y02344*
X02244Y0234*
X02255Y02338*
X02266Y0234*
X02277Y02344*
X02285Y02351*
X02292Y02359*
X02296Y0237*
X02298Y02381*
X02296Y02392*
X02292Y02402*
X02285Y02411*
X02277Y02417*
X02266Y02421*
X02255Y02423*
G37*
G36*
X02355Y02323D02*
X02344Y02321D01*
X02334Y02317*
X02325Y02311*
X02319Y02302*
X02315Y02292*
X02313Y02281*
X02315Y0227*
X02319Y02259*
X02325Y02251*
X02334Y02244*
X02344Y0224*
X02355Y02238*
X02366Y0224*
X02377Y02244*
X02385Y02251*
X02392Y02259*
X02396Y0227*
X02398Y02281*
X02396Y02292*
X02392Y02302*
X02385Y02311*
X02377Y02317*
X02366Y02321*
X02355Y02323*
G37*
G36*
X02255D02*
X02244Y02321D01*
X02234Y02317*
X02225Y02311*
X02219Y02302*
X02215Y02292*
X02213Y02281*
X02215Y0227*
X02219Y02259*
X02225Y02251*
X02234Y02244*
X02244Y0224*
X02255Y02238*
X02266Y0224*
X02277Y02244*
X02285Y02251*
X02292Y02259*
X02296Y0227*
X02298Y02281*
X02296Y02292*
X02292Y02302*
X02285Y02311*
X02277Y02317*
X02266Y02321*
X02255Y02323*
G37*
G36*
X04181Y02277D02*
X04171Y02275D01*
X04162Y0227*
X04157Y02261*
X04155Y02251*
X04157Y02242*
X04162Y02233*
X04171Y02228*
X04181Y02226*
X0419Y02228*
X04199Y02233*
X04204Y02242*
X04206Y02251*
X04204Y02261*
X04199Y0227*
X0419Y02275*
X04181Y02277*
G37*
G36*
X03092Y022D02*
X03084Y02199D01*
X03077Y02194*
X03072Y02187*
X0307Y02179*
X03072Y0217*
X03077Y02163*
X03084Y02159*
X03092Y02157*
X031Y02159*
X03107Y02163*
X03112Y0217*
X03114Y02179*
X03112Y02187*
X03107Y02194*
X031Y02199*
X03092Y022*
G37*
G36*
X02724D02*
X02716Y02199D01*
X02709Y02194*
X02704Y02187*
X02702Y02179*
X02704Y0217*
X02709Y02163*
X02716Y02159*
X02724Y02157*
X02732Y02159*
X02739Y02163*
X02744Y0217*
X02746Y02179*
X02744Y02187*
X02739Y02194*
X02732Y02199*
X02724Y022*
G37*
G36*
X02355Y02223D02*
X02344Y02221D01*
X02334Y02217*
X02325Y02211*
X02319Y02202*
X02315Y02192*
X02313Y02181*
X02315Y0217*
X02319Y02159*
X02325Y02151*
X02334Y02144*
X02344Y0214*
X02355Y02138*
X02366Y0214*
X02377Y02144*
X02385Y02151*
X02392Y02159*
X02396Y0217*
X02398Y02181*
X02396Y02192*
X02392Y02202*
X02385Y02211*
X02377Y02217*
X02366Y02221*
X02355Y02223*
G37*
G36*
X02255D02*
X02244Y02221D01*
X02234Y02217*
X02225Y02211*
X02219Y02202*
X02215Y02192*
X02213Y02181*
X02215Y0217*
X02219Y02159*
X02225Y02151*
X02234Y02144*
X02244Y0214*
X02255Y02138*
X02266Y0214*
X02277Y02144*
X02285Y02151*
X02292Y02159*
X02296Y0217*
X02298Y02181*
X02296Y02192*
X02292Y02202*
X02285Y02211*
X02277Y02217*
X02266Y02221*
X02255Y02223*
G37*
G36*
X00068Y02187D02*
X00059Y02185D01*
X0005Y02179*
X00045Y02171*
X00043Y02161*
X00045Y02151*
X0005Y02143*
X00059Y02137*
X00068Y02135*
X00078Y02137*
X00087Y02143*
X00092Y02151*
X00094Y02161*
X00092Y02171*
X00087Y02179*
X00078Y02185*
X00068Y02187*
G37*
G36*
X03995Y02178D02*
X03985Y02176D01*
X03977Y02171*
X03971Y02162*
X03969Y02153*
X03971Y02143*
X03977Y02134*
X03985Y02129*
X03995Y02127*
X04005Y02129*
X04013Y02134*
X04019Y02143*
X04021Y02153*
X04019Y02162*
X04013Y02171*
X04005Y02176*
X03995Y02178*
G37*
G36*
X0369Y02155D02*
X0368Y02153D01*
X03672Y02148*
X03666Y0214*
X03664Y0213*
X03666Y0212*
X03672Y02112*
X0368Y02106*
X0369Y02104*
X037Y02106*
X03708Y02112*
X03714Y0212*
X03716Y0213*
X03714Y0214*
X03708Y02148*
X037Y02153*
X0369Y02155*
G37*
G36*
X02355Y02123D02*
X02344Y02121D01*
X02334Y02117*
X02325Y02111*
X02319Y02102*
X02315Y02092*
X02313Y02081*
X02315Y0207*
X02319Y02059*
X02325Y02051*
X02334Y02044*
X02344Y0204*
X02355Y02038*
X02366Y0204*
X02377Y02044*
X02385Y02051*
X02392Y02059*
X02396Y0207*
X02398Y02081*
X02396Y02092*
X02392Y02102*
X02385Y02111*
X02377Y02117*
X02366Y02121*
X02355Y02123*
G37*
G36*
X02255D02*
X02244Y02121D01*
X02234Y02117*
X02225Y02111*
X02219Y02102*
X02215Y02092*
X02213Y02081*
X02215Y0207*
X02219Y02059*
X02225Y02051*
X02234Y02044*
X02244Y0204*
X02255Y02038*
X02266Y0204*
X02277Y02044*
X02285Y02051*
X02292Y02059*
X02296Y0207*
X02298Y02081*
X02296Y02092*
X02292Y02102*
X02285Y02111*
X02277Y02117*
X02266Y02121*
X02255Y02123*
G37*
G36*
X00064Y02062D02*
Y02031D01*
X00096*
X00096Y02034*
X00092Y02043*
X00085Y02052*
X00077Y02058*
X00067Y02062*
X00064Y02062*
G37*
G36*
X00049D02*
X00046Y02062D01*
X00036Y02058*
X00028Y02052*
X00022Y02043*
X00018Y02034*
X00017Y02031*
X00049*
Y02062*
G37*
G36*
X00096Y02015D02*
X00064D01*
Y01984*
X00067Y01984*
X00077Y01988*
X00085Y01995*
X00092Y02003*
X00096Y02013*
X00096Y02015*
G37*
G36*
X00049D02*
X00017D01*
X00018Y02013*
X00022Y02003*
X00028Y01995*
X00036Y01988*
X00046Y01984*
X00049Y01984*
Y02015*
G37*
G36*
X02355Y02023D02*
X02344Y02021D01*
X02334Y02017*
X02325Y02011*
X02319Y02002*
X02315Y01992*
X02313Y01981*
X02315Y0197*
X02319Y01959*
X02325Y01951*
X02334Y01944*
X02344Y0194*
X02355Y01938*
X02366Y0194*
X02377Y01944*
X02385Y01951*
X02392Y01959*
X02396Y0197*
X02398Y01981*
X02396Y01992*
X02392Y02002*
X02385Y02011*
X02377Y02017*
X02366Y02021*
X02355Y02023*
G37*
G36*
X02255D02*
X02244Y02021D01*
X02234Y02017*
X02225Y02011*
X02219Y02002*
X02215Y01992*
X02213Y01981*
X02215Y0197*
X02219Y01959*
X02225Y01951*
X02234Y01944*
X02244Y0194*
X02255Y01938*
X02266Y0194*
X02277Y01944*
X02285Y01951*
X02292Y01959*
X02296Y0197*
X02298Y01981*
X02296Y01992*
X02292Y02002*
X02285Y02011*
X02277Y02017*
X02266Y02021*
X02255Y02023*
G37*
G36*
X03548Y02259D02*
X0354Y02257D01*
X03533Y02253*
X03528Y02246*
X03527Y02237*
X03528Y02229*
X03533Y02222*
X03534Y02221*
Y01895*
X03533Y01895*
X03529Y01888*
X03527Y01879*
X03529Y01871*
X03533Y01864*
X0354Y01859*
X03549Y01858*
X03557Y01859*
X03564Y01864*
X03569Y01871*
X0357Y01879*
X03569Y01888*
X03564Y01895*
X03563Y01895*
Y02222*
X03564Y02222*
X03568Y02229*
X0357Y02237*
X03568Y02246*
X03564Y02253*
X03557Y02257*
X03548Y02259*
G37*
G36*
X02974Y01903D02*
X02964Y01901D01*
X02956Y01896*
X0295Y01887*
X02948Y01877*
X0295Y01868*
X02956Y01859*
X02964Y01854*
X02974Y01852*
X02984Y01854*
X02992Y01859*
X02998Y01868*
X03Y01877*
X02998Y01887*
X02992Y01896*
X02984Y01901*
X02974Y01903*
G37*
G36*
X02355Y01923D02*
X02344Y01921D01*
X02334Y01917*
X02325Y01911*
X02319Y01902*
X02315Y01892*
X02313Y01881*
X02315Y0187*
X02319Y01859*
X02325Y01851*
X02334Y01844*
X02344Y0184*
X02355Y01838*
X02366Y0184*
X02377Y01844*
X02385Y01851*
X02392Y01859*
X02396Y0187*
X02398Y01881*
X02396Y01892*
X02392Y01902*
X02385Y01911*
X02377Y01917*
X02366Y01921*
X02355Y01923*
G37*
G36*
X02255D02*
X02244Y01921D01*
X02234Y01917*
X02225Y01911*
X02219Y01902*
X02215Y01892*
X02213Y01881*
X02215Y0187*
X02219Y01859*
X02225Y01851*
X02234Y01844*
X02244Y0184*
X02255Y01838*
X02266Y0184*
X02277Y01844*
X02285Y01851*
X02292Y01859*
X02296Y0187*
X02298Y01881*
X02296Y01892*
X02292Y01902*
X02285Y01911*
X02277Y01917*
X02266Y01921*
X02255Y01923*
G37*
G36*
X03501Y01712D02*
X03492Y0171D01*
X03485Y01706*
X03482Y01705*
X03478Y01706*
X03472Y0171*
X03462Y01712*
X03452Y0171*
X03446Y01706*
X03442Y01705*
X03439Y01706*
X03433Y0171*
X03423Y01712*
X03413Y0171*
X03405Y01705*
X03399Y01696*
X03397Y01687*
X03399Y01677*
X03405Y01668*
X03406Y01667*
Y01662*
X03405Y01661*
X03399Y01653*
X03397Y01643*
X03399Y01633*
X03405Y01625*
X03406Y01624*
Y01619*
X03405Y01618*
X03399Y0161*
X03397Y016*
X03399Y0159*
X03405Y01582*
X03413Y01576*
X03423Y01574*
X03433Y01576*
X03439Y0158*
X03442Y01581*
X03446Y0158*
X03452Y01576*
X03462Y01574*
X03472Y01576*
X03478Y0158*
X03482Y01581*
X03485Y0158*
X03492Y01576*
X03501Y01574*
X03511Y01576*
X0352Y01582*
X03525Y0159*
X03527Y016*
X03525Y0161*
X0352Y01618*
X03518Y01619*
Y01624*
X0352Y01625*
X03525Y01633*
X03527Y01643*
X03525Y01653*
X0352Y01661*
X03518Y01662*
Y01667*
X0352Y01668*
X03525Y01677*
X03527Y01687*
X03525Y01696*
X0352Y01705*
X03511Y0171*
X03501Y01712*
G37*
G36*
X00057Y01663D02*
X00046Y01662D01*
X00037Y01658*
X00028Y01651*
X00022Y01643*
X00018Y01633*
X00017Y01623*
X00018Y01613*
X00022Y01603*
X00028Y01595*
X00037Y01589*
X00046Y01585*
X00057Y01583*
X00067Y01585*
X00076Y01589*
X00085Y01595*
X00091Y01603*
X00095Y01613*
X00096Y01623*
X00095Y01633*
X00091Y01643*
X00085Y01651*
X00076Y01658*
X00067Y01662*
X00057Y01663*
G37*
G36*
X00355Y01623D02*
X00344Y01621D01*
X00334Y01617*
X00325Y01611*
X00319Y01602*
X00315Y01592*
X00313Y01581*
X00315Y0157*
X00319Y01559*
X00325Y01551*
X00334Y01544*
X00344Y0154*
X00355Y01538*
X00366Y0154*
X00377Y01544*
X00385Y01551*
X00392Y01559*
X00396Y0157*
X00398Y01581*
X00396Y01592*
X00392Y01602*
X00385Y01611*
X00377Y01617*
X00366Y01621*
X00355Y01623*
G37*
G36*
X02588Y01557D02*
X0258Y01555D01*
X02573Y0155*
X02568Y01543*
X02566Y01535*
X02568Y01527*
X02573Y0152*
X0258Y01515*
X02588Y01513*
X02596Y01515*
X02603Y0152*
X02608Y01527*
X0261Y01535*
X02608Y01543*
X02603Y0155*
X02596Y01555*
X02588Y01557*
G37*
G36*
X00096Y01563D02*
X00017D01*
Y01484*
X00096*
Y01563*
G37*
G36*
X03246Y015D02*
X03236Y01498D01*
X03227Y01492*
X03222Y01484*
X0322Y01474*
X03222Y01464*
X03226Y01458*
X03227Y01454*
X03226Y01451*
X03222Y01444*
X0322Y01435*
X03222Y01425*
X03227Y01416*
X03236Y01411*
X03246Y01409*
X03255Y01411*
X03264Y01416*
X03269Y01425*
X03271Y01435*
X03269Y01444*
X03265Y01451*
X03264Y01454*
X03265Y01458*
X03269Y01464*
X03271Y01474*
X03269Y01484*
X03264Y01492*
X03255Y01498*
X03246Y015*
G37*
G36*
X03187D02*
X03177Y01498D01*
X03168Y01492*
X03163Y01484*
X03161Y01474*
X03163Y01464*
X03167Y01458*
X03168Y01454*
X03167Y01451*
X03163Y01444*
X03161Y01435*
X03163Y01425*
X03168Y01416*
X03177Y01411*
X03187Y01409*
X03196Y01411*
X03205Y01416*
X0321Y01425*
X03212Y01435*
X0321Y01444*
X03206Y01451*
X03205Y01454*
X03206Y01458*
X0321Y01464*
X03212Y01474*
X0321Y01484*
X03205Y01492*
X03196Y01498*
X03187Y015*
G37*
G36*
X02255Y01423D02*
X02244Y01421D01*
X02234Y01417*
X02225Y01411*
X02219Y01402*
X02215Y01392*
X02213Y01381*
X02215Y0137*
X02219Y01359*
X02225Y01351*
X02234Y01344*
X02244Y0134*
X02255Y01338*
X02266Y0134*
X02277Y01344*
X02285Y01351*
X02292Y01359*
X02296Y0137*
X02298Y01381*
X02296Y01392*
X02292Y01402*
X02285Y01411*
X02277Y01417*
X02266Y01421*
X02255Y01423*
G37*
G36*
X00455D02*
X00444Y01421D01*
X00434Y01417*
X00425Y01411*
X00419Y01402*
X00415Y01392*
X00413Y01381*
X00415Y0137*
X00419Y01359*
X00425Y01351*
X00434Y01344*
X00444Y0134*
X00455Y01338*
X00466Y0134*
X00477Y01344*
X00485Y01351*
X00492Y01359*
X00496Y0137*
X00498Y01381*
X00496Y01392*
X00492Y01402*
X00485Y01411*
X00477Y01417*
X00466Y01421*
X00455Y01423*
G37*
G36*
X00355D02*
X00344Y01421D01*
X00334Y01417*
X00325Y01411*
X00319Y01402*
X00315Y01392*
X00313Y01381*
X00315Y0137*
X00319Y01359*
X00325Y01351*
X00334Y01344*
X00344Y0134*
X00355Y01338*
X00366Y0134*
X00377Y01344*
X00385Y01351*
X00392Y01359*
X00396Y0137*
X00398Y01381*
X00396Y01392*
X00392Y01402*
X00385Y01411*
X00377Y01417*
X00366Y01421*
X00355Y01423*
G37*
G36*
X02255Y01323D02*
X02244Y01321D01*
X02234Y01317*
X02225Y01311*
X02219Y01302*
X02215Y01292*
X02213Y01281*
X02215Y0127*
X02219Y01259*
X02225Y01251*
X02234Y01244*
X02244Y0124*
X02255Y01238*
X02266Y0124*
X02277Y01244*
X02285Y01251*
X02292Y01259*
X02296Y0127*
X02298Y01281*
X02296Y01292*
X02292Y01302*
X02285Y01311*
X02277Y01317*
X02266Y01321*
X02255Y01323*
G37*
G36*
X00355D02*
X00344Y01321D01*
X00334Y01317*
X00325Y01311*
X00319Y01302*
X00315Y01292*
X00313Y01281*
X00315Y0127*
X00319Y01259*
X00325Y01251*
X00334Y01244*
X00344Y0124*
X00355Y01238*
X00366Y0124*
X00377Y01244*
X00385Y01251*
X00392Y01259*
X00396Y0127*
X00398Y01281*
X00396Y01292*
X00392Y01302*
X00385Y01311*
X00377Y01317*
X00366Y01321*
X00355Y01323*
G37*
G36*
X02753Y01236D02*
X02745Y01234D01*
X02738Y01229*
X02733Y01222*
X02732Y01214*
X02732Y01213*
X02712Y01193*
X02708Y01188*
X02707Y01183*
Y01114*
X02708Y01108*
X02712Y01103*
X02757Y01058*
Y0098*
X02758Y00974*
X02761Y00969*
X02859Y00871*
X02864Y00868*
X0287Y00867*
X03328*
X0347Y00725*
X0347Y00724*
X03472Y00716*
X03476Y00709*
X03483Y00704*
X03492Y00702*
X035Y00704*
X03507Y00709*
X03512Y00716*
X03513Y00724*
X03512Y00732*
X03507Y00739*
X035Y00744*
X03492Y00746*
X03491Y00745*
X03345Y00892*
X0334Y00895*
X03334Y00896*
X02876*
X02786Y00986*
Y01064*
X02785Y0107*
X02782Y01075*
X0275Y01106*
X02753Y01111*
X02757Y0111*
X02766Y01111*
X02773Y01116*
X02777Y01123*
X02779Y01131*
X02777Y0114*
X02773Y01147*
X02766Y01151*
X02757Y01153*
X02749Y01151*
X02742Y01147*
X02742Y01146*
X02737Y01148*
Y01177*
X02753Y01193*
X02753Y01192*
X02762Y01194*
X02769Y01199*
X02773Y01206*
X02775Y01214*
X02773Y01222*
X02769Y01229*
X02762Y01234*
X02753Y01236*
G37*
G36*
X03305Y015D02*
X03295Y01498D01*
X03286Y01492*
X03281Y01484*
X03279Y01474*
X03281Y01464*
X03285Y01458*
X03286Y01454*
X03285Y01451*
X03281Y01444*
X03279Y01435*
X03281Y01425*
X03285Y01418*
X03286Y01415*
X03285Y01411*
X03281Y01405*
X03279Y01395*
X03281Y01385*
X03285Y01379*
X03286Y01375*
X03285Y01372*
X03281Y01366*
X03279Y01356*
X03281Y01346*
X03285Y0134*
X03286Y01336*
X03285Y01333*
X03281Y01326*
X03279Y01316*
X03281Y01307*
X03286Y01298*
Y01295*
X03281Y01287*
X03279Y01277*
X03281Y01267*
X03285Y01261*
X03286Y01257*
X03285Y01254*
X03281Y01248*
X03279Y01238*
X03281Y01228*
X03285Y01222*
X03286Y01218*
X03285Y01214*
X03281Y01208*
X03279Y01198*
X03281Y01188*
X03286Y0118*
X03295Y01175*
X03305Y01173*
X03314Y01175*
X03323Y0118*
X03328Y01188*
X0333Y01198*
X03328Y01208*
X03324Y01214*
X03323Y01218*
X03324Y01222*
X03328Y01228*
X0333Y01238*
X03328Y01248*
X03324Y01254*
X03323Y01257*
X03324Y01261*
X03328Y01267*
X0333Y01277*
X03328Y01287*
X03323Y01295*
Y01298*
X03328Y01307*
X0333Y01316*
X03328Y01326*
X03324Y01333*
X03323Y01336*
X03324Y0134*
X03328Y01346*
X0333Y01356*
X03328Y01366*
X03324Y01372*
X03323Y01375*
X03324Y01379*
X03328Y01385*
X0333Y01395*
X03328Y01405*
X03324Y01411*
X03323Y01415*
X03324Y01418*
X03328Y01425*
X0333Y01435*
X03328Y01444*
X03324Y01451*
X03323Y01454*
X03324Y01458*
X03328Y01464*
X0333Y01474*
X03328Y01484*
X03323Y01492*
X03314Y01498*
X03305Y015*
G37*
G36*
X03228Y01381D02*
X03027Y01381D01*
X03005Y0136*
X03005Y01185*
X03029Y01161*
X03226*
X03251Y01187*
Y01358*
X03228Y01381*
G37*
G36*
X00455Y01223D02*
X00444Y01221D01*
X00434Y01217*
X00425Y01211*
X00419Y01202*
X00415Y01192*
X00413Y01181*
X00415Y0117*
X00419Y01159*
X00425Y01151*
X00434Y01144*
X00444Y0114*
X00455Y01138*
X00466Y0114*
X00477Y01144*
X00485Y01151*
X00492Y01159*
X00496Y0117*
X00498Y01181*
X00496Y01192*
X00492Y01202*
X00485Y01211*
X00477Y01217*
X00466Y01221*
X00455Y01223*
G37*
G36*
X00355D02*
X00344Y01221D01*
X00334Y01217*
X00325Y01211*
X00319Y01202*
X00315Y01192*
X00313Y01181*
X00315Y0117*
X00319Y01159*
X00325Y01151*
X00334Y01144*
X00344Y0114*
X00355Y01138*
X00366Y0114*
X00377Y01144*
X00385Y01151*
X00392Y01159*
X00396Y0117*
X00398Y01181*
X00396Y01192*
X00392Y01202*
X00385Y01211*
X00377Y01217*
X00366Y01221*
X00355Y01223*
G37*
G36*
X02753Y01307D02*
X02745Y01305D01*
X02738Y013*
X02733Y01293*
X02732Y01285*
X02733Y01277*
X02738Y0127*
X02745Y01265*
X02753Y01263*
X02754Y01263*
X02782Y01236*
Y01172*
X02783Y01166*
X02786Y01162*
X02819Y01129*
X02819Y01128*
X02821Y0112*
X02825Y01113*
X02832Y01108*
X02841Y01106*
X02849Y01108*
X02856Y01113*
X02861Y0112*
X02862Y01128*
X02861Y01136*
X02856Y01143*
X02849Y01148*
X02841Y0115*
X0284Y0115*
X02811Y01178*
Y01242*
X0281Y01247*
X02807Y01252*
X02775Y01284*
X02775Y01285*
X02773Y01293*
X02769Y013*
X02762Y01305*
X02753Y01307*
G37*
G36*
X00455Y01123D02*
X00444Y01121D01*
X00434Y01117*
X00425Y01111*
X00419Y01102*
X00415Y01092*
X00413Y01081*
X00415Y0107*
X00419Y01059*
X00425Y01051*
X00434Y01044*
X00444Y0104*
X00455Y01038*
X00466Y0104*
X00477Y01044*
X00485Y01051*
X00492Y01059*
X00496Y0107*
X00498Y01081*
X00496Y01092*
X00492Y01102*
X00485Y01111*
X00477Y01117*
X00466Y01121*
X00455Y01123*
G37*
G36*
X00355D02*
X00344Y01121D01*
X00334Y01117*
X00325Y01111*
X00319Y01102*
X00315Y01092*
X00313Y01081*
X00315Y0107*
X00319Y01059*
X00325Y01051*
X00334Y01044*
X00344Y0104*
X00355Y01038*
X00366Y0104*
X00377Y01044*
X00385Y01051*
X00392Y01059*
X00396Y0107*
X00398Y01081*
X00396Y01092*
X00392Y01102*
X00385Y01111*
X00377Y01117*
X00366Y01121*
X00355Y01123*
G37*
G36*
X02653Y01058D02*
X02633D01*
X02622Y01057*
X02611Y01054*
X02601Y01049*
X02592Y01041*
X02584Y01032*
X02579Y01022*
X02576Y01011*
X02574Y01*
X02576Y00988*
X02579Y00977*
X02584Y00967*
X02592Y00958*
X02601Y0095*
X02611Y00945*
X02622Y00942*
X02633Y00941*
X02653*
X02665Y00942*
X02676Y00945*
X02686Y0095*
X02695Y00958*
X02702Y00967*
X02708Y00977*
X02711Y00988*
X02712Y01*
X02711Y01011*
X02708Y01022*
X02702Y01032*
X02695Y01041*
X02686Y01049*
X02676Y01054*
X02665Y01057*
X02653Y01058*
G37*
G36*
X02255Y01023D02*
X02244Y01021D01*
X02234Y01017*
X02225Y01011*
X02219Y01002*
X02215Y00992*
X02213Y00981*
X02215Y0097*
X02219Y00959*
X02225Y00951*
X02234Y00944*
X02244Y0094*
X02255Y00938*
X02266Y0094*
X02277Y00944*
X02285Y00951*
X02292Y00959*
X02296Y0097*
X02298Y00981*
X02296Y00992*
X02292Y01002*
X02285Y01011*
X02277Y01017*
X02266Y01021*
X02255Y01023*
G37*
G36*
X02942Y01484D02*
X02891D01*
X02888Y01483*
X02884Y01481*
X02882Y01478*
X02882Y01474*
Y01305*
X02882Y01301*
X02884Y01298*
X02921Y01261*
Y01214*
X02884Y01178*
X02882Y01174*
X02882Y01171*
Y00919*
X02882Y00915*
X02884Y00912*
X02888Y0091*
X02891Y00909*
X02946*
X0295Y0091*
X02953Y00912*
X02987Y00945*
X02989Y00949*
X02989Y00952*
Y01367*
X02989Y0137*
X02987Y01373*
X02952Y01408*
Y0141*
X02952Y01411*
X02952Y01412*
Y01433*
X02952Y01435*
X02952Y01436*
Y01457*
X02952Y01458*
X02952Y01459*
Y01474*
X02951Y01478*
X02949Y01481*
X02946Y01483*
X02942Y01484*
G37*
G36*
X03875Y00969D02*
X03863Y00968D01*
X03851Y00963*
X03841Y00955*
X03833Y00945*
X03828Y00933*
X03826Y0092*
X03828Y00907*
X03833Y00895*
X03841Y00885*
X03851Y00877*
X03863Y00872*
X03875Y00871*
X03888Y00872*
X039Y00877*
X0391Y00885*
X03918Y00895*
X03923Y00907*
X03925Y0092*
X03923Y00933*
X03918Y00945*
X0391Y00955*
X039Y00963*
X03888Y00968*
X03875Y00969*
G37*
G36*
X02355Y00923D02*
X02344Y00921D01*
X02334Y00917*
X02325Y00911*
X02319Y00902*
X02315Y00892*
X02313Y00881*
X02315Y0087*
X02319Y00859*
X02325Y00851*
X02334Y00844*
X02344Y0084*
X02355Y00838*
X02366Y0084*
X02377Y00844*
X02385Y00851*
X02392Y00859*
X02396Y0087*
X02398Y00881*
X02396Y00892*
X02392Y00902*
X02385Y00911*
X02377Y00917*
X02366Y00921*
X02355Y00923*
G37*
G36*
X02255D02*
X02244Y00921D01*
X02234Y00917*
X02225Y00911*
X02219Y00902*
X02215Y00892*
X02213Y00881*
X02215Y0087*
X02219Y00859*
X02225Y00851*
X02234Y00844*
X02244Y0084*
X02255Y00838*
X02266Y0084*
X02277Y00844*
X02285Y00851*
X02292Y00859*
X02296Y0087*
X02298Y00881*
X02296Y00892*
X02292Y00902*
X02285Y00911*
X02277Y00917*
X02266Y00921*
X02255Y00923*
G37*
G36*
X02653Y00908D02*
X02633D01*
X02622Y00907*
X02611Y00904*
X02601Y00899*
X02592Y00891*
X02584Y00882*
X02579Y00872*
X02576Y00861*
X02574Y0085*
X02576Y00838*
X02579Y00827*
X02584Y00817*
X02592Y00808*
X02601Y008*
X02611Y00795*
X02622Y00792*
X02633Y00791*
X02653*
X02665Y00792*
X02676Y00795*
X02686Y008*
X02695Y00808*
X02702Y00817*
X02708Y00827*
X02711Y00838*
X02712Y0085*
X02711Y00861*
X02708Y00872*
X02702Y00882*
X02695Y00891*
X02686Y00899*
X02676Y00904*
X02665Y00907*
X02653Y00908*
G37*
G36*
X02363Y00822D02*
Y00788D01*
X02397*
X02397Y00792*
X02393Y00802*
X02386Y00811*
X02377Y00818*
X02367Y00822*
X02363Y00822*
G37*
G36*
X02298Y00823D02*
X02263D01*
Y00788*
X02298*
Y00823*
G37*
G36*
X00463Y00822D02*
Y00788D01*
X00497*
X00497Y00792*
X00493Y00802*
X00486Y00811*
X00477Y00818*
X00467Y00822*
X00463Y00822*
G37*
G36*
X00398Y00823D02*
X00363D01*
Y00788*
X00398*
Y00823*
G37*
G36*
X02348Y00822D02*
X02344Y00822D01*
X02334Y00818*
X02325Y00811*
X02318Y00802*
X02314Y00792*
X02314Y00788*
X02348*
Y00822*
G37*
G36*
X00448D02*
X00444Y00822D01*
X00434Y00818*
X00425Y00811*
X00418Y00802*
X00414Y00792*
X00414Y00788*
X00448*
Y00822*
G37*
G36*
X02248Y00823D02*
X02213D01*
Y00788*
X02248*
Y00823*
G37*
G36*
X00348D02*
X00313D01*
Y00788*
X00348*
Y00823*
G37*
G36*
X02348Y00773D02*
X02314D01*
X02314Y0077*
X02318Y00759*
X02325Y0075*
X02334Y00743*
X02344Y00739*
X02348Y00739*
Y00773*
G37*
G36*
X00448D02*
X00414D01*
X00414Y0077*
X00418Y00759*
X00425Y0075*
X00434Y00743*
X00444Y00739*
X00448Y00739*
Y00773*
G37*
G36*
X02397D02*
X02363D01*
Y00739*
X02367Y00739*
X02377Y00743*
X02386Y0075*
X02393Y00759*
X02397Y0077*
X02397Y00773*
G37*
G36*
X00497D02*
X00463D01*
Y00739*
X00467Y00739*
X00477Y00743*
X00486Y0075*
X00493Y00759*
X00497Y0077*
X00497Y00773*
G37*
G36*
X02298D02*
X02263D01*
Y00738*
X02298*
Y00773*
G37*
G36*
X02248D02*
X02213D01*
Y00738*
X02248*
Y00773*
G37*
G36*
X00398D02*
X00363D01*
Y00738*
X00398*
Y00773*
G37*
G36*
X00348D02*
X00313D01*
Y00738*
X00348*
Y00773*
G37*
G36*
X03883Y00769D02*
Y00728D01*
X03924*
X03924Y00733*
X03919Y00745*
X03911Y00755*
X039Y00763*
X03888Y00768*
X03883Y00769*
G37*
G36*
X03868D02*
X03863Y00768D01*
X03851Y00763*
X0384Y00755*
X03832Y00745*
X03827Y00733*
X03827Y00728*
X03868*
Y00769*
G37*
G36*
X03924Y00712D02*
X03883D01*
Y00671*
X03888Y00672*
X039Y00677*
X03911Y00685*
X03919Y00695*
X03924Y00707*
X03924Y00712*
G37*
G36*
X03868D02*
X03827D01*
X03827Y00707*
X03832Y00695*
X0384Y00685*
X03851Y00677*
X03863Y00672*
X03868Y00671*
Y00712*
G37*
G36*
X03492Y00612D02*
X03483Y0061D01*
X03476Y00605*
X03472Y00598*
X0347Y0059*
X03472Y00582*
X03476Y00575*
X03483Y0057*
X03492Y00568*
X035Y0057*
X03507Y00575*
X03512Y00582*
X03513Y0059*
X03512Y00598*
X03507Y00605*
X035Y0061*
X03492Y00612*
G37*
G36*
X03883Y00469D02*
Y00428D01*
X03924*
X03924Y00433*
X03919Y00445*
X03911Y00455*
X039Y00463*
X03888Y00468*
X03883Y00469*
G37*
G36*
X03868D02*
X03863Y00468D01*
X03851Y00463*
X0384Y00455*
X03832Y00445*
X03827Y00433*
X03827Y00428*
X03868*
Y00469*
G37*
G36*
X03924Y00412D02*
X03883D01*
Y00371*
X03888Y00372*
X039Y00377*
X03911Y00385*
X03919Y00395*
X03924Y00407*
X03924Y00412*
G37*
G36*
X03868D02*
X03827D01*
X03827Y00407*
X03832Y00395*
X0384Y00385*
X03851Y00377*
X03863Y00372*
X03868Y00371*
Y00412*
G37*
G36*
X03594Y00373D02*
Y00332D01*
X03635*
X03634Y00337*
X0363Y00349*
X03622Y0036*
X03611Y00367*
X03599Y00372*
X03594Y00373*
G37*
G36*
X03579D02*
X03574Y00372D01*
X03561Y00367*
X03551Y0036*
X03543Y00349*
X03538Y00337*
X03538Y00332*
X03579*
Y00373*
G37*
G36*
X03635Y00316D02*
X03594D01*
Y00276*
X03599Y00276*
X03611Y00281*
X03622Y00289*
X0363Y00299*
X03634Y00311*
X03635Y00316*
G37*
G36*
X03579D02*
X03538D01*
X03538Y00311*
X03543Y00299*
X03551Y00289*
X03561Y00281*
X03574Y00276*
X03579Y00276*
Y00316*
G37*
G36*
X03748Y00252D02*
X03738Y0025D01*
X03729Y00244*
X03724Y00236*
X03722Y00226*
X03724Y00216*
X03729Y00208*
X03738Y00202*
X03748Y002*
X03757Y00202*
X03766Y00208*
X03771Y00216*
X03773Y00226*
X03771Y00236*
X03766Y00244*
X03757Y0025*
X03748Y00252*
G37*
G36*
X03594Y00176D02*
Y00135D01*
X03635*
X03634Y0014*
X0363Y00152*
X03622Y00163*
X03611Y00171*
X03599Y00176*
X03594Y00176*
G37*
G36*
X03579D02*
X03574Y00176D01*
X03561Y00171*
X03551Y00163*
X03543Y00152*
X03538Y0014*
X03538Y00135*
X03579*
Y00176*
G37*
G36*
X02744Y00267D02*
X02731Y00266D01*
X02719Y00262*
X02708Y00256*
X02698Y00248*
X0269Y00238*
X02684Y00227*
X0268Y00215*
X02679Y00202*
Y00183*
X0268Y0017*
X02684Y00158*
X0269Y00147*
X02698Y00137*
X02708Y00129*
X02719Y00123*
X02731Y00119*
X02744Y00118*
X02756Y00119*
X02768Y00123*
X0278Y00129*
X02789Y00137*
X02798Y00147*
X02804Y00158*
X02807Y0017*
X02808Y00183*
Y00202*
X02807Y00215*
X02804Y00227*
X02798Y00238*
X02789Y00248*
X0278Y00256*
X02768Y00262*
X02756Y00266*
X02744Y00267*
G37*
G36*
X02543D02*
X0253Y00266D01*
X02518Y00262*
X02507Y00256*
X02497Y00248*
X02489Y00238*
X02483Y00227*
X02479Y00215*
X02478Y00202*
Y00183*
X02479Y0017*
X02483Y00158*
X02489Y00147*
X02497Y00137*
X02507Y00129*
X02518Y00123*
X0253Y00119*
X02543Y00118*
X02555Y00119*
X02568Y00123*
X02579Y00129*
X02589Y00137*
X02597Y00147*
X02603Y00158*
X02606Y0017*
X02608Y00183*
Y00202*
X02606Y00215*
X02603Y00227*
X02597Y00238*
X02589Y00248*
X02579Y00256*
X02568Y00262*
X02555Y00266*
X02543Y00267*
G37*
G36*
X03635Y0012D02*
X03594D01*
Y00079*
X03599Y00079*
X03611Y00084*
X03622Y00092*
X0363Y00103*
X03634Y00115*
X03635Y0012*
G37*
G36*
X03579D02*
X03538D01*
X03538Y00115*
X03543Y00103*
X03551Y00092*
X03561Y00084*
X03574Y00079*
X03579Y00079*
Y0012*
G37*
G36*
X02643Y00768D02*
X0263Y00767D01*
X02617Y00763*
X02605Y00757*
X02595Y00748*
X02586Y00738*
X0258Y00726*
X02576Y00713*
X02574Y007*
X02576Y00686*
X0258Y00673*
X02586Y00661*
X02595Y00651*
X02921Y00325*
X02931Y00316*
X02943Y0031*
X02956Y00306*
X02969Y00305*
X03371*
X0338Y00296*
Y00127*
X03381Y00114*
X03385Y00101*
X03391Y00089*
X034Y00079*
Y00079*
X034*
X0341Y0007*
X03422Y00064*
X03435Y0006*
X03449Y00059*
X03462Y0006*
X03475Y00064*
X03487Y0007*
X03497Y00079*
X03497*
Y00079*
X03506Y00089*
X03512Y00101*
X03516Y00114*
X03517Y00127*
Y00324*
X03516Y00338*
X03512Y00351*
X03506Y00363*
X03497Y00373*
Y00373*
X03497*
X03448Y00422*
X03438Y00431*
X03426Y00437*
X03413Y00441*
X03399Y00442*
X02998*
X02692Y00748*
X02681Y00757*
X0267Y00763*
X02657Y00767*
X02643Y00768*
G37*
G36*
X00448Y02873D02*
X00414D01*
X00414Y0287*
X00418Y02859*
X00425Y0285*
X00434Y02843*
X00444Y02839*
X00448Y02839*
Y02873*
G37*
G36*
X00348D02*
X00314D01*
X00314Y0287*
X00318Y02859*
X00325Y0285*
X00334Y02843*
X00344Y02839*
X00348Y02839*
Y02873*
G37*
G36*
X00497D02*
X00463D01*
Y02839*
X00467Y02839*
X00477Y02843*
X00486Y0285*
X00493Y02859*
X00497Y0287*
X00497Y02873*
G37*
G36*
X00397D02*
X00363D01*
Y02839*
X00367Y02839*
X00377Y02843*
X00386Y0285*
X00393Y02859*
X00397Y0287*
X00397Y02873*
G37*
G36*
X0012Y03854D02*
X0011Y03852D01*
X00101Y03846*
X00096Y03838*
X00094Y03828*
X00096Y03818*
X00101Y0381*
X0011Y03805*
X0012Y03803*
X00129Y03805*
X00138Y0381*
X00143Y03818*
X00145Y03828*
X00143Y03838*
X00138Y03846*
X00129Y03852*
X0012Y03854*
G37*
G36*
X00064Y0307D02*
Y03036D01*
X00099*
Y0307*
X00064*
G37*
G36*
X00463Y03022D02*
Y02988D01*
X00497*
X00497Y02992*
X00493Y03002*
X00486Y03011*
X00477Y03018*
X00467Y03022*
X00463Y03022*
G37*
G36*
X00363D02*
Y02988D01*
X00397*
X00397Y02992*
X00393Y03002*
X00386Y03011*
X00377Y03018*
X00367Y03022*
X00363Y03022*
G37*
G36*
X00448D02*
X00444Y03022D01*
X00434Y03018*
X00425Y03011*
X00418Y03002*
X00414Y02992*
X00414Y02988*
X00448*
Y03022*
G37*
G36*
X00348D02*
X00344Y03022D01*
X00334Y03018*
X00325Y03011*
X00318Y03002*
X00314Y02992*
X00314Y02988*
X00348*
Y03022*
G37*
G36*
X00099Y0302D02*
X00064D01*
Y02985*
X00099*
Y0302*
G37*
G36*
X0058Y01923D02*
X00569Y01921D01*
X00559Y01917*
X0055Y01911*
X00544Y01902*
X0054Y01892*
X00538Y01881*
X0054Y0187*
X00544Y01859*
X0055Y01851*
X00559Y01844*
X00569Y0184*
X0058Y01838*
X00591Y0184*
X00602Y01844*
X0061Y01851*
X00617Y01859*
X00621Y0187*
X00623Y01881*
X00621Y01892*
X00617Y01902*
X0061Y01911*
X00602Y01917*
X00591Y01921*
X0058Y01923*
G37*
%LNhardwarecontrollerpcb_copper_signal_bot-3*%
%LPD*%
G36*
X02214Y02688D02*
X02213Y02681D01*
X02215Y0267*
X02219Y02659*
X02225Y02651*
X02228Y02649*
X02226Y02644*
X02226*
X0222Y02643*
X02216Y0264*
X02165Y02589*
X02163Y02589*
X0216Y02591*
Y02641*
X02209Y02691*
X02214Y02688*
G37*
G36*
X02325Y01713D02*
X02325Y0171D01*
X02319Y01702*
X02315Y01692*
X02313Y01681*
X02315Y0167*
X02319Y01659*
X02325Y01651*
X02334Y01644*
X02344Y0164*
X02355Y01638*
X02366Y0164*
X02377Y01644*
X02385Y01651*
X02389Y01656*
X02394Y01654*
Y01607*
X02389Y01605*
X02385Y01611*
X02377Y01617*
X02366Y01621*
X02355Y01623*
X02344Y01621*
X02334Y01617*
X02325Y01611*
X02319Y01602*
X02315Y01592*
X02313Y01581*
X02315Y0157*
X02319Y01559*
X02325Y01551*
X02334Y01544*
X02344Y0154*
X02355Y01538*
X02366Y0154*
X02377Y01544*
X02385Y01551*
X02389Y01556*
X02394Y01554*
Y01507*
X02389Y01505*
X02385Y01511*
X02377Y01517*
X02366Y01521*
X02355Y01523*
X02344Y01521*
X02338Y01519*
X02315Y01541*
X02311Y01545*
X02305Y01546*
X02287*
X02285Y0155*
X02285Y01551*
X02292Y01559*
X02296Y0157*
X02298Y01581*
X02296Y01592*
X02292Y01602*
X02285Y01611*
X02277Y01617*
X02266Y01621*
X02255Y01623*
X02244Y01621*
X02238Y01619*
X02215Y01642*
Y01656*
X0222Y01658*
X02225Y01651*
X02234Y01644*
X02244Y0164*
X02255Y01638*
X02266Y0164*
X02277Y01644*
X02285Y01651*
X02292Y01659*
X02296Y0167*
X02298Y01681*
X02296Y01692*
X02292Y01702*
X02286Y0171*
X02286Y01713*
X02287Y01715*
X02324*
X02325Y01713*
G37*
G36*
X02411Y01162D02*
X02397Y01148D01*
X02393Y01143*
X02392Y01137*
Y0111*
X02387Y01108*
X02385Y01111*
X02377Y01117*
X02366Y01121*
X02355Y01123*
X02344Y01121*
X02334Y01117*
X02325Y01111*
X02319Y01102*
X02315Y01092*
X02313Y01081*
X02315Y0107*
X02319Y01059*
X02325Y01051*
X02328Y01049*
X02326Y01044*
X02313*
X02294Y01063*
X02296Y0107*
X02298Y01081*
X02296Y01092*
X02292Y01102*
X02286Y0111*
X02287Y01115*
X02304*
X0231Y01116*
X02315Y01119*
X02338Y01142*
X02344Y0114*
X02355Y01138*
X02366Y0114*
X02377Y01144*
X02385Y01151*
X02392Y01159*
X02395Y01166*
X02407*
X02408Y01166*
X02411Y01162*
G37*
G36*
X02942Y01404D02*
X0298Y01367D01*
Y00952*
X02946Y00919*
X02891*
Y01171*
X02931Y0121*
Y01265*
X02891Y01305*
Y01474*
X02942Y01474*
Y01404*
G37*
G54D47*
X04598Y03462D02*
X04761Y03625D01*
X04598Y02374D02*
Y03462D01*
X02384Y03523D02*
X03098D01*
X02195Y03712D02*
X02384Y03523D01*
X02463Y03553D02*
X03066D01*
X02304Y03712D02*
X02463Y03553D01*
X02543Y03582D02*
X03035D01*
X02413Y03712D02*
X02543Y03582D01*
X02622Y03612D02*
X03003D01*
X02522Y03712D02*
X02622Y03612D01*
X02677Y01527D02*
Y01759D01*
X02474Y01324D02*
X02677Y01527D01*
X00887Y0309D02*
X02718D01*
X00728Y02931D02*
X00887Y0309D01*
X00728Y01858D02*
Y02931D01*
X00903Y03061D02*
X02647D01*
X00757Y02915D02*
X00903Y03061D01*
X00757Y01763D02*
Y02915D01*
X00919Y03031D02*
X02574D01*
X00787Y02899D02*
X00919Y03031D01*
X00787Y01736D02*
Y02899D01*
X02718Y0309D02*
X02828Y0298D01*
X02647Y03061D02*
X0273Y02978D01*
X02574Y03031D02*
X0263Y02976D01*
X02828Y02931D02*
Y0298D01*
X0273Y02931D02*
Y02978D01*
X0263Y02932D02*
Y02976D01*
X00816Y01642D02*
Y02885D01*
X00863Y02932*
X02529*
X02192Y01129D02*
X02304D01*
X01968Y00905D02*
X02192Y01129D01*
X00726Y00905D02*
X01968D01*
X02202Y01181D02*
X02255D01*
X01956Y00935D02*
X02202Y01181D01*
X00259Y00935D02*
X01956D01*
X02304Y01129D02*
X02355Y01181D01*
X02255Y01081D02*
X02307Y01029D01*
X02379*
X02407Y01057*
Y01137*
X02501Y01314D02*
X0271Y01523D01*
X02501Y01232D02*
Y01314D01*
X02407Y01137D02*
X02501Y01232D01*
X02474Y01248D02*
Y01324D01*
X02407Y01181D02*
X02474Y01248D01*
X02355Y01181D02*
X02407D01*
X02535Y01812D02*
Y02269D01*
X02409Y01687D02*
X02535Y01812D01*
X02409Y01257D02*
Y01687D01*
X02381Y0123D02*
X02409Y01257D01*
X02305Y0123D02*
X02381D01*
X02255Y01181D02*
X02305Y0123D01*
X02226Y02629D02*
X02807D01*
X02175Y02578D02*
X02226Y02629D01*
X02175Y01586D02*
Y02578D01*
X02228Y0273D02*
X02807D01*
X02145Y02647D02*
X02228Y0273D01*
X02145Y01533D02*
Y02647D01*
X02807Y0273D02*
X03003Y02927D01*
X02145Y01533D02*
X02198Y01481D01*
X02255*
X02807Y02629D02*
X03104Y02927D01*
X02175Y01586D02*
X0223Y01531D01*
X02305*
X02355Y01481*
X0271Y01523D02*
Y01929D01*
X00455Y01281D02*
X00816Y01642D01*
X0058Y01529D02*
X00787Y01736D01*
X00404Y01529D02*
X0058D01*
X00355Y01481D02*
X00404Y01529D01*
X00625Y01631D02*
X00757Y01763D01*
X00549Y01732D02*
X00602D01*
X00728Y01858*
X00429Y01631D02*
X00625D01*
X00405Y01655D02*
X00429Y01631D01*
X00405Y01655D02*
Y01831D01*
X00355Y01881D02*
X00405Y01831D01*
X00515Y01765D02*
X00549Y01732D01*
X00515Y01765D02*
Y01897D01*
X0048Y01933D02*
X00515Y01897D01*
X00403Y01933D02*
X0048D01*
X00355Y01981D02*
X00403Y01933D01*
X00355Y02281D02*
X00406Y0223D01*
X00486*
X00505Y0221*
Y02051D02*
Y0221D01*
X00484Y02029D02*
X00505Y02051D01*
X00251Y02029D02*
X00484D01*
X00198Y01976D02*
X00251Y02029D01*
X00198Y01865D02*
Y01976D01*
X00057Y01723D02*
X00198Y01865D01*
X02529Y02932D02*
X02529Y02932D01*
X00257Y00437D02*
X00726Y00905D01*
X0287Y00881D02*
X03334D01*
X02771Y0098D02*
X0287Y00881D01*
X02771Y0098D02*
Y01064D01*
X02722Y01114D02*
Y01183D01*
Y01114D02*
X02771Y01064D01*
X03334Y00881D02*
X03492Y00724D01*
X02722Y01183D02*
X02753Y01214D01*
X0019Y02181D02*
X00355D01*
X00404Y02129D02*
X00455Y02181D01*
X00212Y02129D02*
X00404D01*
X00157Y02074D02*
X00212Y02129D01*
X00118Y02108D02*
X0019Y02181D01*
X00057Y01923D02*
X00118Y01984D01*
Y02108*
X00057Y01823D02*
X00157Y01924D01*
Y02074*
X00167Y0233D02*
X00509D01*
X0058Y02259*
Y02181D02*
Y02259D01*
X00639Y02139D02*
Y02496D01*
X00507Y02628D02*
X00639Y02496D01*
X00057Y02628D02*
X00507D01*
X00669Y02069D02*
Y02564D01*
X00505Y02728D02*
X00669Y02564D01*
X00057Y02728D02*
X00505D01*
X0058Y01781D02*
X00698Y01899D01*
Y02736*
X00506Y02928D02*
X00698Y02736D01*
X00057Y02928D02*
X00506D01*
X0058Y01981D02*
X00669Y02069D01*
X0058Y02081D02*
X00639Y02139D01*
X04631Y03064D02*
X04759Y03192D01*
X04631Y02356D02*
Y03064D01*
X0351Y03661D02*
Y03712D01*
X02505Y0183D02*
Y02181D01*
X02405Y0173D02*
X02505Y0183D01*
X02228Y0173D02*
X02405D01*
X022Y01702D02*
X02228Y0173D01*
X022Y01636D02*
Y01702D01*
Y01636D02*
X02255Y01581D01*
X03548Y02237D02*
X03549Y02237D01*
Y01879D02*
Y02237D01*
X0374Y01909D02*
Y02269D01*
X03724Y02285D02*
X0374Y02269D01*
X03724Y02285D02*
Y02352D01*
X03769Y01998D02*
Y02285D01*
X03753Y02301D02*
X03769Y02285D01*
X03753Y02301D02*
Y02342D01*
X03745Y02373D02*
Y02415D01*
X03724Y02352D02*
X03745Y02373D01*
X03781Y02369D02*
Y02415D01*
X03753Y02342D02*
X03781Y02369D01*
X02647Y02367D02*
Y02368D01*
Y0183D02*
Y02367D01*
X02618Y01866D02*
Y02318D01*
X02677Y01897D02*
Y02419D01*
X03826Y0285D02*
X04232D01*
X03752Y02776D02*
X03826Y0285D01*
X02476Y01981D02*
Y02238D01*
X04155Y03123D02*
X04225Y03052D01*
X04048Y03123D02*
X04155D01*
X0351Y03661D02*
X04048Y03123D01*
X03664Y02776D02*
X03752D01*
X03866Y02934D02*
X03934D01*
X03736Y02804D02*
X03866Y02934D01*
X03639Y02804D02*
X03736D01*
X03973Y02895D02*
X04395D01*
X03934Y02934D02*
X03973Y02895D01*
X03841Y0296D02*
X03958D01*
X03716Y02834D02*
X03841Y0296D01*
X04037Y03365D02*
X04511D01*
X03946Y03275D02*
X04037Y03365D01*
G54D49*
X02753Y01285D02*
X02797Y01242D01*
Y01172D02*
Y01242D01*
Y01172D02*
X02841Y01128D01*
G54D50*
X0438Y03003D02*
X04472Y02911D01*
Y0219D02*
Y02911D01*
X04328Y02047D02*
X04472Y0219D01*
X04328Y01566D02*
Y02047D01*
Y01566D02*
X04415Y0148D01*
X04204Y03003D02*
X0438D01*
X04415Y0148D02*
X04535D01*
X0358Y03012D02*
X03727Y03158D01*
X03956*
X04044Y0307D02*
X04137D01*
X03956Y03158D02*
X04044Y0307D01*
X04137D02*
X04204Y03003D01*
X04535Y0148D02*
X0457D01*
X04606*
G54D53*
X04761Y02816D03*
Y02738D03*
Y03625D03*
Y03547D03*
G54D54*
X04761Y02659D03*
Y03468D03*
G54D55*
X0422Y03775D03*
Y0409D03*
X03236Y03775D03*
Y0409D03*
X01921Y0409D03*
Y03775D03*
X02905Y0409D03*
Y03775D03*
G54D56*
X03892Y0409D03*
X03783D03*
X03674D03*
X03565D03*
X03946Y03978D03*
X03837D03*
X03728D03*
X03619D03*
X0351D03*
Y03712D03*
X03619D03*
X03728D03*
X03837D03*
X03946D03*
X03565Y03824D03*
X03674D03*
X03783D03*
X03892D03*
X02576Y03824D03*
X02467D03*
X02358D03*
X02249D03*
X02631Y03712D03*
X02522D03*
X02413D03*
X02304D03*
X02195D03*
Y03978D03*
X02304D03*
X02413D03*
X02522D03*
X02631D03*
X02249Y0409D03*
X02358D03*
X02467D03*
X02576D03*
G54D57*
X04675Y0042D03*
Y0082D03*
Y0122D03*
X03875Y0042D03*
Y0072D03*
Y0092D03*
X03586Y00127D03*
Y00324D03*
G54D58*
X02255Y00781D03*
X00355D03*
X0058Y01681D03*
X00057Y03028D03*
G54D59*
X02355Y00781D03*
X02255Y00881D03*
X02355D03*
X02255Y00981D03*
X02355D03*
X02255Y01081D03*
X02355D03*
X02255Y01181D03*
X02355D03*
X02255Y01281D03*
X02355D03*
X02255Y01381D03*
X02355D03*
X02255Y01481D03*
X02355D03*
X02255Y01581D03*
X02355D03*
X02255Y01681D03*
X02355D03*
X02255Y01781D03*
X02355D03*
X02255Y01881D03*
X02355D03*
X02255Y01981D03*
X02355D03*
X02255Y02081D03*
X02355D03*
X02255Y02181D03*
X02355D03*
X02255Y02281D03*
X02355D03*
X02255Y02381D03*
X02355D03*
X02255Y02481D03*
X02355D03*
X02255Y02581D03*
X02355D03*
X02255Y02681D03*
X02355D03*
X02255Y02781D03*
X02355D03*
X02255Y02881D03*
X02355D03*
X02255Y02981D03*
X02355D03*
X00455Y00781D03*
X00355Y00881D03*
X00455D03*
X00355Y00981D03*
X00455D03*
X00355Y01081D03*
X00455D03*
X00355Y01181D03*
X00455D03*
X00355Y01281D03*
X00455D03*
X00355Y01381D03*
X00455D03*
X00355Y01481D03*
X00455D03*
X00355Y01581D03*
X00455D03*
X00355Y01681D03*
X00455D03*
X00355Y01781D03*
X00455D03*
X00355Y01881D03*
X00455D03*
X00355Y01981D03*
X00455D03*
X00355Y02081D03*
X00455D03*
X00355Y02181D03*
X00455D03*
X00355Y02281D03*
X00455D03*
X00355Y02381D03*
X00455D03*
X00355Y02481D03*
X00455D03*
X00355Y02581D03*
X00455D03*
X00355Y02681D03*
X00455D03*
X00355Y02781D03*
X00455D03*
X00355Y02881D03*
X00455D03*
X00355Y02981D03*
X00455D03*
X0058Y01781D03*
Y01881D03*
Y01981D03*
Y02081D03*
Y02181D03*
X00057Y02528D03*
Y02628D03*
Y02728D03*
X00057Y02828D03*
X00057Y02928D03*
G54D60*
X02543Y00192D03*
X02744D03*
G54D61*
X02643Y007D03*
Y0085D03*
Y01D03*
G54D62*
X00057Y02023D03*
Y01923D03*
Y01823D03*
Y01623D03*
Y01723D03*
G54D63*
X00057Y01523D03*
G54D64*
X03449Y00127D03*
Y00324D03*
G54D65*
X00883Y03979D03*
X00993D03*
X01102D03*
X01211D03*
X0132D03*
X00938Y04091D03*
X01047D03*
X01156D03*
X01265D03*
G54D66*
X01594Y04035D03*
X00609D03*
G54D67*
X0473Y00141D03*
Y04133D03*
X00141D03*
Y00141D03*
G54D68*
X00068Y02161D03*
X04273Y01622D03*
X04222D03*
X04169D03*
X03545Y0057D03*
X0012Y03828D03*
X03472Y02481D03*
X04181Y02251D03*
X04149Y0249D03*
X04262Y02787D03*
X03529Y02673D03*
X0461Y02045D03*
X04551Y02112D03*
X04511D03*
Y02076D03*
X04822Y02187D03*
Y02218D03*
Y0225D03*
X04535Y0148D03*
X04606D03*
X0457D03*
X03938Y02812D03*
Y02381D03*
X0369Y0213D03*
X03995Y02153D03*
X04204Y03003D03*
X03956Y03158D03*
X0358Y03012D03*
X03341Y0344D03*
X034D03*
X03481D03*
X0351D03*
X0354D03*
X0337D03*
X03092Y02458D03*
X02974Y01877D03*
X0459Y02112D03*
Y02076D03*
X04551D03*
X04494Y02045D03*
X04531D03*
X0457D03*
X04765Y02047D03*
Y0208D03*
X04364Y01399D03*
Y01433D03*
X04811Y01437D03*
Y01395D03*
X01568Y03624D03*
X01627D03*
X01598D03*
X01403Y03625D03*
X01531D03*
X01501D03*
X01472D03*
X01433D03*
X01374D03*
X03238Y01805D03*
X03295Y01783D03*
X03151Y01529D03*
X03462Y01643D03*
X03501Y016D03*
Y01643D03*
Y01687D03*
X03462Y016D03*
Y01687D03*
X03423D03*
Y01643D03*
Y016D03*
X00736Y03652D03*
X002Y03527D03*
Y03476D03*
X00301Y03777D03*
X00698Y03874D03*
X00586Y03777D03*
X00686Y03529D03*
Y03477D03*
X03748Y00226D03*
X03216Y00194D03*
X03177D03*
X03359Y00626D03*
X03398D03*
X03413Y01474D03*
X03458D03*
X03629Y01472D03*
X03675D03*
X03398Y00664D03*
X03359D03*
X03187Y01435D03*
Y01474D03*
X03246Y01435D03*
Y01474D03*
X03305Y01198D03*
Y01238D03*
Y01277D03*
Y01316D03*
Y01356D03*
Y01395D03*
Y01435D03*
Y01474D03*
G54D69*
X03098Y03523D03*
X03066Y03553D03*
X03035Y03582D03*
X03003Y03612D03*
X02704Y02663D03*
X02677Y01759D03*
X03053Y02929D03*
X03104Y02927D03*
X03003D03*
X0273Y02931D03*
X02828D03*
X00259Y00935D03*
X00257Y00437D03*
X03492Y00724D03*
X00167Y0233D03*
X04631Y02356D03*
X04598Y02374D03*
X04202Y02198D03*
X03549Y01879D03*
X0374Y01909D03*
X04117Y02369D03*
X04761Y03192D03*
X03769Y01998D03*
X03548Y02237D03*
X04127Y02419D03*
X04354Y0244D03*
X02476Y02238D03*
X02505Y02181D03*
X02535Y02269D03*
X02647Y02367D03*
Y0183D03*
X02618Y02318D03*
Y01866D03*
X02677Y02419D03*
X02588Y01535D03*
X02482Y0157D03*
X04385Y02751D03*
X04232Y0285D03*
X02476Y01981D03*
X04395Y02895D03*
X03155Y0293D03*
X03054Y03239D03*
X03154D03*
X04647Y03192D03*
X03613Y02432D03*
X0271Y01929D03*
X03131Y02358D03*
X03783Y02324D03*
X03745Y02415D03*
X03781D03*
X02677Y01897D03*
X03664Y02776D03*
X03639Y02804D03*
X03716Y02834D03*
X03958Y0296D03*
X03934Y02934D03*
X04225Y03052D03*
X04556Y03041D03*
Y02989D03*
X03354Y02929D03*
X03253D03*
X03179Y02663D03*
X02879Y02932D03*
X02779D03*
X02678D03*
X02578D03*
X0263Y02932D03*
X02529Y02932D03*
X03611Y02763D03*
X03848Y02773D03*
X04088Y02753D03*
Y02442D03*
X0385Y0242D03*
X03623Y02294D03*
X03816Y0213D03*
X03855Y02334D03*
X03995Y02279D03*
X03946Y03275D03*
X04511Y03365D03*
X04422Y03212D03*
X0407Y03003D03*
X04048Y02932D03*
X0409Y03159D03*
X04143Y03531D03*
X03996Y03527D03*
X03934Y02998D03*
Y03049D03*
X0349Y02948D03*
X03818Y03295D03*
X03423Y0319D03*
X03655Y03173D03*
X03092Y02179D03*
X02724D03*
X02935Y01968D03*
X02852Y01897D03*
X04129Y02773D03*
X03253Y0324D03*
X02578Y03239D03*
X02679D03*
X02779D03*
X0288D03*
X03354Y0324D03*
X03492Y0059D03*
X02753Y01214D03*
X02841Y01128D03*
X02966Y01419D03*
Y01466D03*
Y01442D03*
Y0149D03*
X0299Y01419D03*
Y0149D03*
Y01442D03*
Y01466D03*
X02907Y00962D03*
X02931Y00938D03*
X02907D03*
X02931Y00962D03*
Y01124D03*
X02907D03*
X02931Y01458D03*
X02907D03*
Y01435D03*
X02931D03*
Y01411D03*
X02907D03*
X0282Y01383D03*
X02675Y01372D03*
X0262Y01271D03*
X02753Y01285D03*
X02757Y01131D03*
X02803Y00998D03*
Y01029D03*
X0282Y01084D03*
G54D70*
X02854Y01201D03*
X02835Y0122D03*
X02854Y01272D03*
X02887Y01201D03*
X02906Y0122D03*
Y01254D03*
X02887Y01272D03*
X02835Y01254D03*
G54D71*
X03399Y00374D02*
X03449Y00324D01*
X02969Y00374D02*
X03399D01*
X02643Y007D02*
X02969Y00374D01*
X03449Y00127D02*
Y00324D01*
M02*