%FSTAX23Y23*%
%MOIN*%
%SFA1B1*%

%IPPOS*%
%ADD10R,0.021654X0.017716*%
%ADD11R,0.019685X0.027559*%
%ADD12R,0.047244X0.031496*%
%ADD13R,0.084646X0.037402*%
%ADD14R,0.084646X0.127953*%
%ADD15R,0.035433X0.035433*%
%ADD16R,0.027559X0.009842*%
%ADD17R,0.009842X0.027559*%
%ADD18R,0.014764X0.014764*%
%ADD19R,0.044291X0.044291*%
%ADD20O,0.023622X0.057087*%
%ADD21O,0.023622X0.057087*%
%ADD22R,0.023622X0.057087*%
%ADD23R,0.057087X0.023622*%
%ADD24O,0.057087X0.023622*%
%ADD25O,0.057087X0.023622*%
%ADD26R,0.009842X0.021654*%
%ADD27R,0.021654X0.009842*%
%ADD28R,0.023622X0.039370*%
%ADD29O,0.055118X0.015748*%
%ADD30O,0.015748X0.055118*%
%ADD31R,0.027559X0.035433*%
%ADD32R,0.037402X0.051181*%
%ADD33R,0.035433X0.027559*%
%ADD34R,0.051181X0.037402*%
%ADD35R,0.035433X0.023622*%
%ADD36R,0.153937X0.147638*%
%ADD37R,0.024016X0.050000*%
%ADD38R,0.212598X0.114173*%
%ADD39R,0.072835X0.133858*%
%ADD40R,0.066929X0.041339*%
%ADD41R,0.084646X0.064961*%
%ADD42R,0.017716X0.021654*%
%ADD43R,0.098425X0.125000*%
%ADD44R,0.041339X0.066929*%
%ADD45C,0.019685*%
%ADD46C,0.015748*%
%ADD47C,0.009842*%
%ADD48C,0.025591*%
%ADD49C,0.010000*%
%ADD50C,0.039370*%
%ADD51C,0.013780*%
%ADD52C,0.059055*%
%ADD53C,0.050000*%
%ADD54R,0.050000X0.050000*%
%ADD55C,0.140000*%
%ADD56C,0.070000*%
%ADD57C,0.078740*%
%ADD58R,0.065000X0.065000*%
%ADD59C,0.065000*%
%ADD60O,0.110236X0.129921*%
%ADD61O,0.118110X0.098425*%
%ADD62C,0.060000*%
%ADD63R,0.060000X0.060000*%
%ADD64R,0.078740X0.078740*%
%ADD65C,0.074409*%
%ADD66C,0.137795*%
%ADD67C,0.271654*%
%ADD68C,0.031496*%
%ADD69C,0.023622*%
%ADD70C,0.024000*%
%LNhardwarecontrollerpcb_copper_signal_top-1*%
%LPD*%
G36*
X04742Y04393D02*
X04759Y04391D01*
X04775Y04386*
X0479Y0438*
X04805Y04372*
X04818Y04361*
X0483Y0435*
X0484Y04336*
X04848Y04322*
X04855Y04306*
X04859Y0429*
X04861Y04274*
X04861Y04266*
Y04266*
X04861Y00137*
Y00129*
X04859Y00112*
X04855Y00096*
X04848Y00081*
X0484Y00066*
X0483Y00053*
X04818Y00041*
X04805Y00031*
X0479Y00023*
X04775Y00016*
X04759Y00012*
X04742Y0001*
X04734*
X04125*
Y02021*
X04448Y02344*
Y02527*
X04346Y02629*
X03507*
X03476Y02661*
Y03027*
X03375Y03127*
X0074Y03127*
X00486Y03381*
Y03859*
X00363Y03982*
X0001*
Y04265*
Y04274*
X00012Y0429*
X00016Y04306*
X00023Y04322*
X00031Y04336*
X00041Y0435*
X00053Y04361*
X00066Y04372*
X00081Y0438*
X00096Y04386*
X00112Y04391*
X00129Y04393*
X00137*
X04734*
X04742*
G37*
G36*
X00397Y03816D02*
Y03356D01*
X00644Y03109*
X00642Y03105*
X00387*
X00387*
X00382Y03104*
X00377Y031*
X00289Y03012*
X00287Y03013*
X00284Y03014*
Y03299*
X00283Y03304*
X0028Y03309*
X00183Y03405*
Y03547*
X00199Y03563*
X00217*
X00218Y03562*
X00225Y03557*
X00233Y03555*
X00267*
X00275Y03557*
X00282Y03562*
X00287Y03569*
X00288Y03577*
X00287Y03585*
X00282Y03592*
X00275Y03597*
X00267Y03599*
X00233*
X00225Y03597*
X00218Y03592*
X00217Y03592*
X00193*
X00188Y03591*
X00183Y03588*
Y03588*
X00163Y03567*
X00158Y0357*
Y03673*
X00198Y03713*
X00217*
X00218Y03712*
X00225Y03707*
X00233Y03705*
X00267*
X00275Y03707*
X00282Y03712*
X00287Y03719*
X00288Y03727*
X00287Y03735*
X00282Y03742*
X00275Y03747*
X00267Y03749*
X00233*
X00225Y03747*
X00218Y03742*
X00217Y03742*
X00192*
X00186Y03741*
X00181Y03738*
X00133Y03689*
X0013Y03684*
X00129Y03679*
Y03381*
X0013Y03376*
X00133Y03371*
X00225Y03279*
Y02699*
X0022Y02697*
X00098Y02819*
X00099Y02828*
X00097Y02839*
X00093Y02849*
X00087Y02858*
X00078Y02864*
X00068Y02869*
X00057Y0287*
X00046Y02869*
X00035Y02864*
X00027Y02858*
X0002Y02849*
X00016Y02839*
X00015Y02831*
X0001Y02831*
Y02924*
X00015Y02925*
X00016Y02917*
X0002Y02907*
X00027Y02898*
X00035Y02891*
X00046Y02887*
X00057Y02886*
X00068Y02887*
X00078Y02891*
X00087Y02898*
X00093Y02907*
X00097Y02917*
X00099Y02928*
X00097Y02939*
X00093Y02949*
X00087Y02958*
X00078Y02964*
X00068Y02969*
X00057Y0297*
X00046Y02969*
X00035Y02964*
X00027Y02958*
X0002Y02949*
X00016Y02939*
X00015Y02931*
X0001Y02931*
Y02984*
X00014Y02985*
X00015*
X00049*
Y03028*
Y0307*
X00015*
X00014*
X0001Y03072*
Y03909*
X00305*
X00397Y03816*
G37*
G36*
X0071Y03043D02*
X03162D01*
X03189Y03015*
Y03008*
X03189Y03008*
X03184Y03001*
X03182Y02993*
Y02959*
X03184Y02951*
X03189Y02944*
X03189Y02943*
Y02834*
X03184Y02829*
X03181Y02824*
X0318Y02818*
Y02816*
X03175Y02815*
X03173Y02817*
X03118Y02872*
Y02911*
X03119Y02911*
X03124Y02918*
X03126Y02927*
X03124Y02935*
X03121Y02939*
X0312Y02943*
X03121Y02947*
X03124Y02951*
X03126Y02959*
Y02993*
X03124Y03001*
X03119Y03008*
X03112Y03013*
X03104Y03014*
X03096Y03013*
X03089Y03008*
X03084Y03001*
X03082Y02993*
Y02959*
X03084Y02951*
X03087Y02947*
X03088Y02943*
X03087Y02939*
X03084Y02935*
X03082Y02927*
X03084Y02918*
X03089Y02911*
X03089Y02911*
Y02866*
X0309Y0286*
X03093Y02855*
X03148Y02801*
Y02781*
X03133*
X03018Y02895*
Y02911*
X03019Y02911*
X03023Y02918*
X03025Y02927*
X03023Y02935*
X03021Y02939*
X03019Y02943*
X03021Y02947*
X03024Y02951*
X03026Y02959*
Y02993*
X03024Y03001*
X03019Y03008*
X03012Y03013*
X03004Y03014*
X02996Y03013*
X02989Y03008*
X02984Y03001*
X02982Y02993*
Y02959*
X02984Y02951*
X02987Y02947*
X02988Y02943*
X02986Y02939*
X02983Y02935*
X02982Y02927*
X02983Y02918*
X02988Y02911*
X02989Y02911*
Y02889*
X0299Y02884*
X02993Y02879*
X03112Y0276*
Y02734*
X03245*
Y02781*
X03241*
Y02801*
X03314Y02874*
X03317Y02879*
X03318Y02885*
Y02943*
X03319Y02944*
X03324Y02951*
X03326Y02959*
Y02993*
X03324Y03001*
X03319Y03008*
X03318Y03008*
Y03022*
X03317Y03028*
X03314Y03032*
X03308Y03038*
X0331Y03043*
X03336*
X03361Y03018*
X03358Y03013*
X03354Y03014*
X03346Y03013*
X03339Y03008*
X03334Y03001*
X03332Y02993*
Y02959*
X03334Y02951*
X03338Y02944*
X03334Y02937*
X03332Y02929*
X03334Y0292*
X03339Y02913*
X03346Y02909*
X03354Y02907*
X03362Y02909*
X03369Y02913*
X03374Y0292*
X03376Y02929*
X03374Y02937*
X03369Y02944*
X03374Y02951*
X03376Y02959*
Y02993*
X03375Y02997*
X03379Y03*
X03397Y02982*
Y02633*
X03437Y02594*
X03435Y02589*
X02785*
X02785*
X02779Y02588*
X02775Y02585*
X02607Y02417*
X02604Y02413*
X02603Y02407*
Y02334*
X02602Y02334*
X02598Y02327*
X02596Y02318*
X02598Y0231*
X02602Y02303*
X02609Y02298*
X02618Y02297*
X02626Y02298*
X02633Y02303*
X02634Y02304*
X02771*
X02772Y02304*
X02779Y02299*
X02787Y02297*
X0282*
X02829Y02299*
X02836Y02304*
X0284Y02311*
X02842Y02319*
X0284Y02327*
X02836Y02334*
X02829Y02339*
X0282Y02341*
X02787*
X02779Y02339*
X02772Y02334*
X02771Y02334*
X02633*
X02633Y02334*
X02632Y02334*
Y02346*
X02637Y02349*
X02639Y02347*
X02647Y02346*
X02655Y02347*
X02662Y02352*
X02663Y02353*
X02773*
X02779Y02349*
X02787Y02347*
X0282*
X02829Y02349*
X02834Y02353*
X02895*
X029Y02354*
X02905Y02357*
X02977Y02428*
X02981Y02426*
X0298Y02419*
X02981Y02411*
X02986Y02404*
X02993Y02399*
X03001Y02397*
X03035*
X03043Y02399*
X03044Y02399*
X03065*
Y02396*
X03119*
Y02442*
X03118*
X03115Y02447*
X03116Y02448*
X03118Y02458*
X03116Y02468*
X0311Y02476*
X03102Y02482*
X03092Y02484*
X03082Y02482*
X03074Y02476*
X03068Y02468*
X03066Y02458*
X03068Y02448*
X03069Y02447*
X03066Y02442*
X03065*
Y02439*
X03044*
X03043Y02439*
X03035Y02441*
X03001*
X02995Y02439*
X02992Y02444*
X03051Y02503*
X03208*
X03533Y02178*
X03538Y02174*
X03543Y02173*
X03543*
X0363*
Y02159*
X03636*
Y02114*
X03637Y02108*
X0364Y02104*
X03668Y02076*
X03666Y02071*
X03202*
X03197Y0207*
X03192Y02067*
X03004Y01879*
X02999Y01881*
X02998Y01887*
X02992Y01896*
X02989Y01898*
Y0197*
X02987Y01976*
X02984Y0198*
X02961Y02004*
X02956Y02007*
X0295Y02008*
X02907*
X02907*
X02901Y02007*
X02897Y02004*
X02882Y01989*
X02879Y01992*
X02874Y01995*
X02868Y01996*
X02798*
Y02005*
X02744*
Y01959*
X02798*
Y01967*
X02805*
X02808Y01964*
Y01931*
X02798*
Y0195*
X02744*
Y01944*
X02739Y01941*
X02738Y01942*
X02732Y01943*
X02726*
X02725Y01944*
X02718Y01949*
X0271Y0195*
X02702Y01949*
X02695Y01944*
X0269Y01937*
X02688Y01929*
X0269Y0192*
X02691Y01919*
X02687Y01916*
X02685Y01917*
X02677Y01919*
X02668Y01917*
X02661Y01912*
X02661Y01912*
X02606*
X02581Y01937*
Y0207*
X0258Y02076*
X02577Y02081*
Y02081*
X02503Y02154*
X02505Y02158*
X02506Y02159*
X02514Y02161*
X02521Y02165*
X02521Y02166*
X02592*
X02647Y02111*
X02651Y02108*
X02657Y02107*
X02657*
X02803*
X02808Y02108*
X02813Y02111*
X02956Y02254*
X02986*
X02986Y02254*
X02993Y02249*
X03001Y02247*
X03035*
X03043Y02249*
X0305Y02254*
X03051Y02254*
X03065*
Y02246*
X03119*
Y02292*
X03065*
Y02284*
X03051*
X0305Y02284*
X03043Y02289*
X03035Y02291*
X03001*
X02993Y02289*
X02986Y02284*
X02986Y02284*
X0295*
X02944Y02283*
X0294Y02279*
X02797Y02136*
X02778*
X02776Y02139*
X02776Y02141*
X02939Y02304*
X02986*
X02986Y02304*
X02993Y02299*
X03001Y02297*
X03035*
X03043Y02299*
X0305Y02304*
X03051Y02304*
X03171*
Y02295*
X03225*
Y02342*
X03171*
Y02334*
X03051*
X0305Y02334*
X03043Y02339*
X03035Y02341*
X03001*
X02993Y02339*
X02986Y02334*
X02986Y02334*
X02933*
X02933*
X02928Y02333*
X02923Y02329*
X02759Y02166*
X02746*
X02744Y0217*
X02744Y02171*
X02746Y02179*
X02744Y02186*
X02747Y02191*
X02751*
Y02237*
X02697*
Y02191*
X02701*
X02704Y02186*
X02702Y02179*
X02704Y02171*
X02704Y0217*
X02702Y02166*
X02679*
X02596Y02248*
X02594Y0225*
X02596Y02255*
X02697*
Y02246*
X02751*
Y02254*
X02771*
X02772Y02254*
X02779Y02249*
X02787Y02247*
X0282*
X02829Y02249*
X02836Y02254*
X0284Y02261*
X02842Y02269*
X0284Y02277*
X02836Y02284*
X02829Y02289*
X0282Y02291*
X02787*
X02779Y02289*
X02772Y02284*
X02771Y02284*
X02751*
Y02292*
X02697*
Y02284*
X02551*
X0255Y02285*
X02543Y02289*
X02535Y02291*
X02527Y02289*
X0252Y02285*
X02515Y02277*
X02513Y02269*
X02515Y02261*
X02517Y02257*
X02515Y02252*
X02492*
X02491Y02253*
X02484Y02258*
X02476Y02259*
X02468Y02258*
X02461Y02253*
X02456Y02246*
X02454Y02238*
X02456Y02229*
X02461Y02222*
X02468Y02218*
X02476Y02216*
X02484Y02218*
X02491Y02222*
X02492Y02223*
X0258*
X02604Y02199*
X02601Y02195*
X02598Y02195*
X02521*
X02521Y02196*
X02514Y02201*
X02505Y02202*
X02497Y02201*
X0249Y02196*
X02485Y02189*
X02484Y02181*
X02483Y0218*
X02479Y02178*
X02417Y0224*
X02413Y02243*
X02407Y02244*
X02385*
X02383Y02249*
X02385Y02251*
X02392Y02259*
X02396Y0227*
X02398Y02281*
X02396Y02292*
X02392Y02302*
X02385Y02311*
X02377Y02317*
X02366Y02321*
X02355Y02323*
X02344Y02321*
X02334Y02317*
X02325Y02311*
X02319Y02302*
X02315Y02292*
X02313Y02281*
X02315Y0227*
X02319Y02259*
X02325Y02251*
X02327Y02249*
X02326Y02244*
X02285*
X02283Y02249*
X02285Y02251*
X02292Y02259*
X02296Y0227*
X02298Y02281*
X02296Y02292*
X02292Y02302*
X02285Y02311*
X02277Y02317*
X02266Y02321*
X02255Y02323*
X02244Y02321*
X02234Y02317*
X02225Y02311*
X02219Y02302*
X02215Y02292*
X02213Y02281*
X02215Y0227*
X02219Y02259*
X02225Y02251*
X02227Y02249*
X02226Y02244*
X0211*
X02014Y02341*
X02009Y02344*
X02003Y02345*
X00486*
X00484Y0235*
X00485Y02351*
X00492Y02359*
X00496Y0237*
X00498Y02381*
X00496Y02392*
X00492Y02402*
X00485Y02411*
X00477Y02417*
X00466Y02421*
X00455Y02423*
X00444Y02421*
X00434Y02417*
X00425Y02411*
X00419Y02402*
X00415Y02392*
X00413Y02381*
X00415Y0237*
X00419Y02359*
X00425Y02351*
X00427Y0235*
X00425Y02345*
X00405*
X00399Y02344*
X00395Y02341*
X00395*
X00373Y02319*
X00366Y02321*
X00355Y02323*
X00344Y02321*
X00334Y02317*
X00325Y02311*
X00319Y02302*
X00318Y02301*
X00313Y02302*
Y02359*
X00318Y0236*
X00319Y02359*
X00325Y02351*
X00334Y02344*
X00344Y0234*
X00355Y02338*
X00366Y0234*
X00377Y02344*
X00385Y02351*
X00392Y02359*
X00396Y0237*
X00398Y02381*
X00396Y02392*
X00392Y02402*
X00385Y02411*
X00377Y02417*
X00366Y02421*
X00355Y02423*
X00344Y02421*
X00334Y02417*
X00325Y02411*
X00319Y02402*
X00318Y02401*
X00313Y02402*
Y02459*
X00318Y0246*
X00319Y02459*
X00325Y02451*
X00334Y02444*
X00344Y0244*
X00355Y02438*
X00366Y0244*
X00377Y02444*
X00385Y02451*
X00392Y02459*
X00396Y0247*
X00398Y02481*
X00396Y02492*
X00392Y02502*
X00385Y02511*
X00377Y02517*
X00366Y02521*
X00355Y02523*
X00344Y02521*
X00334Y02517*
X00325Y02511*
X00319Y02502*
X00318Y02501*
X00313Y02502*
Y02559*
X00318Y0256*
X00319Y02559*
X00325Y02551*
X00334Y02544*
X00344Y0254*
X00355Y02538*
X00366Y0254*
X00377Y02544*
X00385Y02551*
X00392Y02559*
X00396Y0257*
X00398Y02581*
X00396Y02592*
X00392Y02602*
X00385Y02611*
X00377Y02617*
X00366Y02621*
X00355Y02623*
X00344Y02621*
X00334Y02617*
X00325Y02611*
X00319Y02602*
X00318Y02601*
X00313Y02602*
Y02659*
X00318Y0266*
X00319Y02659*
X00325Y02651*
X00334Y02644*
X00344Y0264*
X00355Y02638*
X00366Y0264*
X00377Y02644*
X00385Y02651*
X00392Y02659*
X00396Y0267*
X00398Y02681*
X00396Y02692*
X00392Y02702*
X00385Y02711*
X00377Y02717*
X00366Y02721*
X00355Y02723*
X00344Y02721*
X00334Y02717*
X00325Y02711*
X00319Y02702*
X00318Y02701*
X00313Y02702*
Y02759*
X00318Y0276*
X00319Y02759*
X00325Y02751*
X00334Y02744*
X00344Y0274*
X00355Y02738*
X00366Y0274*
X00377Y02744*
X00385Y02751*
X00392Y02759*
X00396Y0277*
X00398Y02781*
X00396Y02792*
X00394Y02798*
X00411Y02816*
X00424*
X00426Y02811*
X00425Y02811*
X00419Y02802*
X00415Y02792*
X00413Y02781*
X00415Y0277*
X00419Y02759*
X00425Y02751*
X00434Y02744*
X00444Y0274*
X00455Y02738*
X00466Y0274*
X00477Y02744*
X00485Y02751*
X00492Y02759*
X00496Y0277*
X00498Y02781*
X00496Y02792*
X00492Y02802*
X00485Y02811*
X00485Y02811*
X00486Y02816*
X00489Y02817*
X00494Y0282*
X0052Y02845*
X00523Y0285*
X00524Y02856*
Y02995*
X00574Y03046*
X00707*
X0071Y03043*
G37*
G36*
X00557Y03072D02*
X00558Y0307D01*
X00499Y03012*
X00496Y03007*
X00496Y03006*
X0049Y03005*
X00486Y03011*
X00477Y03018*
X00467Y03022*
X00463Y03022*
Y02981*
Y02939*
X00467Y02939*
X00477Y02943*
X00486Y0295*
X0049Y02955*
X00495Y02954*
Y02907*
X0049Y02906*
X00486Y02911*
X00477Y02918*
X00467Y02922*
X00463Y02922*
Y02881*
X00455*
Y02873*
X00414*
X00414Y0287*
X00418Y02859*
X00425Y0285*
X00426Y0285*
X00424Y02845*
X00405*
X00399Y02844*
X00395Y02841*
X00395*
X00373Y02819*
X00366Y02821*
X00355Y02823*
X00344Y02821*
X00334Y02817*
X00325Y02811*
X00319Y02802*
X00318Y02801*
X00313Y02802*
Y02858*
X00318Y02859*
X00318Y02859*
X00325Y0285*
X00334Y02843*
X00344Y02839*
X00348Y02839*
Y02881*
Y02922*
X00344Y02922*
X00334Y02918*
X00325Y02911*
X00318Y02902*
X00318Y02902*
X00313Y02903*
Y02958*
X00318Y02959*
X00318Y02959*
X00325Y0295*
X00334Y02943*
X00344Y02939*
X00348Y02939*
Y02981*
Y03022*
X00347Y03022*
X00345Y03027*
X00393Y03075*
X00556*
X00557Y03072*
G37*
G36*
X03262Y03043D02*
X03289Y03016D01*
Y03008*
X03289Y03008*
X03284Y03001*
X03282Y02993*
Y02959*
X03284Y02951*
X03289Y02944*
X03289Y02943*
Y02891*
X03223Y02824*
X03218Y02827*
X03218Y02828*
Y02943*
X03219Y02944*
X03224Y02951*
X03226Y02959*
Y02993*
X03224Y03001*
X03219Y03008*
X03218Y03008*
Y03022*
X03217Y03027*
X03214Y03032*
X03208Y03038*
X0321Y03043*
X03262*
G37*
G36*
X00016Y02817D02*
X0002Y02807D01*
X00027Y02798*
X00035Y02791*
X00046Y02787*
X00057Y02786*
X00066Y02787*
X00184Y02669*
Y02351*
X00179Y02348*
X00175Y0235*
X00167Y02352*
X00159Y0235*
X00151Y02346*
X00151Y02345*
X00137*
Y02357*
X0009*
Y02303*
X00137*
Y02316*
X00151*
X00151Y02315*
X00159Y0231*
X00167Y02309*
X00175Y0231*
X00179Y02312*
X00184Y0231*
Y02243*
X00173Y02233*
X00163*
X00154Y02231*
X00147Y02226*
X00142Y02219*
X0014Y0221*
X00142Y02201*
X00147Y02194*
X00154Y02189*
X00163Y02187*
X00183*
X00191Y02189*
X00199Y02194*
X0022Y02215*
X00225Y02213*
Y02015*
X00226Y0201*
X00229Y02005*
X00312Y01922*
X00317Y01919*
X00322Y01918*
X00327*
X00329Y01913*
X00325Y01911*
X00319Y01902*
X00315Y01892*
X00313Y01881*
X00315Y0187*
X00319Y01859*
X00325Y01851*
X00334Y01844*
X00344Y0184*
X00355Y01838*
X00366Y0184*
X00377Y01844*
X00385Y01851*
X00392Y01859*
X00396Y0187*
X00398Y01881*
X00396Y01892*
X00392Y01902*
X00385Y01911*
X00382Y01913*
X00384Y01918*
X00397*
X00417Y01898*
X00415Y01892*
X00413Y01881*
X00415Y0187*
X00419Y01859*
X00425Y01851*
X00434Y01844*
X00444Y0184*
X00455Y01838*
X00466Y0184*
X00477Y01844*
X00485Y01851*
X00492Y01859*
X00496Y0187*
X00498Y01881*
X00496Y01892*
X00492Y01902*
X00485Y01911*
X00477Y01917*
X00466Y01921*
X00455Y01923*
X00444Y01921*
X00438Y01919*
X00414Y01943*
X00409Y01946*
X00403Y01947*
X00389*
X00387Y01952*
X00392Y01959*
X00396Y0197*
X00398Y01981*
X00396Y01992*
X00392Y02002*
X00385Y02011*
X00384Y02012*
X00386Y02016*
X00399*
X00417Y01998*
X00415Y01992*
X00413Y01981*
X00415Y0197*
X00419Y01959*
X00425Y01951*
X00434Y01944*
X00444Y0194*
X00455Y01938*
X00466Y0194*
X00477Y01944*
X00485Y01951*
X00492Y01959*
X00496Y0197*
X00498Y01981*
X00496Y01992*
X00492Y02002*
X00485Y02011*
X00477Y02017*
X00466Y02021*
X00455Y02023*
X00444Y02021*
X00438Y02019*
X00415Y02041*
X00411Y02045*
X00405Y02046*
X00387*
X00385Y0205*
X00385Y02051*
X00392Y02059*
X00396Y0207*
X00398Y02081*
X00396Y02092*
X00392Y02102*
X00385Y02111*
X00377Y02117*
X00366Y02121*
X00355Y02123*
X00344Y02121*
X00338Y02119*
X00313Y02143*
Y02159*
X00318Y0216*
X00319Y02159*
X00325Y02151*
X00334Y02144*
X00344Y0214*
X00355Y02138*
X00366Y0214*
X00373Y02142*
X00394Y02121*
X00399Y02118*
X00405Y02117*
X00426*
X00427Y02112*
X00425Y02111*
X00419Y02102*
X00415Y02092*
X00413Y02081*
X00415Y0207*
X00419Y02059*
X00425Y02051*
X00434Y02044*
X00444Y0204*
X00455Y02038*
X00466Y0204*
X00477Y02044*
X00485Y02051*
X00492Y02059*
X00496Y0207*
X00498Y02081*
X00496Y02092*
X00492Y02102*
X00485Y02111*
X00483Y02112*
X00485Y02117*
X00551*
X00552Y02112*
X0055Y02111*
X00544Y02102*
X0054Y02092*
X00538Y02081*
X0054Y0207*
X00544Y02059*
X0055Y02051*
X00559Y02044*
X00569Y0204*
X0058Y02038*
X00591Y0204*
X00602Y02044*
X0061Y02051*
X00617Y02059*
X00621Y0207*
X00623Y02081*
X00621Y02092*
X00617Y02102*
X0061Y02111*
X00608Y02112*
X0061Y02117*
X01919*
X02015Y02021*
X02019Y02017*
X02025Y02016*
X02225*
X02227Y02012*
X02225Y02011*
X02219Y02002*
X02215Y01992*
X02213Y01981*
X02215Y0197*
X02219Y01959*
X02225Y01951*
X02234Y01944*
X02244Y0194*
X02255Y01938*
X02266Y0194*
X02277Y01944*
X02285Y01951*
X02292Y01959*
X02296Y0197*
X02298Y01981*
X02296Y01992*
X02292Y02002*
X02285Y02011*
X02284Y02012*
X02286Y02016*
X02325*
X02327Y02012*
X02325Y02011*
X02319Y02002*
X02315Y01992*
X02313Y01981*
X02315Y0197*
X02319Y01959*
X02325Y01951*
X02334Y01944*
X02344Y0194*
X02355Y01938*
X02366Y0194*
X02377Y01944*
X02385Y01951*
X02392Y01959*
X02395Y01966*
X0246*
X02461Y01965*
X02468Y01961*
X02476Y01959*
X02484Y01961*
X02486Y01962*
X02491Y0196*
Y01887*
X02492Y01882*
X02495Y01877*
X02552Y0182*
X02557Y01817*
X02562Y01816*
X02631*
X02632Y01815*
X02639Y0181*
X02647Y01809*
X02655Y0181*
X02662Y01815*
X02663Y01816*
X02744*
X02749Y01817*
X02754Y0182*
X0277Y01836*
X02808*
Y0183*
X02837*
Y01849*
X02837Y01851*
X02837Y01852*
Y01883*
Y01923*
X02867*
Y01902*
X02903*
X02907Y01901*
Y01898*
Y01892*
X02888*
X02886Y01892*
X02867*
Y01863*
Y0183*
X02896*
Y01863*
X02907*
Y01854*
X02962*
X02962*
X02964Y01854*
X02964Y01854*
X0297Y01852*
X02972Y01847*
X02899Y01774*
X02692*
X02692Y01775*
X02685Y01779*
X02677Y01781*
X02668Y01779*
X02661Y01775*
X02657Y01768*
X02655Y01759*
X02657Y01751*
X02658Y01749*
X02656Y01744*
X02385*
X02383Y01749*
X02385Y01751*
X02392Y01759*
X02396Y0177*
X02398Y01781*
X02396Y01792*
X02392Y01802*
X02385Y01811*
X02377Y01817*
X02366Y01821*
X02355Y01823*
X02344Y01821*
X02334Y01817*
X02325Y01811*
X02319Y01802*
X02315Y01792*
X02313Y01781*
X02315Y0177*
X02319Y01759*
X02325Y01751*
X02327Y01749*
X02326Y01744*
X02285*
X02283Y01749*
X02285Y01751*
X02292Y01759*
X02296Y0177*
X02298Y01781*
X02296Y01792*
X02292Y01802*
X02285Y01811*
X02277Y01817*
X02266Y01821*
X02255Y01823*
X02244Y01821*
X02234Y01817*
X02225Y01811*
X02219Y01802*
X02215Y01792*
X02213Y01781*
X02214Y01771*
X0221Y01769*
X02138Y01841*
X02133Y01844*
X02127Y01845*
X00611*
X00609Y0185*
X0061Y01851*
X00617Y01859*
X00621Y0187*
X00623Y01881*
X00621Y01892*
X00617Y01902*
X0061Y01911*
X00602Y01917*
X00591Y01921*
X0058Y01923*
X00569Y01921*
X00559Y01917*
X0055Y01911*
X00544Y01902*
X0054Y01892*
X00538Y01881*
X0054Y0187*
X00544Y01859*
X0055Y01851*
X00552Y0185*
X0055Y01845*
X00505*
X00499Y01844*
X00495Y01841*
X00495*
X00473Y01819*
X00466Y01821*
X00455Y01823*
X00444Y01821*
X00434Y01817*
X00425Y01811*
X00419Y01802*
X00415Y01792*
X00413Y01781*
X00415Y0177*
X00419Y01759*
X00425Y01751*
X00424Y01746*
X0041*
X00394Y01763*
X00396Y0177*
X00398Y01781*
X00396Y01792*
X00392Y01802*
X00385Y01811*
X00377Y01817*
X00366Y01821*
X00355Y01823*
X00344Y01821*
X00334Y01817*
X00325Y01811*
X00319Y01802*
X00315Y01792*
X00313Y01781*
X00315Y0177*
X00319Y01759*
X00325Y01751*
X00334Y01744*
X00344Y0174*
X00355Y01738*
X00366Y0174*
X00373Y01742*
X00394Y01721*
X00399Y01718*
X00404Y01717*
X00426*
X00428Y01712*
X00425Y01711*
X00419Y01702*
X00415Y01692*
X00413Y01681*
X00415Y0167*
X00419Y01659*
X00425Y01651*
X00434Y01644*
X00444Y0164*
X00455Y01638*
X00466Y0164*
X00477Y01644*
X00485Y01651*
X00492Y01659*
X00496Y0167*
X00498Y01681*
X00496Y01692*
X00492Y01702*
X00485Y01711*
X00483Y01712*
X00484Y01717*
X00538*
Y01688*
X0058*
X00623*
Y01717*
X02023*
X02219Y01521*
X02219*
X02224Y01517*
X02226Y01517*
X02227Y01512*
X02225Y01511*
X02219Y01502*
X02215Y01492*
X02213Y01481*
X02215Y0147*
X02219Y01459*
X02225Y01451*
X02234Y01444*
X02244Y0144*
X02255Y01438*
X02266Y0144*
X02277Y01444*
X02285Y01451*
X02292Y01459*
X02296Y0147*
X02298Y01481*
X02296Y01492*
X02292Y01502*
X02285Y01511*
X02284Y01512*
X02286Y01516*
X02325*
X02327Y01512*
X02325Y01511*
X02319Y01502*
X02315Y01492*
X02313Y01481*
X02315Y0147*
X02319Y01459*
X02325Y01451*
X02334Y01444*
X02344Y0144*
X02355Y01438*
X02366Y0144*
X02377Y01444*
X02385Y01451*
X02392Y01459*
X02396Y0147*
X02398Y01481*
X02396Y01492*
X02392Y01502*
X02385Y01511*
X02383Y01513*
X02384Y01518*
X02388Y01521*
X02531Y01664*
X02804*
X02806Y01659*
X02491Y01345*
X02386*
X02384Y0135*
X02385Y01351*
X02392Y01359*
X02395Y01366*
X0244*
X02445Y01367*
X0245Y0137*
X02492Y01412*
X02495Y01417*
X02496Y01423*
Y01457*
X02509*
Y01465*
X02525*
Y01457*
X0258*
Y01503*
X02525*
Y01494*
X02509*
Y01503*
X02455*
Y01457*
X02467*
Y01429*
X02434Y01395*
X02395*
X02392Y01402*
X02385Y01411*
X02377Y01417*
X02366Y01421*
X02355Y01423*
X02344Y01421*
X02334Y01417*
X02325Y01411*
X02319Y01402*
X02315Y01392*
X02313Y01381*
X02315Y0137*
X02319Y01359*
X02325Y01351*
X02327Y0135*
X02325Y01345*
X02305*
X02299Y01344*
X02295Y01341*
X02295*
X02273Y01319*
X02266Y01321*
X02255Y01323*
X02244Y01321*
X02234Y01317*
X02225Y01311*
X02219Y01302*
X02215Y01292*
X02213Y01281*
X02215Y0127*
X02219Y01259*
X02225Y01251*
X02234Y01244*
X02244Y0124*
X02255Y01238*
X02266Y0124*
X02277Y01244*
X02285Y01251*
X02292Y01259*
X02296Y0127*
X02298Y01281*
X02296Y01292*
X02294Y01298*
X02311Y01316*
X02324*
X02326Y01311*
X02325Y01311*
X02319Y01302*
X02315Y01292*
X02313Y01281*
X02315Y0127*
X02319Y01259*
X02325Y01251*
X02334Y01244*
X02344Y0124*
X02355Y01238*
X02366Y0124*
X02377Y01244*
X02385Y01251*
X02392Y01259*
X02395Y01266*
X02485*
X02487Y01264*
X02489Y01262*
X02489Y01261*
Y01235*
X02373Y01119*
X02366Y01121*
X02355Y01123*
X02344Y01121*
X02334Y01117*
X02325Y01111*
X02319Y01102*
X02315Y01092*
X02313Y01081*
X02315Y0107*
X02317Y01063*
X023Y01046*
X02287*
X02285Y0105*
X02285Y01051*
X02292Y01059*
X02296Y0107*
X02298Y01081*
X02296Y01092*
X02292Y01102*
X02285Y01111*
X02277Y01117*
X02266Y01121*
X02255Y01123*
X02244Y01121*
X02238Y01119*
X02215Y01142*
X0221Y01145*
X02205Y01146*
X00487*
X00486Y01148*
X00486Y01151*
X00492Y01159*
X00496Y0117*
X00498Y01181*
X00496Y01192*
X00492Y01202*
X00485Y01211*
X00477Y01217*
X00466Y01221*
X00455Y01223*
X00444Y01221*
X00434Y01217*
X00425Y01211*
X00419Y01202*
X00415Y01192*
X00413Y01181*
X00415Y0117*
X00419Y01159*
X00425Y01151*
X00425Y01148*
X00424Y01146*
X00387*
X00386Y01148*
X00386Y01151*
X00392Y01159*
X00396Y0117*
X00398Y01181*
X00396Y01192*
X00392Y01202*
X00385Y01211*
X00377Y01217*
X00366Y01221*
X00355Y01223*
X00344Y01221*
X00334Y01217*
X00325Y01211*
X00319Y01202*
X00315Y01192*
X00313Y01181*
X00315Y0117*
X00319Y01159*
X00325Y01151*
X00325Y01148*
X00324Y01146*
X00313*
X00266Y01193*
X00261Y01196*
X00255Y01197*
X00243*
Y0121*
X00197*
Y01155*
X00243*
Y01168*
X00249*
X00296Y01121*
X00301Y01118*
X00307Y01117*
X00326*
X00327Y01112*
X00325Y01111*
X00319Y01102*
X00315Y01092*
X00313Y01081*
X00315Y0107*
X00319Y01059*
X00325Y01051*
X00334Y01044*
X00344Y0104*
X00355Y01038*
X00366Y0104*
X00377Y01044*
X00385Y01051*
X00392Y01059*
X00396Y0107*
X00398Y01081*
X00396Y01092*
X00392Y01102*
X00385Y01111*
X00383Y01112*
X00385Y01117*
X00426*
X00427Y01112*
X00425Y01111*
X00419Y01102*
X00415Y01092*
X00413Y01081*
X00415Y0107*
X00419Y01059*
X00425Y01051*
X00434Y01044*
X00444Y0104*
X00455Y01038*
X00466Y0104*
X00477Y01044*
X00485Y01051*
X00492Y01059*
X00496Y0107*
X00498Y01081*
X00496Y01092*
X00492Y01102*
X00485Y01111*
X00483Y01112*
X00485Y01117*
X02199*
X02217Y01098*
X02215Y01092*
X02213Y01081*
X02215Y0107*
X02219Y01059*
X02225Y01051*
X02226Y0105*
X02224Y01046*
X00811*
X00805Y01045*
X008Y01041*
X0046Y00701*
X00243*
Y00714*
X00197*
Y00659*
X00243*
Y00672*
X00466*
X00472Y00673*
X00476Y00676*
X00817Y01016*
X02225*
X02227Y01012*
X02225Y01011*
X02219Y01002*
X02215Y00992*
X02213Y00981*
X02215Y0097*
X02219Y00959*
X02225Y00951*
X02234Y00944*
X02244Y0094*
X02255Y00938*
X02266Y0094*
X02277Y00944*
X02285Y00951*
X02292Y00959*
X02296Y0097*
X02298Y00981*
X02296Y00992*
X02292Y01002*
X02285Y01011*
X02284Y01012*
X02286Y01016*
X02306*
X02311Y01017*
X02316Y01021*
X02338Y01042*
X02344Y0104*
X02355Y01038*
X02366Y0104*
X02377Y01044*
X02385Y01051*
X02392Y01059*
X02396Y0107*
X02398Y01081*
X02396Y01092*
X02394Y01098*
X02514Y01218*
Y01218*
X02517Y01223*
X02518Y01229*
X02518*
Y01255*
X02846Y01583*
X02974*
X0298Y01584*
X02984Y01588*
X03077Y0168*
X03082Y01678*
Y01674*
X0308Y01667*
X03082Y0166*
Y01647*
X03118*
Y01647*
X03131*
X03149Y01629*
X03155Y01625*
X03163Y01624*
X03185*
Y0162*
X03185Y01616*
X03187Y01614*
Y01613*
X03187*
X03188Y01613*
X03191Y01611*
X03194Y0161*
X03368*
X03406Y01571*
X03409Y01569*
X03413Y01569*
X03602*
X03606Y01569*
X03606Y0157*
X0361*
Y01574*
X03611Y01575*
X03611Y01578*
Y01708*
X03611Y01712*
X0361Y01713*
Y01717*
X03606*
X03606Y01717*
X03602Y01718*
X03413*
X03409Y01717*
X03406Y01715*
X03368Y01676*
X03194*
X03191Y01676*
X03188Y01674*
X03187Y01673*
X03187*
Y01673*
X03185Y01671*
X03185Y01667*
Y01663*
X03171*
X03153Y01681*
X03147Y01685*
X03139Y01686*
X03118*
Y01687*
X0309*
X03088Y01692*
X03261Y01865*
X03533*
X03533Y01864*
X0354Y01859*
X03549Y01858*
X03557Y01859*
X03564Y01864*
X03569Y01871*
X0357Y01879*
X03569Y01888*
X03567Y0189*
X0357Y01894*
X03724*
X03724Y01894*
X03731Y01889*
X0374Y01887*
X03748Y01889*
X03755Y01894*
X0376Y01901*
X03761Y01909*
X0376Y01917*
X03758Y01919*
X03761Y01924*
X03935*
X0394Y01925*
X03945Y01928*
X04112Y02095*
X04115Y021*
X04117Y02106*
Y02171*
X04131*
Y02225*
X04117*
Y02234*
X04171Y02288*
X04199*
Y02276*
X04194Y02273*
X0419Y02275*
X04181Y02277*
X04171Y02275*
X04162Y0227*
X04157Y02261*
X04155Y02251*
X04157Y02242*
X04162Y02233*
X04171Y02228*
X04181Y02226*
X0419Y02228*
X04194Y0223*
X04199Y02227*
Y02226*
X04245*
X04247Y02222*
X04061Y02035*
X04061Y00174*
X04056Y00172*
X04048*
Y00181*
X04047Y00186*
X04043Y00191*
X03933Y00301*
X03928Y00304*
X03923Y00305*
X03805*
X03744Y00366*
Y0059*
X03743Y00596*
X0374Y006*
X03687Y00654*
X03682Y00657*
X03677Y00658*
X03664*
Y00664*
X0361*
Y00622*
X03664*
Y00629*
X03671*
X03715Y00584*
Y0036*
X03716Y00354*
X03719Y00349*
X03788Y0028*
X03793Y00277*
X03799Y00276*
X03917*
X04016Y00177*
X04013Y00172*
X0401*
Y00118*
X04056*
X04056*
X04061Y00116*
Y0001*
X01858*
Y00803*
X01858Y00803*
X01858Y00803*
X01858Y00808*
X01858Y00809*
Y00809*
X01856Y00818*
X01856Y00819*
X01855Y0082*
X01852Y00829*
X01851Y0083*
X01851Y00831*
X01846Y00838*
X01845Y00839*
X01844Y0084*
X01838Y00846*
X01837Y00847*
X01836Y00848*
X01829Y00853*
X01828Y00853*
X01827Y00854*
X01818Y00857*
X01817Y00857*
X01816Y00858*
X01807Y0086*
X01807*
X01806Y0086*
X01801Y0086*
X01801Y0086*
X01801Y0086*
X0111*
X01109Y0086*
X01109Y0086*
X01105Y0086*
X01104Y0086*
X01103*
X01094Y00858*
X01093Y00857*
X01092Y00857*
X01084Y00854*
X01083Y00853*
X01082Y00853*
X01074Y00848*
X01073Y00847*
X01073Y00846*
X01066Y0084*
X01065Y00839*
X01065Y00838*
X0106Y00831*
X01059Y0083*
X01059Y00829*
X01055Y0082*
X01055Y00819*
X01055Y00818*
X01053Y00809*
Y00809*
X01053Y00808*
X01052Y00803*
X01052Y00803*
X01052Y00803*
Y0001*
X00305*
Y00216*
X0022Y00301*
X0001*
Y02524*
X00015Y02525*
X00016Y02517*
X0002Y02507*
X00027Y02498*
X00035Y02491*
X00042Y02489*
Y02357*
X00035*
Y02303*
X00082*
Y02357*
X00071*
Y02489*
X00078Y02491*
X00087Y02498*
X00093Y02507*
X00097Y02517*
X00099Y02528*
X00097Y02539*
X00093Y02549*
X00087Y02558*
X00078Y02564*
X00068Y02569*
X00057Y0257*
X00046Y02569*
X00035Y02564*
X00027Y02558*
X0002Y02549*
X00016Y02539*
X00015Y02531*
X0001Y02531*
Y02624*
X00015Y02625*
X00016Y02617*
X0002Y02607*
X00027Y02598*
X00035Y02591*
X00046Y02587*
X00057Y02586*
X00068Y02587*
X00078Y02591*
X00087Y02598*
X00093Y02607*
X00097Y02617*
X00099Y02628*
X00097Y02639*
X00093Y02649*
X00087Y02658*
X00078Y02664*
X00068Y02669*
X00057Y0267*
X00046Y02669*
X00035Y02664*
X00027Y02658*
X0002Y02649*
X00016Y02639*
X00015Y02631*
X0001Y02631*
Y02724*
X00015Y02725*
X00016Y02717*
X0002Y02707*
X00027Y02698*
X00035Y02691*
X00046Y02687*
X00057Y02686*
X00068Y02687*
X00078Y02691*
X00087Y02698*
X00093Y02707*
X00097Y02717*
X00099Y02728*
X00097Y02739*
X00093Y02749*
X00087Y02758*
X00078Y02764*
X00068Y02769*
X00057Y0277*
X00046Y02769*
X00035Y02764*
X00027Y02758*
X0002Y02749*
X00016Y02739*
X00015Y02731*
X0001Y02731*
Y02824*
X00015Y02825*
X00016Y02817*
G37*
G36*
X03Y02555D02*
X02879Y02434D01*
X02836*
X02836Y02434*
X02829Y02439*
X0282Y02441*
X02787*
X02779Y02439*
X02772Y02434*
X02771Y02434*
X02754*
X02753Y02433*
X02692*
X02692Y02434*
X02685Y02439*
X02679Y0244*
X02676Y02445*
X02791Y0256*
X02998*
X03Y02555*
G37*
G36*
X03034Y02529D02*
X03034Y02527D01*
X02889Y02382*
X02837*
X02836Y02384*
X02829Y02389*
X0282Y02391*
X02787*
X02779Y02389*
X02772Y02384*
X0277Y02382*
X02663*
X02662Y02383*
X02655Y02387*
X02647Y02389*
X02639Y02387*
X02637Y02386*
X02632Y02388*
Y02401*
X0265Y02419*
X02655Y02417*
X02657Y0241*
X02661Y02403*
X02668Y02399*
X02677Y02397*
X02685Y02399*
X02692Y02403*
X02692Y02404*
X02753*
X02754Y02404*
X02771*
X02772Y02404*
X02779Y02399*
X02787Y02397*
X0282*
X02829Y02399*
X02836Y02404*
X02836Y02404*
X02886*
X02891Y02405*
X02896Y02409*
X03019Y02532*
X03032*
X03034Y02529*
G37*
G36*
X03622Y0252D02*
Y02508D01*
X03622Y02508*
X0362Y02501*
Y02462*
X03622Y02455*
X03625Y02449*
X03631Y02445*
X03638Y02444*
X03645Y02445*
X03647Y02447*
X03651Y02449*
X03655Y02447*
X03657Y02445*
X03664Y02444*
X03669Y02445*
X03674Y02442*
Y02323*
X03667*
Y02265*
X03711*
Y02257*
X03706Y02252*
X03564*
X03564Y02253*
X03557Y02257*
X03548Y02259*
X0354Y02257*
X03533Y02253*
X03528Y02246*
X03527Y02237*
X03528Y02231*
X03523Y02229*
X03225Y02527*
X03225Y02529*
X03227Y02532*
X0361*
X03622Y0252*
G37*
G36*
X04393Y02503D02*
Y02368D01*
X04269Y02244*
X04265Y02246*
Y02276*
Y02327*
X04268Y0233*
X0427Y02332*
X04329Y02391*
X04332Y02395*
X04333Y02401*
Y02457*
X04334Y02458*
X04338Y02465*
X0434Y02473*
Y02506*
X04338Y02515*
X04334Y02522*
X04327Y02526*
X04318Y02528*
X0431Y02526*
X04303Y02522*
X04298Y02515*
X04297Y02506*
Y02473*
X04298Y02465*
X04303Y02458*
X04304Y02457*
Y02407*
X04255Y02358*
X04252Y02358*
X04251Y02364*
X04279Y02392*
X04282Y02397*
X04283Y02402*
Y02457*
X04284Y02458*
X04288Y02465*
X0429Y02473*
Y02506*
X04288Y02515*
X04284Y02522*
X04277Y02526*
X04268Y02528*
X0426Y02526*
X04253Y02522*
X04248Y02515*
X04247Y02506*
Y02473*
X04248Y02465*
X04253Y02458*
X04254Y02457*
Y02408*
X04246Y024*
X04241Y02402*
Y02446*
X04238*
Y02464*
X04238Y02465*
X0424Y02473*
Y02506*
X04238Y02515*
X04234Y02522*
X04227Y02526*
X04218Y02528*
X0421Y02526*
X04203Y02522*
X04198Y02515*
X04197Y02509*
X04165*
X04159Y02513*
X04149Y02515*
X04139Y02513*
X04131Y02508*
X04125Y02499*
X04123Y0249*
X04125Y0248*
X04131Y02471*
X04139Y02466*
X04149Y02464*
X04159Y02466*
X04165Y0247*
X04197*
X04198Y02465*
Y02446*
X04195*
Y02392*
X04225*
X04228Y02387*
X04227Y02386*
X04159*
X04153Y02385*
X04149Y02382*
X04143Y02376*
X04138Y02377*
X04137Y02378*
X04133Y02384*
X04126Y02389*
X04117Y02391*
X0411Y02389*
X04105Y02392*
Y02396*
X04059*
Y02342*
X04101*
X04104Y02337*
X04034Y02268*
X04031Y02263*
X0403Y02257*
Y02141*
X0393Y02042*
X03851*
X03849Y02045*
X03849Y02047*
X03904Y02101*
Y02101*
X03907Y02106*
X03908Y02112*
Y02154*
X03909Y02159*
X03952*
Y02168*
X03964*
X03968Y02165*
X03971Y0216*
X03969Y02153*
X03971Y02143*
X03977Y02134*
X03985Y02129*
X03995Y02127*
X04005Y02129*
X04013Y02134*
X04019Y02143*
X04021Y02153*
X04019Y0216*
X04022Y02165*
X04022*
Y02211*
X03968*
Y02208*
X03952*
Y02217*
X03917*
X03916Y02222*
X03941Y02247*
X03944Y02252*
X03945Y02257*
Y02257*
Y02265*
X03952*
Y02287*
X04*
X04006Y02288*
X0401Y02291*
X04037Y02318*
X04041Y02323*
X04042Y02328*
Y02342*
X0405*
Y02396*
X04041*
Y02403*
X04048Y0241*
X04052Y02414*
X04053Y0242*
Y02458*
X04053Y02458*
X04058Y02465*
X0406Y02473*
Y02507*
X04058Y02515*
X04053Y02522*
X04046Y02527*
X04038Y02529*
X0403Y02527*
X04023Y02522*
X04018Y02515*
X04016Y02507*
Y02473*
X04018Y02465*
X04023Y02458*
X04023Y02458*
Y02426*
X04016Y02419*
X04013Y02414*
X04012Y02409*
Y02396*
X04004*
X04003Y02401*
Y02458*
X04003Y02458*
X04008Y02465*
X0401Y02473*
Y02507*
X04008Y02515*
X04003Y02522*
X03996Y02527*
X03988Y02529*
X0398Y02527*
X03973Y02522*
X03968Y02515*
X03966Y02507*
Y02473*
X03968Y02465*
X03973Y02458*
X03973Y02458*
Y02376*
X03968Y02371*
X03967Y02371*
X03963Y02376*
X03964Y02381*
X03962Y02391*
X03961Y02393*
X03961*
Y02447*
X03956*
Y02462*
X03958Y02465*
X0396Y02473*
Y02507*
X03958Y02515*
X03953Y02522*
X03946Y02527*
X03938Y02529*
X0393Y02527*
X03923Y02522*
X03918Y02515*
X03916Y02507*
Y02473*
X03918Y02465*
X0392Y02462*
Y02447*
X03915*
Y02393*
X03914Y02391*
X03914Y02391*
X03912Y02381*
X03914Y02371*
X03918Y02366*
X03915Y02361*
X03913*
X03907Y02359*
X03903Y02356*
X03883Y02336*
X03879Y02332*
X03878Y02326*
Y02323*
X03872*
Y02265*
X0391*
X03913Y0226*
X03883Y0223*
X0388Y02226*
X03879Y02221*
X03877Y02217*
X03834*
Y02159*
X03841*
Y02119*
X0382Y02099*
X03752*
X03749Y02103*
Y02157*
X03747Y02159*
Y02217*
X03704*
Y02159*
X03702Y02157*
X03697Y02154*
X0369Y02155*
X0368Y02153*
X03672Y02148*
X0367Y02146*
X03665Y02147*
Y02159*
X03672*
Y02217*
X0363*
Y02203*
X03549*
X0354Y02212*
X03542Y02217*
X03548Y02216*
X03557Y02217*
X03564Y02222*
X03564Y02223*
X03712*
X03717Y02224*
X03722Y02227*
X03736Y02241*
X03739Y02246*
X0374Y02251*
Y02265*
X03747*
Y02323*
X03747*
X03748Y02328*
X03751*
Y02382*
X0374*
Y02389*
X0374Y0239*
X03744Y02393*
X03745Y02393*
X03753Y02395*
X0376Y02399*
X03763Y02399*
X03766Y02399*
X03772Y02395*
X03781Y02393*
X03789Y02395*
X03796Y02399*
X03801Y02406*
X03802Y02415*
X03801Y02423*
X03796Y0243*
X03795Y0243*
Y02432*
X03794Y02438*
X03793Y02439*
X03796Y02445*
X03798Y02445*
X03804Y02449*
X03808Y02455*
X03809Y02462*
Y02501*
X03808Y02508*
X03804Y02513*
X03798Y02517*
X03792Y02519*
X03785Y02517*
X03779Y02513*
X03778*
X03773Y02517*
X03766Y02519*
X03759Y02517*
X03757Y02516*
X03753Y02514*
X03749Y02516*
X03747Y02517*
X0374Y02519*
X03734Y02517*
X03728Y02513*
X03727*
X03722Y02517*
X03715Y02519*
X03708Y02517*
X03706Y02516*
X03702Y02514*
X03698Y02516*
X03696Y02517*
X03689Y02519*
X03683Y02517*
X03678Y0252*
Y02536*
Y02536*
X03677Y02542*
X03674Y02547*
X03659Y02562*
X03661Y02566*
X0433*
X04393Y02503*
G37*
G36*
X02093Y02219D02*
X02098Y02216D01*
X02104Y02215*
X02224*
X02225Y02213*
X02225Y0221*
X02219Y02202*
X02215Y02192*
X02213Y02181*
X02215Y0217*
X02219Y02159*
X02225Y02151*
X02225Y02148*
X02224Y02146*
X02074*
X0198Y0224*
X01976Y02243*
X0197Y02244*
X00505*
X00505Y02244*
X00499Y02243*
X00494Y0224*
X00473Y02219*
X00466Y02221*
X00455Y02223*
X00444Y02221*
X00434Y02217*
X00425Y02211*
X00419Y02202*
X00415Y02192*
X00413Y02181*
X00415Y0217*
X00419Y02159*
X00425Y02151*
X00425Y02148*
X00424Y02146*
X00411*
X00394Y02163*
X00396Y0217*
X00398Y02181*
X00396Y02192*
X00392Y02202*
X00385Y02211*
X00377Y02217*
X00366Y02221*
X00355Y02223*
X00344Y02221*
X00334Y02217*
X00325Y02211*
X00319Y02202*
X00318Y02201*
X00313Y02202*
Y02259*
X00318Y0226*
X00319Y02259*
X00325Y02251*
X00334Y02244*
X00344Y0224*
X00355Y02238*
X00366Y0224*
X00377Y02244*
X00385Y02251*
X00392Y02259*
X00396Y0227*
X00398Y02281*
X00396Y02292*
X00394Y02298*
X00411Y02316*
X00424*
X00426Y02311*
X00425Y02311*
X00419Y02302*
X00415Y02292*
X00413Y02281*
X00415Y0227*
X00419Y02259*
X00425Y02251*
X00434Y02244*
X00444Y0224*
X00455Y02238*
X00466Y0224*
X00477Y02244*
X00485Y02251*
X00492Y02259*
X00496Y0227*
X00498Y02281*
X00496Y02292*
X00492Y02302*
X00485Y02311*
X00485Y02311*
X00487Y02316*
X01997*
X02093Y02219*
G37*
G36*
X0055Y02213D02*
X0055Y0221D01*
X00544Y02202*
X0054Y02192*
X00538Y02181*
X0054Y0217*
X00544Y02159*
X0055Y02151*
X0055Y02148*
X00549Y02146*
X00487*
X00486Y02148*
X00486Y02151*
X00492Y02159*
X00496Y0217*
X00498Y02181*
X00496Y02192*
X00494Y02198*
X00511Y02215*
X00549*
X0055Y02213*
G37*
G36*
X02058Y02121D02*
D01*
X02063Y02118*
X02068Y02117*
X02226*
X02227Y02112*
X02225Y02111*
X02219Y02102*
X02215Y02092*
X02213Y02081*
X02215Y0207*
X02219Y02059*
X02225Y02051*
X02226Y0205*
X02224Y02046*
X02031*
X01935Y02142*
X0193Y02145*
X01925Y02146*
X00612*
X00611Y02148*
X00611Y02151*
X00617Y02159*
X00621Y0217*
X00623Y02181*
X00621Y02192*
X00617Y02202*
X00611Y0221*
X00611Y02213*
X00612Y02215*
X01964*
X02058Y02121*
G37*
G36*
X02552Y02064D02*
Y02043D01*
X02547Y02041*
X02545Y02043*
X02447Y02142*
X02442Y02145*
X02437Y02146*
X02387*
X02386Y02148*
X02386Y02151*
X02392Y02159*
X02396Y0217*
X02398Y02181*
X02396Y02192*
X02392Y02202*
X02386Y0221*
X02386Y02213*
X02387Y02215*
X02401*
X02552Y02064*
G37*
G36*
X0252Y02027D02*
Y02008D01*
X02517Y02007*
X02515Y02006*
X0248Y02041*
X02476Y02045*
X0247Y02046*
X02387*
X02385Y0205*
X02385Y02051*
X02392Y02059*
X02396Y0207*
X02398Y02081*
X02396Y02092*
X02392Y02102*
X02385Y02111*
X02383Y02112*
X02385Y02117*
X0243*
X0252Y02027*
G37*
G36*
X0394Y02008D02*
X03915Y01983D01*
X0379*
X03788Y01987*
X03789Y01989*
X03791Y01998*
X03789Y02006*
X03788Y02008*
X0379Y02012*
X03937*
X03938Y02013*
X0394Y02008*
G37*
G36*
X00314Y02021D02*
D01*
X00319Y02017*
X00324Y02016*
X00324Y02016*
X00325*
X00327Y02012*
X00325Y02011*
X00319Y02002*
X00315Y01992*
X00313Y01981*
X00315Y0197*
X00316Y01967*
X00311Y01964*
X00254Y02021*
Y02074*
X00257Y02075*
X00259Y02075*
X00314Y02021*
G37*
G36*
X02959Y01964D02*
Y01901D01*
X02912*
X02908Y01902*
Y01905*
Y01931*
X02896*
Y01942*
X02896Y01944*
Y01962*
X02913Y01979*
X02944*
X02959Y01964*
G37*
G36*
X00551Y01811D02*
X0055Y01811D01*
X00544Y01802*
X0054Y01792*
X00538Y01781*
X0054Y0177*
X00544Y01759*
X0055Y01751*
X00549Y01746*
X00487*
X00486Y01751*
X00492Y01759*
X00496Y0177*
X00498Y01781*
X00496Y01792*
X00494Y01798*
X00511Y01816*
X00549*
X00551Y01811*
G37*
G36*
X02217Y01719D02*
X02222Y01716D01*
X02224Y01716*
X02226Y01711*
X02225Y01711*
X02219Y01702*
X02215Y01692*
X02213Y01681*
X02215Y0167*
X02219Y01659*
X02225Y01651*
X02234Y01644*
X02244Y0164*
X02255Y01638*
X02266Y0164*
X02277Y01644*
X02285Y01651*
X02292Y01659*
X02296Y0167*
X02298Y01681*
X02296Y01692*
X02292Y01702*
X02286Y0171*
X02286Y01713*
X02287Y01715*
X02324*
X02325Y01713*
X02325Y0171*
X02319Y01702*
X02315Y01692*
X02313Y01681*
X02315Y0167*
X02319Y01659*
X02325Y01651*
X02334Y01644*
X02344Y0164*
X02355Y01638*
X02366Y0164*
X02377Y01644*
X02385Y01651*
X02392Y01659*
X02396Y0167*
X02398Y01681*
X02396Y01692*
X02392Y01702*
X02386Y0171*
X02386Y01713*
X02387Y01715*
X02462*
X02464Y0171*
X02373Y01619*
X02366Y01621*
X02355Y01623*
X02344Y01621*
X02334Y01617*
X02325Y01611*
X02319Y01602*
X02315Y01592*
X02313Y01581*
X02315Y0157*
X02319Y01559*
X02325Y01551*
X02326Y0155*
X02324Y01546*
X02287*
X02285Y0155*
X02285Y01551*
X02292Y01559*
X02296Y0157*
X02298Y01581*
X02296Y01592*
X02292Y01602*
X02285Y01611*
X02277Y01617*
X02266Y01621*
X02255Y01623*
X02244Y01621*
X02234Y01617*
X02225Y01611*
X02219Y01602*
X02215Y01592*
X02213Y01581*
X02214Y01575*
X02209Y01572*
X02039Y01742*
X02035Y01745*
X02029Y01746*
X00612*
X00611Y01751*
X00617Y01759*
X00621Y0177*
X00623Y01781*
X00621Y01792*
X00617Y01802*
X0061Y01811*
X0061Y01811*
X00612Y01816*
X02121*
X02217Y01719*
G37*
G36*
X03602Y01578D02*
X03413D01*
X03372Y0162*
X03194*
Y01667*
X03372*
X03413Y01708*
X03602*
Y01578*
G37*
G36*
X0251Y01685D02*
X02402Y01576D01*
X02397Y01578*
X02398Y01581*
X02396Y01592*
X02394Y01598*
X02485Y0169*
X02508*
X0251Y01685*
G37*
%LNhardwarecontrollerpcb_copper_signal_top-2*%
%LPC*%
G36*
X03791Y04134D02*
Y04098D01*
X03827*
X03827Y04102*
X03822Y04113*
X03815Y04122*
X03806Y04129*
X03795Y04134*
X03791Y04134*
G37*
G36*
X03775D02*
X03771Y04134D01*
X0376Y04129*
X03751Y04122*
X03744Y04113*
X03739Y04102*
X03739Y04098*
X03775*
Y04134*
G37*
G36*
X02257Y04134D02*
Y04098D01*
X02294*
X02293Y04102*
X02289Y04113*
X02281Y04122*
X02272Y04129*
X02261Y04134*
X02257Y04134*
G37*
G36*
X02584D02*
Y04098D01*
X02621*
X0262Y04102*
X02616Y04113*
X02608Y04122*
X02599Y04129*
X02588Y04134*
X02584Y04134*
G37*
G36*
X02475D02*
Y04098D01*
X02512*
X02511Y04102*
X02507Y04113*
X02499Y04122*
X0249Y04129*
X02479Y04134*
X02475Y04134*
G37*
G36*
X02366D02*
Y04098D01*
X02403*
X02402Y04102*
X02398Y04113*
X0239Y04122*
X02381Y04129*
X0237Y04134*
X02366Y04134*
G37*
G36*
X02351D02*
X02347Y04134D01*
X02336Y04129*
X02326Y04122*
X02319Y04113*
X02315Y04102*
X02314Y04098*
X02351*
Y04134*
G37*
G36*
X02242D02*
X02238Y04134D01*
X02227Y04129*
X02217Y04122*
X0221Y04113*
X02206Y04102*
X02205Y04098*
X02242*
Y04134*
G37*
G36*
X02569D02*
X02565Y04134D01*
X02554Y04129*
X02544Y04122*
X02537Y04113*
X02533Y04102*
X02532Y04098*
X02569*
Y04134*
G37*
G36*
X0246D02*
X02456Y04134D01*
X02445Y04129*
X02435Y04122*
X02428Y04113*
X02424Y04102*
X02423Y04098*
X0246*
Y04134*
G37*
G36*
X01586Y04255D02*
X01073D01*
X01065Y04254*
X01058Y04251*
X01052Y04247*
X00943Y04138*
X00938Y04138*
X00926Y04137*
X00914Y04132*
X00905Y04125*
X00897Y04115*
X00893Y04103*
X00891Y04091*
X00893Y04079*
X00897Y04068*
X00905Y04058*
X00914Y04051*
X00926Y04046*
X00937Y04044*
X0094Y0404*
X00925Y04025*
X00921Y04019*
X0092Y04017*
X00915Y04015*
X00907Y04021*
X00896Y04025*
X00891Y04026*
Y03979*
Y03933*
X00896Y03933*
X00907Y03938*
X00914Y03944*
X00919Y03941*
Y03868*
X00887*
Y03846*
X00846*
X00839Y03845*
X00832Y0384*
X00749Y03757*
X00727*
Y03726*
X00722*
X00714Y03725*
X00708Y03721*
X00684Y03697*
X00661*
X00661Y03697*
X00653Y03699*
X00619*
X00611Y03697*
X00604Y03692*
X00599Y03685*
X00597Y03677*
X00599Y03669*
X00604Y03662*
X00611Y03657*
X00619Y03655*
X00653*
X00661Y03657*
X00661Y03657*
X00692*
X007Y03659*
X00706Y03663*
X0073Y03687*
X00746*
X00748Y03687*
X00783*
Y03736*
X00795Y03747*
X008Y03746*
Y03687*
X00808*
Y03679*
X00804*
Y03624*
X00807*
Y03616*
X00799*
Y03556*
X00794Y03554*
X00782Y03566*
Y03616*
X00747*
X00745Y03616*
X0073*
X00705Y03641*
X00698Y03645*
X00691Y03647*
X00661*
X00661Y03647*
X00653Y03649*
X00619*
X00611Y03647*
X00604Y03642*
X00599Y03635*
X00597Y03627*
X00599Y03619*
X00604Y03612*
X00611Y03607*
X00619Y03605*
X00653*
X00661Y03607*
X00661Y03607*
X00683*
X00708Y03583*
X00714Y03578*
X00722Y03577*
X00726*
Y03546*
X00746*
X00779Y03513*
X00786Y03508*
X00793Y03507*
X00893*
X009Y03508*
X00907Y03513*
X01107Y03713*
X01111Y03719*
X01112Y03727*
Y03785*
X01144*
Y03868*
X01112*
Y03879*
X01111Y03887*
X01107Y03893*
X01036Y03963*
X01038Y03967*
X0104Y03979*
X01038Y03992*
X01033Y04003*
X01026Y04013*
X01016Y0402*
X01012Y04022*
X01011Y04028*
X01031Y04047*
X01035Y04046*
X01047Y04044*
X01059Y04046*
X01071Y04051*
X0108Y04058*
X01088Y04068*
X01092Y04079*
X01094Y04091*
X01092Y04103*
X01088Y04115*
X0108Y04125*
X01071Y04132*
X01059Y04137*
X01047Y04138*
X01035Y04137*
X0103Y04135*
X01027Y04139*
X01085Y04196*
X01213*
X01215Y04191*
X01161Y04138*
X01156Y04138*
X01144Y04137*
X01133Y04132*
X01123Y04125*
X01115Y04115*
X01111Y04103*
X01109Y04091*
X01111Y04079*
X01115Y04068*
X01123Y04058*
X01133Y04051*
X01144Y04046*
X01156Y04044*
X01168Y04046*
X0118Y04051*
X01189Y04058*
X01197Y04068*
X01202Y04079*
X01203Y04091*
X01203Y04096*
X01217Y04111*
X01222Y04108*
X0122Y04103*
X01218Y04091*
X0122Y04079*
X01224Y04068*
X01232Y04058*
X01242Y04051*
X01253Y04046*
X01265Y04044*
X01277Y04046*
X01289Y04051*
X01298Y04058*
X01301Y04062*
X01339*
X01374Y04027*
Y03813*
X0136*
Y03753*
X01446*
Y03813*
X01433*
Y0404*
X01432Y04047*
X01429Y04054*
X01424Y0406*
X01372Y04112*
X01366Y04117*
X01359Y0412*
X01352Y04121*
X01301*
X01298Y04125*
X01289Y04132*
X01277Y04137*
X01265Y04138*
X01253Y04137*
X01248Y04135*
X01245Y04139*
X0125Y04144*
X01375*
X0145Y04069*
Y03981*
X01451Y03973*
X01454Y03966*
X01459Y0396*
X01472Y03947*
Y03813*
X01459*
Y03753*
X01544*
Y03813*
X01531*
Y03959*
Y03959*
X0153Y03967*
X01527Y03974*
X01522Y0398*
X01509Y03993*
Y04081*
Y04081*
X01508Y04089*
X01505Y04096*
X01501Y04102*
X01411Y04191*
X01413Y04196*
X01574*
X01673Y04098*
Y04061*
X01668Y04061*
X01666Y04066*
X01659Y04079*
X01649Y04091*
X01637Y04101*
X01624Y04108*
X01609Y04113*
X01594Y04114*
X01578Y04113*
X01564Y04108*
X0155Y04101*
X01538Y04091*
X01528Y04079*
X01521Y04066*
X01516Y04051*
X01515Y04035*
X01516Y0402*
X01521Y04005*
X01528Y03992*
X01538Y0398*
X0155Y0397*
X01564Y03963*
X01578Y03958*
X01594Y03957*
X01609Y03958*
X01624Y03963*
X01637Y0397*
X01649Y0398*
X01659Y03992*
X01666Y04005*
X01668Y0401*
X01673Y04009*
Y03982*
X01579Y03888*
X01574Y03882*
X01572Y03875*
X01571Y03868*
Y03813*
X01557*
Y03753*
X01643*
Y03813*
X01629*
Y03855*
X01723Y03949*
X01728Y03955*
X01731Y03962*
X01732Y0397*
Y0411*
X01731Y04117*
X01728Y04124*
X01723Y04131*
X01607Y04247*
X01601Y04251*
X01594Y04254*
X01586Y04255*
G37*
G36*
X03827Y04082D02*
X03791D01*
Y04046*
X03795Y04046*
X03806Y04051*
X03815Y04058*
X03822Y04067*
X03827Y04078*
X03827Y04082*
G37*
G36*
X03775D02*
X03739D01*
X03739Y04078*
X03744Y04067*
X03751Y04058*
X0376Y04051*
X03771Y04046*
X03775Y04046*
Y04082*
G37*
G36*
X02621Y04082D02*
X02584D01*
Y04045*
X02588Y04046*
X02599Y04051*
X02608Y04058*
X02616Y04067*
X0262Y04078*
X02621Y04082*
G37*
G36*
X02512D02*
X02475D01*
Y04045*
X02479Y04046*
X0249Y04051*
X02499Y04058*
X02507Y04067*
X02511Y04078*
X02512Y04082*
G37*
G36*
X02403D02*
X02366D01*
Y04045*
X0237Y04046*
X02381Y04051*
X0239Y04058*
X02398Y04067*
X02402Y04078*
X02403Y04082*
G37*
G36*
X02294D02*
X02257D01*
Y04045*
X02261Y04046*
X02272Y04051*
X02281Y04058*
X02289Y04067*
X02293Y04078*
X02294Y04082*
G37*
G36*
X02569D02*
X02532D01*
X02533Y04078*
X02537Y04067*
X02544Y04058*
X02554Y04051*
X02565Y04046*
X02569Y04045*
Y04082*
G37*
G36*
X0246D02*
X02423D01*
X02424Y04078*
X02428Y04067*
X02435Y04058*
X02445Y04051*
X02456Y04046*
X0246Y04045*
Y04082*
G37*
G36*
X02351D02*
X02314D01*
X02315Y04078*
X02319Y04067*
X02326Y04058*
X02336Y04051*
X02347Y04046*
X02351Y04045*
Y04082*
G37*
G36*
X02242D02*
X02205D01*
X02206Y04078*
X0221Y04067*
X02217Y04058*
X02227Y04051*
X02238Y04046*
X02242Y04045*
Y04082*
G37*
G36*
X03892Y04135D02*
X0388Y04133D01*
X0387Y04129*
X0386Y04122*
X03853Y04112*
X03849Y04102*
X03847Y0409*
X03849Y04078*
X03853Y04068*
X0386Y04058*
X0387Y04051*
X0388Y04047*
X03892Y04045*
X03904Y04047*
X03914Y04051*
X03924Y04058*
X03931Y04068*
X03935Y04078*
X03937Y0409*
X03935Y04102*
X03931Y04112*
X03924Y04122*
X03914Y04129*
X03904Y04133*
X03892Y04135*
G37*
G36*
X03674D02*
X03662Y04133D01*
X03652Y04129*
X03642Y04122*
X03635Y04112*
X03631Y04102*
X03629Y0409*
X03631Y04078*
X03635Y04068*
X03642Y04058*
X03652Y04051*
X03659Y04048*
Y04007*
X03654Y04006*
X03651Y0401*
X03642Y04017*
X03631Y04021*
X03619Y04023*
X03608Y04021*
X03597Y04017*
X03588Y0401*
X03581Y04*
X03576Y0399*
X03575Y03978*
X03576Y03966*
X03579Y03959*
X03431Y0381*
X03428Y03805*
X03426Y038*
Y03519*
X03421Y03516*
X03421Y03516*
X03418Y03517*
X03323*
X0332Y03516*
X03317Y03518*
X03315Y0352*
Y03538*
X03347Y0357*
X03411*
Y0363*
X03398*
Y03824*
X03508Y03934*
X0351Y03933*
X03522Y03935*
X03533Y03939*
X03542Y03946*
X03549Y03956*
X03554Y03966*
X03555Y03978*
X03554Y0399*
X03549Y04*
X03542Y0401*
X0354Y04012*
Y04023*
X03562Y04046*
X03565Y04045*
X03577Y04047*
X03587Y04051*
X03597Y04058*
X03604Y04068*
X03608Y04078*
X0361Y0409*
X03608Y04102*
X03604Y04112*
X03597Y04122*
X03587Y04129*
X03577Y04133*
X03565Y04135*
X03553Y04133*
X03543Y04129*
X03533Y04122*
X03526Y04112*
X03522Y04102*
X0352Y0409*
X03521Y04087*
X0349Y04056*
X03485Y0405*
X03482Y04043*
X03481Y04036*
Y04012*
X03479Y0401*
X03472Y04*
X03467Y0399*
X03466Y03978*
X03466Y03975*
X03348Y03857*
X03343Y03851*
X0334Y03844*
X03339Y03836*
Y0363*
X03325*
Y0359*
X0329Y03554*
X03287Y0355*
X03286Y03544*
Y03413*
X03287Y03407*
X0329Y03403*
X0332Y03373*
X03325Y0337*
X0333Y03369*
X03459*
X03462Y03365*
Y03319*
X03596*
Y03365*
X03592*
Y03646*
X03591Y03652*
X03588Y03657*
X03578Y03666*
Y03685*
X03583Y03687*
X03588Y0368*
X03597Y03673*
X03608Y03669*
X03619Y03667*
X03631Y03669*
X03639Y03672*
X03767Y03544*
X03771Y03541*
X03777Y0354*
X03787*
Y035*
X03823*
Y03473*
X03824Y03467*
X03827Y03462*
X03863Y03426*
X03868Y03423*
X03874Y03422*
X03968*
Y03413*
X03981*
Y03397*
X0398*
X03971Y03395*
X03964Y0339*
X03959Y03383*
X03958Y03375*
X03959Y03367*
X03964Y0336*
X03971Y03355*
X0398Y03353*
X04013*
X04021Y03355*
X04028Y0336*
X04033Y03367*
X04035Y03375*
X04033Y03383*
X04028Y0339*
X04021Y03395*
X04013Y03397*
X0401*
Y03413*
X04023*
Y0346*
X03968*
Y03451*
X0388*
X03852Y03479*
Y035*
X0392*
Y03508*
X03937*
X03942Y0351*
X03947Y03513*
X03976Y03542*
X04035*
X04058Y03519*
Y03464*
X04059Y03458*
X04062Y03454*
X04086Y0343*
X0409Y03427*
X04096Y03426*
X04116*
Y03417*
X04129*
Y03352*
X0413Y03346*
X04133Y03342*
X0416Y03315*
X04164Y03312*
X0417Y0331*
X04178*
X04179Y0331*
X04186Y03305*
X04194Y03303*
X04228*
X04236Y03305*
X04243Y0331*
X04248Y03317*
X04249Y03325*
X04248Y03333*
X04243Y0334*
X04236Y03345*
X04228Y03347*
X04194*
X04186Y03345*
X04179Y0334*
X04174Y03342*
X04158Y03358*
Y03417*
X0417*
Y03464*
X04116*
Y03455*
X04102*
X04087Y0347*
Y03525*
Y03525*
X04086Y03531*
X04083Y03535*
X04051Y03567*
X04046Y0357*
X04041Y03571*
X0397*
X03964Y0357*
X0396Y03567*
X0393Y03538*
X0392*
Y03546*
X03908*
X03906Y03551*
X03911Y03555*
X03914Y0356*
X03915Y03563*
X0392*
Y03609*
X03884*
Y0365*
X03904Y0367*
X03907Y03675*
X03908Y0368*
X03909Y03681*
X03913Y03682*
X03914Y0368*
X03924Y03673*
X03935Y03668*
X03939Y03668*
Y03712*
Y03756*
X03935Y03756*
X03924Y03751*
X03914Y03744*
X03912Y0374*
X03911Y0374*
X03906Y03741*
X03904Y03744*
X03868Y0378*
X03871Y03784*
X0388Y0378*
X03884Y0378*
Y03824*
Y03868*
X0388Y03868*
X03869Y03863*
X0386Y03856*
X03857Y03853*
X03853Y03855*
Y03858*
X03852Y03863*
X03848Y03868*
X03829Y03888*
X03824Y03891*
X03818Y03892*
X03727*
X03727*
X03722Y03891*
X03717Y03888*
X03693Y03864*
X03686Y03867*
X03674Y03869*
X03662Y03867*
X03652Y03863*
X03642Y03856*
X03638Y0385*
X03633Y03852*
Y03877*
X03684Y03929*
X03688Y03934*
X03689Y03939*
Y03948*
X03694Y0395*
X03696Y03946*
X03706Y03939*
X03717Y03934*
X03721Y03934*
Y03978*
Y04022*
X03717Y04022*
X03706Y04017*
X03696Y0401*
X03694Y04007*
X03689Y04008*
Y04048*
X03696Y04051*
X03706Y04058*
X03713Y04068*
X03717Y04078*
X03719Y0409*
X03717Y04102*
X03713Y04112*
X03706Y04122*
X03696Y04129*
X03686Y04133*
X03674Y04135*
G37*
G36*
X0422Y0417D02*
X04205Y04168D01*
X0419Y04164*
X04176Y04156*
X04164Y04147*
X04154Y04134*
X04147Y04121*
X04142Y04106*
X04141Y0409*
X04142Y04074*
X04147Y0406*
X04154Y04046*
X04164Y04034*
X04176Y04024*
X0419Y04016*
X04205Y04012*
X0422Y0401*
X04236Y04012*
X04251Y04016*
X04265Y04024*
X04277Y04034*
X04287Y04046*
X04294Y0406*
X04299Y04074*
X043Y0409*
X04299Y04106*
X04294Y04121*
X04287Y04134*
X04277Y04147*
X04265Y04156*
X04251Y04164*
X04236Y04168*
X0422Y0417*
G37*
G36*
X03236D02*
X03221Y04168D01*
X03206Y04164*
X03192Y04156*
X0318Y04147*
X0317Y04134*
X03163Y04121*
X03158Y04106*
X03157Y0409*
X03158Y04074*
X03163Y0406*
X0317Y04046*
X0318Y04034*
X03192Y04024*
X03206Y04016*
X03221Y04012*
X03236Y0401*
X03252Y04012*
X03267Y04016*
X03281Y04024*
X03293Y04034*
X03303Y04046*
X0331Y0406*
X03315Y04074*
X03316Y0409*
X03315Y04106*
X0331Y04121*
X03303Y04134*
X03293Y04147*
X03281Y04156*
X03267Y04164*
X03252Y04168*
X03236Y0417*
G37*
G36*
X02905Y0417D02*
X02889Y04168D01*
X02874Y04164*
X02861Y04156*
X02848Y04146*
X02839Y04134*
X02831Y0412*
X02827Y04105*
X02825Y0409*
X02827Y04074*
X02831Y04059*
X02839Y04045*
X02848Y04033*
X02861Y04023*
X02874Y04016*
X02889Y04012*
X02905Y0401*
X0292Y04012*
X02935Y04016*
X02949Y04023*
X02961Y04033*
X02971Y04045*
X02979Y04059*
X02983Y04074*
X02985Y0409*
X02983Y04105*
X02979Y0412*
X02971Y04134*
X02961Y04146*
X02949Y04156*
X02935Y04164*
X0292Y04168*
X02905Y0417*
G37*
G36*
X01921D02*
X01905Y04168D01*
X0189Y04164*
X01877Y04156*
X01864Y04146*
X01855Y04134*
X01847Y0412*
X01843Y04105*
X01841Y0409*
X01843Y04074*
X01847Y04059*
X01855Y04045*
X01864Y04033*
X01877Y04023*
X0189Y04016*
X01905Y04012*
X01921Y0401*
X01936Y04012*
X01951Y04016*
X01965Y04023*
X01977Y04033*
X01987Y04045*
X01995Y04059*
X01999Y04074*
X02001Y0409*
X01999Y04105*
X01995Y0412*
X01987Y04134*
X01977Y04146*
X01965Y04156*
X01951Y04164*
X01936Y04168*
X01921Y0417*
G37*
G36*
X01109Y04026D02*
Y03987D01*
X01148*
X01148Y03992*
X01143Y04003*
X01135Y04013*
X01125Y04021*
X01114Y04025*
X01109Y04026*
G37*
G36*
X01218D02*
Y03987D01*
X01257*
X01257Y03992*
X01252Y04003*
X01244Y04013*
X01234Y04021*
X01223Y04025*
X01218Y04026*
G37*
G36*
X01328D02*
Y03987D01*
X01366*
X01366Y03992*
X01361Y04003*
X01353Y04013*
X01343Y04021*
X01332Y04025*
X01328Y04026*
G37*
G36*
X01312D02*
X01307Y04025D01*
X01296Y04021*
X01286Y04013*
X01278Y04003*
X01274Y03992*
X01273Y03987*
X01312*
Y04026*
G37*
G36*
X00876D02*
X00871Y04025D01*
X0086Y04021*
X0085Y04013*
X00842Y04003*
X00837Y03992*
X00837Y03987*
X00876*
Y04026*
G37*
G36*
X01203D02*
X01198Y04025D01*
X01187Y04021*
X01177Y04013*
X01169Y04003*
X01165Y03992*
X01164Y03987*
X01203*
Y04026*
G37*
G36*
X01094D02*
X01089Y04025D01*
X01078Y04021*
X01068Y04013*
X0106Y04003*
X01056Y03992*
X01055Y03987*
X01094*
Y04026*
G37*
G36*
X03736Y04022D02*
Y03986D01*
X03773*
X03772Y0399*
X03768Y04001*
X03761Y0401*
X03751Y04017*
X0374Y04022*
X03736Y04022*
G37*
G36*
X00609Y04114D02*
X00594Y04113D01*
X00579Y04108*
X00566Y04101*
X00554Y04091*
X00544Y04079*
X00537Y04066*
X00532Y04051*
X00531Y04035*
X00532Y0402*
X00537Y04005*
X00544Y03992*
X00554Y0398*
X00566Y0397*
X00579Y03963*
X00594Y03958*
X00609Y03957*
X00625Y03958*
X0064Y03963*
X00653Y0397*
X00665Y0398*
X00675Y03992*
X00682Y04005*
X00687Y0402*
X00688Y04035*
X00687Y04051*
X00682Y04066*
X00675Y04079*
X00665Y04091*
X00653Y04101*
X0064Y04108*
X00625Y04113*
X00609Y04114*
G37*
G36*
X03773Y0397D02*
X03736D01*
Y03934*
X0374Y03934*
X03751Y03939*
X03761Y03946*
X03768Y03955*
X03772Y03966*
X03773Y0397*
G37*
G36*
X03946Y04023D02*
X03935Y04021D01*
X03924Y04017*
X03915Y0401*
X03908Y04*
X03903Y0399*
X03902Y03978*
X03903Y03966*
X03908Y03956*
X03915Y03946*
X03924Y03939*
X03935Y03935*
X03946Y03933*
X03958Y03935*
X03969Y03939*
X03978Y03946*
X03985Y03956*
X0399Y03966*
X03991Y03978*
X0399Y0399*
X03985Y04*
X03978Y0401*
X03969Y04017*
X03958Y04021*
X03946Y04023*
G37*
G36*
X03837D02*
X03826Y04021D01*
X03815Y04017*
X03806Y0401*
X03799Y04*
X03794Y0399*
X03793Y03978*
X03794Y03966*
X03799Y03956*
X03806Y03946*
X03815Y03939*
X03826Y03935*
X03837Y03933*
X03849Y03935*
X0386Y03939*
X03869Y03946*
X03876Y03956*
X03881Y03966*
X03882Y03978*
X03881Y0399*
X03876Y04*
X03869Y0401*
X0386Y04017*
X03849Y04021*
X03837Y04023*
G37*
G36*
X02631Y04023D02*
X02619Y04021D01*
X02608Y04017*
X02599Y0401*
X02592Y04*
X02588Y03989*
X02586Y03978*
X02588Y03966*
X02592Y03955*
X02599Y03946*
X02608Y03939*
X02619Y03935*
X02631Y03933*
X02642Y03935*
X02653Y03939*
X02663Y03946*
X0267Y03955*
X02674Y03966*
X02676Y03978*
X02674Y03989*
X0267Y04*
X02663Y0401*
X02653Y04017*
X02642Y04021*
X02631Y04023*
G37*
G36*
X01148Y03972D02*
X01109D01*
Y03933*
X01114Y03933*
X01125Y03938*
X01135Y03946*
X01143Y03956*
X01148Y03967*
X01148Y03972*
G37*
G36*
X01312D02*
X01273D01*
X01274Y03967*
X01278Y03956*
X01286Y03946*
X01296Y03938*
X01307Y03933*
X01312Y03933*
Y03972*
G37*
G36*
X00876D02*
X00837D01*
X00837Y03967*
X00842Y03956*
X0085Y03946*
X0086Y03938*
X00871Y03933*
X00876Y03933*
Y03972*
G37*
G36*
X01257D02*
X01218D01*
Y03933*
X01223Y03933*
X01234Y03938*
X01244Y03946*
X01252Y03956*
X01257Y03967*
X01257Y03972*
G37*
G36*
X01203D02*
X01164D01*
X01165Y03967*
X01169Y03956*
X01177Y03946*
X01187Y03938*
X01198Y03933*
X01203Y03933*
Y03972*
G37*
G36*
X01366D02*
X01328D01*
Y03933*
X01332Y03933*
X01343Y03938*
X01353Y03946*
X01361Y03956*
X01366Y03967*
X01366Y03972*
G37*
G36*
X01094D02*
X01055D01*
X01056Y03967*
X0106Y03956*
X01068Y03946*
X01078Y03938*
X01089Y03933*
X01094Y03933*
Y03972*
G37*
G36*
X02522Y04023D02*
X0251Y04021D01*
X02499Y04017*
X0249Y0401*
X02483Y04*
X02479Y03989*
X02477Y03978*
X02479Y03966*
X02483Y03955*
X0249Y03946*
X02499Y03939*
X02507Y03936*
Y03854*
X02502Y03852*
X02499Y03856*
X0249Y03863*
X02479Y03868*
X02475Y03868*
Y03824*
X0246*
Y03868*
X02456Y03868*
X02445Y03863*
X02435Y03856*
X02433Y03852*
X02428Y03854*
Y03936*
X02435Y03939*
X02445Y03946*
X02452Y03955*
X02456Y03966*
X02458Y03978*
X02456Y03989*
X02452Y04*
X02445Y0401*
X02435Y04017*
X02424Y04021*
X02413Y04023*
X02401Y04021*
X0239Y04017*
X02381Y0401*
X02374Y04*
X0237Y03989*
X02368Y03978*
X0237Y03966*
X02374Y03955*
X02381Y03946*
X0239Y03939*
X02398Y03936*
Y03854*
X02393Y03852*
X0239Y03856*
X02381Y03863*
X0237Y03868*
X02366Y03868*
Y03824*
X02351*
Y03868*
X02347Y03868*
X02336Y03863*
X02326Y03856*
X02324Y03852*
X02319Y03854*
Y03936*
X02326Y03939*
X02336Y03946*
X02343Y03955*
X02347Y03966*
X02349Y03978*
X02347Y03989*
X02343Y04*
X02336Y0401*
X02326Y04017*
X02315Y04021*
X02304Y04023*
X02292Y04021*
X02281Y04017*
X02272Y0401*
X02265Y04*
X02261Y03989*
X02259Y03978*
X02261Y03966*
X02265Y03955*
X02272Y03946*
X02281Y03939*
X02289Y03936*
Y03854*
X02284Y03852*
X02281Y03856*
X02272Y03863*
X02261Y03868*
X02257Y03868*
Y03824*
X02242*
Y03868*
X02238Y03868*
X02227Y03863*
X02217Y03856*
X02215Y03852*
X0221Y03854*
Y03936*
X02217Y03939*
X02227Y03946*
X02234Y03955*
X02238Y03966*
X0224Y03978*
X02238Y03989*
X02234Y04*
X02227Y0401*
X02217Y04017*
X02206Y04021*
X02195Y04023*
X02183Y04021*
X02172Y04017*
X02163Y0401*
X02156Y04*
X02152Y03989*
X0215Y03978*
X02152Y03966*
X02156Y03955*
X02163Y03946*
X02172Y03939*
X0218Y03936*
Y03796*
X02181Y03791*
X02185Y03786*
X02212Y03758*
X02209Y03754*
X02206Y03755*
X02195Y03757*
X02183Y03755*
X02172Y03751*
X02163Y03744*
X02156Y03734*
X02152Y03723*
X0215Y03712*
X02152Y037*
X02156Y03689*
X02163Y0368*
X02172Y03673*
X02183Y03669*
X02195Y03667*
X02206Y03669*
X02217Y03673*
X02227Y0368*
X02232Y03687*
X02237Y03685*
Y03677*
X02238Y03671*
X02241Y03666*
X02296Y03611*
X02301Y03608*
X02307Y03607*
X02446*
X02514Y03539*
Y03511*
X0251*
Y03464*
X02643*
Y03511*
X02638*
Y03574*
X02637Y0358*
X02634Y03585*
X02591Y03628*
Y03683*
X02596Y03684*
X02599Y0368*
X02608Y03673*
X02619Y03669*
X02631Y03667*
X02642Y03669*
X02653Y03673*
X02663Y0368*
X0267Y03689*
X02674Y037*
X02676Y03712*
X02674Y03723*
X0267Y03734*
X02663Y03744*
X02653Y03751*
X02642Y03755*
X02631Y03757*
X02619Y03755*
X02608Y03751*
X02599Y03744*
X02596Y03739*
X02591Y03741*
Y03742*
Y03742*
X0259Y03747*
X02587Y03752*
X02563Y03776*
X02566Y0378*
X02569Y03779*
Y03824*
Y03868*
X02565Y03868*
X02554Y03863*
X02544Y03856*
X02542Y03852*
X02537Y03854*
Y03936*
X02544Y03939*
X02554Y03946*
X02561Y03955*
X02565Y03966*
X02567Y03978*
X02565Y03989*
X02561Y04*
X02554Y0401*
X02544Y04017*
X02533Y04021*
X02522Y04023*
G37*
G36*
X00698Y03899D02*
X00688Y03897D01*
X0068Y03892*
X00675Y03883*
X00673Y03874*
X00675Y03864*
X00676Y03861*
X00674Y03857*
X00671*
Y03845*
X00664*
X00661Y03847*
X00653Y03849*
X00619*
X00611Y03847*
X00604Y03842*
X00599Y03835*
X00597Y03827*
X00599Y03819*
X00604Y03812*
X00611Y03807*
X00619Y03805*
X00653*
X00661Y03807*
X00664Y03809*
X00687*
X00687*
X00692Y0381*
X00725*
Y03857*
X00723*
X0072Y03861*
X00722Y03864*
X00724Y03874*
X00722Y03883*
X00716Y03892*
X00708Y03897*
X00698Y03899*
G37*
G36*
X039Y03868D02*
Y03832D01*
X03936*
X03936Y03836*
X03931Y03847*
X03924Y03856*
X03915Y03863*
X03904Y03868*
X039Y03868*
G37*
G36*
X02584Y03868D02*
Y03832D01*
X02621*
X0262Y03836*
X02616Y03847*
X02608Y03856*
X02599Y03863*
X02588Y03868*
X02584Y03868*
G37*
G36*
X03936Y03816D02*
X039D01*
Y0378*
X03904Y0378*
X03915Y03785*
X03924Y03792*
X03931Y03801*
X03936Y03812*
X03936Y03816*
G37*
G36*
X02621Y03816D02*
X02584D01*
Y03779*
X02588Y0378*
X02599Y03785*
X02608Y03792*
X02616Y03801*
X0262Y03812*
X02621Y03816*
G37*
G36*
X03954Y03756D02*
Y0372D01*
X03991*
X0399Y03724*
X03986Y03735*
X03979Y03744*
X03969Y03751*
X03958Y03756*
X03954Y03756*
G37*
G36*
X00653Y03749D02*
X00619D01*
X00611Y03747*
X00604Y03742*
X00599Y03735*
X00597Y03727*
X00599Y03719*
X00604Y03712*
X00611Y03707*
X00619Y03705*
X00653*
X00661Y03707*
X00668Y03712*
X00673Y03719*
X00674Y03727*
X00673Y03735*
X00668Y03742*
X00661Y03747*
X00653Y03749*
G37*
G36*
X0422Y03855D02*
X04205Y03853D01*
X0419Y03849*
X04176Y03841*
X04164Y03832*
X04154Y03819*
X04147Y03806*
X04142Y03791*
X04141Y03775*
X04142Y03759*
X04147Y03745*
X04154Y03731*
X04164Y03719*
X04176Y03709*
X0419Y03701*
X04205Y03697*
X0422Y03695*
X04236Y03697*
X04251Y03701*
X04265Y03709*
X04277Y03719*
X04287Y03731*
X04294Y03745*
X04299Y03759*
X043Y03775*
X04299Y03791*
X04294Y03806*
X04287Y03819*
X04277Y03832*
X04265Y03841*
X04251Y03849*
X04236Y03853*
X0422Y03855*
G37*
G36*
X03236D02*
X03221Y03853D01*
X03206Y03849*
X03192Y03841*
X0318Y03832*
X0317Y03819*
X03163Y03806*
X03158Y03791*
X03157Y03775*
X03158Y03759*
X03163Y03745*
X0317Y03731*
X0318Y03719*
X03192Y03709*
X03206Y03701*
X03221Y03697*
X03236Y03695*
X03252Y03697*
X03267Y03701*
X03281Y03709*
X03293Y03719*
X03303Y03731*
X0331Y03745*
X03315Y03759*
X03316Y03775*
X03315Y03791*
X0331Y03806*
X03303Y03819*
X03293Y03832*
X03281Y03841*
X03267Y03849*
X03252Y03853*
X03236Y03855*
G37*
G36*
X02905Y03855D02*
X02889Y03853D01*
X02874Y03849*
X02861Y03841*
X02848Y03831*
X02839Y03819*
X02831Y03805*
X02827Y0379*
X02825Y03775*
X02827Y03759*
X02831Y03744*
X02839Y0373*
X02848Y03718*
X02861Y03708*
X02874Y03701*
X02889Y03697*
X02905Y03695*
X0292Y03697*
X02935Y03701*
X02949Y03708*
X02961Y03718*
X02971Y0373*
X02979Y03744*
X02983Y03759*
X02985Y03775*
X02983Y0379*
X02979Y03805*
X02971Y03819*
X02961Y03831*
X02949Y03841*
X02935Y03849*
X0292Y03853*
X02905Y03855*
G37*
G36*
X01921D02*
X01905Y03853D01*
X0189Y03849*
X01877Y03841*
X01864Y03831*
X01855Y03819*
X01847Y03805*
X01843Y0379*
X01841Y03775*
X01843Y03759*
X01847Y03744*
X01855Y0373*
X01864Y03718*
X01877Y03708*
X0189Y03701*
X01905Y03697*
X01921Y03695*
X01936Y03697*
X01951Y03701*
X01965Y03708*
X01977Y03718*
X01987Y0373*
X01995Y03744*
X01999Y03759*
X02001Y03775*
X01999Y0379*
X01995Y03805*
X01987Y03819*
X01977Y03831*
X01965Y03841*
X01951Y03849*
X01936Y03853*
X01921Y03855*
G37*
G36*
X03991Y03704D02*
X03954D01*
Y03668*
X03958Y03668*
X03969Y03673*
X03979Y0368*
X03986Y03689*
X0399Y037*
X03991Y03704*
G37*
G36*
X01645Y03701D02*
X01356D01*
X01352Y037*
X01349Y03698*
X01347Y03695*
X01346Y03691*
Y03607*
X01347Y03603*
X01349Y036*
X01352Y03598*
X01356Y03597*
X01645*
X01649Y03598*
X01652Y036*
X01654Y03603*
X01655Y03607*
Y03691*
X01654Y03695*
X01652Y03698*
X01649Y037*
X01645Y03701*
G37*
G36*
X04761Y0366D02*
X04752Y03659D01*
X04744Y03656*
X04737Y0365*
X04731Y03643*
X04728Y03634*
X04727Y03625*
X04728Y03616*
X04729Y03614*
X04637Y03522*
X04634Y03517*
X04632Y03511*
Y0331*
X0462*
Y03264*
X04674*
Y0331*
X04662*
Y03505*
X0475Y03593*
X04752Y03592*
X04761Y03591*
X0477Y03592*
X04779Y03595*
X04786Y03601*
X04791Y03608*
X04795Y03616*
X04796Y03625*
X04795Y03634*
X04791Y03643*
X04786Y0365*
X04779Y03656*
X0477Y03659*
X04761Y0366*
G37*
G36*
X00653Y03599D02*
X00619D01*
X00611Y03597*
X00604Y03592*
X00599Y03585*
X00597Y03577*
X00599Y03569*
X00604Y03562*
X00611Y03557*
X00619Y03555*
X00653*
X00661Y03557*
X00668Y03562*
X00673Y03569*
X00674Y03577*
X00673Y03585*
X00668Y03592*
X00661Y03597*
X00653Y03599*
G37*
G36*
X04761Y03581D02*
X04752Y0358D01*
X04744Y03577*
X04737Y03571*
X04731Y03564*
X04728Y03556*
X04727Y03547*
X04728Y03538*
X04731Y03529*
X04737Y03522*
X04744Y03517*
X04752Y03513*
X04761Y03512*
X0477Y03513*
X04779Y03517*
X04786Y03522*
X04791Y03529*
X04795Y03538*
X04796Y03547*
X04795Y03556*
X04791Y03564*
X04786Y03571*
X04779Y03577*
X0477Y0358*
X04761Y03581*
G37*
G36*
X03003Y03633D02*
X02995Y03632D01*
X02988Y03627*
X02983Y0362*
X02982Y03612*
X02983Y03603*
X02988Y03596*
X02989Y03596*
Y03511*
X02984*
Y03464*
X03117*
Y03511*
X03118Y03516*
X0312Y03523*
X03118Y03531*
X03113Y03538*
X03106Y03543*
X03098Y03545*
X03091Y03543*
X03088Y03546*
X03087Y03547*
X03088Y03553*
X03086Y03561*
X03082Y03568*
X03075Y03573*
X03066Y03574*
X0306Y03573*
X03056Y03576*
X03056Y03577*
X03057Y03582*
X03055Y0359*
X0305Y03598*
X03043Y03602*
X03035Y03604*
X03028Y03603*
X03025Y03605*
X03024Y03606*
X03025Y03612*
X03023Y0362*
X03019Y03627*
X03012Y03632*
X03003Y03633*
G37*
G36*
X04511Y03387D02*
X04503Y03385D01*
X04496Y0338*
X04491Y03373*
X04489Y03365*
X04491Y03358*
X04488Y03353*
X04484*
Y03306*
X04538*
Y03353*
X04534*
X04531Y03358*
X04533Y03365*
X04531Y03373*
X04526Y0338*
X04519Y03385*
X04511Y03387*
G37*
G36*
X04361Y03353D02*
X04307D01*
Y03344*
X04306*
X043Y03343*
X04296Y0334*
X04248Y03292*
X04243Y0329*
X04236Y03295*
X04228Y03297*
X04194*
X04186Y03295*
X04179Y0329*
X04174Y03283*
X04172Y03275*
X04174Y03267*
X04179Y0326*
X04186Y03255*
X04194Y03253*
X04196*
Y03247*
X04194*
X04186Y03245*
X04179Y0324*
X04174Y03233*
X04172Y03225*
X04174Y03217*
X04179Y0321*
X04186Y03205*
X04194Y03203*
X04228*
X04236Y03205*
X04243Y0321*
X04248Y03217*
X04249Y03225*
X04248Y03233*
X04243Y0324*
X04236Y03245*
X04228Y03247*
X04225*
Y03253*
X04228*
X04236Y03255*
X04243Y0326*
X04243Y0326*
X04251*
X04257Y03262*
X04262Y03265*
X04302Y03305*
X04307Y03306*
X04361*
Y03353*
G37*
G36*
X04013Y03347D02*
X0398D01*
X03971Y03345*
X03964Y0334*
X03959Y03333*
X03958Y03325*
X03959Y03317*
X03964Y0331*
X03971Y03305*
X0398Y03303*
X03982*
Y03297*
X0398*
X03971Y03295*
X03966Y03292*
X03961Y0329*
X03954Y03295*
X03946Y03296*
X03938Y03295*
X03931Y0329*
X03926Y03283*
X03924Y03275*
X03926Y03266*
X03931Y03259*
X03938Y03255*
X03946Y03253*
X03954Y03255*
X03961Y03259*
X03966Y03258*
X03971Y03255*
X0398Y03253*
X04013*
X04021Y03255*
X04028Y0326*
X04033Y03267*
X04035Y03275*
X04033Y03283*
X04028Y0329*
X04021Y03295*
X04013Y03297*
X04011*
Y03303*
X04013*
X04021Y03305*
X04028Y0331*
X04033Y03317*
X04035Y03325*
X04033Y03333*
X04028Y0334*
X04021Y03345*
X04013Y03347*
G37*
G36*
X04796Y03502D02*
X04727D01*
Y03434*
X04747*
Y0331*
X04734*
Y03264*
X04788*
Y0331*
X04776*
Y03434*
X04796*
Y03502*
G37*
G36*
X03117Y03448D02*
X02984D01*
Y03401*
X02989*
Y03223*
X02989Y03223*
X02984Y03215*
X02982Y03207*
Y03174*
X02984Y03165*
X02989Y03158*
X02996Y03154*
X03004Y03152*
X03012Y03154*
X03019Y03158*
X03024Y03165*
X03026Y03174*
Y03207*
X03024Y03215*
X03019Y03223*
X03018Y03223*
Y03364*
X03023Y03365*
X03025Y03363*
X03089Y03299*
Y03223*
X03089Y03223*
X03084Y03215*
X03082Y03207*
Y03174*
X03084Y03165*
X03089Y03158*
X03096Y03154*
X03104Y03152*
X03112Y03154*
X03119Y03158*
X03124Y03165*
X03126Y03174*
Y03207*
X03124Y03215*
X03119Y03223*
X03118Y03223*
Y03304*
X03121Y03305*
X03123Y03306*
X03167Y03262*
X03164Y03258*
X03162Y03259*
X03154Y03261*
X03146Y03259*
X03139Y03255*
X03134Y03248*
X03132Y03239*
X03134Y03231*
X03136Y03227*
Y03219*
X03134Y03215*
X03132Y03207*
Y03174*
X03134Y03165*
X03139Y03158*
X03146Y03154*
X03154Y03152*
X03162Y03154*
X03169Y03158*
X03174Y03165*
X03176Y03174*
Y03207*
X03174Y03215*
X03171Y03219*
Y03227*
X03174Y03231*
X03176Y03239*
X03174Y03248*
X03173Y03249*
X03177Y03252*
X03189Y0324*
Y03223*
X03189Y03223*
X03184Y03215*
X03182Y03207*
Y03174*
X03184Y03165*
X03189Y03158*
X03196Y03154*
X03204Y03152*
X03212Y03154*
X03219Y03158*
X03224Y03165*
X03226Y03174*
Y03207*
X03224Y03215*
X03219Y03223*
X03218Y03223*
Y03246*
X03217Y03252*
X03216Y03254*
X03217Y03257*
X03219Y03258*
X03235*
X03237Y03253*
X03233Y03248*
X03232Y0324*
X03233Y03231*
X03236Y03228*
Y03218*
X03234Y03215*
X03232Y03207*
Y03174*
X03234Y03165*
X03239Y03158*
X03246Y03154*
X03254Y03152*
X03262Y03154*
X03269Y03158*
X03274Y03165*
X03276Y03174*
Y03207*
X03274Y03215*
X03271Y0322*
Y03228*
X03273Y03231*
X03275Y0324*
X03273Y03248*
X03271Y03251*
X03274Y03257*
X03276Y03257*
X03289Y03244*
Y03223*
X03289Y03223*
X03284Y03215*
X03282Y03207*
Y03174*
X03284Y03165*
X03289Y03158*
X03296Y03154*
X03304Y03152*
X03312Y03154*
X03319Y03158*
X03324Y03165*
X03326Y03174*
Y03207*
X03324Y03215*
X03319Y03223*
X03318Y03223*
Y0325*
X03317Y03256*
X03314Y03261*
X03291Y03283*
X03287Y03287*
X03281Y03288*
X03224*
X03115Y03396*
X03117Y03401*
Y03448*
G37*
G36*
X02643D02*
X0251D01*
Y03401*
X02514*
Y03224*
X02514Y03223*
X02509Y03216*
X02508Y03208*
Y03175*
X02509Y03166*
X02514Y03159*
X02521Y03155*
X02529Y03153*
X02538Y03155*
X02545Y03159*
X02549Y03166*
X02551Y03175*
Y03208*
X02549Y03216*
X02545Y03223*
X02544Y03224*
Y03364*
X02549Y03365*
X0255Y03363*
X02615Y03299*
Y03224*
X02614Y03223*
X02609Y03216*
X02608Y03208*
Y03175*
X02609Y03166*
X02614Y03159*
X02621Y03155*
X02629Y03153*
X02638Y03155*
X02645Y03159*
X02649Y03166*
X02651Y03175*
Y03208*
X02649Y03216*
X02645Y03223*
X02644Y03224*
Y03304*
X02647Y03305*
X02649Y03306*
X02696Y03259*
X02696Y03259*
Y03259*
X02692Y03255*
X02692Y03256*
X02687Y03259*
X02679Y0326*
X02671Y03259*
X02664Y03254*
X02659Y03247*
X02657Y03239*
X02659Y0323*
X02661Y03227*
Y03219*
X02659Y03216*
X02658Y03208*
Y03175*
X02659Y03166*
X02664Y03159*
X02671Y03155*
X02679Y03153*
X02688Y03155*
X02695Y03159*
X02699Y03166*
X02701Y03175*
Y03208*
X02699Y03216*
X02696Y03221*
Y03227*
X02699Y0323*
X02701Y03239*
X02699Y03247*
X02696Y03252*
X02695Y03252*
X02699Y03255*
X02715Y0324*
Y03224*
X02714Y03223*
X02709Y03216*
X02708Y03208*
Y03175*
X02709Y03166*
X02714Y03159*
X02721Y03155*
X02729Y03153*
X02738Y03155*
X02745Y03159*
X02749Y03166*
X02751Y03175*
Y03208*
X02749Y03216*
X02745Y03223*
X02744Y03224*
Y03246*
X02743Y03252*
X02741Y03254*
X02743Y03257*
X02744Y03258*
X02762*
X02764Y03253*
X02759Y03247*
X02758Y03239*
X02759Y0323*
X02762Y03227*
Y0322*
X02759Y03216*
X02758Y03208*
Y03175*
X02759Y03166*
X02764Y03159*
X02771Y03155*
X02779Y03153*
X02788Y03155*
X02795Y03159*
X02799Y03166*
X02801Y03175*
Y03208*
X02799Y03216*
X02797Y0322*
Y03227*
X02799Y0323*
X02801Y03239*
X02799Y03247*
X02795Y03253*
X02797Y03258*
X02801Y03258*
X02815Y03244*
Y03224*
X02814Y03223*
X02809Y03216*
X02808Y03208*
Y03175*
X02809Y03166*
X02814Y03159*
X02821Y03155*
X02829Y03153*
X02838Y03155*
X02845Y03159*
X02849Y03166*
X02851Y03175*
Y03208*
X02849Y03216*
X02845Y03223*
X02844Y03224*
Y0325*
X02843Y03256*
X0284Y03261*
X0284*
X02817Y03283*
X02812Y03287*
X02807Y03288*
X0275*
X02641Y03396*
X02643Y03401*
Y03448*
G37*
G36*
X03596Y03302D02*
X03462D01*
Y03256*
X03499*
Y032*
X0349*
Y03146*
X03499*
Y03124*
X035Y03118*
X03503Y03113*
X03564Y03052*
X03569Y03048*
X03575Y03047*
X03614*
X03617Y03042*
X03615Y03036*
X03616Y03033*
X03612Y03028*
X03599*
X03598Y0303*
X0359Y03035*
X0358Y03037*
X0357Y03035*
X03562Y0303*
X03556Y03022*
X03554Y03012*
X03556Y03002*
X0356Y02997*
X03557Y02992*
X03557*
Y02937*
X03562*
Y02931*
X03552*
Y02861*
X03608*
Y02931*
X03598*
Y02937*
X03603*
Y02992*
X03608Y02993*
X03612*
X03616Y02988*
X03615Y02985*
X03617Y02978*
X03621Y02973*
Y02972*
X03617Y02966*
X03615Y0296*
X03617Y02953*
X03618Y02951*
X0362Y02947*
X03618Y02943*
X03617Y02941*
X03615Y02934*
X03617Y02927*
X03621Y02922*
X03626Y02918*
X03633Y02916*
X03638*
Y02899*
X03639Y02893*
X03642Y02888*
X03649Y02882*
Y02829*
X03644Y02825*
X03639Y02826*
X03631Y02824*
X03624Y0282*
X03619Y02813*
X03617Y02804*
X03619Y02796*
X03624Y02789*
X03624Y02789*
Y02744*
X03622Y0274*
X0362Y02733*
Y02694*
X03622Y02687*
X03625Y02681*
X03631Y02678*
X03638Y02676*
X03645Y02678*
X03647Y02679*
X03651Y02681*
X03655Y02679*
X03657Y02678*
X03664Y02676*
X0367Y02678*
X03676Y02681*
X03677*
X03682Y02678*
X03689Y02676*
X03696Y02678*
X03698Y02679*
X03702Y02681*
X03706Y02679*
X03708Y02678*
X03715Y02676*
X03722Y02678*
X03727Y02681*
X03728*
X03734Y02678*
X0374Y02676*
X03747Y02678*
X03749Y02679*
X03753Y02681*
X03757Y02679*
X03759Y02678*
X03766Y02676*
X03773Y02678*
X03778Y02681*
X03782Y02687*
X03784Y02694*
Y02733*
X03782Y0274*
X03781Y02742*
Y02772*
X03868Y02859*
X04052*
X04054Y02854*
X03978Y02778*
X03974Y02773*
X03973Y02768*
Y02737*
X03973Y02737*
X03968Y0273*
X03966Y02721*
Y02688*
X03968Y0268*
X03973Y02673*
X0398Y02668*
X03988Y02666*
X03996Y02668*
X04003Y02673*
X04008Y0268*
X0401Y02688*
Y02721*
X04008Y0273*
X04003Y02737*
X04003Y02737*
Y02761*
X04069Y02828*
X0407Y02828*
X04071Y02822*
X04028Y02779*
X04024Y02774*
X04023Y02768*
Y02737*
X04023Y02737*
X04018Y0273*
X04016Y02721*
Y02688*
X04018Y0268*
X04023Y02673*
X0403Y02668*
X04038Y02666*
X04046Y02668*
X04053Y02673*
X04058Y0268*
X0406Y02688*
Y02721*
X04058Y0273*
X04053Y02737*
X04053Y02737*
Y02762*
X04094Y02804*
X04233*
X04235Y02799*
X04235Y02798*
X04195*
Y02744*
X04198*
Y02729*
X04197Y02721*
Y02687*
X04198Y02679*
X04203Y02672*
X0421Y02667*
X04218Y02666*
X04227Y02667*
X04234Y02672*
X04238Y02679*
X0424Y02687*
Y02721*
X04238Y02729*
X04238Y0273*
Y02744*
X04241*
Y02751*
X04247*
X04251Y02752*
X04251Y02752*
X04254Y02748*
X04254Y02745*
Y02737*
X04253Y02736*
X04248Y02729*
X04247Y02721*
Y02687*
X04248Y02679*
X04253Y02672*
X0426Y02667*
X04268Y02666*
X04277Y02667*
X04284Y02672*
X04288Y02679*
X0429Y02687*
Y02721*
X04288Y02729*
X04284Y02736*
X04285Y02741*
X043Y02755*
X04304Y02753*
X04304Y0275*
Y02737*
X04303Y02736*
X04298Y02729*
X04297Y02721*
Y02687*
X04298Y02679*
X04303Y02672*
X0431Y02667*
X04318Y02666*
X04327Y02667*
X04334Y02672*
X04338Y02679*
X0434Y02687*
Y02721*
X04338Y02729*
X04334Y02736*
X04333Y02737*
Y02743*
X0436Y0277*
X04407*
X0445Y02727*
X04455Y02724*
X0446Y02723*
X0473*
X04731Y0272*
X04737Y02713*
X04744Y02708*
X04752Y02704*
X04761Y02703*
X0477Y02704*
X04779Y02708*
X04786Y02713*
X04791Y0272*
X04795Y02729*
X04796Y02738*
X04795Y02747*
X04791Y02755*
X04786Y02762*
X04779Y02768*
X0477Y02771*
X04761Y02772*
X04752Y02771*
X04744Y02768*
X04737Y02762*
X04731Y02755*
X0473Y02752*
X04466*
X04423Y02795*
X04421Y02797*
X04423Y02802*
X0473*
X04731Y02799*
X04737Y02792*
X04744Y02786*
X04752Y02783*
X04761Y02782*
X0477Y02783*
X04779Y02786*
X04786Y02792*
X04791Y02799*
X04795Y02807*
X04796Y02816*
X04795Y02825*
X04791Y02834*
X04786Y02841*
X04779Y02847*
X0477Y0285*
X04761Y02851*
X04752Y0285*
X04744Y02847*
X04737Y02841*
X04731Y02834*
X0473Y02831*
X0434*
X04334Y0283*
X0433Y02827*
X04293Y0279*
X04287Y02791*
X04286Y02797*
X0428Y02805*
X04272Y02811*
X04265Y02812*
X04263Y02817*
X04382Y02936*
X04408*
X0441Y02931*
X04396Y02916*
X04395Y02917*
X04386Y02915*
X04379Y0291*
X04375Y02903*
X04373Y02895*
X04375Y02887*
X04379Y0288*
X04386Y02875*
X04395Y02873*
X04403Y02875*
X0441Y0288*
X04415Y02887*
X04416Y02895*
X04416Y02896*
X04431Y0291*
X04478*
X04481Y02909*
X04487Y02907*
X04527*
X04534Y02909*
X04539Y02913*
X04543Y02918*
X04544Y02925*
X04543Y02932*
X04542Y02934*
X04539Y02938*
X04542Y02942*
X04543Y02944*
X04544Y02951*
X04543Y02957*
X04539Y02963*
X04534Y02967*
X04527Y02968*
X04487*
X04481Y02967*
X04478Y02965*
X04376*
X0437Y02964*
X04366Y02961*
X04294Y0289*
X0429Y02892*
X0429Y02893*
Y02907*
X04294*
X04301Y02909*
X04307Y02913*
X04311Y02918*
X04312Y02925*
X04311Y02932*
X04309Y02934*
X04307Y02938*
X04309Y02942*
X04311Y02944*
X04312Y02951*
X04311Y02957*
X04307Y02963*
Y02964*
X04311Y0297*
X04312Y02976*
X04311Y02983*
X04309Y02985*
X04307Y02989*
X04309Y02993*
X04311Y02995*
X04312Y03002*
X04311Y03009*
X04307Y03014*
Y03015*
X04311Y03021*
X04312Y03028*
X04311Y03034*
X04309Y03036*
X04307Y0304*
X04309Y03044*
X04311Y03046*
X04312Y03053*
X04311Y03059*
X04313Y03064*
X04317*
X04322Y03065*
X04327Y03068*
X04344Y03085*
X04347Y0309*
X04349Y03096*
Y03184*
X04357*
Y03239*
X04349*
Y03251*
X04361*
Y0326*
X04372*
Y03247*
X04418*
Y03302*
X04372*
Y03289*
X04361*
Y03298*
X04307*
Y03251*
X04319*
Y03239*
X04311*
Y03184*
X04319*
Y03102*
X04316Y031*
X04312Y03102*
X04312Y03104*
X04311Y03111*
X04307Y03117*
X04301Y03121*
X04294Y03122*
X04255*
X04248Y03121*
X04243Y03117*
X04239Y03111*
X04237Y03104*
X04239Y03098*
X0424Y03096*
X04242Y03091*
X0424Y03087*
X04239Y03085*
X04237Y03079*
X04238Y03075*
X04234Y03072*
X04225Y03074*
X04217Y03072*
X0421Y03068*
X04205Y03061*
X04204Y03052*
X04205Y03044*
X0421Y03037*
X04217Y03032*
X04225Y03031*
X04233Y03032*
X04235Y03031*
X04238Y03029*
X04237Y03028*
X04238Y03025*
X04234Y0302*
X04223*
X04222Y03021*
X04214Y03027*
X04204Y03029*
X04194Y03027*
X04189Y03023*
X04184Y03026*
Y0303*
X04137*
Y02976*
X04143*
Y02967*
X04132*
Y02897*
X04173*
X04175Y02892*
X04171Y02888*
X03862*
X03856Y02887*
X03851Y02884*
X0376Y02793*
X03755Y02795*
Y02947*
X03754Y02952*
X03751Y02957*
X03712Y02996*
X03708Y02999*
X03702Y03*
X03691*
X03689Y03005*
X0369Y03011*
X03689Y03018*
X03685Y03023*
Y03024*
X03689Y0303*
X0369Y03036*
X03689Y03043*
X03687Y03045*
X03685Y03049*
X03687Y03053*
X03689Y03055*
X0369Y03062*
X03689Y03069*
X03685Y03074*
Y03075*
X03689Y03081*
X0369Y03088*
X03689Y03094*
X03687Y03096*
X03685Y031*
X03687Y03104*
X03689Y03106*
X0369Y03113*
X03689Y0312*
X03685Y03126*
X03679Y03129*
X03672Y03131*
X03633*
X03626Y03129*
X03621Y03126*
X03617Y0312*
X03615Y03113*
X03617Y03107*
X03614Y03102*
X03605*
X03579Y03128*
Y03146*
X03588*
Y032*
X03579*
Y03222*
X03578Y03228*
X03575Y03232*
X03559Y03248*
Y03256*
X03596*
Y03264*
X03661*
X03731Y03194*
X03736Y03191*
X03742Y0319*
X03791*
Y03181*
X03804*
Y03112*
X03805Y03106*
X03808Y03101*
X03832Y03077*
X03837Y03074*
X03843Y03073*
X03856*
X03859Y03071*
X03865Y0307*
X03905*
X03911Y03071*
X03917Y03075*
X03921Y03081*
X03922Y03088*
X03921Y03094*
X0392Y03096*
X03917Y031*
X0392Y03104*
X03921Y03106*
X03922Y03113*
X03921Y0312*
X03917Y03126*
X03911Y03129*
X03905Y03131*
X03865*
X03859Y03129*
X03853Y03126*
X03849Y0312*
X03848Y03113*
X03848Y03109*
X03844Y03107*
X03833Y03118*
Y03181*
X03846*
Y03227*
X03791*
Y03219*
X03748*
X03677Y03289*
X03672Y03293*
X03667Y03294*
X03596*
Y03302*
G37*
G36*
X04013Y03247D02*
X0398D01*
X03971Y03245*
X03964Y0324*
X03959Y03233*
X03958Y03225*
X03959Y03217*
X03964Y0321*
X03971Y03205*
X03979Y03204*
Y03186*
X03972*
Y03183*
X03968Y03181*
X03966Y03182*
X03956Y03184*
X03946Y03182*
X03938Y03177*
X03932Y03168*
X0393Y03158*
X03932Y03149*
X03938Y0314*
X03946Y03135*
X03956Y03133*
X03966Y03135*
X03968Y03136*
X03972Y03134*
Y03131*
X04018*
Y03186*
X04014*
Y03204*
X04021Y03205*
X04028Y0321*
X04033Y03217*
X04035Y03225*
X04033Y03233*
X04028Y0324*
X04021Y03245*
X04013Y03247*
G37*
G36*
X04788Y03255D02*
X04734D01*
Y03209*
X04741*
X04743Y03204*
X04741Y03201*
X0474Y03192*
X04741Y03184*
X04746Y03177*
X04753Y03172*
X04761Y03171*
X0477Y03172*
X04777Y03177*
X04781Y03184*
X04783Y03192*
X04781Y03201*
X04779Y03204*
X04782Y03209*
X04788*
Y03255*
G37*
G36*
X0288Y0326D02*
X02871Y03259D01*
X02864Y03254*
X0286Y03247*
X02858Y03239*
X02859Y03234*
X02858Y03229*
X02858*
X02858*
Y03153*
X029*
Y03229*
X029Y03234*
X02901Y03239*
X029Y03247*
X02895Y03254*
X02888Y03259*
X0288Y0326*
G37*
G36*
X02578D02*
X0257Y03259D01*
X02563Y03254*
X02558Y03247*
X02557Y03239*
X02558Y0323*
X02561Y03227*
Y03219*
X02559Y03216*
X02558Y03208*
Y03175*
X02559Y03166*
X02564Y03159*
X02571Y03155*
X02579Y03153*
X02588Y03155*
X02595Y03159*
X02599Y03166*
X02601Y03175*
Y03208*
X02599Y03216*
X02596Y03221*
Y03227*
X02598Y0323*
X026Y03239*
X02598Y03247*
X02594Y03254*
X02587Y03259*
X02578Y0326*
G37*
G36*
X03354Y03261D02*
X03346Y0326D01*
X03339Y03255*
X03334Y03248*
X03332Y0324*
X03333Y03233*
X03333Y03228*
Y03152*
X03375*
Y03228*
X03374Y03233*
X03376Y0324*
X03374Y03248*
X03369Y03255*
X03362Y0326*
X03354Y03261*
G37*
G36*
X03054Y03261D02*
X03046Y03259D01*
X03039Y03255*
X03034Y03248*
X03032Y03239*
X03034Y03231*
X03036Y03227*
Y03219*
X03034Y03215*
X03032Y03207*
Y03174*
X03034Y03165*
X03039Y03158*
X03046Y03154*
X03054Y03152*
X03062Y03154*
X03069Y03158*
X03074Y03165*
X03076Y03174*
Y03207*
X03074Y03215*
X03071Y03219*
Y03227*
X03074Y03231*
X03076Y03239*
X03074Y03248*
X03069Y03255*
X03062Y03259*
X03054Y03261*
G37*
G36*
X04473Y03302D02*
X04427D01*
Y03247*
X04473*
Y0326*
X04484*
Y03251*
X04496*
Y03239*
X04488*
Y03184*
X04514*
X04551Y03147*
Y0311*
X04549Y03108*
X04543Y03109*
X04543Y03111*
X04539Y03117*
X04534Y03121*
X04527Y03122*
X04487*
X04481Y03121*
X04475Y03117*
X04471Y03111*
X0447Y03104*
X04471Y03098*
X04472Y03096*
X04475Y03091*
X04472Y03087*
X04471Y03085*
X0447Y03079*
X04471Y03072*
X04475Y03066*
X04481Y03062*
X04487Y03061*
X04527*
X04534Y03062*
X04536Y03064*
X04543*
X04549Y03065*
X04554Y03068*
X04576Y03091*
X0458Y03096*
X04581Y03102*
Y03153*
Y03153*
X0458Y03158*
X04576Y03163*
X04534Y03205*
Y03239*
X04526*
Y03251*
X04538*
Y03298*
X04484*
Y03289*
X04473*
Y03302*
G37*
G36*
X03958Y02981D02*
X03949Y0298D01*
X03942Y02975*
X03942Y02974*
X03914*
X03911Y02976*
X03905Y02977*
X03865*
X03859Y02976*
X03853Y02972*
X03849Y02966*
X03848Y0296*
X03849Y02953*
X0385Y02951*
X03853Y02947*
X0385Y02943*
X03849Y02941*
X03848Y02934*
X03849Y02927*
X03853Y02922*
X03859Y02918*
X03865Y02916*
X03905*
X03911Y02918*
X03914Y02919*
X03918*
X03919Y02919*
X03926Y02914*
X03934Y02913*
X03942Y02914*
X03949Y02919*
X03954Y02926*
X03956Y02933*
X03956Y02935*
X0396Y02938*
X03966Y0294*
X03973Y02944*
X03978Y02951*
X03979Y0296*
X03978Y02968*
X03973Y02975*
X03966Y0298*
X03958Y02981*
G37*
G36*
X03587Y02751D02*
X0358Y0275D01*
X03574Y02746*
X0357Y0274*
X03569Y02733*
Y02731*
X03556*
Y02737*
X03501*
Y02691*
X03506*
X03508Y02686*
X03506Y02683*
X03504Y02673*
X03506Y02663*
X03511Y02655*
X0352Y02649*
X03529Y02647*
X03539Y02649*
X03548Y02655*
X03553Y02663*
X03555Y02673*
X03553Y02683*
X03551Y02686*
X03553Y02691*
X03556*
Y02696*
X03569*
Y02694*
X0357Y02687*
X03574Y02681*
X0358Y02678*
X03587Y02676*
X03594Y02678*
X03599Y02681*
X03603Y02687*
X03604Y02694*
Y02733*
X03603Y0274*
X03599Y02746*
X03594Y0275*
X03587Y02751*
G37*
G36*
X04796Y02694D02*
X04769D01*
Y02667*
X04796*
Y02694*
G37*
G36*
X04753D02*
X04726D01*
Y02667*
X04753*
Y02694*
G37*
G36*
X03938Y02838D02*
X03928Y02836D01*
X0392Y0283*
X03914Y02822*
X03912Y02812*
X03914Y02802*
X03915Y028*
Y02745*
X0392*
Y02733*
X03918Y0273*
X03916Y02721*
Y02688*
X03918Y0268*
X03923Y02673*
X0393Y02668*
X03938Y02666*
X03946Y02668*
X03953Y02673*
X03958Y0268*
X0396Y02688*
Y02721*
X03958Y0273*
X03956Y02733*
Y02745*
X03961*
Y028*
X03961*
X03962Y02802*
X03962Y02802*
X03964Y02812*
X03962Y02822*
X03956Y0283*
X03948Y02836*
X03938Y02838*
G37*
G36*
X04796Y02651D02*
X04769D01*
Y02624*
X04796*
Y02651*
G37*
G36*
X04753D02*
X04726D01*
Y02624*
X04753*
Y02651*
G37*
G36*
X04598Y02395D02*
X0459Y02394D01*
X04583Y02389*
X04578Y02382*
X04576Y02374*
X04576Y02373*
X0452Y02316*
X04513*
Y02327*
X04447*
Y02276*
Y02226*
X04513*
Y02237*
X04527*
X04533Y02238*
X04537Y02241*
X04549Y02253*
X04554Y02251*
Y02176*
X04561*
Y02143*
X0446*
X04456Y02142*
X04453Y0214*
X04451Y02137*
X04451Y02135*
X04442*
Y02065*
X0445*
Y02017*
X04451Y02016*
Y019*
X04682*
Y02016*
X04682Y02017*
Y02133*
X04682Y02137*
X0468Y0214*
X04676Y02142*
X04673Y02143*
X04619*
Y02176*
X04658*
Y0226*
X04563*
X04561Y02265*
X04631Y02334*
X04631Y02334*
X0464Y02336*
X04647Y0234*
X04651Y02348*
X04653Y02356*
X04651Y02364*
X04647Y02371*
X0464Y02376*
X04631Y02377*
X04624Y02376*
X04623Y02376*
X04619Y02379*
X04618Y02382*
X04613Y02389*
X04606Y02394*
X04598Y02395*
G37*
G36*
X04425Y02135D02*
X04369D01*
Y02129*
X04342*
X04334Y02128*
X04327Y02125*
X04321Y02121*
X04225Y02024*
X0422Y02018*
X04217Y02011*
X04217Y0201*
X04157*
Y01867*
X04275*
Y01966*
X04275Y01968*
Y01991*
X04354Y02071*
X04369*
Y02065*
X04425*
Y02092*
X04426Y02092*
X04427Y021*
X04426Y02107*
X04425Y02108*
Y02135*
G37*
G36*
X04682Y01643D02*
X04451D01*
Y01532*
X0445Y01531*
Y0124*
X04451Y01236*
X04453Y01233*
X04526Y0116*
X04529Y01158*
X04533Y01157*
X04698*
X04702Y01158*
X04705Y0116*
X04743Y01197*
X04745Y01201*
X04745Y01204*
Y01307*
X04745Y0131*
X04743Y01313*
X04682Y01374*
Y01531*
X04682Y01532*
Y01643*
G37*
G36*
X04675Y00869D02*
X04663Y00868D01*
X04651Y00863*
X04641Y00855*
X04633Y00845*
X04628Y00833*
X04626Y0082*
X04628Y00807*
X04633Y00795*
X04641Y00785*
X04651Y00777*
X04663Y00772*
X04675Y00771*
X04688Y00772*
X047Y00777*
X0471Y00785*
X04718Y00795*
X04723Y00807*
X04725Y0082*
X04723Y00833*
X04718Y00845*
X0471Y00855*
X047Y00863*
X04688Y00868*
X04675Y00869*
G37*
G36*
X04683Y00469D02*
Y00428D01*
X04724*
X04724Y00433*
X04719Y00445*
X04711Y00455*
X047Y00463*
X04688Y00468*
X04683Y00469*
G37*
G36*
X04668D02*
X04663Y00468D01*
X04651Y00463*
X0464Y00455*
X04632Y00445*
X04627Y00433*
X04627Y00428*
X04668*
Y00469*
G37*
G36*
X04724Y00412D02*
X04683D01*
Y00371*
X04688Y00372*
X047Y00377*
X04711Y00385*
X04719Y00395*
X04724Y00407*
X04724Y00412*
G37*
G36*
X04668D02*
X04627D01*
X04627Y00407*
X04632Y00395*
X0464Y00385*
X04651Y00377*
X04663Y00372*
X04668Y00371*
Y00412*
G37*
G36*
X0012Y03854D02*
X0011Y03852D01*
X00101Y03846*
X00096Y03838*
X00094Y03828*
X00096Y03818*
X00101Y0381*
X0011Y03805*
X0012Y03803*
X00129Y03805*
X00135Y03809*
X00151*
Y03805*
X00206*
Y03807*
X00212*
Y03806*
X00288*
Y03848*
X00212*
Y03847*
X00206*
Y03852*
X00151*
Y03848*
X00135*
X00129Y03852*
X0012Y03854*
G37*
G36*
X00267Y03699D02*
X00233D01*
X00225Y03697*
X00218Y03692*
X00213Y03685*
X00212Y03677*
X00213Y03669*
X00218Y03662*
X00225Y03657*
X00233Y03655*
X00267*
X00275Y03657*
X00282Y03662*
X00287Y03669*
X00288Y03677*
X00287Y03685*
X00282Y03692*
X00275Y03697*
X00267Y03699*
G37*
G36*
Y03649D02*
X00233D01*
X00225Y03647*
X00218Y03642*
X00213Y03635*
X00212Y03627*
X00213Y03619*
X00218Y03612*
X00225Y03607*
X00233Y03605*
X00267*
X00275Y03607*
X00282Y03612*
X00287Y03619*
X00288Y03627*
X00287Y03635*
X00282Y03642*
X00275Y03647*
X00267Y03649*
G37*
G36*
X00064Y0307D02*
Y03036D01*
X00099*
Y0307*
X00064*
G37*
G36*
X00099Y0302D02*
X00064D01*
Y02985*
X00099*
Y0302*
G37*
G36*
X02355Y03023D02*
X02344Y03021D01*
X02334Y03017*
X02325Y03011*
X02319Y03002*
X02315Y02992*
X02313Y02981*
X02315Y0297*
X02319Y02959*
X02325Y02951*
X02334Y02944*
X02344Y0294*
X02355Y02938*
X02366Y0294*
X02377Y02944*
X02385Y02951*
X02392Y02959*
X02396Y0297*
X02398Y02981*
X02396Y02992*
X02392Y03002*
X02385Y03011*
X02377Y03017*
X02366Y03021*
X02355Y03023*
G37*
G36*
X02255D02*
X02244Y03021D01*
X02234Y03017*
X02225Y03011*
X02219Y03002*
X02215Y02992*
X02213Y02981*
X02215Y0297*
X02219Y02959*
X02225Y02951*
X02234Y02944*
X02244Y0294*
X02255Y02938*
X02266Y0294*
X02277Y02944*
X02285Y02951*
X02292Y02959*
X02296Y0297*
X02298Y02981*
X02296Y02992*
X02292Y03002*
X02285Y03011*
X02277Y03017*
X02266Y03021*
X02255Y03023*
G37*
G36*
X02879Y03015D02*
X02871Y03014D01*
X02864Y03009*
X02859Y03002*
X02858Y02994*
Y0296*
X02859Y02952*
X02863Y02946*
X02859Y0294*
X02858Y02932*
X02859Y02924*
X02864Y02917*
X02871Y02912*
X02879Y0291*
X02888Y02912*
X02895Y02917*
X02899Y02924*
X02901Y02932*
X02899Y0294*
X02895Y02946*
X02899Y02952*
X02901Y0296*
Y02994*
X02899Y03002*
X02895Y03009*
X02888Y03014*
X02879Y03015*
G37*
G36*
X02779D02*
X02771Y03014D01*
X02764Y03009*
X02759Y03002*
X02758Y02994*
Y0296*
X02759Y02952*
X02763Y02946*
X02759Y0294*
X02757Y02932*
X02759Y02924*
X02764Y02917*
X02771Y02912*
X02779Y0291*
X02787Y02912*
X02794Y02917*
X02799Y02924*
X02801Y02932*
X02799Y0294*
X02795Y02946*
X02799Y02952*
X02801Y0296*
Y02994*
X02799Y03002*
X02795Y03009*
X02788Y03014*
X02779Y03015*
G37*
G36*
X02679D02*
X02671Y03014D01*
X02664Y03009*
X02659Y03002*
X02658Y02994*
Y0296*
X02659Y02952*
X02663Y02947*
X02658Y0294*
X02657Y02932*
X02658Y02924*
X02663Y02917*
X0267Y02912*
X02678Y0291*
X02687Y02912*
X02694Y02917*
X02698Y02924*
X027Y02932*
X02698Y0294*
X02695Y02945*
X02699Y02952*
X02701Y0296*
Y02994*
X02699Y03002*
X02695Y03009*
X02688Y03014*
X02679Y03015*
G37*
G36*
X02579D02*
X02571Y03014D01*
X02564Y03009*
X02559Y03002*
X02558Y02994*
Y0296*
X02559Y02952*
X02562Y02947*
X02558Y0294*
X02556Y02932*
X02558Y02924*
X02563Y02917*
X0257Y02912*
X02578Y0291*
X02586Y02912*
X02593Y02917*
X02598Y02924*
X026Y02932*
X02598Y0294*
X02595Y02945*
X02599Y02952*
X02601Y0296*
Y02994*
X02599Y03002*
X02595Y03009*
X02588Y03014*
X02579Y03015*
G37*
G36*
X03154Y03014D02*
X03146Y03013D01*
X03139Y03008*
X03134Y03001*
X03132Y02993*
Y02959*
X03134Y02951*
X03138Y02944*
X03135Y02938*
X03133Y0293*
X03135Y02922*
X03139Y02915*
X03146Y0291*
X03155Y02908*
X03163Y0291*
X0317Y02915*
X03175Y02922*
X03176Y0293*
X03175Y02938*
X0317Y02945*
X03174Y02951*
X03176Y02959*
Y02993*
X03174Y03001*
X03169Y03008*
X03162Y03013*
X03154Y03014*
G37*
G36*
X03054D02*
X03046Y03013D01*
X03039Y03008*
X03034Y03001*
X03032Y02993*
Y02959*
X03034Y02951*
X03035Y02949*
X03037Y02944*
X03033Y02937*
X03031Y02929*
X03033Y0292*
X03037Y02913*
X03044Y02909*
X03053Y02907*
X03061Y02909*
X03068Y02913*
X03073Y0292*
X03074Y02929*
X03073Y02937*
X03068Y02943*
X03069Y02944*
X03074Y02951*
X03076Y02959*
Y02993*
X03074Y03001*
X03069Y03008*
X03062Y03013*
X03054Y03014*
G37*
G36*
X02355Y02923D02*
X02344Y02921D01*
X02334Y02917*
X02325Y02911*
X02319Y02902*
X02315Y02892*
X02313Y02881*
X02315Y0287*
X02319Y02859*
X02325Y02851*
X02334Y02844*
X02344Y0284*
X02355Y02838*
X02366Y0284*
X02377Y02844*
X02385Y02851*
X02392Y02859*
X02396Y0287*
X02398Y02881*
X02396Y02892*
X02392Y02902*
X02385Y02911*
X02377Y02917*
X02366Y02921*
X02355Y02923*
G37*
G36*
X02255D02*
X02244Y02921D01*
X02234Y02917*
X02225Y02911*
X02219Y02902*
X02215Y02892*
X02213Y02881*
X02215Y0287*
X02219Y02859*
X02225Y02851*
X02234Y02844*
X02244Y0284*
X02255Y02838*
X02266Y0284*
X02277Y02844*
X02285Y02851*
X02292Y02859*
X02296Y0287*
X02298Y02881*
X02296Y02892*
X02292Y02902*
X02285Y02911*
X02277Y02917*
X02266Y02921*
X02255Y02923*
G37*
G36*
X02829Y03015D02*
X02821Y03014D01*
X02814Y03009*
X02809Y03002*
X02808Y02994*
Y0296*
X02809Y02952*
X02813Y02946*
X02813Y02946*
X02808Y02939*
X02807Y02931*
X02808Y02922*
X02813Y02915*
X02814Y02915*
Y02887*
X02741Y02815*
X02741Y02815*
X02736Y02816*
X02735Y02819*
X0274Y02824*
X02743Y02829*
X02744Y02834*
Y02915*
X02745Y02915*
X0275Y02922*
X02751Y02931*
X0275Y02939*
X02745Y02946*
X02749Y02952*
X02751Y0296*
Y02994*
X02749Y03002*
X02745Y03009*
X02738Y03014*
X02729Y03015*
X02721Y03014*
X02714Y03009*
X02709Y03002*
X02708Y02994*
Y0296*
X02709Y02952*
X02714Y02945*
X0271Y02939*
X02708Y02931*
X0271Y02922*
X02714Y02915*
X02715Y02915*
Y0284*
X0271Y02835*
X02706Y0283*
X02705Y02824*
Y02816*
X027Y02815*
X02699Y02817*
X02644Y02871*
Y02916*
X02645Y02916*
X0265Y02923*
X02651Y02932*
X0265Y0294*
X02646Y02946*
X02649Y02952*
X02651Y0296*
Y02994*
X02649Y03002*
X02645Y03009*
X02638Y03014*
X02629Y03015*
X02621Y03014*
X02614Y03009*
X02609Y03002*
X02608Y02994*
Y0296*
X02609Y02952*
X02613Y02946*
X0261Y0294*
X02608Y02932*
X0261Y02923*
X02614Y02916*
X02615Y02916*
Y02865*
X02616Y0286*
X02619Y02855*
X02674Y02801*
Y02781*
X02658*
X02544Y02895*
Y02916*
X02545Y02917*
X02549Y02924*
X02551Y02932*
X02549Y0294*
X02545Y02946*
X02549Y02952*
X02551Y0296*
Y02994*
X02549Y03002*
X02545Y03009*
X02538Y03014*
X02529Y03015*
X02521Y03014*
X02514Y03009*
X02509Y03002*
X02508Y02994*
Y0296*
X02509Y02952*
X02513Y02946*
X02509Y0294*
X02508Y02932*
X02509Y02924*
X02514Y02917*
X02515Y02916*
Y02889*
X02516Y02883*
X02519Y02879*
X02638Y0276*
Y02734*
X02771*
Y02781*
X02766*
Y02799*
X02839Y02871*
X02842Y02876*
X02843Y02881*
Y02915*
X02844Y02915*
X02848Y02922*
X0285Y02931*
X02848Y02939*
X02844Y02945*
X02845Y02945*
X02849Y02952*
X02851Y0296*
Y02994*
X02849Y03002*
X02845Y03009*
X02838Y03014*
X02829Y03015*
G37*
G36*
X02355Y02823D02*
X02344Y02821D01*
X02334Y02817*
X02325Y02811*
X02319Y02802*
X02315Y02792*
X02313Y02781*
X02315Y0277*
X02319Y02759*
X02325Y02751*
X02334Y02744*
X02344Y0274*
X02355Y02738*
X02366Y0274*
X02377Y02744*
X02385Y02751*
X02392Y02759*
X02396Y0277*
X02398Y02781*
X02396Y02792*
X02392Y02802*
X02385Y02811*
X02377Y02817*
X02366Y02821*
X02355Y02823*
G37*
G36*
X02255D02*
X02244Y02821D01*
X02234Y02817*
X02225Y02811*
X02219Y02802*
X02215Y02792*
X02213Y02781*
X02215Y0277*
X02219Y02759*
X02225Y02751*
X02234Y02744*
X02244Y0274*
X02255Y02738*
X02266Y0274*
X02277Y02744*
X02285Y02751*
X02292Y02759*
X02296Y0277*
X02298Y02781*
X02296Y02792*
X02292Y02802*
X02285Y02811*
X02277Y02817*
X02266Y02821*
X02255Y02823*
G37*
G36*
X02355Y02723D02*
X02344Y02721D01*
X02334Y02717*
X02325Y02711*
X02319Y02702*
X02315Y02692*
X02313Y02681*
X02315Y0267*
X02319Y02659*
X02325Y02651*
X02334Y02644*
X02344Y0264*
X02355Y02638*
X02366Y0264*
X02377Y02644*
X02385Y02651*
X02392Y02659*
X02396Y0267*
X02398Y02681*
X02396Y02692*
X02392Y02702*
X02385Y02711*
X02377Y02717*
X02366Y02721*
X02355Y02723*
G37*
G36*
X02255D02*
X02244Y02721D01*
X02234Y02717*
X02225Y02711*
X02219Y02702*
X02215Y02692*
X02213Y02681*
X02215Y0267*
X02219Y02659*
X02225Y02651*
X02234Y02644*
X02244Y0264*
X02255Y02638*
X02266Y0264*
X02277Y02644*
X02285Y02651*
X02292Y02659*
X02296Y0267*
X02298Y02681*
X02296Y02692*
X02292Y02702*
X02285Y02711*
X02277Y02717*
X02266Y02721*
X02255Y02723*
G37*
G36*
X00455D02*
X00444Y02721D01*
X00434Y02717*
X00425Y02711*
X00419Y02702*
X00415Y02692*
X00413Y02681*
X00415Y0267*
X00419Y02659*
X00425Y02651*
X00434Y02644*
X00444Y0264*
X00455Y02638*
X00466Y0264*
X00477Y02644*
X00485Y02651*
X00492Y02659*
X00496Y0267*
X00498Y02681*
X00496Y02692*
X00492Y02702*
X00485Y02711*
X00477Y02717*
X00466Y02721*
X00455Y02723*
G37*
G36*
X02355Y02623D02*
X02344Y02621D01*
X02334Y02617*
X02325Y02611*
X02319Y02602*
X02315Y02592*
X02313Y02581*
X02315Y0257*
X02319Y02559*
X02325Y02551*
X02334Y02544*
X02344Y0254*
X02355Y02538*
X02366Y0254*
X02377Y02544*
X02385Y02551*
X02392Y02559*
X02396Y0257*
X02398Y02581*
X02396Y02592*
X02392Y02602*
X02385Y02611*
X02377Y02617*
X02366Y02621*
X02355Y02623*
G37*
G36*
X02255D02*
X02244Y02621D01*
X02234Y02617*
X02225Y02611*
X02219Y02602*
X02215Y02592*
X02213Y02581*
X02215Y0257*
X02219Y02559*
X02225Y02551*
X02234Y02544*
X02244Y0254*
X02255Y02538*
X02266Y0254*
X02277Y02544*
X02285Y02551*
X02292Y02559*
X02296Y0257*
X02298Y02581*
X02296Y02592*
X02292Y02602*
X02285Y02611*
X02277Y02617*
X02266Y02621*
X02255Y02623*
G37*
G36*
X00455D02*
X00444Y02621D01*
X00434Y02617*
X00425Y02611*
X00419Y02602*
X00415Y02592*
X00413Y02581*
X00415Y0257*
X00419Y02559*
X00425Y02551*
X00434Y02544*
X00444Y0254*
X00455Y02538*
X00466Y0254*
X00477Y02544*
X00485Y02551*
X00492Y02559*
X00496Y0257*
X00498Y02581*
X00496Y02592*
X00492Y02602*
X00485Y02611*
X00477Y02617*
X00466Y02621*
X00455Y02623*
G37*
G36*
X02355Y02523D02*
X02344Y02521D01*
X02334Y02517*
X02325Y02511*
X02319Y02502*
X02315Y02492*
X02313Y02481*
X02315Y0247*
X02319Y02459*
X02325Y02451*
X02334Y02444*
X02344Y0244*
X02355Y02438*
X02366Y0244*
X02377Y02444*
X02385Y02451*
X02392Y02459*
X02396Y0247*
X02398Y02481*
X02396Y02492*
X02392Y02502*
X02385Y02511*
X02377Y02517*
X02366Y02521*
X02355Y02523*
G37*
G36*
X02255D02*
X02244Y02521D01*
X02234Y02517*
X02225Y02511*
X02219Y02502*
X02215Y02492*
X02213Y02481*
X02215Y0247*
X02219Y02459*
X02225Y02451*
X02234Y02444*
X02244Y0244*
X02255Y02438*
X02266Y0244*
X02277Y02444*
X02285Y02451*
X02292Y02459*
X02296Y0247*
X02298Y02481*
X02296Y02492*
X02292Y02502*
X02285Y02511*
X02277Y02517*
X02266Y02521*
X02255Y02523*
G37*
G36*
X00455D02*
X00444Y02521D01*
X00434Y02517*
X00425Y02511*
X00419Y02502*
X00415Y02492*
X00413Y02481*
X00415Y0247*
X00419Y02459*
X00425Y02451*
X00434Y02444*
X00444Y0244*
X00455Y02438*
X00466Y0244*
X00477Y02444*
X00485Y02451*
X00492Y02459*
X00496Y0247*
X00498Y02481*
X00496Y02492*
X00492Y02502*
X00485Y02511*
X00477Y02517*
X00466Y02521*
X00455Y02523*
G37*
G36*
X02355Y02423D02*
X02344Y02421D01*
X02334Y02417*
X02325Y02411*
X02319Y02402*
X02315Y02392*
X02313Y02381*
X02315Y0237*
X02319Y02359*
X02325Y02351*
X02334Y02344*
X02344Y0234*
X02355Y02338*
X02366Y0234*
X02377Y02344*
X02385Y02351*
X02392Y02359*
X02396Y0237*
X02398Y02381*
X02396Y02392*
X02392Y02402*
X02385Y02411*
X02377Y02417*
X02366Y02421*
X02355Y02423*
G37*
G36*
X02255D02*
X02244Y02421D01*
X02234Y02417*
X02225Y02411*
X02219Y02402*
X02215Y02392*
X02213Y02381*
X02215Y0237*
X02219Y02359*
X02225Y02351*
X02234Y02344*
X02244Y0234*
X02255Y02338*
X02266Y0234*
X02277Y02344*
X02285Y02351*
X02292Y02359*
X02296Y0237*
X02298Y02381*
X02296Y02392*
X02292Y02402*
X02285Y02411*
X02277Y02417*
X02266Y02421*
X02255Y02423*
G37*
G36*
X03225Y02287D02*
X03171D01*
Y0224*
X03177*
X03179Y02235*
X03173Y02229*
X03119*
Y02237*
X03065*
Y02191*
X03069*
X03072Y02186*
X0307Y02179*
X03072Y0217*
X03077Y02163*
X03084Y02159*
X03092Y02157*
X031Y02159*
X03107Y02163*
X03112Y0217*
X03114Y02179*
X03112Y02186*
X03115Y02191*
X03119*
Y02199*
X03179*
X03184Y02201*
X03189Y02204*
X03209Y02223*
X03212Y02228*
X03213Y02234*
Y0224*
X03225*
Y02287*
G37*
G36*
X00363Y03022D02*
Y02988D01*
X00397*
X00397Y02992*
X00393Y03002*
X00386Y03011*
X00377Y03018*
X00367Y03022*
X00363Y03022*
G37*
G36*
X00448D02*
X00444Y03022D01*
X00434Y03018*
X00425Y03011*
X00418Y03002*
X00414Y02992*
X00414Y02988*
X00448*
Y03022*
G37*
G36*
Y02973D02*
X00414D01*
X00414Y0297*
X00418Y02959*
X00425Y0295*
X00434Y02943*
X00444Y02939*
X00448Y02939*
Y02973*
G37*
G36*
X00397D02*
X00363D01*
Y02939*
X00367Y02939*
X00377Y02943*
X00386Y0295*
X00393Y02959*
X00397Y0297*
X00397Y02973*
G37*
G36*
X00363Y02922D02*
Y02888D01*
X00397*
X00397Y02892*
X00393Y02902*
X00386Y02911*
X00377Y02918*
X00367Y02922*
X00363Y02922*
G37*
G36*
X00448D02*
X00444Y02922D01*
X00434Y02918*
X00425Y02911*
X00418Y02902*
X00414Y02892*
X00414Y02888*
X00448*
Y02922*
G37*
G36*
X00397Y02873D02*
X00363D01*
Y02839*
X00367Y02839*
X00377Y02843*
X00386Y0285*
X00393Y02859*
X00397Y0287*
X00397Y02873*
G37*
G36*
X03254Y03014D02*
X03246Y03013D01*
X03239Y03008*
X03234Y03001*
X03232Y02993*
Y02959*
X03234Y02951*
X03238Y02944*
X03238Y02944*
X03233Y02937*
X03232Y02929*
X03233Y0292*
X03238Y02913*
X03245Y02909*
X03253Y02907*
X03262Y02909*
X03269Y02913*
X03273Y0292*
X03275Y02929*
X03273Y02937*
X03269Y02944*
X03269Y02944*
X03274Y02951*
X03276Y02959*
Y02993*
X03274Y03001*
X03269Y03008*
X03262Y03013*
X03254Y03014*
G37*
G36*
X00068Y02241D02*
X0006Y02239D01*
X00052Y02234*
X00049Y02228*
X00048*
Y02228*
X00047Y02227*
X00046Y02218*
Y02172*
X00045Y02171*
X00043Y02161*
X00045Y02151*
X0005Y02143*
X00059Y02137*
X00068Y02135*
X00078Y02137*
X00087Y02143*
X00092Y02151*
X00094Y02161*
X00092Y02171*
X00091Y02172*
Y02218*
X00089Y02227*
X00089Y02228*
Y02228*
X00088*
X00084Y02234*
X00077Y02239*
X00068Y02241*
G37*
G36*
X00064Y02062D02*
Y02031D01*
X00096*
X00096Y02034*
X00092Y02043*
X00085Y02052*
X00077Y02058*
X00067Y02062*
X00064Y02062*
G37*
G36*
X00049D02*
X00046Y02062D01*
X00036Y02058*
X00028Y02052*
X00022Y02043*
X00018Y02034*
X00017Y02031*
X00049*
Y02062*
G37*
G36*
X00096Y02015D02*
X00064D01*
Y01984*
X00067Y01984*
X00077Y01988*
X00085Y01995*
X00092Y02003*
X00096Y02013*
X00096Y02015*
G37*
G36*
X00049D02*
X00017D01*
X00018Y02013*
X00022Y02003*
X00028Y01995*
X00036Y01988*
X00046Y01984*
X00049Y01984*
Y02015*
G37*
G36*
X0058Y02023D02*
X00569Y02021D01*
X00559Y02017*
X0055Y02011*
X00544Y02002*
X0054Y01992*
X00538Y01981*
X0054Y0197*
X00544Y01959*
X0055Y01951*
X00559Y01944*
X00569Y0194*
X0058Y01938*
X00591Y0194*
X00602Y01944*
X0061Y01951*
X00617Y01959*
X00621Y0197*
X00623Y01981*
X00621Y01992*
X00617Y02002*
X0061Y02011*
X00602Y02017*
X00591Y02021*
X0058Y02023*
G37*
G36*
X00057Y01963D02*
X00046Y01962D01*
X00037Y01958*
X00028Y01951*
X00022Y01943*
X00018Y01933*
X00017Y01923*
X00018Y01913*
X00022Y01903*
X00028Y01895*
X00037Y01889*
X00046Y01885*
X00057Y01883*
X00067Y01885*
X00076Y01889*
X00085Y01895*
X00091Y01903*
X00095Y01913*
X00096Y01923*
X00095Y01933*
X00091Y01943*
X00085Y01951*
X00076Y01958*
X00067Y01962*
X00057Y01963*
G37*
G36*
X02355Y01923D02*
X02344Y01921D01*
X02334Y01917*
X02325Y01911*
X02319Y01902*
X02315Y01892*
X02313Y01881*
X02315Y0187*
X02319Y01859*
X02325Y01851*
X02334Y01844*
X02344Y0184*
X02355Y01838*
X02366Y0184*
X02377Y01844*
X02385Y01851*
X02392Y01859*
X02396Y0187*
X02398Y01881*
X02396Y01892*
X02392Y01902*
X02385Y01911*
X02377Y01917*
X02366Y01921*
X02355Y01923*
G37*
G36*
X02255D02*
X02244Y01921D01*
X02234Y01917*
X02225Y01911*
X02219Y01902*
X02215Y01892*
X02213Y01881*
X02215Y0187*
X02219Y01859*
X02225Y01851*
X02234Y01844*
X02244Y0184*
X02255Y01838*
X02266Y0184*
X02277Y01844*
X02285Y01851*
X02292Y01859*
X02296Y0187*
X02298Y01881*
X02296Y01892*
X02292Y01902*
X02285Y01911*
X02277Y01917*
X02266Y01921*
X02255Y01923*
G37*
G36*
X00057Y01863D02*
X00046Y01862D01*
X00037Y01858*
X00028Y01851*
X00022Y01843*
X00018Y01833*
X00017Y01823*
X00018Y01813*
X00022Y01803*
X00028Y01795*
X00037Y01789*
X00046Y01785*
X00057Y01783*
X00067Y01785*
X00076Y01789*
X00085Y01795*
X00091Y01803*
X00095Y01813*
X00096Y01823*
X00095Y01833*
X00091Y01843*
X00085Y01851*
X00076Y01858*
X00067Y01862*
X00057Y01863*
G37*
G36*
Y01763D02*
X00046Y01762D01*
X00037Y01758*
X00028Y01751*
X00022Y01743*
X00018Y01733*
X00017Y01723*
X00018Y01713*
X00022Y01703*
X00028Y01695*
X00037Y01689*
X00046Y01685*
X00057Y01683*
X00067Y01685*
X00076Y01689*
X00085Y01695*
X00091Y01703*
X00095Y01713*
X00096Y01723*
X00095Y01733*
X00091Y01743*
X00085Y01751*
X00076Y01758*
X00067Y01762*
X00057Y01763*
G37*
G36*
X00355Y01723D02*
X00344Y01721D01*
X00334Y01717*
X00325Y01711*
X00319Y01702*
X00315Y01692*
X00313Y01681*
X00315Y0167*
X00319Y01659*
X00325Y01651*
X00334Y01644*
X00344Y0164*
X00355Y01638*
X00366Y0164*
X00377Y01644*
X00385Y01651*
X00392Y01659*
X00396Y0167*
X00398Y01681*
X00396Y01692*
X00392Y01702*
X00385Y01711*
X00377Y01717*
X00366Y01721*
X00355Y01723*
G37*
G36*
X00623Y01673D02*
X00588D01*
Y01638*
X00623*
Y01673*
G37*
G36*
X00573D02*
X00538D01*
Y01638*
X00573*
Y01673*
G37*
G36*
X00455Y01623D02*
X00444Y01621D01*
X00434Y01617*
X00425Y01611*
X00419Y01602*
X00415Y01592*
X00413Y01581*
X00415Y0157*
X00419Y01559*
X00425Y01551*
X00434Y01544*
X00444Y0154*
X00455Y01538*
X00466Y0154*
X00477Y01544*
X00485Y01551*
X00492Y01559*
X00496Y0157*
X00498Y01581*
X00496Y01592*
X00492Y01602*
X00485Y01611*
X00477Y01617*
X00466Y01621*
X00455Y01623*
G37*
G36*
X00355D02*
X00344Y01621D01*
X00334Y01617*
X00325Y01611*
X00319Y01602*
X00315Y01592*
X00313Y01581*
X00315Y0157*
X00319Y01559*
X00325Y01551*
X00334Y01544*
X00344Y0154*
X00355Y01538*
X00366Y0154*
X00377Y01544*
X00385Y01551*
X00392Y01559*
X00396Y0157*
X00398Y01581*
X00396Y01592*
X00392Y01602*
X00385Y01611*
X00377Y01617*
X00366Y01621*
X00355Y01623*
G37*
G36*
X0258Y01558D02*
D01*
X02525*
Y01512*
X0258*
X02583Y01514*
X02588Y01513*
X02596Y01515*
X02603Y0152*
X02608Y01527*
X0261Y01535*
X02608Y01543*
X02603Y0155*
X02596Y01555*
X02588Y01557*
X02583Y01556*
X0258Y01558*
G37*
G36*
X00455Y01523D02*
X00444Y01521D01*
X00434Y01517*
X00425Y01511*
X00419Y01502*
X00415Y01492*
X00413Y01481*
X00415Y0147*
X00419Y01459*
X00425Y01451*
X00434Y01444*
X00444Y0144*
X00455Y01438*
X00466Y0144*
X00477Y01444*
X00485Y01451*
X00492Y01459*
X00496Y0147*
X00498Y01481*
X00496Y01492*
X00492Y01502*
X00485Y01511*
X00477Y01517*
X00466Y01521*
X00455Y01523*
G37*
G36*
X00355D02*
X00344Y01521D01*
X00334Y01517*
X00325Y01511*
X00319Y01502*
X00315Y01492*
X00313Y01481*
X00315Y0147*
X00319Y01459*
X00325Y01451*
X00334Y01444*
X00344Y0144*
X00355Y01438*
X00366Y0144*
X00377Y01444*
X00385Y01451*
X00392Y01459*
X00396Y0147*
X00398Y01481*
X00396Y01492*
X00392Y01502*
X00385Y01511*
X00377Y01517*
X00366Y01521*
X00355Y01523*
G37*
G36*
X02255Y01423D02*
X02244Y01421D01*
X02234Y01417*
X02225Y01411*
X02219Y01402*
X02215Y01392*
X02213Y01381*
X02215Y0137*
X02219Y01359*
X02225Y01351*
X02234Y01344*
X02244Y0134*
X02255Y01338*
X02266Y0134*
X02277Y01344*
X02285Y01351*
X02292Y01359*
X02296Y0137*
X02298Y01381*
X02296Y01392*
X02292Y01402*
X02285Y01411*
X02277Y01417*
X02266Y01421*
X02255Y01423*
G37*
G36*
X00455D02*
X00444Y01421D01*
X00434Y01417*
X00425Y01411*
X00419Y01402*
X00415Y01392*
X00413Y01381*
X00415Y0137*
X00419Y01359*
X00425Y01351*
X00434Y01344*
X00444Y0134*
X00455Y01338*
X00466Y0134*
X00477Y01344*
X00485Y01351*
X00492Y01359*
X00496Y0137*
X00498Y01381*
X00496Y01392*
X00492Y01402*
X00485Y01411*
X00477Y01417*
X00466Y01421*
X00455Y01423*
G37*
G36*
X00355D02*
X00344Y01421D01*
X00334Y01417*
X00325Y01411*
X00319Y01402*
X00315Y01392*
X00313Y01381*
X00315Y0137*
X00319Y01359*
X00325Y01351*
X00334Y01344*
X00344Y0134*
X00355Y01338*
X00366Y0134*
X00377Y01344*
X00385Y01351*
X00392Y01359*
X00396Y0137*
X00398Y01381*
X00396Y01392*
X00392Y01402*
X00385Y01411*
X00377Y01417*
X00366Y01421*
X00355Y01423*
G37*
G36*
X03118Y01585D02*
X03082D01*
Y01571*
X0308Y01564*
Y01502*
X03077Y015*
X03075Y01497*
X03075Y01494*
Y01381*
X03027*
X03005Y0136*
Y01348*
X0298*
X02976Y01347*
X02974Y01346*
X02971*
Y01343*
X02965Y01337*
X02963Y01334*
X02962Y0133*
Y01329*
X02959Y01326*
X0295*
X02948Y0133*
X02949Y01331*
X02951Y01334*
X02952Y01338*
Y0141*
X02952Y01411*
X02952Y01412*
Y01433*
X02952Y01435*
X02952Y01436*
Y01457*
X02952Y01458*
X02952Y01459*
Y0147*
X02951Y01474*
X02949Y01477*
X02946Y01479*
X02942Y0148*
X02932*
X02931Y0148*
X02929Y0148*
X02908*
X02907Y0148*
X02906Y0148*
X02895*
X02891Y01479*
X02888Y01477*
X02886Y01474*
X02886Y0147*
Y01459*
X02885Y01458*
X02886Y01457*
Y01436*
X02885Y01435*
X02886Y01433*
Y01412*
X02885Y01411*
X02886Y0141*
Y01355*
X02848*
X02842Y01354*
X02838Y0135*
X02837Y0135*
X02832Y01351*
X02831Y01352*
X02801Y01382*
X02796Y01385*
X02791Y01386*
X02788*
Y01399*
X02742*
Y01344*
X02788*
Y01347*
X02793Y01348*
X02806Y01335*
Y01326*
X02782*
Y013*
X02772*
X02768Y01301*
X02762Y01305*
X02753Y01307*
X02745Y01305*
X02738Y013*
X02735Y01296*
X02691*
Y01242*
X02714*
X02715Y0124*
X02712Y01235*
X02673*
Y01227*
X02664*
Y01235*
X0261*
X02605*
X02551*
Y01189*
X02605*
X0261*
X02664*
Y01197*
X02673*
Y01189*
X02707*
X02711Y01185*
X02709Y0118*
X02673*
Y01172*
X02664*
Y0118*
X0261*
Y01134*
X02664*
Y01142*
X02673*
Y01134*
X02727*
Y01134*
X02732Y01136*
X02736Y01132*
X02736Y01131*
X02737Y01123*
X02742Y01116*
X02749Y01111*
X02757Y0111*
X02766Y01111*
X02773Y01116*
X02773Y01117*
X02807*
X02812Y01118*
X02816Y0112*
X02817Y0112*
X0282Y01119*
X02822Y01118*
X02825Y01113*
X02832Y01108*
X02841Y01106*
X02849Y01108*
X02856Y01113*
X02861Y0112*
X02862Y01128*
X02861Y01136*
X02856Y01143*
X02855Y01144*
Y01162*
X02855Y01164*
Y01175*
X02859Y01179*
X02866Y01179*
X0287Y0118*
X02873Y01182*
X02875Y01185*
X02876Y01189*
Y01233*
X02875Y01237*
X02873Y0124*
X0287Y01242*
X02866Y01243*
X02822*
X02819Y01246*
Y01288*
X02855*
Y0131*
X02855Y01312*
Y01325*
X02885*
Y01288*
X02922*
Y01272*
Y01232*
Y01185*
X02885*
Y01139*
X02886*
Y01125*
X02885Y01124*
X02886Y01122*
Y00963*
X02885Y00962*
X02886Y00961*
Y0094*
X02885Y00938*
X02886Y00937*
Y00868*
X02886Y00864*
X02888Y00861*
X02964Y00785*
Y00783*
X02966*
X02968Y00782*
X02972Y00781*
X03771Y00781*
X03772Y00782*
X03774Y00782*
X03774Y00782*
X03774Y00782*
X03776Y00783*
X03777Y00784*
X03798Y00803*
X03897*
X03901Y00804*
X03904Y00806*
X03939Y00841*
X03941Y00844*
X03942Y00848*
X03942Y00958*
X03941Y00962*
X03939Y00965*
X03904Y01*
X03901Y01002*
X03897Y01003*
X03389*
X03365Y01027*
Y01096*
X03365Y011*
X03363Y01103*
X03327Y01138*
X03324Y0114*
X0332Y01141*
X02952Y01141*
X0295Y01143*
X02953Y01148*
X02959*
Y01173*
X02968*
Y01193*
X03005*
Y01185*
X03029Y01161*
X03226*
X03234Y01169*
X03342*
X03346Y0117*
X03349Y01172*
X03361Y01184*
X03363Y01187*
X03363Y0119*
Y01488*
X03382Y01506*
X03384Y0151*
X03385Y01513*
Y01574*
X03384Y01578*
X03382Y01581*
X03379Y01583*
X03375Y01584*
X03246*
X03242Y01583*
X03239Y01581*
X03225Y01567*
X03223Y01564*
X03222Y01561*
X03222Y01507*
X03218Y01503*
X0312*
Y01564*
X03118Y01571*
Y01585*
G37*
G36*
X00455Y01323D02*
X00444Y01321D01*
X00434Y01317*
X00425Y01311*
X00419Y01302*
X00415Y01292*
X00413Y01281*
X00415Y0127*
X00419Y01259*
X00425Y01251*
X00434Y01244*
X00444Y0124*
X00455Y01238*
X00466Y0124*
X00477Y01244*
X00485Y01251*
X00492Y01259*
X00496Y0127*
X00498Y01281*
X00496Y01292*
X00492Y01302*
X00485Y01311*
X00477Y01317*
X00466Y01321*
X00455Y01323*
G37*
G36*
X00355D02*
X00344Y01321D01*
X00334Y01317*
X00325Y01311*
X00319Y01302*
X00315Y01292*
X00313Y01281*
X00315Y0127*
X00319Y01259*
X00325Y01251*
X00334Y01244*
X00344Y0124*
X00355Y01238*
X00366Y0124*
X00377Y01244*
X00385Y01251*
X00392Y01259*
X00396Y0127*
X00398Y01281*
X00396Y01292*
X00392Y01302*
X00385Y01311*
X00377Y01317*
X00366Y01321*
X00355Y01323*
G37*
G36*
X03708Y01227D02*
X0359D01*
Y01184*
X03497*
Y01227*
X0338*
Y01083*
X03406*
Y01072*
X034*
Y01016*
X03434*
X03436Y01015*
X03437Y01016*
X0347*
Y01072*
X03465*
Y01083*
X03497*
Y01126*
X0359*
Y01083*
X03708*
Y01227*
G37*
G36*
X00188Y01273D02*
X00142D01*
Y01218*
X0015*
Y0121*
X00142*
Y01155*
X00188*
Y0121*
X0018*
Y01218*
X00188*
Y01273*
G37*
G36*
X02355Y01223D02*
X02344Y01221D01*
X02334Y01217*
X02325Y01211*
X02319Y01202*
X02315Y01192*
X02313Y01181*
X02315Y0117*
X02319Y01159*
X02325Y01151*
X02334Y01144*
X02344Y0114*
X02355Y01138*
X02366Y0114*
X02377Y01144*
X02385Y01151*
X02392Y01159*
X02396Y0117*
X02398Y01181*
X02396Y01192*
X02392Y01202*
X02385Y01211*
X02377Y01217*
X02366Y01221*
X02355Y01223*
G37*
G36*
X02255D02*
X02244Y01221D01*
X02234Y01217*
X02225Y01211*
X02219Y01202*
X02215Y01192*
X02213Y01181*
X02215Y0117*
X02219Y01159*
X02225Y01151*
X02234Y01144*
X02244Y0114*
X02255Y01138*
X02266Y0114*
X02277Y01144*
X02285Y01151*
X02292Y01159*
X02296Y0117*
X02298Y01181*
X02296Y01192*
X02292Y01202*
X02285Y01211*
X02277Y01217*
X02266Y01221*
X02255Y01223*
G37*
G36*
X02653Y01058D02*
X02633D01*
X02622Y01057*
X02611Y01054*
X02601Y01049*
X02592Y01041*
X02584Y01032*
X02579Y01022*
X02576Y01011*
X02574Y01*
X02576Y00988*
X02579Y00977*
X02584Y00967*
X02592Y00958*
X02601Y0095*
X02611Y00945*
X02622Y00942*
X02633Y00941*
X02653*
X02665Y00942*
X02676Y00945*
X02686Y0095*
X02695Y00958*
X02702Y00967*
X02708Y00977*
X02711Y00988*
X02712Y01*
X02711Y01011*
X02708Y01022*
X02702Y01032*
X02695Y01041*
X02686Y01049*
X02676Y01054*
X02665Y01057*
X02653Y01058*
G37*
G36*
X02355Y01023D02*
X02344Y01021D01*
X02334Y01017*
X02325Y01011*
X02319Y01002*
X02315Y00992*
X02313Y00981*
X02315Y0097*
X02319Y00959*
X02325Y00951*
X02334Y00944*
X02344Y0094*
X02355Y00938*
X02366Y0094*
X02377Y00944*
X02385Y00951*
X02392Y00959*
X02396Y0097*
X02398Y00981*
X02396Y00992*
X02392Y01002*
X02385Y01011*
X02377Y01017*
X02366Y01021*
X02355Y01023*
G37*
G36*
X00455D02*
X00444Y01021D01*
X00434Y01017*
X00425Y01011*
X00419Y01002*
X00415Y00992*
X00413Y00981*
X00415Y0097*
X00419Y00959*
X00425Y00951*
X00434Y00944*
X00444Y0094*
X00455Y00938*
X00466Y0094*
X00477Y00944*
X00485Y00951*
X00492Y00959*
X00496Y0097*
X00498Y00981*
X00496Y00992*
X00492Y01002*
X00485Y01011*
X00477Y01017*
X00466Y01021*
X00455Y01023*
G37*
G36*
X00355D02*
X00344Y01021D01*
X00334Y01017*
X00325Y01011*
X00319Y01002*
X00315Y00992*
X00313Y00981*
X00315Y0097*
X00319Y00959*
X00325Y00951*
X00334Y00944*
X00344Y0094*
X00355Y00938*
X00366Y0094*
X00377Y00944*
X00385Y00951*
X00392Y00959*
X00396Y0097*
X00398Y00981*
X00396Y00992*
X00392Y01002*
X00385Y01011*
X00377Y01017*
X00366Y01021*
X00355Y01023*
G37*
G36*
X00243Y00962D02*
X00197D01*
Y00907*
X00243*
Y00914*
X00248Y00916*
X00251Y00915*
X00259Y00913*
X00268Y00915*
X00275Y00919*
X00279Y00926*
X00281Y00935*
X00279Y00943*
X00275Y0095*
X00268Y00955*
X00259Y00956*
X00251Y00955*
X00248Y00953*
X00243Y00955*
Y00962*
G37*
G36*
X00188Y01025D02*
X00142D01*
Y0097*
X0015*
Y00962*
X00142*
Y00907*
X00188*
Y00962*
X0018*
Y0097*
X00188*
Y01025*
G37*
G36*
X02355Y00923D02*
X02344Y00921D01*
X02334Y00917*
X02325Y00911*
X02319Y00902*
X02315Y00892*
X02313Y00881*
X02315Y0087*
X02319Y00859*
X02325Y00851*
X02334Y00844*
X02344Y0084*
X02355Y00838*
X02366Y0084*
X02377Y00844*
X02385Y00851*
X02392Y00859*
X02396Y0087*
X02398Y00881*
X02396Y00892*
X02392Y00902*
X02385Y00911*
X02377Y00917*
X02366Y00921*
X02355Y00923*
G37*
G36*
X02255D02*
X02244Y00921D01*
X02234Y00917*
X02225Y00911*
X02219Y00902*
X02215Y00892*
X02213Y00881*
X02215Y0087*
X02219Y00859*
X02225Y00851*
X02234Y00844*
X02244Y0084*
X02255Y00838*
X02266Y0084*
X02277Y00844*
X02285Y00851*
X02292Y00859*
X02296Y0087*
X02298Y00881*
X02296Y00892*
X02292Y00902*
X02285Y00911*
X02277Y00917*
X02266Y00921*
X02255Y00923*
G37*
G36*
X00455D02*
X00444Y00921D01*
X00434Y00917*
X00425Y00911*
X00419Y00902*
X00415Y00892*
X00413Y00881*
X00415Y0087*
X00419Y00859*
X00425Y00851*
X00434Y00844*
X00444Y0084*
X00455Y00838*
X00466Y0084*
X00477Y00844*
X00485Y00851*
X00492Y00859*
X00496Y0087*
X00498Y00881*
X00496Y00892*
X00492Y00902*
X00485Y00911*
X00477Y00917*
X00466Y00921*
X00455Y00923*
G37*
G36*
X00355D02*
X00344Y00921D01*
X00334Y00917*
X00325Y00911*
X00319Y00902*
X00315Y00892*
X00313Y00881*
X00315Y0087*
X00319Y00859*
X00325Y00851*
X00334Y00844*
X00344Y0084*
X00355Y00838*
X00366Y0084*
X00377Y00844*
X00385Y00851*
X00392Y00859*
X00396Y0087*
X00398Y00881*
X00396Y00892*
X00392Y00902*
X00385Y00911*
X00377Y00917*
X00366Y00921*
X00355Y00923*
G37*
G36*
X02363Y00822D02*
Y00788D01*
X02397*
X02397Y00792*
X02393Y00802*
X02386Y00811*
X02377Y00818*
X02367Y00822*
X02363Y00822*
G37*
G36*
X02298Y00823D02*
X02263D01*
Y00788*
X02298*
Y00823*
G37*
G36*
X00463Y00822D02*
Y00788D01*
X00497*
X00497Y00792*
X00493Y00802*
X00486Y00811*
X00477Y00818*
X00467Y00822*
X00463Y00822*
G37*
G36*
X00398Y00823D02*
X00363D01*
Y00788*
X00398*
Y00823*
G37*
G36*
X02348Y00822D02*
X02344Y00822D01*
X02334Y00818*
X02325Y00811*
X02318Y00802*
X02314Y00792*
X02314Y00788*
X02348*
Y00822*
G37*
G36*
X00448D02*
X00444Y00822D01*
X00434Y00818*
X00425Y00811*
X00418Y00802*
X00414Y00792*
X00414Y00788*
X00448*
Y00822*
G37*
G36*
X02248Y00823D02*
X02213D01*
Y00788*
X02248*
Y00823*
G37*
G36*
X00348D02*
X00313D01*
Y00788*
X00348*
Y00823*
G37*
G36*
X02348Y00773D02*
X02314D01*
X02314Y0077*
X02318Y00759*
X02325Y0075*
X02334Y00743*
X02344Y00739*
X02348Y00739*
Y00773*
G37*
G36*
X00448D02*
X00414D01*
X00414Y0077*
X00418Y00759*
X00425Y0075*
X00434Y00743*
X00444Y00739*
X00448Y00739*
Y00773*
G37*
G36*
X02397D02*
X02363D01*
Y00739*
X02367Y00739*
X02377Y00743*
X02386Y0075*
X02393Y00759*
X02397Y0077*
X02397Y00773*
G37*
G36*
X00497D02*
X00463D01*
Y00739*
X00467Y00739*
X00477Y00743*
X00486Y0075*
X00493Y00759*
X00497Y0077*
X00497Y00773*
G37*
G36*
X02298D02*
X02263D01*
Y00738*
X02298*
Y00773*
G37*
G36*
X02248D02*
X02213D01*
Y00738*
X02248*
Y00773*
G37*
G36*
X00398D02*
X00363D01*
Y00738*
X00398*
Y00773*
G37*
G36*
X00348D02*
X00313D01*
Y00738*
X00348*
Y00773*
G37*
G36*
X03883Y00769D02*
Y00728D01*
X03924*
X03924Y00733*
X03919Y00745*
X03911Y00755*
X039Y00763*
X03888Y00768*
X03883Y00769*
G37*
G36*
X03868D02*
X03863Y00768D01*
X03851Y00763*
X0384Y00755*
X03832Y00745*
X03827Y00733*
X03827Y00728*
X03868*
Y00769*
G37*
G36*
X03924Y00712D02*
X03883D01*
Y00671*
X03888Y00672*
X039Y00677*
X03911Y00685*
X03919Y00695*
X03924Y00707*
X03924Y00712*
G37*
G36*
X03868D02*
X03827D01*
X03827Y00707*
X03832Y00695*
X0384Y00685*
X03851Y00677*
X03863Y00672*
X03868Y00671*
Y00712*
G37*
G36*
X00188Y00777D02*
X00142D01*
Y00722*
X0015*
Y00714*
X00142*
Y00659*
X00188*
Y00714*
X0018*
Y00722*
X00188*
Y00777*
G37*
G36*
X03492Y00746D02*
X03483Y00744D01*
X03476Y00739*
X03472Y00732*
X0347Y00724*
X03472Y00716*
X03476Y00709*
X03476Y00706*
X03475Y00704*
X03464*
Y00657*
X03519*
X0352Y00659*
X03574*
Y00702*
X0352*
X03519Y00704*
X03508*
X03508Y00706*
X03507Y00709*
X03512Y00716*
X03513Y00724*
X03512Y00732*
X03507Y00739*
X035Y00744*
X03492Y00746*
G37*
G36*
X02653Y00758D02*
X02633D01*
X02622Y00757*
X02611Y00754*
X02601Y00749*
X02592Y00741*
X02584Y00732*
X02579Y00722*
X02576Y00711*
X02574Y007*
X02576Y00688*
X02579Y00677*
X02584Y00667*
X02592Y00658*
X02601Y0065*
X02611Y00645*
X02622Y00642*
X02633Y00641*
X02653*
X02665Y00642*
X02676Y00645*
X02686Y0065*
X02695Y00658*
X02702Y00667*
X02708Y00677*
X02711Y00688*
X02712Y007*
X02711Y00711*
X02708Y00722*
X02702Y00732*
X02695Y00741*
X02686Y00749*
X02676Y00754*
X02665Y00757*
X02653Y00758*
G37*
G36*
X03519Y00649D02*
X03464D01*
Y00602*
X03469*
X03471Y00597*
X0347Y0059*
X03472Y00582*
X03476Y00575*
X03483Y0057*
X03492Y00568*
X035Y0057*
X03507Y00575*
X03512Y00582*
X03513Y0059*
X03512Y00597*
X03515Y00602*
X03519*
Y00649*
G37*
G36*
X00057Y01663D02*
X00046Y01662D01*
X00037Y01658*
X00028Y01651*
X00022Y01643*
X00018Y01633*
X00017Y01623*
X00018Y01613*
X00022Y01603*
X00028Y01595*
X00037Y01589*
X00046Y01585*
X00057Y01583*
X00067Y01585*
X00072Y01587*
X00091Y01568*
X00089Y01563*
X00017*
Y01484*
X00095*
Y01273*
X00087*
Y01218*
X00095*
Y01025*
X00087*
Y0097*
X00095*
Y00777*
X00087*
Y00722*
X00095*
Y00527*
X00087*
Y00472*
X00133*
Y00527*
X00124*
Y00722*
X00133*
Y00777*
X00124*
Y0097*
X00133*
Y01025*
X00124*
Y01218*
X00133*
Y01273*
X00124*
Y0157*
X00123Y01576*
X0012Y0158*
X00093Y01608*
X00095Y01613*
X00096Y01623*
X00095Y01633*
X00091Y01643*
X00085Y01651*
X00076Y01658*
X00067Y01662*
X00057Y01663*
G37*
G36*
X03883Y00469D02*
Y00428D01*
X03924*
X03924Y00433*
X03919Y00445*
X03911Y00455*
X039Y00463*
X03888Y00468*
X03883Y00469*
G37*
G36*
X03868D02*
X03863Y00468D01*
X03851Y00463*
X0384Y00455*
X03832Y00445*
X03827Y00433*
X03827Y00428*
X03868*
Y00469*
G37*
G36*
X00243Y00464D02*
X00197D01*
Y00409*
X00243*
Y00415*
X00248Y00417*
X00249Y00416*
X00257Y00415*
X00266Y00416*
X00273Y00421*
X00277Y00428*
X00279Y00437*
X00277Y00445*
X00273Y00452*
X00266Y00457*
X00257Y00458*
X00249Y00457*
X00248Y00456*
X00243Y00458*
Y00464*
G37*
G36*
X00188Y00527D02*
X00142D01*
Y00472*
X0015*
Y00464*
X00142*
Y00409*
X00188*
Y00464*
X0018*
Y00472*
X00188*
Y00527*
G37*
G36*
X03924Y00412D02*
X03883D01*
Y00371*
X03888Y00372*
X039Y00377*
X03911Y00385*
X03919Y00395*
X03924Y00407*
X03924Y00412*
G37*
G36*
X03868D02*
X03827D01*
X03827Y00407*
X03832Y00395*
X0384Y00385*
X03851Y00377*
X03863Y00372*
X03868Y00371*
Y00412*
G37*
G36*
X03594Y00373D02*
Y00332D01*
X03635*
X03634Y00337*
X0363Y00349*
X03622Y0036*
X03611Y00367*
X03599Y00372*
X03594Y00373*
G37*
G36*
X03579D02*
X03574Y00372D01*
X03561Y00367*
X03551Y0036*
X03543Y00349*
X03538Y00337*
X03538Y00332*
X03579*
Y00373*
G37*
G36*
X03635Y00316D02*
X03594D01*
Y00276*
X03599Y00276*
X03611Y00281*
X03622Y00289*
X0363Y00299*
X03634Y00311*
X03635Y00316*
G37*
G36*
X03579D02*
X03538D01*
X03538Y00311*
X03543Y00299*
X03551Y00289*
X03561Y00281*
X03574Y00276*
X03579Y00276*
Y00316*
G37*
G36*
X03497Y00373D02*
X034D01*
Y00276*
X03497*
Y00373*
G37*
G36*
X0376Y00253D02*
X03755Y0025D01*
X03748Y00252*
X03738Y0025*
X03729Y00244*
X03724Y00236*
X03722Y00226*
X03724Y00216*
X03729Y00208*
X03738Y00202*
X03748Y002*
X03755Y00202*
X0376Y00199*
X03806*
Y00253*
X0376*
G37*
G36*
X02653Y00908D02*
X02633D01*
X02622Y00907*
X02611Y00904*
X02601Y00899*
X02592Y00891*
X02584Y00882*
X02579Y00872*
X02576Y00861*
X02574Y0085*
X02576Y00838*
X02579Y00827*
X02584Y00817*
X02592Y00808*
X02601Y008*
X02611Y00795*
X02622Y00792*
X02633Y00791*
X02653*
X02658Y00791*
X02694*
X02799Y00686*
Y00261*
Y00244*
X02794Y00243*
X02789Y00248*
X0278Y00256*
X02768Y00262*
X02756Y00266*
X02744Y00267*
X02731Y00266*
X02719Y00262*
X02708Y00256*
X02698Y00248*
X0269Y00238*
X02684Y00227*
X0268Y00215*
X02679Y00202*
Y00183*
X0268Y0017*
X02684Y00158*
X0269Y00147*
X02698Y00137*
X02708Y00129*
X02719Y00123*
X02731Y00119*
X02744Y00118*
X02756Y00119*
X02768Y00123*
X0278Y00129*
X02789Y00137*
X02798Y00147*
X02804Y00158*
X02807Y0017*
X02808Y00183*
Y00202*
X02808Y00204*
X02813Y00206*
X02916Y00103*
Y0007*
X02959*
Y00096*
X02966*
Y0007*
X03009*
Y00096*
X03016*
Y0007*
X03059*
Y00096*
X03066*
Y0007*
X03109*
Y00139*
X03102*
Y00255*
X03102Y00255*
X03106Y00258*
X03115Y00249*
Y00112*
X03116Y00106*
X03119Y00101*
X03139Y00082*
X03143Y00078*
X03149Y00077*
X03153*
Y00069*
X03208*
Y00077*
X03269*
X03275Y00078*
X0328Y00082*
X03297Y00099*
X03315*
Y0014*
X03278*
Y00122*
X03263Y00107*
X03208*
Y00115*
X03153*
Y00115*
X03149Y00113*
X03144Y00118*
Y00255*
X03143Y00261*
X0314Y00266*
X03106Y00299*
X03102Y00302*
X03096Y00304*
X02968*
X02957Y00314*
X02959Y00319*
Y00388*
X02919*
Y00734*
X02918Y00737*
X02916Y00741*
X02752Y00904*
X02749Y00906*
X02746Y00907*
X02666Y00907*
X02665Y00907*
X02653Y00908*
G37*
G36*
X02974Y00527D02*
X02973Y00527D01*
X02964*
Y00518*
X02964Y00517*
Y00328*
X02965Y00325*
X02966Y00323*
Y00319*
X0297*
X0297Y00319*
X02974Y00319*
X03225*
X03282Y00261*
Y00242*
X03278*
Y00202*
X03315*
Y00242*
X03311*
Y00267*
X0331Y00273*
X03307Y00278*
X03241Y00343*
Y00476*
X03241Y0048*
X03239Y00483*
X03197Y00524*
X03196Y00525*
Y00527*
X03191*
X0319Y00527*
X02974*
G37*
G36*
X03594Y00176D02*
Y00135D01*
X03635*
X03634Y0014*
X0363Y00152*
X03622Y00163*
X03611Y00171*
X03599Y00176*
X03594Y00176*
G37*
G36*
X03579D02*
X03574Y00176D01*
X03561Y00171*
X03551Y00163*
X03543Y00152*
X03538Y0014*
X03538Y00135*
X03579*
Y00176*
G37*
G36*
X03861Y00253D02*
X03815D01*
Y00199*
X03861*
Y00201*
X03866Y00203*
X03933Y00136*
X03938Y00133*
X03943Y00132*
X03955*
Y00118*
X04001*
Y00172*
X03955*
Y00161*
X03949*
X03874Y00236*
X03869Y00239*
X03864Y00241*
X03861*
Y00253*
G37*
G36*
X02543Y00267D02*
X0253Y00266D01*
X02518Y00262*
X02507Y00256*
X02497Y00248*
X02489Y00238*
X02483Y00227*
X02479Y00215*
X02478Y00202*
Y00183*
X02479Y0017*
X02483Y00158*
X02489Y00147*
X02497Y00137*
X02507Y00129*
X02518Y00123*
X0253Y00119*
X02543Y00118*
X02555Y00119*
X02568Y00123*
X02579Y00129*
X02589Y00137*
X02597Y00147*
X02603Y00158*
X02606Y0017*
X02608Y00183*
Y00202*
X02606Y00215*
X02603Y00227*
X02597Y00238*
X02589Y00248*
X02579Y00256*
X02568Y00262*
X02555Y00266*
X02543Y00267*
G37*
G36*
X03635Y0012D02*
X03594D01*
Y00079*
X03599Y00079*
X03611Y00084*
X03622Y00092*
X0363Y00103*
X03634Y00115*
X03635Y0012*
G37*
G36*
X03579D02*
X03538D01*
X03538Y00115*
X03543Y00103*
X03551Y00092*
X03561Y00084*
X03574Y00079*
X03579Y00079*
Y0012*
G37*
G36*
X03497Y00176D02*
X034D01*
Y00079*
X03497*
Y00176*
G37*
G36*
X03587Y02519D02*
X0358Y02517D01*
X03574Y02513*
X0357Y02508*
X03569Y02501*
Y02499*
X03542*
Y02505*
X03488*
X03484Y02503*
X03481Y02505*
X03472Y02507*
X03462Y02505*
X03453Y025*
X03448Y02491*
X03446Y02481*
X03448Y02472*
X03453Y02463*
X03462Y02458*
X03472Y02456*
X03481Y02458*
X03485Y0246*
X03488Y02459*
X03542*
Y02464*
X03569*
Y02462*
X0357Y02455*
X03574Y02449*
X0358Y02445*
X03587Y02444*
X03594Y02445*
X03599Y02449*
X03603Y02455*
X03604Y02462*
Y02481*
Y02481*
Y02481*
Y02501*
X03603Y02508*
X03599Y02513*
X03594Y02517*
X03587Y02519*
G37*
G36*
X03806Y02382D02*
X03759D01*
Y02333*
Y02328*
X03761Y02324*
X03763Y02316*
X03767Y02309*
X03774Y02304*
X03783Y02302*
X03791Y02304*
X03798Y02309*
X03803Y02316*
X03804Y02324*
X03806Y02328*
X03806Y02333*
Y02382*
G37*
%LNhardwarecontrollerpcb_copper_signal_top-3*%
%LPD*%
G36*
X00969Y03939D02*
X0098Y03934D01*
X00993Y03932*
X01005Y03934*
X01009Y03936*
X01071Y03873*
X01069Y03868*
X01041*
Y03785*
X01073*
Y03735*
X00885Y03546*
X00855*
Y03616*
X00846*
Y03624*
X0085*
Y03679*
X00847*
Y03687*
X00856*
Y03757*
X00812*
X0081Y03762*
X00854Y03807*
X00887*
Y03785*
X00991*
Y03868*
X00959*
Y0394*
X00964Y03943*
X00969Y03939*
G37*
G36*
X03658Y03947D02*
X03658Y03944D01*
X03608Y03894*
X03605Y03889*
X03604Y03884*
Y03855*
X03599Y03853*
X03597Y03856*
X03587Y03863*
X03577Y03867*
X03565Y03869*
X03553Y03867*
X03543Y03863*
X03533Y03856*
X03526Y03846*
X03522Y03836*
X0352Y03824*
X03521Y03821*
X0349Y0379*
X03485Y03784*
X03482Y03777*
X03481Y0377*
Y03746*
X03479Y03744*
X03472Y03734*
X03467Y03724*
X03466Y03712*
X03467Y037*
X03472Y0369*
X03479Y0368*
X03481Y03679*
Y0363*
X03467*
Y0357*
X03553*
Y0363*
X03539*
Y03678*
X03542Y0368*
X03544Y03682*
X03548Y03681*
Y0366*
X0355Y03655*
X03553Y0365*
X03563Y0364*
Y03521*
X03558Y03517*
X03557Y03517*
X03463*
X03461Y03517*
X03457Y03519*
X03456Y0352*
Y03794*
X036Y03938*
X03608Y03935*
X03619Y03933*
X03631Y03935*
X03642Y03939*
X03651Y03946*
X03652Y03948*
X03658Y03947*
G37*
G36*
X03754Y03858D02*
X03751Y03856D01*
X03744Y03846*
X0374Y03836*
X03738Y03824*
X0374Y03812*
X03744Y03802*
X03751Y03792*
X03761Y03785*
X03768Y03782*
Y03742*
X03763Y03741*
X03761Y03744*
X03751Y03751*
X0374Y03756*
X03736Y03756*
Y03712*
Y03668*
X0374Y03668*
X03751Y03673*
X03761Y0368*
X03763Y03684*
X03767Y03683*
X03768Y03682*
X03769Y03677*
X03773Y03672*
X03791Y03653*
Y03609*
X03787*
Y03572*
X03782Y03571*
X0366Y03693*
X03663Y037*
X03664Y03712*
X03663Y03724*
X03658Y03734*
X03651Y03744*
X03642Y03751*
X03631Y03755*
X03619Y03757*
X03608Y03755*
X03599Y03752*
X03596Y03756*
X03629Y03789*
X03629*
X03632Y03793*
X03632Y03797*
X03638Y03798*
X03642Y03792*
X03652Y03785*
X03662Y03781*
X03674Y03779*
X03686Y03781*
X03696Y03785*
X03706Y03792*
X03713Y03802*
X03717Y03812*
X03719Y03824*
X03717Y03836*
X03714Y03843*
X03733Y03863*
X03753*
X03754Y03858*
G37*
G36*
X03557Y03423D02*
X03463D01*
Y03507*
X03557*
Y03423*
G37*
G36*
X03418D02*
X03323D01*
Y03507*
X03418*
Y03423*
G37*
G36*
X02345Y03685D02*
X02346Y03681D01*
X02349Y03676*
X02384Y03641*
X02384Y03639*
X02383Y03636*
X02313*
X02281Y03668*
X02284Y03672*
X02292Y03669*
X02304Y03667*
X02315Y03669*
X02326Y03673*
X02336Y0368*
X0234Y03686*
X02341Y03686*
X02345Y03685*
G37*
G36*
X01645Y03607D02*
X01356D01*
Y03691*
X01645*
Y03607*
G37*
G36*
X04673Y02133D02*
Y02017D01*
X0446*
Y02133*
X04673*
G37*
G36*
Y0137D02*
X04736Y01307D01*
Y01204*
X04698Y01167*
X04533Y01167*
X0446Y0124*
Y01531*
X04673*
Y0137*
G37*
G36*
X03375Y01513D02*
X03354Y01492D01*
Y0119*
X03342Y01179*
X0321*
X03198Y0119*
Y01336*
X03153Y01381*
X03084*
Y01494*
X03222*
X03232Y01503*
X03232Y01561*
X03246Y01574*
X03375*
Y01513*
G37*
G36*
X02942Y01338D02*
X02925Y0132D01*
Y01299*
X02895Y01299*
Y0147*
X02942*
Y01338*
G37*
G36*
X03061Y01202D02*
X02933D01*
Y01291*
X02954*
X02972Y01309*
Y0133*
X0298Y01338*
X03061*
Y01202*
G37*
G36*
X02866Y01189D02*
X02835Y01189D01*
X02822Y01201*
X02822Y01233*
X02866*
Y01189*
G37*
G36*
X02925Y01175D02*
Y01153D01*
X02946Y01131*
X0332Y01131*
X03356Y01096*
Y01023*
X03385Y00994*
X03897*
X03933Y00958*
X03933Y00848*
X03897Y00812*
X03794*
X03771Y00791*
X02972*
X02895Y00868*
Y01175*
X02925Y01175*
G37*
G36*
X02746Y00897D02*
X02909Y00734D01*
Y00281*
X02935Y00255*
X03092*
Y00106*
X02927*
X02809Y00224*
Y00261*
Y0069*
X02698Y00801*
X02643*
X02643Y00897*
X02746Y00897*
G37*
G36*
X0319Y00517D02*
X03232Y00476D01*
Y00328*
X02974*
Y00517*
X0319*
G37*
%LNhardwarecontrollerpcb_copper_signal_top-4*%
%LPC*%
G36*
X03721Y03756D02*
X03717Y03756D01*
X03706Y03751*
X03696Y03744*
X03689Y03735*
X03685Y03724*
X03684Y0372*
X03721*
Y03756*
G37*
G36*
Y03704D02*
X03684D01*
X03685Y037*
X03689Y03689*
X03696Y0368*
X03706Y03673*
X03717Y03668*
X03721Y03668*
Y03704*
G37*
%LNhardwarecontrollerpcb_copper_signal_top-5*%
%LPD*%
G54D10*
X00171Y0221D03*
X00068D03*
G54D11*
X03003Y03425D03*
X03035D03*
X03066D03*
X03098D03*
X03003Y03488D03*
X03035D03*
X03066D03*
X03098D03*
X02529Y03425D03*
X02561D03*
X02592D03*
X02624D03*
X02529Y03488D03*
X02561D03*
X02592D03*
X02624D03*
X02657Y02694D03*
X02688D03*
X0272D03*
X02751D03*
X02657Y02757D03*
X02688D03*
X0272D03*
X02751D03*
X03131Y02694D03*
X03163D03*
X03194D03*
X03226D03*
X03131Y02757D03*
X03163D03*
X03194D03*
X03226D03*
X03576Y03342D03*
X03545D03*
X03513D03*
X03482D03*
X03576Y03279D03*
X03545D03*
X03513D03*
X03482D03*
X039Y03586D03*
X03869D03*
X03837D03*
X03806D03*
X039Y03523D03*
X03869D03*
X03837D03*
X03806D03*
G54D12*
X0448Y02251D03*
Y02301D03*
X04232Y02251D03*
Y02301D03*
G54D13*
X0333Y01734D03*
Y01643D03*
Y01553D03*
G54D14*
X03559Y01643D03*
G54D15*
X02849Y01215D03*
G54D16*
X02795Y01188D03*
Y01207D03*
Y01227D03*
Y01247D03*
Y01266D03*
Y01286D03*
X02945D03*
Y01266D03*
Y01247D03*
Y01227D03*
Y01207D03*
Y01188D03*
G54D17*
X02821Y01312D03*
X02841D03*
X0286D03*
X0288D03*
X029D03*
X02919D03*
Y01162D03*
X029D03*
X0288D03*
X0286D03*
X02841D03*
X02821D03*
G54D18*
X02798Y01165D03*
Y01309D03*
X02942D03*
Y01165D03*
G54D19*
X02896Y01263D03*
X02844D03*
X02896Y01211D03*
G54D20*
X04218Y0249D03*
X04268D03*
X04318D03*
X04368D03*
X04218Y02704D03*
X04268D03*
X04318D03*
X04368D03*
X03938Y0249D03*
X03988D03*
X04038D03*
X04088D03*
X03938Y02705D03*
X03988D03*
X04038D03*
X04088D03*
G54D21*
X03004Y02976D03*
X03054D03*
X03104D03*
X03154D03*
X03204D03*
X03254D03*
X03304D03*
X03354D03*
X03004Y0319D03*
X03054D03*
X03104D03*
X03154D03*
X03204D03*
X03254D03*
X03304D03*
X02529Y02977D03*
X02579D03*
X02629D03*
X02679D03*
X02729D03*
X02779D03*
X02829D03*
X02879D03*
X02529Y03191D03*
X02579D03*
X02629D03*
X02679D03*
X02729D03*
X02779D03*
X02829D03*
G54D22*
X03354Y0319D03*
X02879Y03191D03*
G54D23*
X0025Y03827D03*
G54D24*
X0025Y03777D03*
Y03727D03*
Y03677D03*
Y03627D03*
Y03577D03*
Y03527D03*
Y03477D03*
X00636Y03827D03*
Y03777D03*
Y03727D03*
Y03677D03*
Y03627D03*
Y03577D03*
Y03527D03*
Y03477D03*
G54D25*
X02804Y02419D03*
Y02369D03*
Y02319D03*
Y02269D03*
X03018Y02419D03*
Y02369D03*
Y02319D03*
Y02269D03*
X04211Y03225D03*
Y03275D03*
Y03325D03*
Y03375D03*
X03996Y03225D03*
Y03275D03*
Y03325D03*
Y03375D03*
G54D26*
X02823Y01851D03*
X02842D03*
X02862D03*
X02882D03*
Y01944D03*
X02862D03*
X02842D03*
X02823D03*
G54D27*
X02888Y01877D03*
Y01897D03*
Y01917D03*
X02817D03*
Y01897D03*
Y01877D03*
G54D28*
X0393Y02294D03*
X03893D03*
X03856D03*
Y02188D03*
X0393D03*
X03726Y02294D03*
X03688D03*
X03651D03*
Y02188D03*
X03726D03*
G54D29*
X04507Y02925D03*
Y02951D03*
Y02976D03*
Y03002D03*
Y03028D03*
Y03053D03*
Y03079D03*
Y03104D03*
X04275Y02925D03*
Y02951D03*
Y02976D03*
Y03002D03*
Y03028D03*
Y03053D03*
Y03079D03*
Y03104D03*
X03885Y02934D03*
Y0296D03*
Y02985D03*
Y03011D03*
Y03036D03*
Y03062D03*
Y03088D03*
Y03113D03*
X03653Y02934D03*
Y0296D03*
Y02985D03*
Y03011D03*
Y03036D03*
Y03062D03*
Y03088D03*
Y03113D03*
G54D30*
X03587Y02481D03*
X03612D03*
X03638D03*
X03664D03*
X03689D03*
X03715D03*
X0374D03*
X03766D03*
X03792D03*
X03817D03*
X03587Y02714D03*
X03612D03*
X03638D03*
X03664D03*
X03689D03*
X03715D03*
X0374D03*
X03766D03*
X03792D03*
X03817D03*
G54D31*
X00165Y00437D03*
X0022D03*
X00165Y00687D03*
X0022D03*
X00165Y00935D03*
X0022D03*
X00165Y01183D03*
X0022D03*
X00059Y0233D03*
X00114D03*
X04108Y02198D03*
X04163D03*
X03838Y00226D03*
X03783D03*
X02765Y01372D03*
X0271D03*
X04027Y02369D03*
X04082D03*
X03728Y02355D03*
X03783D03*
X00165Y005D03*
X0011D03*
X00165Y0075D03*
X0011D03*
X00165Y00998D03*
X0011D03*
X00165Y01246D03*
X0011D03*
X04033Y00145D03*
X03978D03*
X03246Y01529D03*
X0319D03*
X02714Y01269D03*
X02659D03*
X02911Y01374D03*
X02856D03*
X02911Y01084D03*
X02856D03*
X04163Y02419D03*
X04218D03*
X04163Y02771D03*
X04218D03*
X00772Y03652D03*
X00827D03*
X04511Y03212D03*
X04456D03*
X04395Y03275D03*
X0445D03*
X04389Y03212D03*
X04334D03*
X0405Y03158D03*
X03995D03*
X04161Y03003D03*
X04106D03*
X03883Y0242D03*
X03938D03*
X03883Y02773D03*
X03938D03*
X0378Y0213D03*
X03725D03*
X03564Y03173D03*
X0362D03*
X03513D03*
X03458D03*
X0358Y02965D03*
X03525D03*
G54D32*
X04397Y021D03*
X0447D03*
X00754Y03581D03*
X00827D03*
X00828Y03722D03*
X00755D03*
X0472Y02062D03*
X04647D03*
X04409Y01417D03*
X04482D03*
X02842Y01013D03*
X02915D03*
X04161Y02932D03*
X04088D03*
X0358Y02896D03*
X03507D03*
G54D33*
X03492Y00625D03*
Y00681D03*
X02578Y01212D03*
Y01267D03*
X027Y01157D03*
Y01212D03*
X03181Y00092D03*
Y00147D03*
X04647Y03232D03*
Y03287D03*
X04761Y03232D03*
Y03287D03*
X03092Y02214D03*
Y02269D03*
X03198Y02263D03*
Y02318D03*
X02724Y02214D03*
Y02269D03*
X02771Y01982D03*
Y01927D03*
X02482Y0148D03*
Y01535D03*
X02553Y0148D03*
Y01535D03*
X04511Y03275D03*
Y0333D03*
X04334Y03275D03*
Y0333D03*
X02637Y01157D03*
Y01212D03*
X00698Y03834D03*
Y03779D03*
X00178Y03774D03*
Y03829D03*
X03092Y02364D03*
Y02419D03*
X02935Y01933D03*
Y01877D03*
X03996Y03437D03*
Y03492D03*
X04143Y0344D03*
Y03496D03*
X03995Y02243D03*
Y02188D03*
X03818Y03204D03*
Y03259D03*
X03529Y02714D03*
Y02769D03*
X03515Y02427D03*
Y02482D03*
G54D34*
X03435Y01044D03*
Y00971D03*
G54D35*
X03547Y00681D03*
Y00606D03*
X03637Y00643D03*
G54D36*
X03013Y00181D03*
G54D37*
X03088Y00354D03*
X03038D03*
X02988D03*
X02938D03*
Y00105D03*
X02988D03*
X03038D03*
X03088D03*
G54D38*
X04566Y01966D03*
Y01576D03*
X0308Y0085D03*
Y0046D03*
G54D39*
X03017Y01269D03*
X03236D03*
G54D40*
X016Y03783D03*
Y03667D03*
X01501Y03783D03*
Y03667D03*
X01403Y03783D03*
Y03667D03*
X0351Y036D03*
Y03484D03*
X03368Y036D03*
Y03484D03*
X0323Y01643D03*
Y01759D03*
X0371Y00845D03*
Y00729D03*
X03379Y00826D03*
Y0071D03*
X03196Y00358D03*
Y00242D03*
G54D41*
X04759Y02218D03*
X04606D03*
X01093Y03827D03*
X00939D03*
G54D42*
X031Y01564D03*
Y01667D03*
X03297Y00222D03*
Y0012D03*
G54D43*
X04216Y01708D03*
Y01938D03*
X03649Y01385D03*
Y01155D03*
X03438Y01385D03*
Y01155D03*
G54D44*
X04649Y01417D03*
X04765D03*
X03142Y01454D03*
X03026D03*
G54D45*
X04218Y0249D02*
X04218Y02489D01*
X00174Y03828D02*
X00176Y03826D01*
X0012Y03828D02*
X00174D01*
X00176Y03826D02*
X00178Y03829D01*
X00939Y03827D02*
Y04012D01*
X00846Y03827D02*
X00939D01*
X01093D02*
Y03879D01*
Y03727D02*
Y03827D01*
X00939Y04012D02*
X00966Y04038D01*
X00793Y03527D02*
X00893D01*
X00754Y03566D02*
X00793Y03527D01*
X00754Y03566D02*
Y03581D01*
X00993Y03979D02*
X01093Y03879D01*
X03163Y01643D02*
X0323D01*
X03139Y01667D02*
X03163Y01643D01*
X031Y01667D02*
X03139D01*
X04181Y02251D02*
X04232D01*
X04149Y0249D02*
X04218D01*
X04218Y02419D02*
Y02489D01*
X04247Y02771D02*
X04262Y02787D01*
X04218Y02771D02*
X04247D01*
X04218D02*
Y02773D01*
Y02705D02*
Y02771D01*
Y02705D02*
X04218Y02704D01*
X03725Y02188D02*
X03726Y02188D01*
X03725Y0213D02*
Y02188D01*
X00893Y03527D02*
X01093Y03727D01*
X00755Y03735D02*
X00846Y03827D01*
X031Y01482D02*
Y01564D01*
X00722Y03596D02*
X00745D01*
X00691Y03627D02*
X00722Y03596D01*
X00636Y03627D02*
X00691D01*
X00636Y03677D02*
X00692D01*
X00722Y03707*
X00746*
X00179Y03832D02*
X00183D01*
X00188Y03827*
X0025*
X03092Y02419D02*
Y02458D01*
X03092Y02419D02*
X03092Y02419D01*
X03018Y02419D02*
X03092D01*
X04218Y02489D02*
X04218Y0249D01*
X03783Y02355D02*
D01*
X0369Y0213D02*
X03725D01*
X03995Y02153D02*
Y02188D01*
X03995Y02188D02*
X03995Y02188D01*
X0393Y02188D02*
X03995D01*
X00966Y04038D02*
X00994D01*
X01047Y04091*
X00827Y03581D02*
Y03652D01*
X00828Y03653*
Y03722*
X00754Y03581D02*
Y03588D01*
X00745Y03596D02*
X00754Y03588D01*
X00755Y03716D02*
Y03722D01*
X00746Y03707D02*
X00755Y03716D01*
G54D46*
X03938Y02381D02*
Y0249D01*
X03472Y02481D02*
X03587D01*
X03938Y02705D02*
Y02812D01*
X0358Y02965D02*
Y03012D01*
X03529Y02714D02*
X03529Y02713D01*
Y02673D02*
Y02713D01*
X03526Y02673D02*
X03529D01*
X01093Y03827D02*
X01104D01*
X03054Y0319D02*
Y03239D01*
X03154Y0319D02*
Y03239D01*
X03587Y02481D02*
X03587Y02481D01*
X03529Y02714D02*
X03587D01*
X00698Y03834D02*
Y03874D01*
X00698Y03834D02*
X00698Y03834D01*
X00694Y03834D02*
X00698D01*
X00687Y03827D02*
X00694Y03834D01*
X00636Y03827D02*
X00687D01*
X02879Y03238D02*
X0288Y03239D01*
X02879Y03192D02*
Y03238D01*
X02879Y03191D02*
X02879Y03192D01*
X02779Y03191D02*
Y03239D01*
X02679Y03192D02*
Y03239D01*
Y03192D02*
X02679Y03191D01*
X02578Y03192D02*
Y03239D01*
Y03192D02*
X02579Y03191D01*
X03253Y03191D02*
Y0324D01*
Y03191D02*
X03254Y0319D01*
X03354D02*
Y0324D01*
X03938Y02381D02*
X03938Y02381D01*
X03938Y02812D02*
X03938Y02812D01*
X03956Y03158D02*
X03995D01*
X03996Y03159*
Y03225*
X04161Y02932D02*
Y03003D01*
X04204*
X04275Y03002D02*
Y03028D01*
X04204Y03003D02*
X04205Y03002D01*
X04275*
X0358Y02896D02*
Y02965D01*
X03653Y03011D02*
Y03036D01*
X0358Y03012D02*
X03581Y03011D01*
X03653*
X00755Y03722D02*
Y03735D01*
G54D47*
X02779Y02932D02*
Y02977D01*
X02678Y02977D02*
X02679Y02977D01*
X02678Y02932D02*
Y02977D01*
X00057Y01623D02*
X0011Y0157D01*
X04647Y03511D02*
X04761Y03625D01*
X04647Y03287D02*
Y03511D01*
X04742Y02738D02*
X04761Y02718D01*
X0446Y02738D02*
X04742D01*
X04413Y02785D02*
X0446Y02738D01*
X03889Y03555D02*
X039Y03566D01*
X03777Y03555D02*
X03889D01*
X03619Y03712D02*
X03777Y03555D01*
X039Y03566D02*
Y03586D01*
X03003Y03488D02*
Y03612D01*
X03035Y03488D02*
Y03582D01*
X03066Y03488D02*
Y03553D01*
X03098Y03488D02*
Y03523D01*
X02624Y03488D02*
Y03574D01*
X02576Y03622D02*
X02624Y03574D01*
X02576Y03622D02*
Y03742D01*
X02561Y03488D02*
Y03557D01*
X02466Y03651D02*
X02561Y03557D01*
X02395Y03651D02*
X02466D01*
X02529Y03488D02*
Y03545D01*
X02452Y03622D02*
X02529Y03545D01*
X02307Y03622D02*
X02452D01*
X02251Y03677D02*
X02307Y03622D01*
X0236Y03687D02*
X02395Y03651D01*
X02251Y03677D02*
Y0374D01*
X02195Y03796D02*
X02251Y0374D01*
X02195Y03796D02*
Y03978D01*
X0236Y03687D02*
Y03742D01*
X02304Y03797D02*
X0236Y03742D01*
X02304Y03797D02*
Y03978D01*
X02592Y03488D02*
Y03566D01*
X02468Y0369D02*
X02592Y03566D01*
X02468Y0369D02*
Y03742D01*
X02413Y03797D02*
X02468Y03742D01*
X02413Y03797D02*
Y03978D01*
X02522Y03796D02*
X02576Y03742D01*
X02522Y03796D02*
Y03978D01*
X02829Y03191D02*
Y0325D01*
X02807Y03273D02*
X02829Y0325D01*
X02744Y03273D02*
X02807D01*
X02624Y03393D02*
X02744Y03273D01*
X02624Y03393D02*
Y03425D01*
X02729Y03191D02*
Y03246D01*
X02592Y03383D02*
X02729Y03246D01*
X02592Y03383D02*
Y03425D01*
X02629Y03191D02*
Y03305D01*
X02561Y03374D02*
X02629Y03305D01*
X02561Y03374D02*
Y03425D01*
X02529Y03192D02*
X02529Y03191D01*
X02529Y03192D02*
Y03425D01*
X03281Y03273D02*
X03304Y0325D01*
X03218Y03273D02*
X03281D01*
X03098Y03393D02*
X03218Y03273D01*
X03304Y0319D02*
Y0325D01*
X03098Y03393D02*
Y03425D01*
X03301Y03193D02*
X03304Y0319D01*
X03104D02*
Y03305D01*
X03035Y03374D02*
X03104Y03305D01*
X03035Y03374D02*
Y03425D01*
X03204Y0319D02*
Y03246D01*
X03066Y03383D02*
X03204Y03246D01*
X03066Y03383D02*
Y03425D01*
X03003Y03191D02*
X03004Y0319D01*
X03003Y03191D02*
Y03425D01*
X03003Y02975D02*
X03003Y02974D01*
Y02889D02*
X03131Y02761D01*
X03003Y02889D02*
Y02927D01*
X03204Y02828D02*
Y02976D01*
X03194Y02818D02*
X03204Y02828D01*
X03194Y02757D02*
Y02818D01*
X03163Y02757D02*
Y02807D01*
X03104Y02866D02*
X03163Y02807D01*
X03104Y02866D02*
Y02927D01*
X03304Y02885D02*
Y02976D01*
X03226Y02807D02*
X03304Y02885D01*
X03226Y02757D02*
Y02807D01*
X03131Y02757D02*
Y02761D01*
X0272Y02757D02*
Y02824D01*
X0273Y02834*
Y02931*
X02529Y02889D02*
X02657Y02761D01*
X02529Y02889D02*
Y02932D01*
X02657Y02757D02*
Y02761D01*
X02688Y02757D02*
Y02807D01*
X0263Y02865D02*
X02688Y02807D01*
X0263Y02865D02*
Y02932D01*
X02751Y02805D02*
X02828Y02881D01*
X02751Y02757D02*
Y02805D01*
X02828Y02881D02*
Y02931D01*
X02629Y02977D02*
X0263Y02977D01*
X03513Y03124D02*
X03575Y03062D01*
X03653*
X03513Y03124D02*
Y03173D01*
X03564Y03122D02*
Y03173D01*
Y03122D02*
X03598Y03088D01*
X03653*
X03545Y03242D02*
X03564Y03222D01*
Y03173D02*
Y03222D01*
X03545Y03242D02*
Y03279D01*
X03513Y03173D02*
Y03279D01*
X03818Y03112D02*
X03843Y03088D01*
X03885*
X03818Y03112D02*
Y03204D01*
X03667Y03279D02*
X03742Y03204D01*
X03818*
X03576Y03279D02*
X03667D01*
X03545Y03342D02*
Y03372D01*
X03511Y03405D02*
X03545Y03372D01*
X03452Y03405D02*
X03511D01*
X03441Y03416D02*
X03452Y03405D01*
X03441Y03416D02*
Y038D01*
X03498Y03383D02*
X03513Y03368D01*
Y03342D02*
Y03368D01*
X0333Y03383D02*
X03498D01*
X03301Y03413D02*
X0333Y03383D01*
X03577Y03343D02*
Y03646D01*
X03576Y03342D02*
X03577Y03343D01*
X04072Y03464D02*
Y03525D01*
X04041Y03557D02*
X04072Y03525D01*
X0397Y03557D02*
X04041D01*
X03937Y03523D02*
X0397Y03557D01*
X04143Y03352D02*
Y0344D01*
Y03352D02*
X0417Y03325D01*
X04096Y0344D02*
X04143D01*
X04072Y03464D02*
X04096Y0344D01*
X039Y03523D02*
X03937D01*
X03869D02*
X039D01*
X03996Y03376D02*
X03996Y03375D01*
X03996Y03376D02*
Y03437D01*
X03837Y03473D02*
X03874Y03437D01*
X03996*
X03837Y03473D02*
Y03523D01*
X03806D02*
X03837D01*
X03674Y03824D02*
X03727Y03877D01*
X03818*
X03838Y03858*
Y03789D02*
Y03858D01*
Y03789D02*
X03893Y03734D01*
Y03681D02*
Y03734D01*
X03869Y03656D02*
X03893Y03681D01*
X03869Y03586D02*
Y03656D01*
X03806Y03586D02*
Y0366D01*
X03783Y03683D02*
X03806Y0366D01*
X03837Y03586D02*
Y03712D01*
X03783Y03683D02*
Y03824D01*
X03003Y02927D02*
Y02974D01*
X03104Y02927D02*
Y02976D01*
D01*
X02828Y02931D02*
Y02976D01*
X02829Y02977*
X0273Y02931D02*
Y02976D01*
X02729Y02977D02*
X0273Y02976D01*
X04018Y02356D02*
X04027D01*
X03202Y02057D02*
X03838D01*
X02905Y01759D02*
X03202Y02057D01*
X02677Y01759D02*
X02905D01*
X03726Y02294D02*
Y02389D01*
X02974Y01598D02*
X03255Y01879D01*
X0284Y01598D02*
X02974D01*
X02503Y01261D02*
X0284Y01598D01*
X02962Y01625D02*
X03246Y01909D01*
X0283Y01625D02*
X02962D01*
X02485Y01281D02*
X0283Y01625D01*
X04102Y02106D02*
Y0224D01*
X02946Y01651D02*
X03234Y01938D01*
X02818Y01651D02*
X02946D01*
X02498Y0133D02*
X02818Y01651D01*
X02935Y01679D02*
X03224Y01968D01*
X02525Y01679D02*
X02935D01*
X02377Y01531D02*
X02525Y01679D01*
X02921Y01704D02*
X03214Y01998D01*
X02479Y01704D02*
X02921D01*
X02355Y01581D02*
X02479Y01704D01*
X00466Y00687D02*
X00811Y01031D01*
X02306*
X02355Y01081*
X02744Y01917D02*
X02817D01*
X02205Y01131D02*
X02255Y01081D01*
X00307Y01131D02*
X02205D01*
X02355Y01381D02*
X0244D01*
X02482Y01423*
Y0148*
X0223Y01531D02*
X02377D01*
X02029Y01732D02*
X0223Y01531D01*
X00404Y01732D02*
X02029D01*
X03053Y02929D02*
Y02975D01*
X03003D02*
X03004Y02976D01*
X03203Y02975D02*
X03204Y02976D01*
X02355Y01081D02*
X02503Y01229D01*
X03304Y02976D02*
Y03022D01*
X03236Y0309D02*
X03304Y03022D01*
X00387Y0309D02*
X03236D01*
X03204Y02976D02*
Y03022D01*
X03165Y03061D02*
X03204Y03022D01*
X00568Y03061D02*
X03165D01*
X00509Y03001D02*
X00568Y03061D01*
X00509Y02856D02*
Y03001D01*
X00484Y0283D02*
X00509Y02856D01*
X00405Y0283D02*
X00484D01*
X00355Y02781D02*
X00405Y0283D01*
X00299Y03001D02*
X00387Y0309D01*
X00299Y02137D02*
Y03001D01*
Y02137D02*
X00355Y02081D01*
X03356Y036D02*
Y0361D01*
X03301Y03413D02*
Y03544D01*
X0022Y00687D02*
X00466D01*
X0022Y00935D02*
X00259D01*
X0022Y00437D02*
X00257D01*
X00255Y01183D02*
X00307Y01131D01*
X0022Y01183D02*
X00255D01*
X00165Y00437D02*
Y005D01*
Y00687D02*
Y0075D01*
Y00935D02*
Y00998D01*
Y01183D02*
Y01246D01*
X0011Y005D02*
Y0075D01*
Y00998*
Y01246D02*
Y0157D01*
Y00998D02*
Y01246D01*
X02305Y0133D02*
X02498D01*
X02355Y01281D02*
X02485D01*
X02503Y01229D02*
Y01261D01*
X04033Y00145D02*
Y00181D01*
X03943Y00146D02*
X03977D01*
X03297Y00222D02*
Y00267D01*
X03206Y00358D02*
X03297Y00267D01*
X03196Y00358D02*
X03206D01*
X03096Y00289D02*
X03129Y00255D01*
Y00112D02*
Y00255D01*
Y00112D02*
X03149Y00092D01*
X02962Y00289D02*
X03096D01*
X02938Y00313D02*
X02962Y00289D01*
X03181Y00092D02*
X03269D01*
X03291Y00114*
X03293*
X03297Y00118*
Y0012*
X03149Y00092D02*
X03181D01*
X02938Y00313D02*
Y00354D01*
X03637Y00643D02*
X03677D01*
X03492Y00681D02*
Y00724D01*
X02733Y01247D02*
X02795D01*
X02714Y01265D02*
X02733Y01247D01*
X02714Y01265D02*
Y01269D01*
X03492Y00681D02*
X03547D01*
X03799Y00291D02*
X03923D01*
X0373Y0036D02*
X03799Y00291D01*
X0373Y0036D02*
Y0059D01*
X03923Y00291D02*
X04033Y00181D01*
X03677Y00643D02*
X0373Y0059D01*
X03864Y00226D02*
X03943Y00146D01*
X03977D02*
X03978Y00145D01*
X03838Y00226D02*
X03864D01*
X00057Y02328D02*
Y02528D01*
X00114Y0233D02*
X00167D01*
X00057Y02328D02*
X00059Y0233D01*
X04527Y02251D02*
X04631Y02356D01*
X04526Y02301D02*
X04598Y02374D01*
X02437Y02131D02*
X02535Y02033D01*
X02068Y02131D02*
X02437D01*
X02535Y01909D02*
Y02033D01*
X0369Y0296D02*
X03708Y02942D01*
Y02907D02*
Y02942D01*
X03689Y02888D02*
X03708Y02907D01*
X04183Y02846D02*
X04222Y02885D01*
X04066Y02846D02*
X04183D01*
X03988Y02768D02*
X04066Y02846D01*
X04222Y02885D02*
Y02934D01*
X04318Y02401D02*
Y0249D01*
X04259Y02342D02*
X04318Y02401D01*
X04167Y02342D02*
X04259D01*
X04102Y0224D02*
X04165Y02303D01*
X03935Y01938D02*
X04102Y02106D01*
X03246Y01909D02*
X0374D01*
X03234Y01938D02*
X03935D01*
X02255Y01281D02*
X02305Y0133D01*
X03255Y01879D02*
X03549D01*
X02482Y0148D02*
X02553D01*
X03224Y01968D02*
X03921D01*
X03214Y01998D02*
X03769D01*
X0321Y02027D02*
X03937D01*
X02913Y0173D02*
X0321Y02027D01*
X02228Y0173D02*
X02913D01*
X04074Y02122D02*
Y0225D01*
X03921Y01968D02*
X04074Y02122D01*
X04045Y02135D02*
Y02257D01*
X03937Y02027D02*
X04045Y02135D01*
X04074Y0225D02*
X04167Y02342D01*
X04045Y02257D02*
X04159Y02372D01*
X04238D02*
X04268Y02402D01*
X04159Y02372D02*
X04238D01*
X04082Y02369D02*
X04117D01*
X04268Y02402D02*
Y0249D01*
X02127Y0183D02*
X02228Y0173D01*
X00505Y0183D02*
X02127D01*
X00455Y01781D02*
X00505Y0183D01*
X02104Y0223D02*
X02407D01*
X02003Y0233D02*
X02104Y0223D01*
X00405Y0233D02*
X02003D01*
X0197Y0223D02*
X02068Y02131D01*
X00505Y0223D02*
X0197D01*
X02407D02*
X02566Y0207D01*
X00455Y02181D02*
X00505Y0223D01*
X00355Y02281D02*
X00405Y0233D01*
X04761Y03289D02*
Y03468D01*
X04759Y03287D02*
X04761Y03289D01*
X0448Y02251D02*
X04527D01*
X0448Y02301D02*
X04526D01*
X04761Y03192D02*
Y03232D01*
X04165Y02303D02*
X04231D01*
X04232Y02301*
X04088Y02818D02*
X04244D01*
X04038Y02768D02*
X04088Y02818D01*
X04038Y02705D02*
Y02768D01*
X03988Y02705D02*
Y02768D01*
X04354Y02785D02*
X04413D01*
X04318Y0275D02*
X04354Y02785D01*
X0434Y02816D02*
X04761D01*
X04268Y02745D02*
X0434Y02816D01*
X04268Y02704D02*
Y02745D01*
X04318Y02704D02*
Y0275D01*
X04177Y02874D02*
X04202Y02899D01*
X03862Y02874D02*
X04177D01*
X03766Y02778D02*
X03862Y02874D01*
X04244Y02818D02*
X04376Y02951D01*
X04507*
X04202Y02899D02*
Y02954D01*
X03563Y0366D02*
X03577Y03646D01*
X03563Y0366D02*
Y03744D01*
X03301Y03544D02*
X03356Y036D01*
X03155Y0293D02*
Y02975D01*
X03838Y02057D02*
X03893Y02112D01*
X03964Y02346D02*
X03988Y0237D01*
X03913Y02346D02*
X03964D01*
X03893Y02326D02*
X03913Y02346D01*
X03893Y02294D02*
Y02326D01*
X03988Y0237D02*
Y0249D01*
X0393Y02294D02*
X03937Y02301D01*
X04*
X04027Y02328*
Y02356*
X04027Y02409D02*
X04038Y0242D01*
X04027Y02369D02*
Y02409D01*
Y02365D02*
Y02369D01*
X03893Y0222D02*
X0393Y02257D01*
X03893Y02112D02*
Y0222D01*
X03548Y02237D02*
X03712D01*
X03726Y02251*
X02802Y02367D02*
X02895D01*
X03214Y02517D02*
X03543Y02188D01*
X03045Y02517D02*
X03214D01*
X02895Y02367D02*
X03045Y02517D01*
X03625Y02574D02*
X03664Y02536D01*
X02785Y02574D02*
X03625D01*
X02618Y02407D02*
X02785Y02574D01*
X03664Y02481D02*
Y02536D01*
X03636Y02483D02*
Y02526D01*
X03616Y02547D02*
X03636Y02526D01*
X03013Y02547D02*
X03616D01*
X02886Y02419D02*
X03013Y02547D01*
X03636Y02483D02*
X03638Y02481D01*
X02804Y02419D02*
X02886D01*
X02618Y02318D02*
Y02407D01*
X03543Y02188D02*
X03651D01*
X03681Y02084D02*
X03826D01*
X03651Y02114D02*
X03681Y02084D01*
X03651Y02114D02*
Y02188D01*
X03856Y02113D02*
Y02188D01*
X03826Y02084D02*
X03856Y02113D01*
X02657Y02122D02*
X02803D01*
X02598Y02181D02*
X02657Y02122D01*
X02505Y02181D02*
X02598D01*
X02476Y02238D02*
X02586D01*
X02803Y02122D02*
X0295Y02269D01*
X03018*
X02586Y02238D02*
X02673Y02151D01*
X02765*
X02933Y02319*
X03018*
X02566Y01931D02*
Y0207D01*
X02535Y02269D02*
X02724D01*
X00143Y03679D02*
X00192Y03727D01*
X00143Y03381D02*
Y03679D01*
Y03381D02*
X0024Y03285D01*
X00192Y03727D02*
X0025D01*
X00169Y03553D02*
X00193Y03577D01*
X00169Y03399D02*
Y03553D01*
Y03399D02*
X00269Y03299D01*
X00193Y03577D02*
X0025D01*
X02566Y01931D02*
X026Y01897D01*
X02535Y01909D02*
X02578Y01866D01*
X0247Y02031D02*
X02505Y01996D01*
Y01887D02*
Y01996D01*
Y01887D02*
X02562Y0183D01*
X02647*
X02578Y01866D02*
X02618D01*
X026Y01897D02*
X02677D01*
X02025Y02031D02*
X0247D01*
X02744Y0183D02*
X02764Y01851D01*
X02647Y0183D02*
X02744D01*
X02764Y01851D02*
X02823D01*
X02618Y02318D02*
X02618Y02319D01*
X02804*
X02618Y01866D02*
X02734D01*
X02677Y02419D02*
X02753D01*
X02754Y02419*
X02804*
X02553Y01535D02*
X02588D01*
X04275Y02925D02*
X04275Y02925D01*
X03664Y02714D02*
Y02776D01*
X04275Y02893D02*
Y02922D01*
X04232Y0285D02*
X04275Y02893D01*
Y02925D02*
X04277Y02923D01*
X04275Y02925D02*
X04275Y02925D01*
Y02922D02*
X04277Y02923D01*
X04275Y02921D02*
X04275Y02922D01*
Y02925D02*
Y02925D01*
Y02922D02*
Y02925D01*
X02355Y01981D02*
X02476D01*
X04395Y02895D02*
X04425Y02925D01*
X04507*
X01925Y02131D02*
X02025Y02031D01*
X00405Y02131D02*
X01925D01*
X02746Y01877D02*
X02817D01*
X02734Y01866D02*
X02746Y01877D01*
X02677Y01897D02*
X02808D01*
X02817*
X0271Y01929D02*
X02732D01*
X03748Y00226D02*
X03783D01*
X03618Y03884D02*
X03674Y03939D01*
X03618Y03799D02*
Y03884D01*
X03674Y03939D02*
Y0409D01*
X03092Y02269D02*
X03092Y02269D01*
X03018Y02269D02*
X03092D01*
X03198Y02319D02*
X03198Y02318D01*
X03018Y02319D02*
X03198D01*
X03198Y02234D02*
Y02263D01*
X03179Y02214D02*
X03198Y02234D01*
X03092Y02214D02*
X03179D01*
X02724Y02269D02*
X02724Y02269D01*
X02804*
X03783Y02324D02*
X03783Y02324D01*
Y02355*
X03783Y02355*
X02647Y02367D02*
X02802D01*
X02804Y02369*
X0393Y02257D02*
Y02294D01*
X03726Y02251D02*
Y02294D01*
X0374Y02439D02*
X03745Y02434D01*
Y02415D02*
Y02434D01*
X03781Y02415D02*
Y02432D01*
X03766Y02447D02*
X03781Y02432D01*
X03766Y02447D02*
Y02481D01*
X0374Y02439D02*
Y02481D01*
X03741Y0248*
X03715Y024D02*
Y02481D01*
Y024D02*
X03726Y02389D01*
X03766Y02481D02*
X03766Y02481D01*
X02732Y01929D02*
X02744Y01917D01*
X00355Y01781D02*
X00404Y01732D01*
X0024Y02015D02*
X00322Y01933D01*
X0024Y03285D02*
Y02015D01*
X00269Y02086D02*
Y03299D01*
Y02086D02*
X00324Y02031D01*
X00322Y01933D02*
X00403D01*
X00405Y02031D02*
X00455Y01981D01*
X00324Y02031D02*
X00405D01*
X00403Y01933D02*
X00455Y01881D01*
X02724Y02179D02*
Y02214D01*
X03092Y02179D02*
Y02214D01*
X00355Y02181D02*
X00405Y02131D01*
X02529Y02932D02*
Y02977D01*
X02529Y02977*
X0263Y02932D02*
Y02977D01*
X03203Y02977D02*
X03203Y02976D01*
X03303Y02977D02*
X03304Y02976D01*
X02578Y02932D02*
Y02976D01*
X02879Y02932D02*
Y02977D01*
X02879Y02977D02*
X02879Y02977D01*
X03053Y02975D02*
X03054Y02976D01*
X03253Y02929D02*
Y02975D01*
X03254Y02976*
X03354Y02929D02*
Y02976D01*
X02882Y01968D02*
X02907Y01994D01*
X0295*
X02974Y0197*
X02868Y01982D02*
X02882Y01968D01*
X02771Y01982D02*
X02868D01*
X02882Y01944D02*
Y01968D01*
X02974Y01877D02*
Y0197D01*
X02935Y01877D02*
X02974D01*
X02888D02*
X02935D01*
X03688Y0248D02*
X03689Y02481D01*
X03688Y02294D02*
Y0248D01*
X04038Y0242D02*
Y0249D01*
X03987Y0249D02*
X03988Y0249D01*
X03664Y02776D02*
X03664Y02776D01*
X03664Y02776D02*
Y02888D01*
X04275Y02921D02*
X04275Y02921D01*
Y02925D02*
Y02925D01*
Y02921D02*
Y02925D01*
X03653Y02899D02*
X03664Y02888D01*
X03639Y02714D02*
Y02804D01*
X03638Y02714D02*
X03639Y02714D01*
X03653Y02899D02*
Y02934D01*
X03716Y02714D02*
Y02834D01*
X03715Y02714D02*
X03716Y02714D01*
X03885Y0296D02*
X03958D01*
X03689Y02714D02*
Y02888D01*
X03653Y0296D02*
X0369D01*
X0374Y02714D02*
Y02947D01*
X03702Y02985D02*
X0374Y02947D01*
X03653Y02985D02*
X03702D01*
X04275Y02925D02*
X04275Y02925D01*
X03934Y02934D02*
X03934Y02934D01*
X03885Y02934D02*
X03934D01*
X04222Y02934D02*
X04238Y02951D01*
X04275*
X04202Y02954D02*
X04224Y02976D01*
X04275*
X03766Y02714D02*
Y02778D01*
X04225Y03052D02*
X04274D01*
X04275Y03053*
X04566Y03102D02*
Y03153D01*
X04511Y03208D02*
X04566Y03153D01*
X04511Y03208D02*
Y03212D01*
X04543Y03079D02*
X04566Y03102D01*
X04507Y03079D02*
X04543D01*
X04511Y0333D02*
Y03365D01*
Y03212D02*
Y03275D01*
X0445D02*
X04511D01*
X04317Y03079D02*
X04334Y03096D01*
Y03212*
X04275Y03079D02*
X04317D01*
X04334Y03212D02*
Y03275D01*
X04395*
X03946D02*
X03996D01*
X03996Y03275*
X04306Y0333D02*
X04334D01*
X04251Y03275D02*
X04306Y0333D01*
X04211Y03275D02*
X04251D01*
X04211Y03225D02*
Y03275D01*
X03996D02*
Y03325D01*
X0417D02*
X04211D01*
X03563Y03744D02*
X03618Y03799D01*
X03441Y038D02*
X03619Y03978D01*
X02848Y0134D02*
X02903D01*
X02841Y01333D02*
X02848Y0134D01*
X02841Y01312D02*
Y01333D01*
X02764Y01207D02*
X02795D01*
X02757Y01214D02*
X02764Y01207D01*
G54D48*
X00068Y0221D02*
Y02218D01*
Y02161D02*
Y0221D01*
X00171D02*
X00183D01*
X00163D02*
X00171D01*
X00206Y02234D02*
Y02678D01*
X00183Y0221D02*
X00206Y02234D01*
X00057Y02828D02*
X00206Y02678D01*
G54D49*
X02578Y01212D02*
X02637D01*
X02732Y01157D02*
X02757Y01131D01*
X027Y01157D02*
X02732D01*
X03492Y0059D02*
Y00625D01*
X02729Y01188D02*
X02795D01*
X02704Y01212D02*
X02729Y01188D01*
X027Y01212D02*
X02704D01*
X02772Y01266D02*
X02795D01*
X02753Y01285D02*
X02772Y01266D01*
X02821Y01312D02*
Y01341D01*
X02791Y01372D02*
X02821Y01341D01*
X02765Y01372D02*
X02791D01*
X02757Y01131D02*
X02807D01*
X02821Y01146*
Y01162*
X02637Y01157D02*
X027D01*
X02841Y01128D02*
Y01162D01*
X02637Y01212D02*
X027D01*
G54D50*
X03436Y01152D02*
X03438Y01155D01*
X03436Y01045D02*
Y01152D01*
X03438Y01155D02*
X03649D01*
X04246Y02003D02*
X04342Y021D01*
X04246Y01968D02*
Y02003D01*
X04216Y01938D02*
X04246Y01968D01*
X01586Y04226D02*
X01702Y0411D01*
X01073Y04226D02*
X01586D01*
X00938Y04091D02*
X01073Y04226D01*
X03368Y03605D02*
Y03836D01*
X0351Y036D02*
Y03712D01*
X0351Y03712*
X016Y03783D02*
Y03868D01*
X01501Y03783D02*
Y03959D01*
X01403Y03783D02*
Y0404D01*
X01387Y04173D02*
X0148Y04081D01*
Y03981D02*
Y04081D01*
Y03981D02*
X01501Y03959D01*
X016Y03868D02*
X01702Y0397D01*
Y0411*
X04342Y021D02*
X04397D01*
X0459Y02112D02*
Y02205D01*
X04603Y02218*
X04606*
X0459Y02112D02*
X04592Y02114D01*
X0351Y04036D02*
X03565Y0409D01*
X0351Y03978D02*
Y04036D01*
X03368Y03836D02*
X0351Y03978D01*
Y0377D02*
X03565Y03824D01*
X0351Y03712D02*
Y0377D01*
X01156Y04091D02*
X01238Y04173D01*
X01387*
X01352Y04091D02*
X01403Y0404D01*
X01265Y04091D02*
X01352D01*
G54D51*
X03529Y02714D02*
X03529Y02714D01*
G54D52*
X03875Y00921D02*
X03875Y0092D01*
G54D53*
X04761Y02816D03*
Y02738D03*
Y03625D03*
Y03547D03*
G54D54*
X04761Y02659D03*
Y03468D03*
G54D55*
X0422Y03775D03*
Y0409D03*
X03236Y03775D03*
Y0409D03*
X01921Y0409D03*
Y03775D03*
X02905Y0409D03*
Y03775D03*
G54D56*
X03892Y0409D03*
X03783D03*
X03674D03*
X03565D03*
X03946Y03978D03*
X03837D03*
X03728D03*
X03619D03*
X0351D03*
Y03712D03*
X03619D03*
X03728D03*
X03837D03*
X03946D03*
X03565Y03824D03*
X03674D03*
X03783D03*
X03892D03*
X02576Y03824D03*
X02467D03*
X02358D03*
X02249D03*
X02631Y03712D03*
X02522D03*
X02413D03*
X02304D03*
X02195D03*
Y03978D03*
X02304D03*
X02413D03*
X02522D03*
X02631D03*
X02249Y0409D03*
X02358D03*
X02467D03*
X02576D03*
G54D57*
X04675Y0042D03*
Y0082D03*
Y0122D03*
X03875Y0042D03*
Y0072D03*
Y0092D03*
X03586Y00127D03*
Y00324D03*
G54D58*
X02255Y00781D03*
X00355D03*
X0058Y01681D03*
X00057Y03028D03*
G54D59*
X02355Y00781D03*
X02255Y00881D03*
X02355D03*
X02255Y00981D03*
X02355D03*
X02255Y01081D03*
X02355D03*
X02255Y01181D03*
X02355D03*
X02255Y01281D03*
X02355D03*
X02255Y01381D03*
X02355D03*
X02255Y01481D03*
X02355D03*
X02255Y01581D03*
X02355D03*
X02255Y01681D03*
X02355D03*
X02255Y01781D03*
X02355D03*
X02255Y01881D03*
X02355D03*
X02255Y01981D03*
X02355D03*
X02255Y02081D03*
X02355D03*
X02255Y02181D03*
X02355D03*
X02255Y02281D03*
X02355D03*
X02255Y02381D03*
X02355D03*
X02255Y02481D03*
X02355D03*
X02255Y02581D03*
X02355D03*
X02255Y02681D03*
X02355D03*
X02255Y02781D03*
X02355D03*
X02255Y02881D03*
X02355D03*
X02255Y02981D03*
X02355D03*
X00455Y00781D03*
X00355Y00881D03*
X00455D03*
X00355Y00981D03*
X00455D03*
X00355Y01081D03*
X00455D03*
X00355Y01181D03*
X00455D03*
X00355Y01281D03*
X00455D03*
X00355Y01381D03*
X00455D03*
X00355Y01481D03*
X00455D03*
X00355Y01581D03*
X00455D03*
X00355Y01681D03*
X00455D03*
X00355Y01781D03*
X00455D03*
X00355Y01881D03*
X00455D03*
X00355Y01981D03*
X00455D03*
X00355Y02081D03*
X00455D03*
X00355Y02181D03*
X00455D03*
X00355Y02281D03*
X00455D03*
X00355Y02381D03*
X00455D03*
X00355Y02481D03*
X00455D03*
X00355Y02581D03*
X00455D03*
X00355Y02681D03*
X00455D03*
X00355Y02781D03*
X00455D03*
X00355Y02881D03*
X00455D03*
X00355Y02981D03*
X00455D03*
X0058Y01781D03*
Y01881D03*
Y01981D03*
Y02081D03*
Y02181D03*
X00057Y02528D03*
Y02628D03*
Y02728D03*
X00057Y02828D03*
X00057Y02928D03*
G54D60*
X02543Y00192D03*
X02744D03*
G54D61*
X02643Y007D03*
Y0085D03*
Y01D03*
G54D62*
X00057Y02023D03*
Y01923D03*
Y01823D03*
Y01623D03*
Y01723D03*
G54D63*
X00057Y01523D03*
G54D64*
X03449Y00127D03*
Y00324D03*
G54D65*
X00883Y03979D03*
X00993D03*
X01102D03*
X01211D03*
X0132D03*
X00938Y04091D03*
X01047D03*
X01156D03*
X01265D03*
G54D66*
X01594Y04035D03*
X00609D03*
G54D67*
X0473Y00141D03*
Y04133D03*
X00141D03*
Y00141D03*
G54D68*
X00068Y02161D03*
X04273Y01622D03*
X04222D03*
X04169D03*
X03545Y0057D03*
X0012Y03828D03*
X03472Y02481D03*
X04181Y02251D03*
X04149Y0249D03*
X04262Y02787D03*
X03529Y02673D03*
X0461Y02045D03*
X04551Y02112D03*
X04511D03*
Y02076D03*
X04822Y02187D03*
Y02218D03*
Y0225D03*
X04535Y0148D03*
X04606D03*
X0457D03*
X03938Y02812D03*
Y02381D03*
X0369Y0213D03*
X03995Y02153D03*
X04204Y03003D03*
X03956Y03158D03*
X0358Y03012D03*
X03341Y0344D03*
X034D03*
X03481D03*
X0351D03*
X0354D03*
X0337D03*
X03092Y02458D03*
X02974Y01877D03*
X0459Y02112D03*
Y02076D03*
X04551D03*
X04494Y02045D03*
X04531D03*
X0457D03*
X04765Y02047D03*
Y0208D03*
X04364Y01399D03*
Y01433D03*
X04811Y01437D03*
Y01395D03*
X01568Y03624D03*
X01627D03*
X01598D03*
X01403Y03625D03*
X01531D03*
X01501D03*
X01472D03*
X01433D03*
X01374D03*
X03238Y01805D03*
X03295Y01783D03*
X03151Y01529D03*
X03462Y01643D03*
X03501Y016D03*
Y01643D03*
Y01687D03*
X03462Y016D03*
Y01687D03*
X03423D03*
Y01643D03*
Y016D03*
X00736Y03652D03*
X002Y03527D03*
Y03476D03*
X00301Y03777D03*
X00698Y03874D03*
X00586Y03777D03*
X00686Y03529D03*
Y03477D03*
X03748Y00226D03*
X03216Y00194D03*
X03177D03*
X03359Y00626D03*
X03398D03*
X03413Y01474D03*
X03458D03*
X03629Y01472D03*
X03675D03*
X03398Y00664D03*
X03359D03*
X03187Y01435D03*
Y01474D03*
X03246Y01435D03*
Y01474D03*
X03305Y01198D03*
Y01238D03*
Y01277D03*
Y01316D03*
Y01356D03*
Y01395D03*
Y01435D03*
Y01474D03*
G54D69*
X03098Y03523D03*
X03066Y03553D03*
X03035Y03582D03*
X03003Y03612D03*
X02704Y02663D03*
X02677Y01759D03*
X03053Y02929D03*
X03104Y02927D03*
X03003D03*
X0273Y02931D03*
X02828D03*
X00259Y00935D03*
X00257Y00437D03*
X03492Y00724D03*
X00167Y0233D03*
X04631Y02356D03*
X04598Y02374D03*
X04202Y02198D03*
X03549Y01879D03*
X0374Y01909D03*
X04117Y02369D03*
X04761Y03192D03*
X03769Y01998D03*
X03548Y02237D03*
X04127Y02419D03*
X04354Y0244D03*
X02476Y02238D03*
X02505Y02181D03*
X02535Y02269D03*
X02647Y02367D03*
Y0183D03*
X02618Y02318D03*
Y01866D03*
X02677Y02419D03*
X02588Y01535D03*
X02482Y0157D03*
X04385Y02751D03*
X04232Y0285D03*
X02476Y01981D03*
X04395Y02895D03*
X03155Y0293D03*
X03054Y03239D03*
X03154D03*
X04647Y03192D03*
X03613Y02432D03*
X0271Y01929D03*
X03131Y02358D03*
X03783Y02324D03*
X03745Y02415D03*
X03781D03*
X02677Y01897D03*
X03664Y02776D03*
X03639Y02804D03*
X03716Y02834D03*
X03958Y0296D03*
X03934Y02934D03*
X04225Y03052D03*
X04556Y03041D03*
Y02989D03*
X03354Y02929D03*
X03253D03*
X03179Y02663D03*
X02879Y02932D03*
X02779D03*
X02678D03*
X02578D03*
X0263Y02932D03*
X02529Y02932D03*
X03611Y02763D03*
X03848Y02773D03*
X04088Y02753D03*
Y02442D03*
X0385Y0242D03*
X03623Y02294D03*
X03816Y0213D03*
X03855Y02334D03*
X03995Y02279D03*
X03946Y03275D03*
X04511Y03365D03*
X04422Y03212D03*
X0407Y03003D03*
X04048Y02932D03*
X0409Y03159D03*
X04143Y03531D03*
X03996Y03527D03*
X03934Y02998D03*
Y03049D03*
X0349Y02948D03*
X03818Y03295D03*
X03423Y0319D03*
X03655Y03173D03*
X03092Y02179D03*
X02724D03*
X02935Y01968D03*
X02852Y01897D03*
X04129Y02773D03*
X03253Y0324D03*
X02578Y03239D03*
X02679D03*
X02779D03*
X0288D03*
X03354Y0324D03*
X03492Y0059D03*
X02753Y01214D03*
X02841Y01128D03*
X02966Y01419D03*
Y01466D03*
Y01442D03*
Y0149D03*
X0299Y01419D03*
Y0149D03*
Y01442D03*
Y01466D03*
X02907Y00962D03*
X02931Y00938D03*
X02907D03*
X02931Y00962D03*
Y01124D03*
X02907D03*
X02931Y01458D03*
X02907D03*
Y01435D03*
X02931D03*
Y01411D03*
X02907D03*
X0282Y01383D03*
X02675Y01372D03*
X0262Y01271D03*
X02753Y01285D03*
X02757Y01131D03*
X02803Y00998D03*
Y01029D03*
X0282Y01084D03*
G54D70*
X02854Y01201D03*
X02835Y0122D03*
X02854Y01272D03*
X02887Y01201D03*
X02906Y0122D03*
Y01254D03*
X02887Y01272D03*
X02835Y01254D03*
M02*