%FSTAX23Y23*%
%MOIN*%
%SFA1B1*%

%IPPOS*%
%ADD95C,0.003937*%
%LNhardwarecontrollerpcb_mechanical_13-1*%
%LPD*%
G54D95*
X0425Y02554D02*
D01*
X0425Y02555*
X0425Y02556*
X0425Y02558*
X04249Y02559*
X04249Y0256*
X04248Y02562*
X04248Y02563*
X04247Y02564*
X04246Y02565*
X04245Y02566*
X04245Y02567*
X04244Y02568*
X04243Y02569*
X04241Y0257*
X0424Y02571*
X04239Y02571*
X04238Y02572*
X04236Y02572*
X04235Y02573*
X04234Y02573*
X04232Y02573*
X04231Y02573*
X0423*
X04228Y02573*
X04227Y02573*
X04226Y02573*
X04224Y02572*
X04223Y02572*
X04222Y02571*
X04221Y02571*
X04219Y0257*
X04218Y02569*
X04217Y02568*
X04216Y02567*
X04215Y02566*
X04214Y02565*
X04214Y02564*
X04213Y02563*
X04212Y02562*
X04212Y0256*
X04211Y02559*
X04211Y02558*
X04211Y02556*
X04211Y02555*
X04211Y02554*
X04211Y02552*
X04211Y02551*
X04211Y0255*
X04211Y02548*
X04212Y02547*
X04212Y02546*
X04213Y02544*
X04214Y02543*
X04214Y02542*
X04215Y02541*
X04216Y0254*
X04217Y02539*
X04218Y02538*
X04219Y02537*
X04221Y02537*
X04222Y02536*
X04223Y02535*
X04224Y02535*
X04226Y02535*
X04227Y02534*
X04228Y02534*
X0423Y02534*
X04231*
X04232Y02534*
X04234Y02534*
X04235Y02535*
X04236Y02535*
X04238Y02535*
X04239Y02536*
X0424Y02537*
X04241Y02537*
X04243Y02538*
X04244Y02539*
X04245Y0254*
X04245Y02541*
X04246Y02542*
X04247Y02543*
X04248Y02544*
X04248Y02546*
X04249Y02547*
X04249Y02548*
X0425Y0255*
X0425Y02551*
X0425Y02552*
X0425Y02554*
X02887Y02407D02*
D01*
X02887Y02408*
X02887Y0241*
X02887Y02411*
X02887Y02412*
X02886Y02414*
X02886Y02415*
X02885Y02416*
X02884Y02417*
X02884Y02419*
X02883Y0242*
X02882Y02421*
X02881Y02422*
X0288Y02422*
X02879Y02423*
X02877Y02424*
X02876Y02425*
X02875Y02425*
X02874Y02426*
X02872Y02426*
X02871Y02426*
X0287Y02427*
X02868Y02427*
X02867*
X02866Y02427*
X02864Y02426*
X02863Y02426*
X02862Y02426*
X0286Y02425*
X02859Y02425*
X02858Y02424*
X02857Y02423*
X02855Y02422*
X02854Y02422*
X02853Y02421*
X02853Y0242*
X02852Y02419*
X02851Y02417*
X0285Y02416*
X0285Y02415*
X02849Y02414*
X02849Y02412*
X02848Y02411*
X02848Y0241*
X02848Y02408*
X02848Y02407*
X02848Y02406*
X02848Y02404*
X02848Y02403*
X02849Y02402*
X02849Y024*
X0285Y02399*
X0285Y02398*
X02851Y02397*
X02852Y02395*
X02853Y02394*
X02853Y02393*
X02854Y02392*
X02855Y02391*
X02857Y02391*
X02858Y0239*
X02859Y02389*
X0286Y02389*
X02862Y02388*
X02863Y02388*
X02864Y02388*
X02866Y02387*
X02867Y02387*
X02868*
X0287Y02387*
X02871Y02388*
X02872Y02388*
X02874Y02388*
X02875Y02389*
X02876Y02389*
X02877Y0239*
X02879Y02391*
X0288Y02391*
X02881Y02392*
X02882Y02393*
X02883Y02394*
X02884Y02395*
X02884Y02397*
X02885Y02398*
X02886Y02399*
X02886Y024*
X02887Y02402*
X02887Y02403*
X02887Y02404*
X02887Y02406*
X02887Y02407*
X04167Y03237D02*
D01*
X04166Y03239*
X04166Y0324*
X04166Y03241*
X04166Y03243*
X04165Y03244*
X04165Y03245*
X04164Y03246*
X04164Y03248*
X04163Y03249*
X04162Y0325*
X04161Y03251*
X0416Y03252*
X04159Y03253*
X04158Y03253*
X04157Y03254*
X04155Y03255*
X04154Y03255*
X04153Y03256*
X04152Y03256*
X0415Y03257*
X04149Y03257*
X04148Y03257*
X04146*
X04145Y03257*
X04143Y03257*
X04142Y03256*
X04141Y03256*
X04139Y03255*
X04138Y03255*
X04137Y03254*
X04136Y03253*
X04135Y03253*
X04134Y03252*
X04133Y03251*
X04132Y0325*
X04131Y03249*
X0413Y03248*
X04129Y03246*
X04129Y03245*
X04128Y03244*
X04128Y03243*
X04128Y03241*
X04127Y0324*
X04127Y03239*
X04127Y03237*
X04127Y03236*
X04127Y03234*
X04128Y03233*
X04128Y03232*
X04128Y0323*
X04129Y03229*
X04129Y03228*
X0413Y03227*
X04131Y03226*
X04132Y03225*
X04133Y03223*
X04134Y03223*
X04135Y03222*
X04136Y03221*
X04137Y0322*
X04138Y03219*
X04139Y03219*
X04141Y03218*
X04142Y03218*
X04143Y03218*
X04145Y03218*
X04146Y03217*
X04148*
X04149Y03218*
X0415Y03218*
X04152Y03218*
X04153Y03218*
X04154Y03219*
X04155Y03219*
X04157Y0322*
X04158Y03221*
X04159Y03222*
X0416Y03223*
X04161Y03223*
X04162Y03225*
X04163Y03226*
X04164Y03227*
X04164Y03228*
X04165Y03229*
X04165Y0323*
X04166Y03232*
X04166Y03233*
X04166Y03234*
X04166Y03236*
X04167Y03237*
X04464Y0295D02*
D01*
X04464Y02951*
X04464Y02952*
X04463Y02954*
X04463Y02955*
X04463Y02956*
X04462Y02958*
X04461Y02959*
X04461Y0296*
X0446Y02961*
X04459Y02962*
X04458Y02963*
X04457Y02964*
X04456Y02965*
X04455Y02966*
X04454Y02967*
X04453Y02967*
X04451Y02968*
X0445Y02968*
X04449Y02969*
X04448Y02969*
X04446Y02969*
X04445Y02969*
X04443*
X04442Y02969*
X04441Y02969*
X04439Y02969*
X04438Y02968*
X04437Y02968*
X04435Y02967*
X04434Y02967*
X04433Y02966*
X04432Y02965*
X04431Y02964*
X0443Y02963*
X04429Y02962*
X04428Y02961*
X04427Y0296*
X04427Y02959*
X04426Y02958*
X04426Y02956*
X04425Y02955*
X04425Y02954*
X04425Y02952*
X04424Y02951*
X04424Y0295*
X04424Y02948*
X04425Y02947*
X04425Y02946*
X04425Y02944*
X04426Y02943*
X04426Y02942*
X04427Y02941*
X04427Y02939*
X04428Y02938*
X04429Y02937*
X0443Y02936*
X04431Y02935*
X04432Y02934*
X04433Y02933*
X04434Y02933*
X04435Y02932*
X04437Y02932*
X04438Y02931*
X04439Y02931*
X04441Y0293*
X04442Y0293*
X04443Y0293*
X04445*
X04446Y0293*
X04448Y0293*
X04449Y02931*
X0445Y02931*
X04451Y02932*
X04453Y02932*
X04454Y02933*
X04455Y02933*
X04456Y02934*
X04457Y02935*
X04458Y02936*
X04459Y02937*
X0446Y02938*
X04461Y02939*
X04461Y02941*
X04462Y02942*
X04463Y02943*
X04463Y02944*
X04463Y02946*
X04464Y02947*
X04464Y02948*
X04464Y0295*
X0397Y02554D02*
D01*
X0397Y02555*
X03969Y02557*
X03969Y02558*
X03969Y0256*
X03968Y02561*
X03968Y02562*
X03967Y02563*
X03967Y02565*
X03966Y02566*
X03965Y02567*
X03964Y02568*
X03963Y02569*
X03962Y0257*
X03961Y0257*
X0396Y02571*
X03959Y02572*
X03957Y02572*
X03956Y02573*
X03955Y02573*
X03953Y02573*
X03952Y02574*
X03951Y02574*
X03949*
X03948Y02574*
X03947Y02573*
X03945Y02573*
X03944Y02573*
X03943Y02572*
X03941Y02572*
X0394Y02571*
X03939Y0257*
X03938Y0257*
X03937Y02569*
X03936Y02568*
X03935Y02567*
X03934Y02566*
X03933Y02565*
X03933Y02563*
X03932Y02562*
X03931Y02561*
X03931Y0256*
X03931Y02558*
X0393Y02557*
X0393Y02555*
X0393Y02554*
X0393Y02553*
X0393Y02551*
X03931Y0255*
X03931Y02549*
X03931Y02547*
X03932Y02546*
X03933Y02545*
X03933Y02544*
X03934Y02543*
X03935Y02541*
X03936Y0254*
X03937Y02539*
X03938Y02539*
X03939Y02538*
X0394Y02537*
X03941Y02536*
X03943Y02536*
X03944Y02535*
X03945Y02535*
X03947Y02535*
X03948Y02535*
X03949Y02534*
X03951*
X03952Y02535*
X03953Y02535*
X03955Y02535*
X03956Y02535*
X03957Y02536*
X03959Y02536*
X0396Y02537*
X03961Y02538*
X03962Y02539*
X03963Y02539*
X03964Y0254*
X03965Y02541*
X03966Y02543*
X03967Y02544*
X03967Y02545*
X03968Y02546*
X03968Y02547*
X03969Y02549*
X03969Y0255*
X03969Y02551*
X0397Y02553*
X0397Y02554*
X03842Y02959D02*
D01*
X03842Y0296*
X03842Y02961*
X03841Y02963*
X03841Y02964*
X03841Y02965*
X0384Y02967*
X03839Y02968*
X03839Y02969*
X03838Y0297*
X03837Y02971*
X03836Y02972*
X03835Y02973*
X03834Y02974*
X03833Y02975*
X03832Y02976*
X03831Y02976*
X03829Y02977*
X03828Y02977*
X03827Y02978*
X03825Y02978*
X03824Y02978*
X03823Y02978*
X03821*
X0382Y02978*
X03819Y02978*
X03817Y02978*
X03816Y02977*
X03815Y02977*
X03813Y02976*
X03812Y02976*
X03811Y02975*
X0381Y02974*
X03809Y02973*
X03808Y02972*
X03807Y02971*
X03806Y0297*
X03805Y02969*
X03805Y02968*
X03804Y02967*
X03804Y02965*
X03803Y02964*
X03803Y02963*
X03803Y02961*
X03802Y0296*
X03802Y02959*
X03802Y02957*
X03803Y02956*
X03803Y02955*
X03803Y02953*
X03804Y02952*
X03804Y02951*
X03805Y02949*
X03805Y02948*
X03806Y02947*
X03807Y02946*
X03808Y02945*
X03809Y02944*
X0381Y02943*
X03811Y02942*
X03812Y02942*
X03813Y02941*
X03815Y0294*
X03816Y0294*
X03817Y0294*
X03819Y02939*
X0382Y02939*
X03821Y02939*
X03823*
X03824Y02939*
X03825Y02939*
X03827Y0294*
X03828Y0294*
X03829Y0294*
X03831Y02941*
X03832Y02942*
X03833Y02942*
X03834Y02943*
X03835Y02944*
X03836Y02945*
X03837Y02946*
X03838Y02947*
X03839Y02948*
X03839Y02949*
X0384Y02951*
X03841Y02952*
X03841Y02953*
X03841Y02955*
X03842Y02956*
X03842Y02957*
X03842Y02959*
X03627Y02544D02*
D01*
X03627Y02546*
X03627Y02547*
X03627Y02548*
X03626Y0255*
X03626Y02551*
X03625Y02552*
X03625Y02553*
X03624Y02555*
X03623Y02556*
X03623Y02557*
X03622Y02558*
X03621Y02559*
X0362Y0256*
X03618Y02561*
X03617Y02561*
X03616Y02562*
X03615Y02562*
X03614Y02563*
X03612Y02563*
X03611Y02564*
X0361Y02564*
X03608Y02564*
X03607*
X03605Y02564*
X03604Y02564*
X03603Y02563*
X03601Y02563*
X036Y02562*
X03599Y02562*
X03598Y02561*
X03596Y02561*
X03595Y0256*
X03594Y02559*
X03593Y02558*
X03592Y02557*
X03592Y02556*
X03591Y02555*
X0359Y02553*
X03589Y02552*
X03589Y02551*
X03589Y0255*
X03588Y02548*
X03588Y02547*
X03588Y02546*
X03588Y02544*
X03588Y02543*
X03588Y02542*
X03588Y0254*
X03589Y02539*
X03589Y02538*
X03589Y02536*
X0359Y02535*
X03591Y02534*
X03592Y02533*
X03592Y02532*
X03593Y02531*
X03594Y0253*
X03595Y02529*
X03596Y02528*
X03598Y02527*
X03599Y02527*
X036Y02526*
X03601Y02526*
X03603Y02525*
X03604Y02525*
X03605Y02525*
X03607Y02525*
X03608*
X0361Y02525*
X03611Y02525*
X03612Y02525*
X03614Y02526*
X03615Y02526*
X03616Y02527*
X03617Y02527*
X03618Y02528*
X0362Y02529*
X03621Y0253*
X03622Y02531*
X03623Y02532*
X03623Y02533*
X03624Y02534*
X03625Y02535*
X03625Y02536*
X03626Y02538*
X03626Y02539*
X03627Y0254*
X03627Y02542*
X03627Y02543*
X03627Y02544*
X00155Y02184D02*
Y02237D01*
X00084Y02184D02*
Y02237D01*
Y02184D02*
X00155D01*
X00084Y02237D02*
X00155D01*
X0337Y01509D02*
Y01777D01*
X03519Y01509D02*
Y01777D01*
X0337D02*
X03519D01*
X0337Y01509D02*
X03519D01*
X02791Y01316D02*
X02949D01*
Y01157D02*
Y01316D01*
X02791Y01157D02*
Y01316D01*
X02792Y01157D02*
X02949D01*
X04195Y02518D02*
X04392D01*
X04195Y02676D02*
X04392D01*
X04195Y02518D02*
Y02676D01*
X04392Y02518D02*
Y02676D01*
X02832Y02246D02*
Y02442D01*
X0299Y02246D02*
Y02442D01*
X02832D02*
X0299D01*
X02832Y02246D02*
X0299D01*
X03834Y02275D02*
X03952D01*
X03834Y02208D02*
X03952D01*
Y02275*
X03834Y02208D02*
Y02275D01*
X04182Y03202D02*
Y03399D01*
X04025Y03202D02*
Y03399D01*
Y03202D02*
X04182D01*
X04025Y03399D02*
X04182D01*
X0448Y02914D02*
Y03115D01*
X04302Y02914D02*
Y03115D01*
Y02914D02*
X0448D01*
X04302Y03115D02*
X0448D01*
X03915Y02519D02*
X04111D01*
X03915Y02676D02*
X04111D01*
X03915Y02519D02*
Y02676D01*
X04111Y02519D02*
Y02676D01*
X03629Y02275D02*
X03747D01*
X03629Y02208D02*
X03747D01*
Y02275*
X03629Y02208D02*
Y02275D01*
X03857Y02923D02*
Y03124D01*
X0368Y02923D02*
Y03124D01*
Y02923D02*
X03857D01*
X0368Y03124D02*
X03857D01*
X03572Y02509D02*
X03832D01*
X03572Y02686D02*
X03832D01*
X03572Y02509D02*
Y02686D01*
X03832Y02509D02*
Y02686D01*
X00159Y00419D02*
Y00454D01*
X00226Y00419D02*
Y00454D01*
X00159D02*
X00226D01*
X00159Y00419D02*
X00226D01*
X00159Y00669D02*
Y00704D01*
X00226Y00669D02*
Y00704D01*
X00159D02*
X00226D01*
X00159Y00669D02*
X00226D01*
X00159Y00917D02*
Y00952D01*
X00226Y00917D02*
Y00952D01*
X00159D02*
X00226D01*
X00159Y00917D02*
X00226D01*
X00159Y01165D02*
Y012D01*
X00226Y01165D02*
Y012D01*
X00159D02*
X00226D01*
X00159Y01165D02*
X00226D01*
X00053Y02312D02*
Y02348D01*
X0012Y02312D02*
Y02348D01*
X00053D02*
X0012D01*
X00053Y02312D02*
X0012D01*
X04102Y02181D02*
Y02216D01*
X04169Y02181D02*
Y02216D01*
X04102D02*
X04169D01*
X04102Y02181D02*
X04169D01*
X04392Y02125D02*
X04475D01*
X04392Y02074D02*
X04475D01*
X04392D02*
Y02125D01*
X04475Y02074D02*
Y02125D01*
X03474Y0062D02*
X03509D01*
X03474Y00687D02*
X03509D01*
X03474Y0062D02*
Y00687D01*
X03509Y0062D02*
Y00687D01*
X03844Y00208D02*
Y00244D01*
X03777Y00208D02*
Y00244D01*
Y00208D02*
X03844D01*
X03777Y00244D02*
X03844D01*
X02561Y01206D02*
X02596D01*
X02561Y01273D02*
X02596D01*
X02561Y01206D02*
Y01273D01*
X02596Y01206D02*
Y01273D01*
X02771Y01354D02*
Y01389D01*
X02704Y01354D02*
Y01389D01*
Y01354D02*
X02771D01*
X02704Y01389D02*
X02771D01*
X02683Y01151D02*
X02718D01*
X02683Y01218D02*
X02718D01*
X02683Y01151D02*
Y01218D01*
X02718Y01151D02*
Y01218D01*
X03163Y00086D02*
X03198D01*
X03163Y00153D02*
X03198D01*
X03163Y00086D02*
Y00153D01*
X03198Y00086D02*
Y00153D01*
X0346Y00966D02*
Y01049D01*
X03409Y00966D02*
Y01049D01*
X0346*
X03409Y00966D02*
X0346D01*
X04629Y03226D02*
X04665D01*
X04629Y03293D02*
X04665D01*
X04629Y03226D02*
Y03293D01*
X04665Y03226D02*
Y03293D01*
X04744Y03226D02*
X04779D01*
X04744Y03293D02*
X04779D01*
X04744Y03226D02*
Y03293D01*
X04779Y03226D02*
Y03293D01*
X00749Y03606D02*
X00832D01*
X00749Y03555D02*
X00832D01*
X00749D02*
Y03606D01*
X00832Y03555D02*
Y03606D01*
X0075Y03697D02*
X00833D01*
X0075Y03748D02*
X00833D01*
Y03697D02*
Y03748D01*
X0075Y03697D02*
Y03748D01*
X03074Y02208D02*
X0311D01*
X03074Y02275D02*
X0311D01*
X03074Y02208D02*
Y02275D01*
X0311Y02208D02*
Y02275D01*
X03181Y02257D02*
X03216D01*
X03181Y02324D02*
X03216D01*
X03181Y02257D02*
Y02324D01*
X03216Y02257D02*
Y02324D01*
X02706Y02208D02*
X02742D01*
X02706Y02275D02*
X02742D01*
X02706Y02208D02*
Y02275D01*
X02742Y02208D02*
Y02275D01*
X02753Y01988D02*
X02789D01*
X02753Y01921D02*
X02789D01*
Y01988*
X02753Y01921D02*
Y01988D01*
X02464Y01474D02*
X025D01*
X02464Y01541D02*
X025D01*
X02464Y01474D02*
Y01541D01*
X025Y01474D02*
Y01541D01*
X02535Y01474D02*
X0257D01*
X02535Y01541D02*
X0257D01*
X02535Y01474D02*
Y01541D01*
X0257Y01474D02*
Y01541D01*
X04493Y03269D02*
X04529D01*
X04493Y03336D02*
X04529D01*
X04493Y03269D02*
Y03336D01*
X04529Y03269D02*
Y03336D01*
X04316Y03269D02*
X04352D01*
X04316Y03336D02*
X04352D01*
X04316Y03269D02*
Y03336D01*
X04352Y03269D02*
Y03336D01*
X04021Y02351D02*
Y02387D01*
X04088Y02351D02*
Y02387D01*
X04021D02*
X04088D01*
X04021Y02351D02*
X04088D01*
X03722Y02338D02*
Y02373D01*
X03789Y02338D02*
Y02373D01*
X03722D02*
X03789D01*
X03722Y02338D02*
X03789D01*
X03564Y00583D02*
Y00703D01*
X0362Y00583D02*
Y00703D01*
X03564D02*
X0362D01*
X03564Y00583D02*
X0362D01*
X01566Y0379D02*
X01633D01*
X01566Y0366D02*
X01633D01*
Y0379*
X01566Y0366D02*
Y0379D01*
X01468D02*
X01535D01*
X01468Y0366D02*
X01535D01*
Y0379*
X01468Y0366D02*
Y0379D01*
X0137D02*
X01437D01*
X0137Y0366D02*
X01437D01*
Y0379*
X0137Y0366D02*
Y0379D01*
X03477Y03607D02*
X03544D01*
X03477Y03477D02*
X03544D01*
Y03607*
X03477Y03477D02*
Y03607D01*
X03335D02*
X03402D01*
X03335Y03477D02*
X03402D01*
Y03607*
X03335Y03477D02*
Y03607D01*
X00171Y00482D02*
Y00517D01*
X00104Y00482D02*
Y00517D01*
Y00482D02*
X00171D01*
X00104Y00517D02*
X00171D01*
Y00732D02*
Y00767D01*
X00104Y00732D02*
Y00767D01*
Y00732D02*
X00171D01*
X00104Y00767D02*
X00171D01*
Y0098D02*
Y01015D01*
X00104Y0098D02*
Y01015D01*
Y0098D02*
X00171D01*
X00104Y01015D02*
X00171D01*
Y01228D02*
Y01263D01*
X00104Y01228D02*
Y01263D01*
Y01228D02*
X00171D01*
X00104Y01263D02*
X00171D01*
X04773Y02161D02*
Y02275D01*
X04592Y02161D02*
Y02275D01*
Y02161D02*
X04773D01*
X04592Y02275D02*
X04773D01*
X03073Y0158D02*
X03126D01*
X03073Y01651D02*
X03126D01*
X03073Y0158D02*
Y01651D01*
X03126Y0158D02*
Y01651D01*
X04039Y00127D02*
Y00163D01*
X03972Y00127D02*
Y00163D01*
Y00127D02*
X04039D01*
X03972Y00163D02*
X04039D01*
X0327Y00206D02*
X03323D01*
X0327Y00135D02*
X03323D01*
Y00206*
X0327Y00135D02*
Y00206D01*
X01106Y03769D02*
Y03884D01*
X00925Y03769D02*
Y03884D01*
Y03769D02*
X01106D01*
X00925Y03884D02*
X01106D01*
X03196Y01636D02*
X03263D01*
X03196Y01766D02*
X03263D01*
X03196Y01636D02*
Y01766D01*
X03263Y01636D02*
Y01766D01*
X03251Y01511D02*
Y01547D01*
X03185Y01511D02*
Y01547D01*
Y01511D02*
X03251D01*
X03185Y01547D02*
X03251D01*
X04642Y01383D02*
Y0145D01*
X04772Y01383D02*
Y0145D01*
X04642D02*
X04772D01*
X04642Y01383D02*
X04772D01*
X03677Y00852D02*
X03744D01*
X03677Y00722D02*
X03744D01*
Y00852*
X03677Y00722D02*
Y00852D01*
X04642Y02037D02*
X04725D01*
X04642Y02088D02*
X04725D01*
Y02037D02*
Y02088D01*
X04642Y02037D02*
Y02088D01*
X04404Y01442D02*
X04487D01*
X04404Y01391D02*
X04487D01*
X04404D02*
Y01442D01*
X04487Y01391D02*
Y01442D01*
X0272Y01251D02*
Y01287D01*
X02653Y01251D02*
Y01287D01*
Y01251D02*
X0272D01*
X02653Y01287D02*
X0272D01*
X0262Y01151D02*
X02655D01*
X0262Y01218D02*
X02655D01*
X0262Y01151D02*
Y01218D01*
X02655Y01151D02*
Y01218D01*
X03149Y01421D02*
Y01488D01*
X03019Y01421D02*
Y01488D01*
Y01421D02*
X03149D01*
X03019Y01488D02*
X03149D01*
X02917Y01356D02*
Y01391D01*
X0285Y01356D02*
Y01391D01*
Y01356D02*
X02917D01*
X0285Y01391D02*
X02917D01*
Y01066D02*
Y01102D01*
X0285Y01066D02*
Y01102D01*
Y01066D02*
X02917D01*
X0285Y01102D02*
X02917D01*
X02837Y01039D02*
X0292D01*
X02837Y00988D02*
X0292D01*
X02837D02*
Y01039D01*
X0292Y00988D02*
Y01039D01*
X03346Y00833D02*
X03413D01*
X03346Y00703D02*
X03413D01*
Y00833*
X03346Y00703D02*
Y00833D01*
X03163Y00365D02*
X0323D01*
X03163Y00235D02*
X0323D01*
Y00365*
X03163Y00235D02*
Y00365D01*
X04157Y02401D02*
Y02437D01*
X04224Y02401D02*
Y02437D01*
X04157D02*
X04224D01*
X04157Y02401D02*
X04224D01*
X04157Y02753D02*
Y02789D01*
X04224Y02753D02*
Y02789D01*
X04157D02*
X04224D01*
X04157Y02753D02*
X04224D01*
X00766Y03634D02*
Y03669D01*
X00833Y03634D02*
Y03669D01*
X00766D02*
X00833D01*
X00766Y03634D02*
X00833D01*
X0068Y0384D02*
X00716D01*
X0068Y03773D02*
X00716D01*
Y0384*
X0068Y03773D02*
Y0384D01*
X00161Y03768D02*
X00196D01*
X00161Y03835D02*
X00196D01*
X00161Y03768D02*
Y03835D01*
X00196Y03768D02*
Y03835D01*
X03074Y02358D02*
X0311D01*
X03074Y02425D02*
X0311D01*
X03074Y02358D02*
Y02425D01*
X0311Y02358D02*
Y02425D01*
X02917Y01938D02*
X02952D01*
X02917Y01872D02*
X02952D01*
Y01938*
X02917Y01872D02*
Y01938D01*
X03978Y03431D02*
X04013D01*
X03978Y03498D02*
X04013D01*
X03978Y03431D02*
Y03498D01*
X04013Y03431D02*
Y03498D01*
X04517Y03194D02*
Y03229D01*
X0445Y03194D02*
Y03229D01*
Y03194D02*
X04517D01*
X0445Y03229D02*
X04517D01*
X04125Y03435D02*
X04161D01*
X04125Y03501D02*
X04161D01*
X04125Y03435D02*
Y03501D01*
X04161Y03435D02*
Y03501D01*
X04389Y03257D02*
Y03292D01*
X04456Y03257D02*
Y03292D01*
X04389D02*
X04456D01*
X04389Y03257D02*
X04456D01*
X03977Y02249D02*
X04013D01*
X03977Y02182D02*
X04013D01*
Y02249*
X03977Y02182D02*
Y02249D01*
X04395Y03194D02*
Y03229D01*
X04328Y03194D02*
Y03229D01*
Y03194D02*
X04395D01*
X04328Y03229D02*
X04395D01*
X04056Y03141D02*
Y03176D01*
X03989Y03141D02*
Y03176D01*
Y03141D02*
X04056D01*
X03989Y03176D02*
X04056D01*
X04083Y02906D02*
X04166D01*
X04083Y02958D02*
X04166D01*
Y02906D02*
Y02958D01*
X04083Y02906D02*
Y02958D01*
X04167Y02985D02*
Y03021D01*
X041Y02985D02*
Y03021D01*
Y02985D02*
X04167D01*
X041Y03021D02*
X04167D01*
X03877Y02403D02*
Y02438D01*
X03944Y02403D02*
Y02438D01*
X03877D02*
X03944D01*
X03877Y02403D02*
X03944D01*
X03877Y02755D02*
Y0279D01*
X03944Y02755D02*
Y0279D01*
X03877D02*
X03944D01*
X03877Y02755D02*
X03944D01*
X03801Y03198D02*
X03836D01*
X03801Y03265D02*
X03836D01*
X03801Y03198D02*
Y03265D01*
X03836Y03198D02*
Y03265D01*
X03786Y02112D02*
Y02147D01*
X03719Y02112D02*
Y02147D01*
Y02112D02*
X03786D01*
X03719Y02147D02*
X03786D01*
X03559Y03155D02*
Y0319D01*
X03625Y03155D02*
Y0319D01*
X03559D02*
X03625D01*
X03559Y03155D02*
X03625D01*
X03519D02*
Y0319D01*
X03452Y03155D02*
Y0319D01*
Y03155D02*
X03519D01*
X03452Y0319D02*
X03519D01*
X03502Y0287D02*
X03585D01*
X03502Y02921D02*
X03585D01*
Y0287D02*
Y02921D01*
X03502Y0287D02*
Y02921D01*
X03586Y02947D02*
Y02982D01*
X03519Y02947D02*
Y02982D01*
Y02947D02*
X03586D01*
X03519Y02982D02*
X03586D01*
X03511Y02708D02*
X03546D01*
X03511Y02775D02*
X03546D01*
X03511Y02708D02*
Y02775D01*
X03546Y02708D02*
Y02775D01*
X03498Y02421D02*
X03533D01*
X03498Y02488D02*
X03533D01*
X03498Y02421D02*
Y02488D01*
X03533Y02421D02*
Y02488D01*
M02*