%FSTAX23Y23*%
%MOIN*%
%SFA1B1*%

%IPPOS*%
%ADD15R,0.035433X0.035433*%
%ADD72C,0.058000*%
%ADD73R,0.058000X0.058000*%
%ADD74C,0.148000*%
%ADD75C,0.078000*%
%ADD76C,0.086740*%
%ADD77R,0.073000X0.073000*%
%ADD78C,0.073000*%
%ADD79O,0.118236X0.137921*%
%ADD80O,0.126110X0.106425*%
%ADD81C,0.068000*%
%ADD82R,0.068000X0.068000*%
%ADD83R,0.086740X0.086740*%
%ADD84C,0.082409*%
%ADD85C,0.145795*%
%ADD86C,0.279654*%
%ADD87C,0.032000*%
%ADD97R,0.029654X0.025716*%
%ADD98R,0.024606X0.032480*%
%ADD99R,0.055244X0.039496*%
%ADD100R,0.092646X0.045402*%
%ADD101R,0.092646X0.135953*%
%ADD102R,0.031496X0.013780*%
%ADD103R,0.013780X0.031496*%
%ADD104R,0.018701X0.018701*%
%ADD105R,0.052291X0.052291*%
%ADD106O,0.031622X0.065087*%
%ADD107O,0.031622X0.065087*%
%ADD108R,0.031622X0.065087*%
%ADD109R,0.065087X0.031622*%
%ADD110O,0.065087X0.031622*%
%ADD111O,0.065087X0.031622*%
%ADD112R,0.014961X0.026772*%
%ADD113R,0.026772X0.014961*%
%ADD114R,0.031622X0.047370*%
%ADD115O,0.059055X0.019685*%
%ADD116O,0.019685X0.059055*%
%ADD117R,0.035559X0.043433*%
%ADD118R,0.045402X0.059181*%
%ADD119R,0.043433X0.035559*%
%ADD120R,0.059181X0.045402*%
%ADD121R,0.043433X0.031622*%
%ADD122R,0.161937X0.155638*%
%ADD123R,0.032016X0.058000*%
%ADD124R,0.220598X0.122173*%
%ADD125R,0.080835X0.141858*%
%ADD126R,0.074929X0.049339*%
%ADD127R,0.092646X0.072961*%
%ADD128R,0.025716X0.029654*%
%ADD129R,0.106425X0.133000*%
%ADD130R,0.049339X0.074929*%
%LNhardwarecontrollerpcb_soldermask_top-1*%
%LPD*%
G36*
X02867Y01237D02*
X02867Y01237D01*
X02868Y01237*
X02868Y01236*
X02869Y01236*
X02869Y01236*
X02869Y01235*
X0287Y01235*
X0287Y01234*
X0287Y01234*
X0287Y01233*
X0287Y01233*
Y01189*
X0287Y01188*
X0287Y01188*
X0287Y01187*
X0287Y01187*
X02869Y01186*
X02869Y01186*
X02869Y01185*
X02868Y01185*
X02868Y01185*
X02867Y01185*
X02867Y01185*
X02866Y01185*
X02835*
X02834Y01185*
X02834Y01185*
X02833Y01185*
X02833Y01185*
X02832Y01185*
X02832Y01186*
X02819Y01199*
X02819Y01199*
X02819Y01199*
X02818Y012*
X02818Y012*
X02818Y01201*
X02818Y01201*
Y01233*
X02818Y01233*
X02818Y01234*
X02818Y01234*
X02819Y01235*
X02819Y01235*
X02819Y01236*
X0282Y01236*
X0282Y01236*
X0282Y01237*
X02821Y01237*
X02821Y01237*
X02822Y01237*
X02866*
X02867Y01237*
G37*
G54D15*
X02849Y01215D03*
G54D72*
X04761Y02816D03*
Y02738D03*
Y03625D03*
Y03547D03*
G54D73*
X04761Y02659D03*
Y03468D03*
G54D74*
X0422Y03775D03*
Y0409D03*
X03236Y03775D03*
Y0409D03*
X01921Y0409D03*
Y03775D03*
X02905Y0409D03*
Y03775D03*
G54D75*
X03892Y0409D03*
X03783D03*
X03674D03*
X03565D03*
X03946Y03978D03*
X03837D03*
X03728D03*
X03619D03*
X0351D03*
Y03712D03*
X03619D03*
X03728D03*
X03837D03*
X03946D03*
X03565Y03824D03*
X03674D03*
X03783D03*
X03892D03*
X02576Y03824D03*
X02467D03*
X02358D03*
X02249D03*
X02631Y03712D03*
X02522D03*
X02413D03*
X02304D03*
X02195D03*
Y03978D03*
X02304D03*
X02413D03*
X02522D03*
X02631D03*
X02249Y0409D03*
X02358D03*
X02467D03*
X02576D03*
G54D76*
X04675Y0042D03*
Y0082D03*
Y0122D03*
X03875Y0042D03*
Y0072D03*
Y0092D03*
X03586Y00127D03*
Y00324D03*
G54D77*
X02255Y00781D03*
X00355D03*
X0058Y01681D03*
X00057Y03028D03*
G54D78*
X02355Y00781D03*
X02255Y00881D03*
X02355D03*
X02255Y00981D03*
X02355D03*
X02255Y01081D03*
X02355D03*
X02255Y01181D03*
X02355D03*
X02255Y01281D03*
X02355D03*
X02255Y01381D03*
X02355D03*
X02255Y01481D03*
X02355D03*
X02255Y01581D03*
X02355D03*
X02255Y01681D03*
X02355D03*
X02255Y01781D03*
X02355D03*
X02255Y01881D03*
X02355D03*
X02255Y01981D03*
X02355D03*
X02255Y02081D03*
X02355D03*
X02255Y02181D03*
X02355D03*
X02255Y02281D03*
X02355D03*
X02255Y02381D03*
X02355D03*
X02255Y02481D03*
X02355D03*
X02255Y02581D03*
X02355D03*
X02255Y02681D03*
X02355D03*
X02255Y02781D03*
X02355D03*
X02255Y02881D03*
X02355D03*
X02255Y02981D03*
X02355D03*
X00455Y00781D03*
X00355Y00881D03*
X00455D03*
X00355Y00981D03*
X00455D03*
X00355Y01081D03*
X00455D03*
X00355Y01181D03*
X00455D03*
X00355Y01281D03*
X00455D03*
X00355Y01381D03*
X00455D03*
X00355Y01481D03*
X00455D03*
X00355Y01581D03*
X00455D03*
X00355Y01681D03*
X00455D03*
X00355Y01781D03*
X00455D03*
X00355Y01881D03*
X00455D03*
X00355Y01981D03*
X00455D03*
X00355Y02081D03*
X00455D03*
X00355Y02181D03*
X00455D03*
X00355Y02281D03*
X00455D03*
X00355Y02381D03*
X00455D03*
X00355Y02481D03*
X00455D03*
X00355Y02581D03*
X00455D03*
X00355Y02681D03*
X00455D03*
X00355Y02781D03*
X00455D03*
X00355Y02881D03*
X00455D03*
X00355Y02981D03*
X00455D03*
X0058Y01781D03*
Y01881D03*
Y01981D03*
Y02081D03*
Y02181D03*
X00057Y02528D03*
Y02628D03*
Y02728D03*
X00057Y02828D03*
X00057Y02928D03*
G54D79*
X02543Y00192D03*
X02744D03*
G54D80*
X02643Y007D03*
Y0085D03*
Y01D03*
G54D81*
X00057Y02023D03*
Y01923D03*
Y01823D03*
Y01623D03*
Y01723D03*
G54D82*
X00057Y01523D03*
G54D83*
X03449Y00127D03*
Y00324D03*
G54D84*
X00883Y03979D03*
X00993D03*
X01102D03*
X01211D03*
X0132D03*
X00938Y04091D03*
X01047D03*
X01156D03*
X01265D03*
G54D85*
X01594Y04035D03*
X00609D03*
G54D86*
X0473Y00141D03*
Y04133D03*
X00141D03*
Y00141D03*
G54D87*
X02854Y01201D03*
X02835Y0122D03*
X02854Y01272D03*
X02887Y01201D03*
X02906Y0122D03*
Y01254D03*
X02887Y01272D03*
X02835Y01254D03*
G54D97*
X00171Y0221D03*
X00068D03*
G54D98*
X03003Y03425D03*
X03035D03*
X03066D03*
X03098D03*
X03003Y03488D03*
X03035D03*
X03066D03*
X03098D03*
X02529Y03425D03*
X02561D03*
X02592D03*
X02624D03*
X02529Y03488D03*
X02561D03*
X02592D03*
X02624D03*
X02657Y02694D03*
X02688D03*
X0272D03*
X02751D03*
X02657Y02757D03*
X02688D03*
X0272D03*
X02751D03*
X03131Y02694D03*
X03163D03*
X03194D03*
X03226D03*
X03131Y02757D03*
X03163D03*
X03194D03*
X03226D03*
X03576Y03342D03*
X03545D03*
X03513D03*
X03482D03*
X03576Y03279D03*
X03545D03*
X03513D03*
X03482D03*
X039Y03586D03*
X03869D03*
X03837D03*
X03806D03*
X039Y03523D03*
X03869D03*
X03837D03*
X03806D03*
G54D99*
X0448Y02251D03*
Y02301D03*
X04232Y02251D03*
Y02301D03*
G54D100*
X0333Y01734D03*
Y01643D03*
Y01553D03*
G54D101*
X03559Y01643D03*
G54D102*
X02795Y01188D03*
Y01207D03*
Y01227D03*
Y01247D03*
Y01266D03*
Y01286D03*
X02945D03*
Y01266D03*
Y01247D03*
Y01227D03*
Y01207D03*
Y01188D03*
G54D103*
X02821Y01312D03*
X02841D03*
X0286D03*
X0288D03*
X029D03*
X02919D03*
Y01162D03*
X029D03*
X0288D03*
X0286D03*
X02841D03*
X02821D03*
G54D104*
X02798Y01165D03*
Y01309D03*
X02942D03*
Y01165D03*
G54D105*
X02896Y01263D03*
X02844D03*
X02896Y01211D03*
G54D106*
X04218Y0249D03*
X04268D03*
X04318D03*
X04368D03*
X04218Y02704D03*
X04268D03*
X04318D03*
X04368D03*
X03938Y0249D03*
X03988D03*
X04038D03*
X04088D03*
X03938Y02705D03*
X03988D03*
X04038D03*
X04088D03*
G54D107*
X03004Y02976D03*
X03054D03*
X03104D03*
X03154D03*
X03204D03*
X03254D03*
X03304D03*
X03354D03*
X03004Y0319D03*
X03054D03*
X03104D03*
X03154D03*
X03204D03*
X03254D03*
X03304D03*
X02529Y02977D03*
X02579D03*
X02629D03*
X02679D03*
X02729D03*
X02779D03*
X02829D03*
X02879D03*
X02529Y03191D03*
X02579D03*
X02629D03*
X02679D03*
X02729D03*
X02779D03*
X02829D03*
G54D108*
X03354Y0319D03*
X02879Y03191D03*
G54D109*
X0025Y03827D03*
G54D110*
X0025Y03777D03*
Y03727D03*
Y03677D03*
Y03627D03*
Y03577D03*
Y03527D03*
Y03477D03*
X00636Y03827D03*
Y03777D03*
Y03727D03*
Y03677D03*
Y03627D03*
Y03577D03*
Y03527D03*
Y03477D03*
G54D111*
X02804Y02419D03*
Y02369D03*
Y02319D03*
Y02269D03*
X03018Y02419D03*
Y02369D03*
Y02319D03*
Y02269D03*
X04211Y03225D03*
Y03275D03*
Y03325D03*
Y03375D03*
X03996Y03225D03*
Y03275D03*
Y03325D03*
Y03375D03*
G54D112*
X02823Y01851D03*
X02842D03*
X02862D03*
X02882D03*
Y01944D03*
X02862D03*
X02842D03*
X02823D03*
G54D113*
X02888Y01877D03*
Y01897D03*
Y01917D03*
X02817D03*
Y01897D03*
Y01877D03*
G54D114*
X0393Y02294D03*
X03893D03*
X03856D03*
Y02188D03*
X0393D03*
X03726Y02294D03*
X03688D03*
X03651D03*
Y02188D03*
X03726D03*
G54D115*
X04507Y02925D03*
Y02951D03*
Y02976D03*
Y03002D03*
Y03028D03*
Y03053D03*
Y03079D03*
Y03104D03*
X04275Y02925D03*
Y02951D03*
Y02976D03*
Y03002D03*
Y03028D03*
Y03053D03*
Y03079D03*
Y03104D03*
X03885Y02934D03*
Y0296D03*
Y02985D03*
Y03011D03*
Y03036D03*
Y03062D03*
Y03088D03*
Y03113D03*
X03653Y02934D03*
Y0296D03*
Y02985D03*
Y03011D03*
Y03036D03*
Y03062D03*
Y03088D03*
Y03113D03*
G54D116*
X03587Y02481D03*
X03612D03*
X03638D03*
X03664D03*
X03689D03*
X03715D03*
X0374D03*
X03766D03*
X03792D03*
X03817D03*
X03587Y02714D03*
X03612D03*
X03638D03*
X03664D03*
X03689D03*
X03715D03*
X0374D03*
X03766D03*
X03792D03*
X03817D03*
G54D117*
X00165Y00437D03*
X0022D03*
X00165Y00687D03*
X0022D03*
X00165Y00935D03*
X0022D03*
X00165Y01183D03*
X0022D03*
X00059Y0233D03*
X00114D03*
X04108Y02198D03*
X04163D03*
X03838Y00226D03*
X03783D03*
X02765Y01372D03*
X0271D03*
X04027Y02369D03*
X04082D03*
X03728Y02355D03*
X03783D03*
X00165Y005D03*
X0011D03*
X00165Y0075D03*
X0011D03*
X00165Y00998D03*
X0011D03*
X00165Y01246D03*
X0011D03*
X04033Y00145D03*
X03978D03*
X03246Y01529D03*
X0319D03*
X02714Y01269D03*
X02659D03*
X02911Y01374D03*
X02856D03*
X02911Y01084D03*
X02856D03*
X04163Y02419D03*
X04218D03*
X04163Y02771D03*
X04218D03*
X00772Y03652D03*
X00827D03*
X04511Y03212D03*
X04456D03*
X04395Y03275D03*
X0445D03*
X04389Y03212D03*
X04334D03*
X0405Y03158D03*
X03995D03*
X04161Y03003D03*
X04106D03*
X03883Y0242D03*
X03938D03*
X03883Y02773D03*
X03938D03*
X0378Y0213D03*
X03725D03*
X03564Y03173D03*
X0362D03*
X03513D03*
X03458D03*
X0358Y02965D03*
X03525D03*
G54D118*
X04397Y021D03*
X0447D03*
X00754Y03581D03*
X00827D03*
X00828Y03722D03*
X00755D03*
X0472Y02062D03*
X04647D03*
X04409Y01417D03*
X04482D03*
X02842Y01013D03*
X02915D03*
X04161Y02932D03*
X04088D03*
X0358Y02896D03*
X03507D03*
G54D119*
X03492Y00625D03*
Y00681D03*
X02578Y01212D03*
Y01267D03*
X027Y01157D03*
Y01212D03*
X03181Y00092D03*
Y00147D03*
X04647Y03232D03*
Y03287D03*
X04761Y03232D03*
Y03287D03*
X03092Y02214D03*
Y02269D03*
X03198Y02263D03*
Y02318D03*
X02724Y02214D03*
Y02269D03*
X02771Y01982D03*
Y01927D03*
X02482Y0148D03*
Y01535D03*
X02553Y0148D03*
Y01535D03*
X04511Y03275D03*
Y0333D03*
X04334Y03275D03*
Y0333D03*
X02637Y01157D03*
Y01212D03*
X00698Y03834D03*
Y03779D03*
X00178Y03774D03*
Y03829D03*
X03092Y02364D03*
Y02419D03*
X02935Y01933D03*
Y01877D03*
X03996Y03437D03*
Y03492D03*
X04143Y0344D03*
Y03496D03*
X03995Y02243D03*
Y02188D03*
X03818Y03204D03*
Y03259D03*
X03529Y02714D03*
Y02769D03*
X03515Y02427D03*
Y02482D03*
G54D120*
X03435Y01044D03*
Y00971D03*
G54D121*
X03547Y00681D03*
Y00606D03*
X03637Y00643D03*
G54D122*
X03013Y00181D03*
G54D123*
X03088Y00354D03*
X03038D03*
X02988D03*
X02938D03*
Y00105D03*
X02988D03*
X03038D03*
X03088D03*
G54D124*
X04566Y01966D03*
Y01576D03*
X0308Y0085D03*
Y0046D03*
G54D125*
X03017Y01269D03*
X03236D03*
G54D126*
X016Y03783D03*
Y03667D03*
X01501Y03783D03*
Y03667D03*
X01403Y03783D03*
Y03667D03*
X0351Y036D03*
Y03484D03*
X03368Y036D03*
Y03484D03*
X0323Y01643D03*
Y01759D03*
X0371Y00845D03*
Y00729D03*
X03379Y00826D03*
Y0071D03*
X03196Y00358D03*
Y00242D03*
G54D127*
X04759Y02218D03*
X04606D03*
X01093Y03827D03*
X00939D03*
G54D128*
X031Y01564D03*
Y01667D03*
X03297Y00222D03*
Y0012D03*
G54D129*
X04216Y01708D03*
Y01938D03*
X03649Y01385D03*
Y01155D03*
X03438Y01385D03*
Y01155D03*
G54D130*
X04649Y01417D03*
X04765D03*
X03142Y01454D03*
X03026D03*
M02*