%FSTAX23Y23*%
%MOIN*%
%SFA1B1*%

%IPPOS*%
%ADD135C,0.030000*%
%ADD136C,0.120000*%
%ADD137C,0.047000*%
%ADD138C,0.041339*%
%ADD139C,0.040000*%
%ADD140O,0.051181X0.070866*%
%ADD141O,0.070866X0.051181*%
%ADD142C,0.040000*%
%ADD143C,0.043307*%
%ADD144C,0.042913*%
%ADD145C,0.120079*%
%ADD146C,0.165354*%
%ADD147C,0.015748*%
%ADD148C,0.011811*%
%ADD149C,0.012000*%
%LNhardwarecontrollerpcb_pth_drill-1*%
%LPD*%
G54D135*
X04761Y02816D03*
Y02738D03*
Y02659D03*
Y03625D03*
Y03547D03*
Y03468D03*
G54D136*
X0422Y03775D03*
Y0409D03*
X03236Y03775D03*
Y0409D03*
X01921Y0409D03*
Y03775D03*
X02905Y0409D03*
Y03775D03*
G54D137*
X03892Y0409D03*
X03783D03*
X03674D03*
X03565D03*
X03946Y03978D03*
X03837D03*
X03728D03*
X03619D03*
X0351D03*
Y03712D03*
X03619D03*
X03728D03*
X03837D03*
X03946D03*
X03565Y03824D03*
X03674D03*
X03783D03*
X03892D03*
X02576Y03824D03*
X02467D03*
X02358D03*
X02249D03*
X02631Y03712D03*
X02522D03*
X02413D03*
X02304D03*
X02195D03*
Y03978D03*
X02304D03*
X02413D03*
X02522D03*
X02631D03*
X02249Y0409D03*
X02358D03*
X02467D03*
X02576D03*
G54D138*
X04675Y0042D03*
Y0082D03*
Y0122D03*
X03875Y0042D03*
Y0072D03*
Y0092D03*
G54D139*
X02255Y00781D03*
X02355D03*
X02255Y00881D03*
X02355D03*
X02255Y00981D03*
X02355D03*
X02255Y01081D03*
X02355D03*
X02255Y01181D03*
X02355D03*
X02255Y01281D03*
X02355D03*
X02255Y01381D03*
X02355D03*
X02255Y01481D03*
X02355D03*
X02255Y01581D03*
X02355D03*
X02255Y01681D03*
X02355D03*
X02255Y01781D03*
X02355D03*
X02255Y01881D03*
X02355D03*
X02255Y01981D03*
X02355D03*
X02255Y02081D03*
X02355D03*
X02255Y02181D03*
X02355D03*
X02255Y02281D03*
X02355D03*
X02255Y02381D03*
X02355D03*
X02255Y02481D03*
X02355D03*
X02255Y02581D03*
X02355D03*
X02255Y02681D03*
X02355D03*
X02255Y02781D03*
X02355D03*
X02255Y02881D03*
X02355D03*
X02255Y02981D03*
X02355D03*
X00355Y00781D03*
X00455D03*
X00355Y00881D03*
X00455D03*
X00355Y00981D03*
X00455D03*
X00355Y01081D03*
X00455D03*
X00355Y01181D03*
X00455D03*
X00355Y01281D03*
X00455D03*
X00355Y01381D03*
X00455D03*
X00355Y01481D03*
X00455D03*
X00355Y01581D03*
X00455D03*
X00355Y01681D03*
X00455D03*
X00355Y01781D03*
X00455D03*
X00355Y01881D03*
X00455D03*
X00355Y01981D03*
X00455D03*
X00355Y02081D03*
X00455D03*
X00355Y02181D03*
X00455D03*
X00355Y02281D03*
X00455D03*
X00355Y02381D03*
X00455D03*
X00355Y02481D03*
X00455D03*
X00355Y02581D03*
X00455D03*
X00355Y02681D03*
X00455D03*
X00355Y02781D03*
X00455D03*
X00355Y02881D03*
X00455D03*
X00355Y02981D03*
X00455D03*
X0058Y01681D03*
Y01781D03*
Y01881D03*
Y01981D03*
Y02081D03*
Y02181D03*
X00057Y02528D03*
Y02628D03*
Y02728D03*
X00057Y02828D03*
X00057Y02928D03*
Y03028D03*
G54D140*
X02543Y00192D03*
X02744D03*
G54D141*
X02643Y007D03*
Y0085D03*
Y01D03*
G54D142*
X00057Y02023D03*
Y01923D03*
Y01823D03*
Y01623D03*
Y01523D03*
Y01723D03*
G54D143*
X03449Y00127D03*
X03586D03*
X03449Y00324D03*
X03586D03*
G54D144*
X00883Y03979D03*
X00993D03*
X01102D03*
X01211D03*
X0132D03*
X00938Y04091D03*
X01047D03*
X01156D03*
X01265D03*
G54D145*
X01594Y04035D03*
X00609D03*
G54D146*
X0473Y00141D03*
Y04133D03*
X00141D03*
Y00141D03*
G54D147*
X00068Y02161D03*
X04273Y01622D03*
X04222D03*
X04169D03*
X03545Y0057D03*
X0012Y03828D03*
X03472Y02481D03*
X04181Y02251D03*
X04149Y0249D03*
X04262Y02787D03*
X03529Y02673D03*
X0461Y02045D03*
X04551Y02112D03*
X04511D03*
Y02076D03*
X04822Y02187D03*
Y02218D03*
Y0225D03*
X04535Y0148D03*
X04606D03*
X0457D03*
X03938Y02812D03*
Y02381D03*
X0369Y0213D03*
X03995Y02153D03*
X04204Y03003D03*
X03956Y03158D03*
X0358Y03012D03*
X03341Y0344D03*
X034D03*
X03481D03*
X0351D03*
X0354D03*
X0337D03*
X03092Y02458D03*
X02974Y01877D03*
X0459Y02112D03*
Y02076D03*
X04551D03*
X04494Y02045D03*
X04531D03*
X0457D03*
X04765Y02047D03*
Y0208D03*
X04364Y01399D03*
Y01433D03*
X04811Y01437D03*
Y01395D03*
X01568Y03624D03*
X01627D03*
X01598D03*
X01403Y03625D03*
X01531D03*
X01501D03*
X01472D03*
X01433D03*
X01374D03*
X03238Y01805D03*
X03295Y01783D03*
X03151Y01529D03*
X03462Y01643D03*
X03501Y016D03*
Y01643D03*
Y01687D03*
X03462Y016D03*
Y01687D03*
X03423D03*
Y01643D03*
Y016D03*
X00736Y03652D03*
X002Y03527D03*
Y03476D03*
X00301Y03777D03*
X00698Y03874D03*
X00586Y03777D03*
X00686Y03529D03*
Y03477D03*
X03748Y00226D03*
X03216Y00194D03*
X03177D03*
X03359Y00626D03*
X03398D03*
X03413Y01474D03*
X03458D03*
X03629Y01472D03*
X03675D03*
X03398Y00664D03*
X03359D03*
X03187Y01435D03*
Y01474D03*
X03246Y01435D03*
Y01474D03*
X03305Y01198D03*
Y01238D03*
Y01277D03*
Y01316D03*
Y01356D03*
Y01395D03*
Y01435D03*
Y01474D03*
G54D148*
X03098Y03523D03*
X03066Y03553D03*
X03035Y03582D03*
X03003Y03612D03*
X02704Y02663D03*
X02677Y01759D03*
X03053Y02929D03*
X03104Y02927D03*
X03003D03*
X0273Y02931D03*
X02828D03*
X00259Y00935D03*
X00257Y00437D03*
X03492Y00724D03*
X00167Y0233D03*
X04631Y02356D03*
X04598Y02374D03*
X04202Y02198D03*
X03549Y01879D03*
X0374Y01909D03*
X04117Y02369D03*
X04761Y03192D03*
X03769Y01998D03*
X03548Y02237D03*
X04127Y02419D03*
X04354Y0244D03*
X02476Y02238D03*
X02505Y02181D03*
X02535Y02269D03*
X02647Y02367D03*
Y0183D03*
X02618Y02318D03*
Y01866D03*
X02677Y02419D03*
X02588Y01535D03*
X02482Y0157D03*
X04385Y02751D03*
X04232Y0285D03*
X02476Y01981D03*
X04395Y02895D03*
X03155Y0293D03*
X03054Y03239D03*
X03154D03*
X04647Y03192D03*
X03613Y02432D03*
X0271Y01929D03*
X03131Y02358D03*
X03783Y02324D03*
X03745Y02415D03*
X03781D03*
X02677Y01897D03*
X03664Y02776D03*
X03639Y02804D03*
X03716Y02834D03*
X03958Y0296D03*
X03934Y02934D03*
X04225Y03052D03*
X04556Y03041D03*
Y02989D03*
X03354Y02929D03*
X03253D03*
X03179Y02663D03*
X02879Y02932D03*
X02779D03*
X02678D03*
X02578D03*
X0263Y02932D03*
X02529Y02932D03*
X03611Y02763D03*
X03848Y02773D03*
X04088Y02753D03*
Y02442D03*
X0385Y0242D03*
X03623Y02294D03*
X03816Y0213D03*
X03855Y02334D03*
X03995Y02279D03*
X03946Y03275D03*
X04511Y03365D03*
X04422Y03212D03*
X0407Y03003D03*
X04048Y02932D03*
X0409Y03159D03*
X04143Y03531D03*
X03996Y03527D03*
X03934Y02998D03*
Y03049D03*
X0349Y02948D03*
X03818Y03295D03*
X03423Y0319D03*
X03655Y03173D03*
X03092Y02179D03*
X02724D03*
X02935Y01968D03*
X02852Y01897D03*
X04129Y02773D03*
X03253Y0324D03*
X02578Y03239D03*
X02679D03*
X02779D03*
X0288D03*
X03354Y0324D03*
X03492Y0059D03*
X02753Y01214D03*
X02841Y01128D03*
X02966Y01419D03*
Y01466D03*
Y01442D03*
Y0149D03*
X0299Y01419D03*
Y0149D03*
Y01442D03*
Y01466D03*
X02907Y00962D03*
X02931Y00938D03*
X02907D03*
X02931Y00962D03*
Y01124D03*
X02907D03*
X02931Y01458D03*
X02907D03*
Y01435D03*
X02931D03*
Y01411D03*
X02907D03*
X0282Y01383D03*
X02675Y01372D03*
X0262Y01271D03*
X02753Y01285D03*
X02757Y01131D03*
X02803Y00998D03*
Y01029D03*
X0282Y01084D03*
G54D149*
X02854Y01201D03*
X02835Y0122D03*
X02854Y01272D03*
X02887Y01201D03*
X02906Y0122D03*
Y01254D03*
X02887Y01272D03*
X02835Y01254D03*
M02*