%FSTAX23Y23*%
%MOIN*%
%SFA1B1*%

%IPPOS*%
%ADD94C,0.005000*%
%LNhardwarecontrollerpcb_drillmap_1-1*%
%LPD*%
G54D94*
X04746Y02816D02*
X04776D01*
X04761Y02801D02*
Y02831D01*
X04746Y02738D02*
X04776D01*
X04761Y02723D02*
Y02753D01*
X04746Y02659D02*
X04776D01*
X04761Y02644D02*
Y02674D01*
X04746Y03625D02*
X04776D01*
X04761Y0361D02*
Y0364D01*
X04746Y03547D02*
X04776D01*
X04761Y03532D02*
Y03562D01*
X04746Y03468D02*
X04776D01*
X04761Y03453D02*
Y03483D01*
X0416Y03775D02*
X0428D01*
X0422Y03715D02*
Y03835D01*
X0416Y0409D02*
X0428D01*
X0422Y0403D02*
Y0415D01*
X03176Y03775D02*
X03296D01*
X03236Y03715D02*
Y03835D01*
X03176Y0409D02*
X03296D01*
X03236Y0403D02*
Y0415D01*
X03868Y0409D02*
X03915D01*
X03892Y04067D02*
Y04114D01*
X03759Y0409D02*
X03806D01*
X03783Y04067D02*
Y04114D01*
X0365Y0409D02*
X03697D01*
X03674Y04067D02*
Y04114D01*
X03541Y0409D02*
X03588D01*
X03565Y04067D02*
Y04114D01*
X03923Y03978D02*
X0397D01*
X03946Y03955D02*
Y04002D01*
X03814Y03978D02*
X03861D01*
X03837Y03955D02*
Y04002D01*
X03705Y03978D02*
X03752D01*
X03728Y03955D02*
Y04002D01*
X03596Y03978D02*
X03643D01*
X03619Y03955D02*
Y04002D01*
X03487Y03978D02*
X03534D01*
X0351Y03955D02*
Y04002D01*
X03487Y03712D02*
X03534D01*
X0351Y03689D02*
Y03736D01*
X03596Y03712D02*
X03643D01*
X03619Y03689D02*
Y03736D01*
X03705Y03712D02*
X03752D01*
X03728Y03689D02*
Y03736D01*
X03814Y03712D02*
X03861D01*
X03837Y03689D02*
Y03736D01*
X03923Y03712D02*
X0397D01*
X03946Y03689D02*
Y03736D01*
X03541Y03824D02*
X03588D01*
X03565Y03801D02*
Y03848D01*
X0365Y03824D02*
X03697D01*
X03674Y03801D02*
Y03848D01*
X03759Y03824D02*
X03806D01*
X03783Y03801D02*
Y03848D01*
X03868Y03824D02*
X03915D01*
X03892Y03801D02*
Y03848D01*
X04655Y0042D02*
X04696D01*
X04675Y00399D02*
Y00441D01*
X04655Y0082D02*
X04696D01*
X04675Y00799D02*
Y00841D01*
X04655Y0122D02*
X04696D01*
X04675Y01199D02*
Y01241D01*
X03855Y0042D02*
X03896D01*
X03875Y00399D02*
Y00441D01*
X03855Y0072D02*
X03896D01*
X03875Y00699D02*
Y00741D01*
X03855Y0092D02*
X03896D01*
X03875Y00899D02*
Y00941D01*
X02235Y00781D02*
X02275D01*
X02255Y00761D02*
Y00801D01*
X02335Y00781D02*
X02375D01*
X02355Y00761D02*
Y00801D01*
X02235Y00881D02*
X02275D01*
X02255Y00861D02*
Y00901D01*
X02335Y00881D02*
X02375D01*
X02355Y00861D02*
Y00901D01*
X02235Y00981D02*
X02275D01*
X02255Y00961D02*
Y01001D01*
X02335Y00981D02*
X02375D01*
X02355Y00961D02*
Y01001D01*
X02235Y01081D02*
X02275D01*
X02255Y01061D02*
Y01101D01*
X02335Y01081D02*
X02375D01*
X02355Y01061D02*
Y01101D01*
X02235Y01181D02*
X02275D01*
X02255Y01161D02*
Y01201D01*
X02335Y01181D02*
X02375D01*
X02355Y01161D02*
Y01201D01*
X02235Y01281D02*
X02275D01*
X02255Y01261D02*
Y01301D01*
X02335Y01281D02*
X02375D01*
X02355Y01261D02*
Y01301D01*
X02235Y01381D02*
X02275D01*
X02255Y01361D02*
Y01401D01*
X02335Y01381D02*
X02375D01*
X02355Y01361D02*
Y01401D01*
X02235Y01481D02*
X02275D01*
X02255Y01461D02*
Y01501D01*
X02335Y01481D02*
X02375D01*
X02355Y01461D02*
Y01501D01*
X02235Y01581D02*
X02275D01*
X02255Y01561D02*
Y01601D01*
X02335Y01581D02*
X02375D01*
X02355Y01561D02*
Y01601D01*
X02235Y01681D02*
X02275D01*
X02255Y01661D02*
Y01701D01*
X02335Y01681D02*
X02375D01*
X02355Y01661D02*
Y01701D01*
X02235Y01781D02*
X02275D01*
X02255Y01761D02*
Y01801D01*
X02335Y01781D02*
X02375D01*
X02355Y01761D02*
Y01801D01*
X02235Y01881D02*
X02275D01*
X02255Y01861D02*
Y01901D01*
X02335Y01881D02*
X02375D01*
X02355Y01861D02*
Y01901D01*
X02235Y01981D02*
X02275D01*
X02255Y01961D02*
Y02001D01*
X02335Y01981D02*
X02375D01*
X02355Y01961D02*
Y02001D01*
X02235Y02081D02*
X02275D01*
X02255Y02061D02*
Y02101D01*
X02335Y02081D02*
X02375D01*
X02355Y02061D02*
Y02101D01*
X02235Y02181D02*
X02275D01*
X02255Y02161D02*
Y02201D01*
X02335Y02181D02*
X02375D01*
X02355Y02161D02*
Y02201D01*
X02235Y02281D02*
X02275D01*
X02255Y02261D02*
Y02301D01*
X02335Y02281D02*
X02375D01*
X02355Y02261D02*
Y02301D01*
X02235Y02381D02*
X02275D01*
X02255Y02361D02*
Y02401D01*
X02335Y02381D02*
X02375D01*
X02355Y02361D02*
Y02401D01*
X02235Y02481D02*
X02275D01*
X02255Y02461D02*
Y02501D01*
X02335Y02481D02*
X02375D01*
X02355Y02461D02*
Y02501D01*
X02235Y02581D02*
X02275D01*
X02255Y02561D02*
Y02601D01*
X02335Y02581D02*
X02375D01*
X02355Y02561D02*
Y02601D01*
X02235Y02681D02*
X02275D01*
X02255Y02661D02*
Y02701D01*
X02335Y02681D02*
X02375D01*
X02355Y02661D02*
Y02701D01*
X02235Y02781D02*
X02275D01*
X02255Y02761D02*
Y02801D01*
X02335Y02781D02*
X02375D01*
X02355Y02761D02*
Y02801D01*
X02235Y02881D02*
X02275D01*
X02255Y02861D02*
Y02901D01*
X02335Y02881D02*
X02375D01*
X02355Y02861D02*
Y02901D01*
X02235Y02981D02*
X02275D01*
X02255Y02961D02*
Y03001D01*
X02335Y02981D02*
X02375D01*
X02355Y02961D02*
Y03001D01*
X00335Y00781D02*
X00375D01*
X00355Y00761D02*
Y00801D01*
X00435Y00781D02*
X00475D01*
X00455Y00761D02*
Y00801D01*
X00335Y00881D02*
X00375D01*
X00355Y00861D02*
Y00901D01*
X00435Y00881D02*
X00475D01*
X00455Y00861D02*
Y00901D01*
X00335Y00981D02*
X00375D01*
X00355Y00961D02*
Y01001D01*
X00435Y00981D02*
X00475D01*
X00455Y00961D02*
Y01001D01*
X00335Y01081D02*
X00375D01*
X00355Y01061D02*
Y01101D01*
X00435Y01081D02*
X00475D01*
X00455Y01061D02*
Y01101D01*
X00335Y01181D02*
X00375D01*
X00355Y01161D02*
Y01201D01*
X00435Y01181D02*
X00475D01*
X00455Y01161D02*
Y01201D01*
X00335Y01281D02*
X00375D01*
X00355Y01261D02*
Y01301D01*
X00435Y01281D02*
X00475D01*
X00455Y01261D02*
Y01301D01*
X00335Y01381D02*
X00375D01*
X00355Y01361D02*
Y01401D01*
X00435Y01381D02*
X00475D01*
X00455Y01361D02*
Y01401D01*
X00335Y01481D02*
X00375D01*
X00355Y01461D02*
Y01501D01*
X00435Y01481D02*
X00475D01*
X00455Y01461D02*
Y01501D01*
X00335Y01581D02*
X00375D01*
X00355Y01561D02*
Y01601D01*
X00435Y01581D02*
X00475D01*
X00455Y01561D02*
Y01601D01*
X00335Y01681D02*
X00375D01*
X00355Y01661D02*
Y01701D01*
X00435Y01681D02*
X00475D01*
X00455Y01661D02*
Y01701D01*
X00335Y01781D02*
X00375D01*
X00355Y01761D02*
Y01801D01*
X00435Y01781D02*
X00475D01*
X00455Y01761D02*
Y01801D01*
X00335Y01881D02*
X00375D01*
X00355Y01861D02*
Y01901D01*
X00435Y01881D02*
X00475D01*
X00455Y01861D02*
Y01901D01*
X00335Y01981D02*
X00375D01*
X00355Y01961D02*
Y02001D01*
X00435Y01981D02*
X00475D01*
X00455Y01961D02*
Y02001D01*
X00335Y02081D02*
X00375D01*
X00355Y02061D02*
Y02101D01*
X00435Y02081D02*
X00475D01*
X00455Y02061D02*
Y02101D01*
X00335Y02181D02*
X00375D01*
X00355Y02161D02*
Y02201D01*
X00435Y02181D02*
X00475D01*
X00455Y02161D02*
Y02201D01*
X00335Y02281D02*
X00375D01*
X00355Y02261D02*
Y02301D01*
X00435Y02281D02*
X00475D01*
X00455Y02261D02*
Y02301D01*
X00335Y02381D02*
X00375D01*
X00355Y02361D02*
Y02401D01*
X00435Y02381D02*
X00475D01*
X00455Y02361D02*
Y02401D01*
X00335Y02481D02*
X00375D01*
X00355Y02461D02*
Y02501D01*
X00435Y02481D02*
X00475D01*
X00455Y02461D02*
Y02501D01*
X00335Y02581D02*
X00375D01*
X00355Y02561D02*
Y02601D01*
X00435Y02581D02*
X00475D01*
X00455Y02561D02*
Y02601D01*
X00335Y02681D02*
X00375D01*
X00355Y02661D02*
Y02701D01*
X00435Y02681D02*
X00475D01*
X00455Y02661D02*
Y02701D01*
X00335Y02781D02*
X00375D01*
X00355Y02761D02*
Y02801D01*
X00435Y02781D02*
X00475D01*
X00455Y02761D02*
Y02801D01*
X00335Y02881D02*
X00375D01*
X00355Y02861D02*
Y02901D01*
X00435Y02881D02*
X00475D01*
X00455Y02861D02*
Y02901D01*
X00335Y02981D02*
X00375D01*
X00355Y02961D02*
Y03001D01*
X00435Y02981D02*
X00475D01*
X00455Y02961D02*
Y03001D01*
X0056Y01681D02*
X006D01*
X0058Y01661D02*
Y01701D01*
X0056Y01781D02*
X006D01*
X0058Y01761D02*
Y01801D01*
X0056Y01881D02*
X006D01*
X0058Y01861D02*
Y01901D01*
X0056Y01981D02*
X006D01*
X0058Y01961D02*
Y02001D01*
X0056Y02081D02*
X006D01*
X0058Y02061D02*
Y02101D01*
X0056Y02181D02*
X006D01*
X0058Y02161D02*
Y02201D01*
X02517Y00192D02*
X02568D01*
X02543Y00167D02*
Y00218D01*
X02718Y00192D02*
X02769D01*
X02744Y00167D02*
Y00218D01*
X02618Y007D02*
X02669D01*
X02643Y00674D02*
Y00725D01*
X02618Y0085D02*
X02669D01*
X02643Y00824D02*
Y00875D01*
X02618Y01D02*
X02669D01*
X02643Y00974D02*
Y01025D01*
X00037Y02528D02*
X00077D01*
X00057Y02508D02*
Y02548D01*
X00037Y02628D02*
X00077D01*
X00057Y02608D02*
Y02648D01*
X00037Y02728D02*
X00077D01*
X00057Y02708D02*
Y02748D01*
X00037Y02828D02*
X00077D01*
X00057Y02808D02*
Y02848D01*
X00037Y02928D02*
X00077D01*
X00057Y02908D02*
Y02948D01*
X00037Y03028D02*
X00077D01*
X00057Y03008D02*
Y03048D01*
X00037Y02023D02*
X00077D01*
X00057Y02003D02*
Y02043D01*
X00037Y01923D02*
X00077D01*
X00057Y01903D02*
Y01943D01*
X00037Y01823D02*
X00077D01*
X00057Y01803D02*
Y01843D01*
X00037Y01623D02*
X00077D01*
X00057Y01603D02*
Y01643D01*
X00037Y01523D02*
X00077D01*
X00057Y01503D02*
Y01543D01*
X00037Y01723D02*
X00077D01*
X00057Y01703D02*
Y01743D01*
X03427Y00127D02*
X0347D01*
X03449Y00106D02*
Y00149D01*
X03565Y00127D02*
X03608D01*
X03586Y00106D02*
Y00149D01*
X03427Y00324D02*
X0347D01*
X03449Y00303D02*
Y00346D01*
X03565Y00324D02*
X03608D01*
X03586Y00303D02*
Y00346D01*
X02553Y03824D02*
X026D01*
X02576Y038D02*
Y03847D01*
X02444Y03824D02*
X02491D01*
X02467Y038D02*
Y03847D01*
X02335Y03824D02*
X02382D01*
X02358Y038D02*
Y03847D01*
X02226Y03824D02*
X02273D01*
X02249Y038D02*
Y03847D01*
X02607Y03712D02*
X02654D01*
X02631Y03688D02*
Y03735D01*
X02498Y03712D02*
X02545D01*
X02522Y03688D02*
Y03735D01*
X02389Y03712D02*
X02436D01*
X02413Y03688D02*
Y03735D01*
X0228Y03712D02*
X02327D01*
X02304Y03688D02*
Y03735D01*
X02171Y03712D02*
X02218D01*
X02195Y03688D02*
Y03735D01*
X02171Y03978D02*
X02218D01*
X02195Y03954D02*
Y04001D01*
X0228Y03978D02*
X02327D01*
X02304Y03954D02*
Y04001D01*
X02389Y03978D02*
X02436D01*
X02413Y03954D02*
Y04001D01*
X02498Y03978D02*
X02545D01*
X02522Y03954D02*
Y04001D01*
X02607Y03978D02*
X02654D01*
X02631Y03954D02*
Y04001D01*
X02226Y0409D02*
X02273D01*
X02249Y04066D02*
Y04113D01*
X02335Y0409D02*
X02382D01*
X02358Y04066D02*
Y04113D01*
X02444Y0409D02*
X02491D01*
X02467Y04066D02*
Y04113D01*
X02553Y0409D02*
X026D01*
X02576Y04066D02*
Y04113D01*
X01861Y0409D02*
X01981D01*
X01921Y0403D02*
Y0415D01*
X01861Y03775D02*
X01981D01*
X01921Y03715D02*
Y03835D01*
X02845Y0409D02*
X02965D01*
X02905Y0403D02*
Y0415D01*
X02845Y03775D02*
X02965D01*
X02905Y03715D02*
Y03835D01*
X00862Y03979D02*
X00905D01*
X00883Y03958D02*
Y04001D01*
X00971Y03979D02*
X01014D01*
X00993Y03958D02*
Y04001D01*
X0108Y03979D02*
X01123D01*
X01102Y03958D02*
Y04001D01*
X01189Y03979D02*
X01232D01*
X01211Y03958D02*
Y04001D01*
X01298Y03979D02*
X01341D01*
X0132Y03958D02*
Y04001D01*
X00917Y04091D02*
X00959D01*
X00938Y0407D02*
Y04113D01*
X01026Y04091D02*
X01068D01*
X01047Y0407D02*
Y04113D01*
X01135Y04091D02*
X01178D01*
X01156Y0407D02*
Y04113D01*
X01244Y04091D02*
X01287D01*
X01265Y0407D02*
Y04113D01*
X01534Y04035D02*
X01654D01*
X01594Y03975D02*
Y04095D01*
X00549Y04035D02*
X00669D01*
X00609Y03975D02*
Y04095D01*
X04647Y00141D02*
X04812D01*
X0473Y00059D02*
Y00224D01*
X04647Y04133D02*
X04812D01*
X0473Y04051D02*
Y04216D01*
X00059Y04133D02*
X00224D01*
X00141Y04051D02*
Y04216D01*
X00059Y00141D02*
X00224D01*
X00141Y00059D02*
Y00224D01*
X00061Y02161D02*
X00076D01*
X00068Y02153D02*
Y02169D01*
X03092Y03523D02*
X03104D01*
X03098Y03517D02*
Y03529D01*
X03061Y03553D02*
X03072D01*
X03066Y03547D02*
Y03559D01*
X03029Y03582D02*
X03041D01*
X03035Y03576D02*
Y03588D01*
X02998Y03612D02*
X03009D01*
X03003Y03606D02*
Y03618D01*
X02698Y02663D02*
X0271D01*
X02704Y02657D02*
Y02669D01*
X02848Y01201D02*
X0286D01*
X02854Y01195D02*
Y01207D01*
X02829Y0122D02*
X02841D01*
X02835Y01214D02*
Y01226D01*
X02848Y01272D02*
X0286D01*
X02854Y01266D02*
Y01278D01*
X02881Y01201D02*
X02893D01*
X02887Y01195D02*
Y01207D01*
X029Y0122D02*
X02912D01*
X02906Y01214D02*
Y01226D01*
X029Y01254D02*
X02912D01*
X02906Y01248D02*
Y0126D01*
X02881Y01272D02*
X02893D01*
X02887Y01266D02*
Y01278D01*
X02829Y01254D02*
X02841D01*
X02835Y01248D02*
Y0126D01*
X04265Y01622D02*
X04281D01*
X04273Y01614D02*
Y01629D01*
X04214Y01622D02*
X0423D01*
X04222Y01614D02*
Y01629D01*
X04161Y01622D02*
X04177D01*
X04169Y01614D02*
Y01629D01*
X02671Y01759D02*
X02683D01*
X02677Y01753D02*
Y01765D01*
X03047Y02929D02*
X03059D01*
X03053Y02923D02*
Y02935D01*
X03098Y02927D02*
X0311D01*
X03104Y02921D02*
Y02933D01*
X02998Y02927D02*
X03009D01*
X03003Y02921D02*
Y02933D01*
X02724Y02931D02*
X02736D01*
X0273Y02925D02*
Y02937D01*
X02822Y02931D02*
X02834D01*
X02828Y02925D02*
Y02937D01*
X00253Y00935D02*
X00265D01*
X00259Y00929D02*
Y0094D01*
X00251Y00437D02*
X00263D01*
X00257Y00431D02*
Y00442D01*
X03486Y00724D02*
X03498D01*
X03492Y00718D02*
Y0073D01*
X03537Y0057D02*
X03553D01*
X03545Y00562D02*
Y00578D01*
X00112Y03828D02*
X00127D01*
X0012Y0382D02*
Y03836D01*
X00161Y0233D02*
X00173D01*
X00167Y02324D02*
Y02336D01*
X04625Y02356D02*
X04637D01*
X04631Y0235D02*
Y02362D01*
X04592Y02374D02*
X04604D01*
X04598Y02368D02*
Y02379D01*
X03464Y02481D02*
X03479D01*
X03472Y02474D02*
Y02489D01*
X04196Y02198D02*
X04208D01*
X04202Y02192D02*
Y02204D01*
X04173Y02251D02*
X04188D01*
X04181Y02244D02*
Y02259D01*
X03543Y01879D02*
X03555D01*
X03549Y01874D02*
Y01885D01*
X03734Y01909D02*
X03746D01*
X0374Y01903D02*
Y01915D01*
X04111Y02369D02*
X04123D01*
X04117Y02363D02*
Y02375D01*
X04141Y0249D02*
X04157D01*
X04149Y02482D02*
Y02498D01*
X04755Y03192D02*
X04767D01*
X04761Y03187D02*
Y03198D01*
X04254Y02787D02*
X0427D01*
X04262Y02779D02*
Y02795D01*
X03763Y01998D02*
X03775D01*
X03769Y01992D02*
Y02003D01*
X03542Y02237D02*
X03554D01*
X03548Y02231D02*
Y02243D01*
X04122Y02419D02*
X04133D01*
X04127Y02413D02*
Y02425D01*
X04348Y0244D02*
X0436D01*
X04354Y02435D02*
Y02446D01*
X0247Y02238D02*
X02482D01*
X02476Y02232D02*
Y02244D01*
X025Y02181D02*
X02511D01*
X02505Y02175D02*
Y02187D01*
X02529Y02269D02*
X02541D01*
X02535Y02263D02*
Y02275D01*
X03521Y02673D02*
X03537D01*
X03529Y02665D02*
Y02681D01*
X02641Y02367D02*
X02653D01*
X02647Y02361D02*
Y02373D01*
X02641Y0183D02*
X02653D01*
X02647Y01824D02*
Y01836D01*
X02612Y02318D02*
X02624D01*
X02618Y02312D02*
Y02324D01*
X02612Y01866D02*
X02624D01*
X02618Y0186D02*
Y01872D01*
X02671Y02419D02*
X02683D01*
X02677Y02413D02*
Y02425D01*
X02582Y01535D02*
X02594D01*
X02588Y01529D02*
Y01541D01*
X02476Y0157D02*
X02488D01*
X02482Y01564D02*
Y01576D01*
X04602Y02045D02*
X04618D01*
X0461Y02037D02*
Y02053D01*
X04379Y02751D02*
X04391D01*
X04385Y02746D02*
Y02757D01*
X04226Y0285D02*
X04238D01*
X04232Y02844D02*
Y02856D01*
X04543Y02112D02*
X04559D01*
X04551Y02104D02*
Y0212D01*
X04503Y02112D02*
X04519D01*
X04511Y02104D02*
Y0212D01*
X0247Y01981D02*
X02482D01*
X02476Y01975D02*
Y01987D01*
X04389Y02895D02*
X04401D01*
X04395Y02889D02*
Y02901D01*
X04503Y02076D02*
X04519D01*
X04511Y02068D02*
Y02084D01*
X03149Y0293D02*
X0316D01*
X03155Y02924D02*
Y02936D01*
X03048Y03239D02*
X0306D01*
X03054Y03233D02*
Y03245D01*
X03148Y03239D02*
X0316D01*
X03154Y03233D02*
Y03245D01*
X04641Y03192D02*
X04653D01*
X04647Y03187D02*
Y03198D01*
X03607Y02432D02*
X03619D01*
X03613Y02426D02*
Y02438D01*
X04814Y02187D02*
X0483D01*
X04822Y02179D02*
Y02194D01*
X04814Y02218D02*
X0483D01*
X04822Y0221D02*
Y02226D01*
X04814Y0225D02*
X0483D01*
X04822Y02242D02*
Y02257D01*
X02704Y01929D02*
X02716D01*
X0271Y01923D02*
Y01935D01*
X03125Y02358D02*
X03137D01*
X03131Y02352D02*
Y02364D01*
X03777Y02324D02*
X03788D01*
X03783Y02318D02*
Y0233D01*
X03739Y02415D02*
X03751D01*
X03745Y02409D02*
Y0242D01*
X03775Y02415D02*
X03786D01*
X03781Y02409D02*
Y0242D01*
X02671Y01897D02*
X02683D01*
X02677Y01891D02*
Y01903D01*
X03658Y02776D02*
X0367D01*
X03664Y0277D02*
Y02781D01*
X03633Y02804D02*
X03645D01*
X03639Y02798D02*
Y0281D01*
X0371Y02834D02*
X03722D01*
X03716Y02828D02*
Y0284D01*
X03952Y0296D02*
X03963D01*
X03958Y02954D02*
Y02966D01*
X03928Y02934D02*
X0394D01*
X03934Y02928D02*
Y0294D01*
X0422Y03052D02*
X04231D01*
X04225Y03046D02*
Y03058D01*
X0455Y03041D02*
X04562D01*
X04556Y03035D02*
Y03046D01*
X0455Y02989D02*
X04562D01*
X04556Y02983D02*
Y02995D01*
X04527Y0148D02*
X04543D01*
X04535Y01472D02*
Y01488D01*
X04598Y0148D02*
X04614D01*
X04606Y01472D02*
Y01488D01*
X04562Y0148D02*
X04578D01*
X0457Y01472D02*
Y01488D01*
X03348Y02929D02*
X0336D01*
X03354Y02923D02*
Y02935D01*
X03248Y02929D02*
X03259D01*
X03253Y02923D02*
Y02935D01*
X03173Y02663D02*
X03185D01*
X03179Y02657D02*
Y02669D01*
X02873Y02932D02*
X02885D01*
X02879Y02926D02*
Y02938D01*
X02773Y02932D02*
X02785D01*
X02779Y02926D02*
Y02938D01*
X02673Y02932D02*
X02684D01*
X02678Y02926D02*
Y02938D01*
X02572Y02932D02*
X02584D01*
X02578Y02926D02*
Y02938D01*
X02624Y02932D02*
X02636D01*
X0263Y02926D02*
Y02938D01*
X02523Y02932D02*
X02535D01*
X02529Y02926D02*
Y02938D01*
X03605Y02763D02*
X03617D01*
X03611Y02757D02*
Y02769D01*
X03842Y02773D02*
X03854D01*
X03848Y02767D02*
Y02778D01*
X04082Y02753D02*
X04094D01*
X04088Y02747D02*
Y02759D01*
X0393Y02812D02*
X03946D01*
X03938Y02804D02*
Y0282D01*
X04082Y02442D02*
X04094D01*
X04088Y02436D02*
Y02448D01*
X0393Y02381D02*
X03946D01*
X03938Y02373D02*
Y02389D01*
X03844Y0242D02*
X03856D01*
X0385Y02414D02*
Y02426D01*
X03617Y02294D02*
X03629D01*
X03623Y02288D02*
Y023D01*
X0381Y0213D02*
X03822D01*
X03816Y02124D02*
Y02136D01*
X03682Y0213D02*
X03698D01*
X0369Y02122D02*
Y02138D01*
X03987Y02153D02*
X04003D01*
X03995Y02145D02*
Y02161D01*
X03849Y02334D02*
X03861D01*
X03855Y02328D02*
Y0234D01*
X03989Y02279D02*
X04001D01*
X03995Y02273D02*
Y02285D01*
X0394Y03275D02*
X03952D01*
X03946Y03269D02*
Y0328D01*
X04505Y03365D02*
X04517D01*
X04511Y03359D02*
Y03371D01*
X04417Y03212D02*
X04428D01*
X04422Y03206D02*
Y03217D01*
X04064Y03003D02*
X04076D01*
X0407Y02997D02*
Y03009D01*
X04043Y02932D02*
X04054D01*
X04048Y02926D02*
Y02938D01*
X04196Y03003D02*
X04212D01*
X04204Y02995D02*
Y03011D01*
X03948Y03158D02*
X03964D01*
X03956Y03151D02*
Y03166D01*
X04084Y03159D02*
X04096D01*
X0409Y03153D02*
Y03165D01*
X04137Y03531D02*
X04149D01*
X04143Y03525D02*
Y03537D01*
X0399Y03527D02*
X04001D01*
X03996Y03521D02*
Y03533D01*
X03928Y02998D02*
X0394D01*
X03934Y02992D02*
Y03004D01*
X03928Y03049D02*
X0394D01*
X03934Y03043D02*
Y03055D01*
X03484Y02948D02*
X03496D01*
X0349Y02942D02*
Y02954D01*
X03572Y03012D02*
X03588D01*
X0358Y03004D02*
Y0302D01*
X03812Y03295D02*
X03824D01*
X03818Y03289D02*
Y03301D01*
X03417Y0319D02*
X03429D01*
X03423Y03185D02*
Y03196D01*
X03649Y03173D02*
X03661D01*
X03655Y03167D02*
Y03179D01*
X03333Y0344D02*
X03349D01*
X03341Y03433D02*
Y03448D01*
X03392Y0344D02*
X03408D01*
X034Y03433D02*
Y03448D01*
X03473Y0344D02*
X03488D01*
X03481Y03433D02*
Y03448D01*
X03502Y0344D02*
X03518D01*
X0351Y03433D02*
Y03448D01*
X03532Y0344D02*
X03547D01*
X0354Y03433D02*
Y03448D01*
X03362Y0344D02*
X03378D01*
X0337Y03433D02*
Y03448D01*
X03086Y02179D02*
X03098D01*
X03092Y02173D02*
Y02185D01*
X03084Y02458D02*
X031D01*
X03092Y0245D02*
Y02466D01*
X02718Y02179D02*
X0273D01*
X02724Y02173D02*
Y02185D01*
X02966Y01877D02*
X02982D01*
X02974Y0187D02*
Y01885D01*
X02929Y01968D02*
X0294D01*
X02935Y01962D02*
Y01974D01*
X02846Y01897D02*
X02858D01*
X02852Y01891D02*
Y01903D01*
X04124Y02773D02*
X04135D01*
X04129Y02767D02*
Y02779D01*
X04582Y02112D02*
X04598D01*
X0459Y02104D02*
Y0212D01*
X04582Y02076D02*
X04598D01*
X0459Y02068D02*
Y02084D01*
X04543Y02076D02*
X04559D01*
X04551Y02068D02*
Y02084D01*
X04486Y02045D02*
X04501D01*
X04494Y02037D02*
Y02053D01*
X04523Y02045D02*
X04539D01*
X04531Y02037D02*
Y02053D01*
X04562Y02045D02*
X04578D01*
X0457Y02037D02*
Y02053D01*
X04757Y02047D02*
X04773D01*
X04765Y02039D02*
Y02055D01*
X04757Y0208D02*
X04773D01*
X04765Y02072D02*
Y02088D01*
X04356Y01399D02*
X04372D01*
X04364Y01391D02*
Y01407D01*
X04356Y01433D02*
X04372D01*
X04364Y01425D02*
Y0144D01*
X04803Y01437D02*
X04818D01*
X04811Y01429D02*
Y01444D01*
X04803Y01395D02*
X04818D01*
X04811Y01387D02*
Y01403D01*
X03248Y0324D02*
X03259D01*
X03253Y03234D02*
Y03246D01*
X01561Y03624D02*
X01576D01*
X01568Y03616D02*
Y03631D01*
X0162Y03624D02*
X01635D01*
X01627Y03616D02*
Y03631D01*
X0159Y03624D02*
X01606D01*
X01598Y03616D02*
Y03631D01*
X01395Y03625D02*
X01411D01*
X01403Y03617D02*
Y03632D01*
X01523Y03625D02*
X01539D01*
X01531Y03617D02*
Y03632D01*
X01494Y03625D02*
X01509D01*
X01501Y03617D02*
Y03632D01*
X01464Y03625D02*
X0148D01*
X01472Y03617D02*
Y03632D01*
X01425Y03625D02*
X0144D01*
X01433Y03617D02*
Y03632D01*
X01366Y03625D02*
X01381D01*
X01374Y03617D02*
Y03632D01*
X0323Y01805D02*
X03246D01*
X03238Y01797D02*
Y01812D01*
X03287Y01783D02*
X03303D01*
X03295Y01775D02*
Y01791D01*
X03143Y01529D02*
X03159D01*
X03151Y01521D02*
Y01537D01*
X03454Y01643D02*
X0347D01*
X03462Y01635D02*
Y01651D01*
X03494Y016D02*
X03509D01*
X03501Y01592D02*
Y01608D01*
X03494Y01643D02*
X03509D01*
X03501Y01635D02*
Y01651D01*
X03494Y01687D02*
X03509D01*
X03501Y01679D02*
Y01694D01*
X03454Y016D02*
X0347D01*
X03462Y01592D02*
Y01608D01*
X03454Y01687D02*
X0347D01*
X03462Y01679D02*
Y01694D01*
X03415Y01687D02*
X03431D01*
X03423Y01679D02*
Y01694D01*
X03415Y01643D02*
X03431D01*
X03423Y01635D02*
Y01651D01*
X03415Y016D02*
X03431D01*
X03423Y01592D02*
Y01608D01*
X00728Y03652D02*
X00744D01*
X00736Y03644D02*
Y03659D01*
X02573Y03239D02*
X02584D01*
X02578Y03233D02*
Y03245D01*
X02673Y03239D02*
X02685D01*
X02679Y03233D02*
Y03245D01*
X02773Y03239D02*
X02785D01*
X02779Y03233D02*
Y03245D01*
X02874Y03239D02*
X02886D01*
X0288Y03233D02*
Y03245D01*
X03348Y0324D02*
X0336D01*
X03354Y03234D02*
Y03246D01*
X00192Y03527D02*
X00208D01*
X002Y03519D02*
Y03535D01*
X00192Y03476D02*
X00208D01*
X002Y03468D02*
Y03484D01*
X00293Y03777D02*
X00309D01*
X00301Y03769D02*
Y03785D01*
X0069Y03874D02*
X00706D01*
X00698Y03866D02*
Y03881D01*
X00578Y03777D02*
X00593D01*
X00586Y03769D02*
Y03784D01*
X00678Y03529D02*
X00694D01*
X00686Y03521D02*
Y03536D01*
X00678Y03477D02*
X00694D01*
X00686Y03469D02*
Y03485D01*
X03486Y0059D02*
X03498D01*
X03492Y00584D02*
Y00596D01*
X02748Y01214D02*
X02759D01*
X02753Y01208D02*
Y0122D01*
X0374Y00226D02*
X03755D01*
X03748Y00218D02*
Y00234D01*
X03208Y00194D02*
X03224D01*
X03216Y00187D02*
Y00202D01*
X03169Y00194D02*
X03185D01*
X03177Y00187D02*
Y00202D01*
X03351Y00626D02*
X03367D01*
X03359Y00618D02*
Y00634D01*
X0339Y00626D02*
X03406D01*
X03398Y00618D02*
Y00634D01*
X03405Y01474D02*
X03421D01*
X03413Y01466D02*
Y01482D01*
X0345Y01474D02*
X03466D01*
X03458Y01466D02*
Y01482D01*
X03622Y01472D02*
X03637D01*
X03629Y01464D02*
Y0148D01*
X03667Y01472D02*
X03683D01*
X03675Y01464D02*
Y0148D01*
X0339Y00664D02*
X03406D01*
X03398Y00656D02*
Y00671D01*
X03351Y00664D02*
X03367D01*
X03359Y00656D02*
Y00671D01*
X02835Y01128D02*
X02847D01*
X02841Y01122D02*
Y01134D01*
X0296Y01419D02*
X02972D01*
X02966Y01413D02*
Y01425D01*
X0296Y01466D02*
X02972D01*
X02966Y0146D02*
Y01472D01*
X0296Y01442D02*
X02972D01*
X02966Y01437D02*
Y01448D01*
X0296Y0149D02*
X02972D01*
X02966Y01484D02*
Y01496D01*
X02984Y01419D02*
X02996D01*
X0299Y01413D02*
Y01425D01*
X02984Y0149D02*
X02996D01*
X0299Y01484D02*
Y01496D01*
X02984Y01442D02*
X02996D01*
X0299Y01437D02*
Y01448D01*
X02984Y01466D02*
X02996D01*
X0299Y0146D02*
Y01472D01*
X03179Y01435D02*
X03194D01*
X03187Y01427D02*
Y01442D01*
X03179Y01474D02*
X03194D01*
X03187Y01466D02*
Y01482D01*
X03238Y01435D02*
X03253D01*
X03246Y01427D02*
Y01442D01*
X03238Y01474D02*
X03253D01*
X03246Y01466D02*
Y01482D01*
X03297Y01198D02*
X03312D01*
X03305Y0119D02*
Y01206D01*
X03297Y01238D02*
X03312D01*
X03305Y0123D02*
Y01246D01*
X03297Y01277D02*
X03312D01*
X03305Y01269D02*
Y01285D01*
X03297Y01316D02*
X03312D01*
X03305Y01309D02*
Y01324D01*
X03297Y01356D02*
X03312D01*
X03305Y01348D02*
Y01364D01*
X03297Y01395D02*
X03312D01*
X03305Y01387D02*
Y01403D01*
X03297Y01435D02*
X03312D01*
X03305Y01427D02*
Y01442D01*
X03297Y01474D02*
X03312D01*
X03305Y01466D02*
Y01482D01*
X02901Y00962D02*
X02913D01*
X02907Y00956D02*
Y00968D01*
X02925Y00938D02*
X02937D01*
X02931Y00933D02*
Y00944D01*
X02901Y00938D02*
X02913D01*
X02907Y00933D02*
Y00944D01*
X02925Y00962D02*
X02937D01*
X02931Y00956D02*
Y00968D01*
X02925Y01124D02*
X02937D01*
X02931Y01118D02*
Y01129D01*
X02901Y01124D02*
X02913D01*
X02907Y01118D02*
Y01129D01*
X02925Y01458D02*
X02937D01*
X02931Y01452D02*
Y01464D01*
X02901Y01458D02*
X02913D01*
X02907Y01452D02*
Y01464D01*
X02901Y01435D02*
X02913D01*
X02907Y01429D02*
Y0144D01*
X02925Y01435D02*
X02937D01*
X02931Y01429D02*
Y0144D01*
X02925Y01411D02*
X02937D01*
X02931Y01405D02*
Y01417D01*
X02901Y01411D02*
X02913D01*
X02907Y01405D02*
Y01417D01*
X02814Y01383D02*
X02826D01*
X0282Y01377D02*
Y01389D01*
X02669Y01372D02*
X02681D01*
X02675Y01366D02*
Y01377D01*
X02614Y01271D02*
X02625D01*
X0262Y01265D02*
Y01277D01*
X02748Y01285D02*
X02759D01*
X02753Y01279D02*
Y01291D01*
X02751Y01131D02*
X02763D01*
X02757Y01125D02*
Y01137D01*
X02797Y00998D02*
X02809D01*
X02803Y00992D02*
Y01003D01*
X02797Y01029D02*
X02809D01*
X02803Y01023D02*
Y01035D01*
X02814Y01084D02*
X02826D01*
X0282Y01078D02*
Y0109D01*
M02*