%FSTAX23Y23*%
%MOIN*%
%SFA1B1*%

%IPPOS*%
%ADD94C,0.005000*%
%ADD151C,0.006667*%
%ADD152C,0.004000*%
%LNhardwarecontrollerpcb_drawing_1-1*%
%LPD*%
G54D94*
X04741Y02796D02*
Y02836D01*
X04781*
Y02796*
X04741*
Y02718D02*
Y02758D01*
X04781*
Y02718*
X04741*
Y02639D02*
Y02679D01*
X04781*
Y02639*
X04741*
Y03605D02*
Y03645D01*
X04781*
Y03605*
X04741*
Y03527D02*
Y03567D01*
X04781*
Y03527*
X04741*
Y03448D02*
Y03488D01*
X04781*
Y03448*
X04741*
X03892Y0407D02*
X03872Y0411D01*
X03912*
X03892Y0407*
X03783D02*
X03763Y0411D01*
X03803*
X03783Y0407*
X03674D02*
X03654Y0411D01*
X03694*
X03674Y0407*
X03565D02*
X03545Y0411D01*
X03585*
X03565Y0407*
X03946Y03958D02*
X03926Y03998D01*
X03966*
X03946Y03958*
X03837D02*
X03817Y03998D01*
X03857*
X03837Y03958*
X03728D02*
X03708Y03998D01*
X03748*
X03728Y03958*
X03619D02*
X03599Y03998D01*
X03639*
X03619Y03958*
X0351D02*
X0349Y03998D01*
X0353*
X0351Y03958*
Y03692D02*
X0349Y03732D01*
X0353*
X0351Y03692*
X03619D02*
X03599Y03732D01*
X03639*
X03619Y03692*
X03728D02*
X03708Y03732D01*
X03748*
X03728Y03692*
X03837D02*
X03817Y03732D01*
X03857*
X03837Y03692*
X03946D02*
X03926Y03732D01*
X03966*
X03946Y03692*
X03565Y03804D02*
X03545Y03844D01*
X03585*
X03565Y03804*
X03674D02*
X03654Y03844D01*
X03694*
X03674Y03804*
X03783D02*
X03763Y03844D01*
X03803*
X03783Y03804*
X03892D02*
X03872Y03844D01*
X03912*
X03892Y03804*
X04675Y004D02*
X04685Y0041D01*
X04695*
X04685Y0042*
X04695Y0043*
X04685*
X04675Y0044*
X04665Y0043*
X04655*
X04665Y0042*
X04655Y0041*
X04665*
X04675Y004*
Y008D02*
X04685Y0081D01*
X04695*
X04685Y0082*
X04695Y0083*
X04685*
X04675Y0084*
X04665Y0083*
X04655*
X04665Y0082*
X04655Y0081*
X04665*
X04675Y008*
Y012D02*
X04685Y0121D01*
X04695*
X04685Y0122*
X04695Y0123*
X04685*
X04675Y0124*
X04665Y0123*
X04655*
X04665Y0122*
X04655Y0121*
X04665*
X04675Y012*
X03875Y004D02*
X03885Y0041D01*
X03895*
X03885Y0042*
X03895Y0043*
X03885*
X03875Y0044*
X03865Y0043*
X03855*
X03865Y0042*
X03855Y0041*
X03865*
X03875Y004*
Y007D02*
X03885Y0071D01*
X03895*
X03885Y0072*
X03895Y0073*
X03885*
X03875Y0074*
X03865Y0073*
X03855*
X03865Y0072*
X03855Y0071*
X03865*
X03875Y007*
Y009D02*
X03885Y0091D01*
X03895*
X03885Y0092*
X03895Y0093*
X03885*
X03875Y0094*
X03865Y0093*
X03855*
X03865Y0092*
X03855Y0091*
X03865*
X03875Y009*
X02235Y00761D02*
X02245Y00781D01*
X02235Y00801*
X02255Y00791*
X02275Y00801*
X02265Y00781*
X02275Y00761*
X02255Y00771*
X02235Y00761*
X02335D02*
X02345Y00781D01*
X02335Y00801*
X02355Y00791*
X02375Y00801*
X02365Y00781*
X02375Y00761*
X02355Y00771*
X02335Y00761*
X02235Y00861D02*
X02245Y00881D01*
X02235Y00901*
X02255Y00891*
X02275Y00901*
X02265Y00881*
X02275Y00861*
X02255Y00871*
X02235Y00861*
X02335D02*
X02345Y00881D01*
X02335Y00901*
X02355Y00891*
X02375Y00901*
X02365Y00881*
X02375Y00861*
X02355Y00871*
X02335Y00861*
X02235Y00961D02*
X02245Y00981D01*
X02235Y01001*
X02255Y00991*
X02275Y01001*
X02265Y00981*
X02275Y00961*
X02255Y00971*
X02235Y00961*
X02335D02*
X02345Y00981D01*
X02335Y01001*
X02355Y00991*
X02375Y01001*
X02365Y00981*
X02375Y00961*
X02355Y00971*
X02335Y00961*
X02235Y01061D02*
X02245Y01081D01*
X02235Y01101*
X02255Y01091*
X02275Y01101*
X02265Y01081*
X02275Y01061*
X02255Y01071*
X02235Y01061*
X02335D02*
X02345Y01081D01*
X02335Y01101*
X02355Y01091*
X02375Y01101*
X02365Y01081*
X02375Y01061*
X02355Y01071*
X02335Y01061*
X02235Y01161D02*
X02245Y01181D01*
X02235Y01201*
X02255Y01191*
X02275Y01201*
X02265Y01181*
X02275Y01161*
X02255Y01171*
X02235Y01161*
X02335D02*
X02345Y01181D01*
X02335Y01201*
X02355Y01191*
X02375Y01201*
X02365Y01181*
X02375Y01161*
X02355Y01171*
X02335Y01161*
X02235Y01261D02*
X02245Y01281D01*
X02235Y01301*
X02255Y01291*
X02275Y01301*
X02265Y01281*
X02275Y01261*
X02255Y01271*
X02235Y01261*
X02335D02*
X02345Y01281D01*
X02335Y01301*
X02355Y01291*
X02375Y01301*
X02365Y01281*
X02375Y01261*
X02355Y01271*
X02335Y01261*
X02235Y01361D02*
X02245Y01381D01*
X02235Y01401*
X02255Y01391*
X02275Y01401*
X02265Y01381*
X02275Y01361*
X02255Y01371*
X02235Y01361*
X02335D02*
X02345Y01381D01*
X02335Y01401*
X02355Y01391*
X02375Y01401*
X02365Y01381*
X02375Y01361*
X02355Y01371*
X02335Y01361*
X02235Y01461D02*
X02245Y01481D01*
X02235Y01501*
X02255Y01491*
X02275Y01501*
X02265Y01481*
X02275Y01461*
X02255Y01471*
X02235Y01461*
X02335D02*
X02345Y01481D01*
X02335Y01501*
X02355Y01491*
X02375Y01501*
X02365Y01481*
X02375Y01461*
X02355Y01471*
X02335Y01461*
X02235Y01561D02*
X02245Y01581D01*
X02235Y01601*
X02255Y01591*
X02275Y01601*
X02265Y01581*
X02275Y01561*
X02255Y01571*
X02235Y01561*
X02335D02*
X02345Y01581D01*
X02335Y01601*
X02355Y01591*
X02375Y01601*
X02365Y01581*
X02375Y01561*
X02355Y01571*
X02335Y01561*
X02235Y01661D02*
X02245Y01681D01*
X02235Y01701*
X02255Y01691*
X02275Y01701*
X02265Y01681*
X02275Y01661*
X02255Y01671*
X02235Y01661*
X02335D02*
X02345Y01681D01*
X02335Y01701*
X02355Y01691*
X02375Y01701*
X02365Y01681*
X02375Y01661*
X02355Y01671*
X02335Y01661*
X02235Y01761D02*
X02245Y01781D01*
X02235Y01801*
X02255Y01791*
X02275Y01801*
X02265Y01781*
X02275Y01761*
X02255Y01771*
X02235Y01761*
X02335D02*
X02345Y01781D01*
X02335Y01801*
X02355Y01791*
X02375Y01801*
X02365Y01781*
X02375Y01761*
X02355Y01771*
X02335Y01761*
X02235Y01861D02*
X02245Y01881D01*
X02235Y01901*
X02255Y01891*
X02275Y01901*
X02265Y01881*
X02275Y01861*
X02255Y01871*
X02235Y01861*
X02335D02*
X02345Y01881D01*
X02335Y01901*
X02355Y01891*
X02375Y01901*
X02365Y01881*
X02375Y01861*
X02355Y01871*
X02335Y01861*
X02235Y01961D02*
X02245Y01981D01*
X02235Y02001*
X02255Y01991*
X02275Y02001*
X02265Y01981*
X02275Y01961*
X02255Y01971*
X02235Y01961*
X02335D02*
X02345Y01981D01*
X02335Y02001*
X02355Y01991*
X02375Y02001*
X02365Y01981*
X02375Y01961*
X02355Y01971*
X02335Y01961*
X02235Y02061D02*
X02245Y02081D01*
X02235Y02101*
X02255Y02091*
X02275Y02101*
X02265Y02081*
X02275Y02061*
X02255Y02071*
X02235Y02061*
X02335D02*
X02345Y02081D01*
X02335Y02101*
X02355Y02091*
X02375Y02101*
X02365Y02081*
X02375Y02061*
X02355Y02071*
X02335Y02061*
X02235Y02161D02*
X02245Y02181D01*
X02235Y02201*
X02255Y02191*
X02275Y02201*
X02265Y02181*
X02275Y02161*
X02255Y02171*
X02235Y02161*
X02335D02*
X02345Y02181D01*
X02335Y02201*
X02355Y02191*
X02375Y02201*
X02365Y02181*
X02375Y02161*
X02355Y02171*
X02335Y02161*
X02235Y02261D02*
X02245Y02281D01*
X02235Y02301*
X02255Y02291*
X02275Y02301*
X02265Y02281*
X02275Y02261*
X02255Y02271*
X02235Y02261*
X02335D02*
X02345Y02281D01*
X02335Y02301*
X02355Y02291*
X02375Y02301*
X02365Y02281*
X02375Y02261*
X02355Y02271*
X02335Y02261*
X02235Y02361D02*
X02245Y02381D01*
X02235Y02401*
X02255Y02391*
X02275Y02401*
X02265Y02381*
X02275Y02361*
X02255Y02371*
X02235Y02361*
X02335D02*
X02345Y02381D01*
X02335Y02401*
X02355Y02391*
X02375Y02401*
X02365Y02381*
X02375Y02361*
X02355Y02371*
X02335Y02361*
X02235Y02461D02*
X02245Y02481D01*
X02235Y02501*
X02255Y02491*
X02275Y02501*
X02265Y02481*
X02275Y02461*
X02255Y02471*
X02235Y02461*
X02335D02*
X02345Y02481D01*
X02335Y02501*
X02355Y02491*
X02375Y02501*
X02365Y02481*
X02375Y02461*
X02355Y02471*
X02335Y02461*
X02235Y02561D02*
X02245Y02581D01*
X02235Y02601*
X02255Y02591*
X02275Y02601*
X02265Y02581*
X02275Y02561*
X02255Y02571*
X02235Y02561*
X02335D02*
X02345Y02581D01*
X02335Y02601*
X02355Y02591*
X02375Y02601*
X02365Y02581*
X02375Y02561*
X02355Y02571*
X02335Y02561*
X02235Y02661D02*
X02245Y02681D01*
X02235Y02701*
X02255Y02691*
X02275Y02701*
X02265Y02681*
X02275Y02661*
X02255Y02671*
X02235Y02661*
X02335D02*
X02345Y02681D01*
X02335Y02701*
X02355Y02691*
X02375Y02701*
X02365Y02681*
X02375Y02661*
X02355Y02671*
X02335Y02661*
X02235Y02761D02*
X02245Y02781D01*
X02235Y02801*
X02255Y02791*
X02275Y02801*
X02265Y02781*
X02275Y02761*
X02255Y02771*
X02235Y02761*
X02335D02*
X02345Y02781D01*
X02335Y02801*
X02355Y02791*
X02375Y02801*
X02365Y02781*
X02375Y02761*
X02355Y02771*
X02335Y02761*
X02235Y02861D02*
X02245Y02881D01*
X02235Y02901*
X02255Y02891*
X02275Y02901*
X02265Y02881*
X02275Y02861*
X02255Y02871*
X02235Y02861*
X02335D02*
X02345Y02881D01*
X02335Y02901*
X02355Y02891*
X02375Y02901*
X02365Y02881*
X02375Y02861*
X02355Y02871*
X02335Y02861*
X02235Y02961D02*
X02245Y02981D01*
X02235Y03001*
X02255Y02991*
X02275Y03001*
X02265Y02981*
X02275Y02961*
X02255Y02971*
X02235Y02961*
X02335D02*
X02345Y02981D01*
X02335Y03001*
X02355Y02991*
X02375Y03001*
X02365Y02981*
X02375Y02961*
X02355Y02971*
X02335Y02961*
X00335Y00761D02*
X00345Y00781D01*
X00335Y00801*
X00355Y00791*
X00375Y00801*
X00365Y00781*
X00375Y00761*
X00355Y00771*
X00335Y00761*
X00435D02*
X00445Y00781D01*
X00435Y00801*
X00455Y00791*
X00475Y00801*
X00465Y00781*
X00475Y00761*
X00455Y00771*
X00435Y00761*
X00335Y00861D02*
X00345Y00881D01*
X00335Y00901*
X00355Y00891*
X00375Y00901*
X00365Y00881*
X00375Y00861*
X00355Y00871*
X00335Y00861*
X00435D02*
X00445Y00881D01*
X00435Y00901*
X00455Y00891*
X00475Y00901*
X00465Y00881*
X00475Y00861*
X00455Y00871*
X00435Y00861*
X00335Y00961D02*
X00345Y00981D01*
X00335Y01001*
X00355Y00991*
X00375Y01001*
X00365Y00981*
X00375Y00961*
X00355Y00971*
X00335Y00961*
X00435D02*
X00445Y00981D01*
X00435Y01001*
X00455Y00991*
X00475Y01001*
X00465Y00981*
X00475Y00961*
X00455Y00971*
X00435Y00961*
X00335Y01061D02*
X00345Y01081D01*
X00335Y01101*
X00355Y01091*
X00375Y01101*
X00365Y01081*
X00375Y01061*
X00355Y01071*
X00335Y01061*
X00435D02*
X00445Y01081D01*
X00435Y01101*
X00455Y01091*
X00475Y01101*
X00465Y01081*
X00475Y01061*
X00455Y01071*
X00435Y01061*
X00335Y01161D02*
X00345Y01181D01*
X00335Y01201*
X00355Y01191*
X00375Y01201*
X00365Y01181*
X00375Y01161*
X00355Y01171*
X00335Y01161*
X00435D02*
X00445Y01181D01*
X00435Y01201*
X00455Y01191*
X00475Y01201*
X00465Y01181*
X00475Y01161*
X00455Y01171*
X00435Y01161*
X00335Y01261D02*
X00345Y01281D01*
X00335Y01301*
X00355Y01291*
X00375Y01301*
X00365Y01281*
X00375Y01261*
X00355Y01271*
X00335Y01261*
X00435D02*
X00445Y01281D01*
X00435Y01301*
X00455Y01291*
X00475Y01301*
X00465Y01281*
X00475Y01261*
X00455Y01271*
X00435Y01261*
X00335Y01361D02*
X00345Y01381D01*
X00335Y01401*
X00355Y01391*
X00375Y01401*
X00365Y01381*
X00375Y01361*
X00355Y01371*
X00335Y01361*
X00435D02*
X00445Y01381D01*
X00435Y01401*
X00455Y01391*
X00475Y01401*
X00465Y01381*
X00475Y01361*
X00455Y01371*
X00435Y01361*
X00335Y01461D02*
X00345Y01481D01*
X00335Y01501*
X00355Y01491*
X00375Y01501*
X00365Y01481*
X00375Y01461*
X00355Y01471*
X00335Y01461*
X00435D02*
X00445Y01481D01*
X00435Y01501*
X00455Y01491*
X00475Y01501*
X00465Y01481*
X00475Y01461*
X00455Y01471*
X00435Y01461*
X00335Y01561D02*
X00345Y01581D01*
X00335Y01601*
X00355Y01591*
X00375Y01601*
X00365Y01581*
X00375Y01561*
X00355Y01571*
X00335Y01561*
X00435D02*
X00445Y01581D01*
X00435Y01601*
X00455Y01591*
X00475Y01601*
X00465Y01581*
X00475Y01561*
X00455Y01571*
X00435Y01561*
X00335Y01661D02*
X00345Y01681D01*
X00335Y01701*
X00355Y01691*
X00375Y01701*
X00365Y01681*
X00375Y01661*
X00355Y01671*
X00335Y01661*
X00435D02*
X00445Y01681D01*
X00435Y01701*
X00455Y01691*
X00475Y01701*
X00465Y01681*
X00475Y01661*
X00455Y01671*
X00435Y01661*
X00335Y01761D02*
X00345Y01781D01*
X00335Y01801*
X00355Y01791*
X00375Y01801*
X00365Y01781*
X00375Y01761*
X00355Y01771*
X00335Y01761*
X00435D02*
X00445Y01781D01*
X00435Y01801*
X00455Y01791*
X00475Y01801*
X00465Y01781*
X00475Y01761*
X00455Y01771*
X00435Y01761*
X00335Y01861D02*
X00345Y01881D01*
X00335Y01901*
X00355Y01891*
X00375Y01901*
X00365Y01881*
X00375Y01861*
X00355Y01871*
X00335Y01861*
X00435D02*
X00445Y01881D01*
X00435Y01901*
X00455Y01891*
X00475Y01901*
X00465Y01881*
X00475Y01861*
X00455Y01871*
X00435Y01861*
X00335Y01961D02*
X00345Y01981D01*
X00335Y02001*
X00355Y01991*
X00375Y02001*
X00365Y01981*
X00375Y01961*
X00355Y01971*
X00335Y01961*
X00435D02*
X00445Y01981D01*
X00435Y02001*
X00455Y01991*
X00475Y02001*
X00465Y01981*
X00475Y01961*
X00455Y01971*
X00435Y01961*
X00335Y02061D02*
X00345Y02081D01*
X00335Y02101*
X00355Y02091*
X00375Y02101*
X00365Y02081*
X00375Y02061*
X00355Y02071*
X00335Y02061*
X00435D02*
X00445Y02081D01*
X00435Y02101*
X00455Y02091*
X00475Y02101*
X00465Y02081*
X00475Y02061*
X00455Y02071*
X00435Y02061*
X00335Y02161D02*
X00345Y02181D01*
X00335Y02201*
X00355Y02191*
X00375Y02201*
X00365Y02181*
X00375Y02161*
X00355Y02171*
X00335Y02161*
X00435D02*
X00445Y02181D01*
X00435Y02201*
X00455Y02191*
X00475Y02201*
X00465Y02181*
X00475Y02161*
X00455Y02171*
X00435Y02161*
X00335Y02261D02*
X00345Y02281D01*
X00335Y02301*
X00355Y02291*
X00375Y02301*
X00365Y02281*
X00375Y02261*
X00355Y02271*
X00335Y02261*
X00435D02*
X00445Y02281D01*
X00435Y02301*
X00455Y02291*
X00475Y02301*
X00465Y02281*
X00475Y02261*
X00455Y02271*
X00435Y02261*
X00335Y02361D02*
X00345Y02381D01*
X00335Y02401*
X00355Y02391*
X00375Y02401*
X00365Y02381*
X00375Y02361*
X00355Y02371*
X00335Y02361*
X00435D02*
X00445Y02381D01*
X00435Y02401*
X00455Y02391*
X00475Y02401*
X00465Y02381*
X00475Y02361*
X00455Y02371*
X00435Y02361*
X00335Y02461D02*
X00345Y02481D01*
X00335Y02501*
X00355Y02491*
X00375Y02501*
X00365Y02481*
X00375Y02461*
X00355Y02471*
X00335Y02461*
X00435D02*
X00445Y02481D01*
X00435Y02501*
X00455Y02491*
X00475Y02501*
X00465Y02481*
X00475Y02461*
X00455Y02471*
X00435Y02461*
X00335Y02561D02*
X00345Y02581D01*
X00335Y02601*
X00355Y02591*
X00375Y02601*
X00365Y02581*
X00375Y02561*
X00355Y02571*
X00335Y02561*
X00435D02*
X00445Y02581D01*
X00435Y02601*
X00455Y02591*
X00475Y02601*
X00465Y02581*
X00475Y02561*
X00455Y02571*
X00435Y02561*
X00335Y02661D02*
X00345Y02681D01*
X00335Y02701*
X00355Y02691*
X00375Y02701*
X00365Y02681*
X00375Y02661*
X00355Y02671*
X00335Y02661*
X00435D02*
X00445Y02681D01*
X00435Y02701*
X00455Y02691*
X00475Y02701*
X00465Y02681*
X00475Y02661*
X00455Y02671*
X00435Y02661*
X00335Y02761D02*
X00345Y02781D01*
X00335Y02801*
X00355Y02791*
X00375Y02801*
X00365Y02781*
X00375Y02761*
X00355Y02771*
X00335Y02761*
X00435D02*
X00445Y02781D01*
X00435Y02801*
X00455Y02791*
X00475Y02801*
X00465Y02781*
X00475Y02761*
X00455Y02771*
X00435Y02761*
X00335Y02861D02*
X00345Y02881D01*
X00335Y02901*
X00355Y02891*
X00375Y02901*
X00365Y02881*
X00375Y02861*
X00355Y02871*
X00335Y02861*
X00435D02*
X00445Y02881D01*
X00435Y02901*
X00455Y02891*
X00475Y02901*
X00465Y02881*
X00475Y02861*
X00455Y02871*
X00435Y02861*
X00335Y02961D02*
X00345Y02981D01*
X00335Y03001*
X00355Y02991*
X00375Y03001*
X00365Y02981*
X00375Y02961*
X00355Y02971*
X00335Y02961*
X00435D02*
X00445Y02981D01*
X00435Y03001*
X00455Y02991*
X00475Y03001*
X00465Y02981*
X00475Y02961*
X00455Y02971*
X00435Y02961*
X0056Y01661D02*
X0057Y01681D01*
X0056Y01701*
X0058Y01691*
X006Y01701*
X0059Y01681*
X006Y01661*
X0058Y01671*
X0056Y01661*
Y01761D02*
X0057Y01781D01*
X0056Y01801*
X0058Y01791*
X006Y01801*
X0059Y01781*
X006Y01761*
X0058Y01771*
X0056Y01761*
Y01861D02*
X0057Y01881D01*
X0056Y01901*
X0058Y01891*
X006Y01901*
X0059Y01881*
X006Y01861*
X0058Y01871*
X0056Y01861*
Y01961D02*
X0057Y01981D01*
X0056Y02001*
X0058Y01991*
X006Y02001*
X0059Y01981*
X006Y01961*
X0058Y01971*
X0056Y01961*
Y02061D02*
X0057Y02081D01*
X0056Y02101*
X0058Y02091*
X006Y02101*
X0059Y02081*
X006Y02061*
X0058Y02071*
X0056Y02061*
Y02161D02*
X0057Y02181D01*
X0056Y02201*
X0058Y02191*
X006Y02201*
X0059Y02181*
X006Y02161*
X0058Y02171*
X0056Y02161*
X02533Y00182D02*
Y00172D01*
X02553*
Y00182*
X02563*
Y00202*
X02553*
Y00212*
X02533*
Y00202*
X02523*
Y00182*
X02533*
X02734D02*
Y00172D01*
X02754*
Y00182*
X02764*
Y00202*
X02754*
Y00212*
X02734*
Y00202*
X02724*
Y00182*
X02734*
X02633Y0069D02*
Y0068D01*
X02653*
Y0069*
X02663*
Y0071*
X02653*
Y0072*
X02633*
Y0071*
X02623*
Y0069*
X02633*
Y0084D02*
Y0083D01*
X02653*
Y0084*
X02663*
Y0086*
X02653*
Y0087*
X02633*
Y0086*
X02623*
Y0084*
X02633*
Y0099D02*
Y0098D01*
X02653*
Y0099*
X02663*
Y0101*
X02653*
Y0102*
X02633*
Y0101*
X02623*
Y0099*
X02633*
X00037Y02508D02*
X00047Y02528D01*
X00037Y02548*
X00057Y02538*
X00077Y02548*
X00067Y02528*
X00077Y02508*
X00057Y02518*
X00037Y02508*
Y02608D02*
X00047Y02628D01*
X00037Y02648*
X00057Y02638*
X00077Y02648*
X00067Y02628*
X00077Y02608*
X00057Y02618*
X00037Y02608*
Y02708D02*
X00047Y02728D01*
X00037Y02748*
X00057Y02738*
X00077Y02748*
X00067Y02728*
X00077Y02708*
X00057Y02718*
X00037Y02708*
X00037Y02808D02*
X00047Y02828D01*
X00037Y02848*
X00057Y02838*
X00077Y02848*
X00067Y02828*
X00077Y02808*
X00057Y02818*
X00037Y02808*
X00037Y02908D02*
X00047Y02928D01*
X00037Y02948*
X00057Y02938*
X00077Y02948*
X00067Y02928*
X00077Y02908*
X00057Y02918*
X00037Y02908*
Y03008D02*
X00047Y03028D01*
X00037Y03048*
X00057Y03038*
X00077Y03048*
X00067Y03028*
X00077Y03008*
X00057Y03018*
X00037Y03008*
X00037Y02003D02*
X00047Y02023D01*
X00037Y02043*
X00057Y02033*
X00077Y02043*
X00067Y02023*
X00077Y02003*
X00057Y02013*
X00037Y02003*
Y01903D02*
X00047Y01923D01*
X00037Y01943*
X00057Y01933*
X00077Y01943*
X00067Y01923*
X00077Y01903*
X00057Y01913*
X00037Y01903*
Y01803D02*
X00047Y01823D01*
X00037Y01843*
X00057Y01833*
X00077Y01843*
X00067Y01823*
X00077Y01803*
X00057Y01813*
X00037Y01803*
Y01603D02*
X00047Y01623D01*
X00037Y01643*
X00057Y01633*
X00077Y01643*
X00067Y01623*
X00077Y01603*
X00057Y01613*
X00037Y01603*
Y01503D02*
X00047Y01523D01*
X00037Y01543*
X00057Y01533*
X00077Y01543*
X00067Y01523*
X00077Y01503*
X00057Y01513*
X00037Y01503*
Y01703D02*
X00047Y01723D01*
X00037Y01743*
X00057Y01733*
X00077Y01743*
X00067Y01723*
X00077Y01703*
X00057Y01713*
X00037Y01703*
X03429Y00107D02*
X03439D01*
X03449Y00117*
X03459Y00107*
X03469*
Y00117*
X03459Y00127*
X03469Y00137*
Y00147*
X03459*
X03449Y00137*
X03439Y00147*
X03429*
Y00137*
X03439Y00127*
X03429Y00117*
Y00107*
X03566D02*
X03576D01*
X03586Y00117*
X03596Y00107*
X03606*
Y00117*
X03596Y00127*
X03606Y00137*
Y00147*
X03596*
X03586Y00137*
X03576Y00147*
X03566*
Y00137*
X03576Y00127*
X03566Y00117*
Y00107*
X03429Y00304D02*
X03439D01*
X03449Y00314*
X03459Y00304*
X03469*
Y00314*
X03459Y00324*
X03469Y00334*
Y00344*
X03459*
X03449Y00334*
X03439Y00344*
X03429*
Y00334*
X03439Y00324*
X03429Y00314*
Y00304*
X03566D02*
X03576D01*
X03586Y00314*
X03596Y00304*
X03606*
Y00314*
X03596Y00324*
X03606Y00334*
Y00344*
X03596*
X03586Y00334*
X03576Y00344*
X03566*
Y00334*
X03576Y00324*
X03566Y00314*
Y00304*
X02576Y03804D02*
X02556Y03844D01*
X02596*
X02576Y03804*
X02467D02*
X02447Y03844D01*
X02487*
X02467Y03804*
X02358D02*
X02338Y03844D01*
X02378*
X02358Y03804*
X02249D02*
X02229Y03844D01*
X02269*
X02249Y03804*
X02631Y03692D02*
X02611Y03732D01*
X02651*
X02631Y03692*
X02522D02*
X02502Y03732D01*
X02542*
X02522Y03692*
X02413D02*
X02393Y03732D01*
X02433*
X02413Y03692*
X02304D02*
X02284Y03732D01*
X02324*
X02304Y03692*
X02195D02*
X02175Y03732D01*
X02215*
X02195Y03692*
Y03958D02*
X02175Y03998D01*
X02215*
X02195Y03958*
X02304D02*
X02284Y03998D01*
X02324*
X02304Y03958*
X02413D02*
X02393Y03998D01*
X02433*
X02413Y03958*
X02522D02*
X02502Y03998D01*
X02542*
X02522Y03958*
X02631D02*
X02611Y03998D01*
X02651*
X02631Y03958*
X02249Y0407D02*
X02229Y0411D01*
X02269*
X02249Y0407*
X02358D02*
X02338Y0411D01*
X02378*
X02358Y0407*
X02467D02*
X02447Y0411D01*
X02487*
X02467Y0407*
X02576D02*
X02556Y0411D01*
X02596*
X02576Y0407*
X00863Y03979D02*
X00883Y03999D01*
X00903Y03979*
X00883Y03959*
X00863Y03979*
X00973D02*
X00993Y03999D01*
X01013Y03979*
X00993Y03959*
X00973Y03979*
X01082D02*
X01102Y03999D01*
X01122Y03979*
X01102Y03959*
X01082Y03979*
X01191D02*
X01211Y03999D01*
X01231Y03979*
X01211Y03959*
X01191Y03979*
X013D02*
X0132Y03999D01*
X0134Y03979*
X0132Y03959*
X013Y03979*
X00918Y04091D02*
X00938Y04111D01*
X00958Y04091*
X00938Y04071*
X00918Y04091*
X01027D02*
X01047Y04111D01*
X01067Y04091*
X01047Y04071*
X01027Y04091*
X01136D02*
X01156Y04111D01*
X01176Y04091*
X01156Y04071*
X01136Y04091*
X01245D02*
X01265Y04111D01*
X01285Y04091*
X01265Y04071*
X01245Y04091*
X01574Y04015D02*
Y04055D01*
X01614*
Y04015*
X01574*
X01582Y04023D02*
Y04047D01*
X01606*
Y04023*
X01582*
X00589Y04015D02*
Y04055D01*
X00629*
Y04015*
X00589*
X00597Y04023D02*
Y04047D01*
X00621*
Y04023*
X00597*
X00068Y02141D02*
X00048Y02181D01*
X00088*
X00068Y02141*
Y02149D02*
X00056Y02173D01*
X0008*
X00068Y02149*
X03098Y03503D02*
X03108Y03513D01*
X03118*
X03108Y03523*
X03118Y03533*
X03108*
X03098Y03543*
X03088Y03533*
X03078*
X03088Y03523*
X03078Y03513*
X03088*
X03098Y03503*
Y03511D02*
X03104Y03517D01*
X0311*
X03104Y03523*
X0311Y03529*
X03104*
X03098Y03535*
X03092Y03529*
X03086*
X03092Y03523*
X03086Y03517*
X03092*
X03098Y03511*
X03066Y03533D02*
X03076Y03543D01*
X03086*
X03076Y03553*
X03086Y03563*
X03076*
X03066Y03573*
X03056Y03563*
X03046*
X03056Y03553*
X03046Y03543*
X03056*
X03066Y03533*
Y03541D02*
X03072Y03547D01*
X03078*
X03072Y03553*
X03078Y03559*
X03072*
X03066Y03565*
X0306Y03559*
X03054*
X0306Y03553*
X03054Y03547*
X0306*
X03066Y03541*
X03035Y03562D02*
X03045Y03572D01*
X03055*
X03045Y03582*
X03055Y03592*
X03045*
X03035Y03602*
X03025Y03592*
X03015*
X03025Y03582*
X03015Y03572*
X03025*
X03035Y03562*
Y0357D02*
X03041Y03576D01*
X03047*
X03041Y03582*
X03047Y03588*
X03041*
X03035Y03594*
X03029Y03588*
X03023*
X03029Y03582*
X03023Y03576*
X03029*
X03035Y0357*
X03003Y03592D02*
X03013Y03602D01*
X03023*
X03013Y03612*
X03023Y03622*
X03013*
X03003Y03632*
X02993Y03622*
X02983*
X02993Y03612*
X02983Y03602*
X02993*
X03003Y03592*
Y036D02*
X03009Y03606D01*
X03015*
X03009Y03612*
X03015Y03618*
X03009*
X03003Y03624*
X02997Y03618*
X02991*
X02997Y03612*
X02991Y03606*
X02997*
X03003Y036*
X02704Y02643D02*
X02714Y02653D01*
X02724*
X02714Y02663*
X02724Y02673*
X02714*
X02704Y02683*
X02694Y02673*
X02684*
X02694Y02663*
X02684Y02653*
X02694*
X02704Y02643*
Y02651D02*
X0271Y02657D01*
X02716*
X0271Y02663*
X02716Y02669*
X0271*
X02704Y02675*
X02698Y02669*
X02692*
X02698Y02663*
X02692Y02657*
X02698*
X02704Y02651*
X02834Y01181D02*
X02844Y01201D01*
X02834Y01221*
X02854Y01211*
X02874Y01221*
X02864Y01201*
X02874Y01181*
X02854Y01191*
X02834Y01181*
X02842Y01189D02*
X02848Y01201D01*
X02842Y01213*
X02854Y01207*
X02866Y01213*
X0286Y01201*
X02866Y01189*
X02854Y01195*
X02842Y01189*
X02815Y012D02*
X02825Y0122D01*
X02815Y0124*
X02835Y0123*
X02855Y0124*
X02845Y0122*
X02855Y012*
X02835Y0121*
X02815Y012*
X02823Y01208D02*
X02829Y0122D01*
X02823Y01232*
X02835Y01226*
X02847Y01232*
X02841Y0122*
X02847Y01208*
X02835Y01214*
X02823Y01208*
X02834Y01252D02*
X02844Y01272D01*
X02834Y01292*
X02854Y01282*
X02874Y01292*
X02864Y01272*
X02874Y01252*
X02854Y01262*
X02834Y01252*
X02842Y0126D02*
X02848Y01272D01*
X02842Y01284*
X02854Y01278*
X02866Y01284*
X0286Y01272*
X02866Y0126*
X02854Y01266*
X02842Y0126*
X02867Y01181D02*
X02877Y01201D01*
X02867Y01221*
X02887Y01211*
X02907Y01221*
X02897Y01201*
X02907Y01181*
X02887Y01191*
X02867Y01181*
X02875Y01189D02*
X02881Y01201D01*
X02875Y01213*
X02887Y01207*
X02899Y01213*
X02893Y01201*
X02899Y01189*
X02887Y01195*
X02875Y01189*
X02886Y012D02*
X02896Y0122D01*
X02886Y0124*
X02906Y0123*
X02926Y0124*
X02916Y0122*
X02926Y012*
X02906Y0121*
X02886Y012*
X02894Y01208D02*
X029Y0122D01*
X02894Y01232*
X02906Y01226*
X02918Y01232*
X02912Y0122*
X02918Y01208*
X02906Y01214*
X02894Y01208*
X02886Y01234D02*
X02896Y01254D01*
X02886Y01274*
X02906Y01264*
X02926Y01274*
X02916Y01254*
X02926Y01234*
X02906Y01244*
X02886Y01234*
X02894Y01242D02*
X029Y01254D01*
X02894Y01266*
X02906Y0126*
X02918Y01266*
X02912Y01254*
X02918Y01242*
X02906Y01248*
X02894Y01242*
X02867Y01252D02*
X02877Y01272D01*
X02867Y01292*
X02887Y01282*
X02907Y01292*
X02897Y01272*
X02907Y01252*
X02887Y01262*
X02867Y01252*
X02875Y0126D02*
X02881Y01272D01*
X02875Y01284*
X02887Y01278*
X02899Y01284*
X02893Y01272*
X02899Y0126*
X02887Y01266*
X02875Y0126*
X02815Y01234D02*
X02825Y01254D01*
X02815Y01274*
X02835Y01264*
X02855Y01274*
X02845Y01254*
X02855Y01234*
X02835Y01244*
X02815Y01234*
X02823Y01242D02*
X02829Y01254D01*
X02823Y01266*
X02835Y0126*
X02847Y01266*
X02841Y01254*
X02847Y01242*
X02835Y01248*
X02823Y01242*
X04273Y01602D02*
X04253Y01642D01*
X04293*
X04273Y01602*
Y0161D02*
X04261Y01634D01*
X04285*
X04273Y0161*
X04222Y01602D02*
X04202Y01642D01*
X04242*
X04222Y01602*
Y0161D02*
X0421Y01634D01*
X04234*
X04222Y0161*
X04169Y01602D02*
X04149Y01642D01*
X04189*
X04169Y01602*
Y0161D02*
X04157Y01634D01*
X04181*
X04169Y0161*
X02677Y01739D02*
X02687Y01749D01*
X02697*
X02687Y01759*
X02697Y01769*
X02687*
X02677Y01779*
X02667Y01769*
X02657*
X02667Y01759*
X02657Y01749*
X02667*
X02677Y01739*
Y01747D02*
X02683Y01753D01*
X02689*
X02683Y01759*
X02689Y01765*
X02683*
X02677Y01771*
X02671Y01765*
X02665*
X02671Y01759*
X02665Y01753*
X02671*
X02677Y01747*
X03053Y02909D02*
X03063Y02919D01*
X03073*
X03063Y02929*
X03073Y02939*
X03063*
X03053Y02949*
X03043Y02939*
X03033*
X03043Y02929*
X03033Y02919*
X03043*
X03053Y02909*
Y02917D02*
X03059Y02923D01*
X03065*
X03059Y02929*
X03065Y02935*
X03059*
X03053Y02941*
X03047Y02935*
X03041*
X03047Y02929*
X03041Y02923*
X03047*
X03053Y02917*
X03104Y02907D02*
X03114Y02917D01*
X03124*
X03114Y02927*
X03124Y02937*
X03114*
X03104Y02947*
X03094Y02937*
X03084*
X03094Y02927*
X03084Y02917*
X03094*
X03104Y02907*
Y02915D02*
X0311Y02921D01*
X03116*
X0311Y02927*
X03116Y02933*
X0311*
X03104Y02939*
X03098Y02933*
X03092*
X03098Y02927*
X03092Y02921*
X03098*
X03104Y02915*
X03003Y02907D02*
X03013Y02917D01*
X03023*
X03013Y02927*
X03023Y02937*
X03013*
X03003Y02947*
X02993Y02937*
X02983*
X02993Y02927*
X02983Y02917*
X02993*
X03003Y02907*
Y02915D02*
X03009Y02921D01*
X03015*
X03009Y02927*
X03015Y02933*
X03009*
X03003Y02939*
X02997Y02933*
X02991*
X02997Y02927*
X02991Y02921*
X02997*
X03003Y02915*
X0273Y02911D02*
X0274Y02921D01*
X0275*
X0274Y02931*
X0275Y02941*
X0274*
X0273Y02951*
X0272Y02941*
X0271*
X0272Y02931*
X0271Y02921*
X0272*
X0273Y02911*
Y02919D02*
X02736Y02925D01*
X02742*
X02736Y02931*
X02742Y02937*
X02736*
X0273Y02943*
X02724Y02937*
X02718*
X02724Y02931*
X02718Y02925*
X02724*
X0273Y02919*
X02828Y02911D02*
X02838Y02921D01*
X02848*
X02838Y02931*
X02848Y02941*
X02838*
X02828Y02951*
X02818Y02941*
X02808*
X02818Y02931*
X02808Y02921*
X02818*
X02828Y02911*
Y02919D02*
X02834Y02925D01*
X0284*
X02834Y02931*
X0284Y02937*
X02834*
X02828Y02943*
X02822Y02937*
X02816*
X02822Y02931*
X02816Y02925*
X02822*
X02828Y02919*
X00259Y00915D02*
X00269Y00925D01*
X00279*
X00269Y00935*
X00279Y00945*
X00269*
X00259Y00955*
X00249Y00945*
X00239*
X00249Y00935*
X00239Y00925*
X00249*
X00259Y00915*
Y00923D02*
X00265Y00929D01*
X00271*
X00265Y00935*
X00271Y00941*
X00265*
X00259Y00947*
X00253Y00941*
X00247*
X00253Y00935*
X00247Y00929*
X00253*
X00259Y00923*
X00257Y00417D02*
X00267Y00427D01*
X00277*
X00267Y00437*
X00277Y00447*
X00267*
X00257Y00457*
X00247Y00447*
X00237*
X00247Y00437*
X00237Y00427*
X00247*
X00257Y00417*
Y00425D02*
X00263Y00431D01*
X00269*
X00263Y00437*
X00269Y00443*
X00263*
X00257Y00449*
X00251Y00443*
X00245*
X00251Y00437*
X00245Y00431*
X00251*
X00257Y00425*
X03492Y00704D02*
X03502Y00714D01*
X03512*
X03502Y00724*
X03512Y00734*
X03502*
X03492Y00744*
X03482Y00734*
X03472*
X03482Y00724*
X03472Y00714*
X03482*
X03492Y00704*
Y00712D02*
X03498Y00718D01*
X03504*
X03498Y00724*
X03504Y0073*
X03498*
X03492Y00736*
X03486Y0073*
X0348*
X03486Y00724*
X0348Y00718*
X03486*
X03492Y00712*
X03545Y0055D02*
X03525Y0059D01*
X03565*
X03545Y0055*
Y00558D02*
X03533Y00582D01*
X03557*
X03545Y00558*
X0012Y03808D02*
X001Y03848D01*
X0014*
X0012Y03808*
Y03816D02*
X00108Y0384D01*
X00132*
X0012Y03816*
X00167Y0231D02*
X00177Y0232D01*
X00187*
X00177Y0233*
X00187Y0234*
X00177*
X00167Y0235*
X00157Y0234*
X00147*
X00157Y0233*
X00147Y0232*
X00157*
X00167Y0231*
Y02318D02*
X00173Y02324D01*
X00179*
X00173Y0233*
X00179Y02336*
X00173*
X00167Y02342*
X00161Y02336*
X00155*
X00161Y0233*
X00155Y02324*
X00161*
X00167Y02318*
X04631Y02336D02*
X04641Y02346D01*
X04651*
X04641Y02356*
X04651Y02366*
X04641*
X04631Y02376*
X04621Y02366*
X04611*
X04621Y02356*
X04611Y02346*
X04621*
X04631Y02336*
Y02344D02*
X04637Y0235D01*
X04643*
X04637Y02356*
X04643Y02362*
X04637*
X04631Y02368*
X04625Y02362*
X04619*
X04625Y02356*
X04619Y0235*
X04625*
X04631Y02344*
X04598Y02354D02*
X04608Y02364D01*
X04618*
X04608Y02374*
X04618Y02384*
X04608*
X04598Y02394*
X04588Y02384*
X04578*
X04588Y02374*
X04578Y02364*
X04588*
X04598Y02354*
Y02362D02*
X04604Y02368D01*
X0461*
X04604Y02374*
X0461Y0238*
X04604*
X04598Y02386*
X04592Y0238*
X04586*
X04592Y02374*
X04586Y02368*
X04592*
X04598Y02362*
X03472Y02461D02*
X03452Y02501D01*
X03492*
X03472Y02461*
Y02469D02*
X0346Y02493D01*
X03484*
X03472Y02469*
X04202Y02178D02*
X04212Y02188D01*
X04222*
X04212Y02198*
X04222Y02208*
X04212*
X04202Y02218*
X04192Y02208*
X04182*
X04192Y02198*
X04182Y02188*
X04192*
X04202Y02178*
Y02186D02*
X04208Y02192D01*
X04214*
X04208Y02198*
X04214Y02204*
X04208*
X04202Y0221*
X04196Y02204*
X0419*
X04196Y02198*
X0419Y02192*
X04196*
X04202Y02186*
X04181Y02231D02*
X04161Y02271D01*
X04201*
X04181Y02231*
Y02239D02*
X04169Y02263D01*
X04193*
X04181Y02239*
X03549Y01859D02*
X03559Y01869D01*
X03569*
X03559Y01879*
X03569Y01889*
X03559*
X03549Y01899*
X03539Y01889*
X03529*
X03539Y01879*
X03529Y01869*
X03539*
X03549Y01859*
Y01867D02*
X03555Y01873D01*
X03561*
X03555Y01879*
X03561Y01885*
X03555*
X03549Y01891*
X03543Y01885*
X03537*
X03543Y01879*
X03537Y01873*
X03543*
X03549Y01867*
X0374Y01889D02*
X0375Y01899D01*
X0376*
X0375Y01909*
X0376Y01919*
X0375*
X0374Y01929*
X0373Y01919*
X0372*
X0373Y01909*
X0372Y01899*
X0373*
X0374Y01889*
Y01897D02*
X03746Y01903D01*
X03752*
X03746Y01909*
X03752Y01915*
X03746*
X0374Y01921*
X03734Y01915*
X03728*
X03734Y01909*
X03728Y01903*
X03734*
X0374Y01897*
X04117Y02349D02*
X04127Y02359D01*
X04137*
X04127Y02369*
X04137Y02379*
X04127*
X04117Y02389*
X04107Y02379*
X04097*
X04107Y02369*
X04097Y02359*
X04107*
X04117Y02349*
Y02357D02*
X04123Y02363D01*
X04129*
X04123Y02369*
X04129Y02375*
X04123*
X04117Y02381*
X04111Y02375*
X04105*
X04111Y02369*
X04105Y02363*
X04111*
X04117Y02357*
X04149Y0247D02*
X04129Y0251D01*
X04169*
X04149Y0247*
Y02478D02*
X04137Y02502D01*
X04161*
X04149Y02478*
X04761Y03172D02*
X04771Y03182D01*
X04781*
X04771Y03192*
X04781Y03202*
X04771*
X04761Y03212*
X04751Y03202*
X04741*
X04751Y03192*
X04741Y03182*
X04751*
X04761Y03172*
Y0318D02*
X04767Y03186D01*
X04773*
X04767Y03192*
X04773Y03198*
X04767*
X04761Y03204*
X04755Y03198*
X04749*
X04755Y03192*
X04749Y03186*
X04755*
X04761Y0318*
X04262Y02767D02*
X04242Y02807D01*
X04282*
X04262Y02767*
Y02775D02*
X0425Y02799D01*
X04274*
X04262Y02775*
X03769Y01978D02*
X03779Y01988D01*
X03789*
X03779Y01998*
X03789Y02008*
X03779*
X03769Y02018*
X03759Y02008*
X03749*
X03759Y01998*
X03749Y01988*
X03759*
X03769Y01978*
Y01986D02*
X03775Y01992D01*
X03781*
X03775Y01998*
X03781Y02004*
X03775*
X03769Y0201*
X03763Y02004*
X03757*
X03763Y01998*
X03757Y01992*
X03763*
X03769Y01986*
X03548Y02217D02*
X03558Y02227D01*
X03568*
X03558Y02237*
X03568Y02247*
X03558*
X03548Y02257*
X03538Y02247*
X03528*
X03538Y02237*
X03528Y02227*
X03538*
X03548Y02217*
Y02225D02*
X03554Y02231D01*
X0356*
X03554Y02237*
X0356Y02243*
X03554*
X03548Y02249*
X03542Y02243*
X03536*
X03542Y02237*
X03536Y02231*
X03542*
X03548Y02225*
X04127Y02399D02*
X04137Y02409D01*
X04147*
X04137Y02419*
X04147Y02429*
X04137*
X04127Y02439*
X04117Y02429*
X04107*
X04117Y02419*
X04107Y02409*
X04117*
X04127Y02399*
Y02407D02*
X04133Y02413D01*
X04139*
X04133Y02419*
X04139Y02425*
X04133*
X04127Y02431*
X04121Y02425*
X04115*
X04121Y02419*
X04115Y02413*
X04121*
X04127Y02407*
X04354Y0242D02*
X04364Y0243D01*
X04374*
X04364Y0244*
X04374Y0245*
X04364*
X04354Y0246*
X04344Y0245*
X04334*
X04344Y0244*
X04334Y0243*
X04344*
X04354Y0242*
Y02428D02*
X0436Y02434D01*
X04366*
X0436Y0244*
X04366Y02446*
X0436*
X04354Y02452*
X04348Y02446*
X04342*
X04348Y0244*
X04342Y02434*
X04348*
X04354Y02428*
X02476Y02218D02*
X02486Y02228D01*
X02496*
X02486Y02238*
X02496Y02248*
X02486*
X02476Y02258*
X02466Y02248*
X02456*
X02466Y02238*
X02456Y02228*
X02466*
X02476Y02218*
Y02226D02*
X02482Y02232D01*
X02488*
X02482Y02238*
X02488Y02244*
X02482*
X02476Y0225*
X0247Y02244*
X02464*
X0247Y02238*
X02464Y02232*
X0247*
X02476Y02226*
X02505Y02161D02*
X02515Y02171D01*
X02525*
X02515Y02181*
X02525Y02191*
X02515*
X02505Y02201*
X02495Y02191*
X02485*
X02495Y02181*
X02485Y02171*
X02495*
X02505Y02161*
Y02169D02*
X02511Y02175D01*
X02517*
X02511Y02181*
X02517Y02187*
X02511*
X02505Y02193*
X02499Y02187*
X02493*
X02499Y02181*
X02493Y02175*
X02499*
X02505Y02169*
X02535Y02249D02*
X02545Y02259D01*
X02555*
X02545Y02269*
X02555Y02279*
X02545*
X02535Y02289*
X02525Y02279*
X02515*
X02525Y02269*
X02515Y02259*
X02525*
X02535Y02249*
Y02257D02*
X02541Y02263D01*
X02547*
X02541Y02269*
X02547Y02275*
X02541*
X02535Y02281*
X02529Y02275*
X02523*
X02529Y02269*
X02523Y02263*
X02529*
X02535Y02257*
X03529Y02653D02*
X03509Y02693D01*
X03549*
X03529Y02653*
Y02661D02*
X03517Y02685D01*
X03541*
X03529Y02661*
X02647Y02347D02*
X02657Y02357D01*
X02667*
X02657Y02367*
X02667Y02377*
X02657*
X02647Y02387*
X02637Y02377*
X02627*
X02637Y02367*
X02627Y02357*
X02637*
X02647Y02347*
Y02355D02*
X02653Y02361D01*
X02659*
X02653Y02367*
X02659Y02373*
X02653*
X02647Y02379*
X02641Y02373*
X02635*
X02641Y02367*
X02635Y02361*
X02641*
X02647Y02355*
Y0181D02*
X02657Y0182D01*
X02667*
X02657Y0183*
X02667Y0184*
X02657*
X02647Y0185*
X02637Y0184*
X02627*
X02637Y0183*
X02627Y0182*
X02637*
X02647Y0181*
Y01818D02*
X02653Y01824D01*
X02659*
X02653Y0183*
X02659Y01836*
X02653*
X02647Y01842*
X02641Y01836*
X02635*
X02641Y0183*
X02635Y01824*
X02641*
X02647Y01818*
X02618Y02298D02*
X02628Y02308D01*
X02638*
X02628Y02318*
X02638Y02328*
X02628*
X02618Y02338*
X02608Y02328*
X02598*
X02608Y02318*
X02598Y02308*
X02608*
X02618Y02298*
Y02306D02*
X02624Y02312D01*
X0263*
X02624Y02318*
X0263Y02324*
X02624*
X02618Y0233*
X02612Y02324*
X02606*
X02612Y02318*
X02606Y02312*
X02612*
X02618Y02306*
Y01846D02*
X02628Y01856D01*
X02638*
X02628Y01866*
X02638Y01876*
X02628*
X02618Y01886*
X02608Y01876*
X02598*
X02608Y01866*
X02598Y01856*
X02608*
X02618Y01846*
Y01854D02*
X02624Y0186D01*
X0263*
X02624Y01866*
X0263Y01872*
X02624*
X02618Y01878*
X02612Y01872*
X02606*
X02612Y01866*
X02606Y0186*
X02612*
X02618Y01854*
X02677Y02399D02*
X02687Y02409D01*
X02697*
X02687Y02419*
X02697Y02429*
X02687*
X02677Y02439*
X02667Y02429*
X02657*
X02667Y02419*
X02657Y02409*
X02667*
X02677Y02399*
Y02407D02*
X02683Y02413D01*
X02689*
X02683Y02419*
X02689Y02425*
X02683*
X02677Y02431*
X02671Y02425*
X02665*
X02671Y02419*
X02665Y02413*
X02671*
X02677Y02407*
X02588Y01515D02*
X02598Y01525D01*
X02608*
X02598Y01535*
X02608Y01545*
X02598*
X02588Y01555*
X02578Y01545*
X02568*
X02578Y01535*
X02568Y01525*
X02578*
X02588Y01515*
Y01523D02*
X02594Y01529D01*
X026*
X02594Y01535*
X026Y01541*
X02594*
X02588Y01547*
X02582Y01541*
X02576*
X02582Y01535*
X02576Y01529*
X02582*
X02588Y01523*
X02482Y0155D02*
X02492Y0156D01*
X02502*
X02492Y0157*
X02502Y0158*
X02492*
X02482Y0159*
X02472Y0158*
X02462*
X02472Y0157*
X02462Y0156*
X02472*
X02482Y0155*
Y01558D02*
X02488Y01564D01*
X02494*
X02488Y0157*
X02494Y01576*
X02488*
X02482Y01582*
X02476Y01576*
X0247*
X02476Y0157*
X0247Y01564*
X02476*
X02482Y01558*
X0461Y02025D02*
X0459Y02065D01*
X0463*
X0461Y02025*
Y02033D02*
X04598Y02057D01*
X04622*
X0461Y02033*
X04385Y02731D02*
X04395Y02741D01*
X04405*
X04395Y02751*
X04405Y02761*
X04395*
X04385Y02771*
X04375Y02761*
X04365*
X04375Y02751*
X04365Y02741*
X04375*
X04385Y02731*
Y02739D02*
X04391Y02745D01*
X04397*
X04391Y02751*
X04397Y02757*
X04391*
X04385Y02763*
X04379Y02757*
X04373*
X04379Y02751*
X04373Y02745*
X04379*
X04385Y02739*
X04232Y0283D02*
X04242Y0284D01*
X04252*
X04242Y0285*
X04252Y0286*
X04242*
X04232Y0287*
X04222Y0286*
X04212*
X04222Y0285*
X04212Y0284*
X04222*
X04232Y0283*
Y02838D02*
X04238Y02844D01*
X04244*
X04238Y0285*
X04244Y02856*
X04238*
X04232Y02862*
X04226Y02856*
X0422*
X04226Y0285*
X0422Y02844*
X04226*
X04232Y02838*
X04551Y02092D02*
X04531Y02132D01*
X04571*
X04551Y02092*
Y021D02*
X04539Y02124D01*
X04563*
X04551Y021*
X04511Y02092D02*
X04491Y02132D01*
X04531*
X04511Y02092*
Y021D02*
X04499Y02124D01*
X04523*
X04511Y021*
X02476Y01961D02*
X02486Y01971D01*
X02496*
X02486Y01981*
X02496Y01991*
X02486*
X02476Y02001*
X02466Y01991*
X02456*
X02466Y01981*
X02456Y01971*
X02466*
X02476Y01961*
Y01969D02*
X02482Y01975D01*
X02488*
X02482Y01981*
X02488Y01987*
X02482*
X02476Y01993*
X0247Y01987*
X02464*
X0247Y01981*
X02464Y01975*
X0247*
X02476Y01969*
X04395Y02875D02*
X04405Y02885D01*
X04415*
X04405Y02895*
X04415Y02905*
X04405*
X04395Y02915*
X04385Y02905*
X04375*
X04385Y02895*
X04375Y02885*
X04385*
X04395Y02875*
Y02883D02*
X04401Y02889D01*
X04407*
X04401Y02895*
X04407Y02901*
X04401*
X04395Y02907*
X04389Y02901*
X04383*
X04389Y02895*
X04383Y02889*
X04389*
X04395Y02883*
X04511Y02056D02*
X04491Y02096D01*
X04531*
X04511Y02056*
Y02064D02*
X04499Y02088D01*
X04523*
X04511Y02064*
X03155Y0291D02*
X03165Y0292D01*
X03175*
X03165Y0293*
X03175Y0294*
X03165*
X03155Y0295*
X03145Y0294*
X03135*
X03145Y0293*
X03135Y0292*
X03145*
X03155Y0291*
Y02918D02*
X03161Y02924D01*
X03167*
X03161Y0293*
X03167Y02936*
X03161*
X03155Y02942*
X03149Y02936*
X03143*
X03149Y0293*
X03143Y02924*
X03149*
X03155Y02918*
X03054Y03219D02*
X03064Y03229D01*
X03074*
X03064Y03239*
X03074Y03249*
X03064*
X03054Y03259*
X03044Y03249*
X03034*
X03044Y03239*
X03034Y03229*
X03044*
X03054Y03219*
Y03227D02*
X0306Y03233D01*
X03066*
X0306Y03239*
X03066Y03245*
X0306*
X03054Y03251*
X03048Y03245*
X03042*
X03048Y03239*
X03042Y03233*
X03048*
X03054Y03227*
X03154Y03219D02*
X03164Y03229D01*
X03174*
X03164Y03239*
X03174Y03249*
X03164*
X03154Y03259*
X03144Y03249*
X03134*
X03144Y03239*
X03134Y03229*
X03144*
X03154Y03219*
Y03227D02*
X0316Y03233D01*
X03166*
X0316Y03239*
X03166Y03245*
X0316*
X03154Y03251*
X03148Y03245*
X03142*
X03148Y03239*
X03142Y03233*
X03148*
X03154Y03227*
X04647Y03172D02*
X04657Y03182D01*
X04667*
X04657Y03192*
X04667Y03202*
X04657*
X04647Y03212*
X04637Y03202*
X04627*
X04637Y03192*
X04627Y03182*
X04637*
X04647Y03172*
Y0318D02*
X04653Y03186D01*
X04659*
X04653Y03192*
X04659Y03198*
X04653*
X04647Y03204*
X04641Y03198*
X04635*
X04641Y03192*
X04635Y03186*
X04641*
X04647Y0318*
X03613Y02412D02*
X03623Y02422D01*
X03633*
X03623Y02432*
X03633Y02442*
X03623*
X03613Y02452*
X03603Y02442*
X03593*
X03603Y02432*
X03593Y02422*
X03603*
X03613Y02412*
Y0242D02*
X03619Y02426D01*
X03625*
X03619Y02432*
X03625Y02438*
X03619*
X03613Y02444*
X03607Y02438*
X03601*
X03607Y02432*
X03601Y02426*
X03607*
X03613Y0242*
X04822Y02167D02*
X04802Y02207D01*
X04842*
X04822Y02167*
Y02175D02*
X0481Y02199D01*
X04834*
X04822Y02175*
Y02198D02*
X04802Y02238D01*
X04842*
X04822Y02198*
Y02206D02*
X0481Y0223D01*
X04834*
X04822Y02206*
Y0223D02*
X04802Y0227D01*
X04842*
X04822Y0223*
Y02238D02*
X0481Y02262D01*
X04834*
X04822Y02238*
X0271Y01909D02*
X0272Y01919D01*
X0273*
X0272Y01929*
X0273Y01939*
X0272*
X0271Y01949*
X027Y01939*
X0269*
X027Y01929*
X0269Y01919*
X027*
X0271Y01909*
Y01917D02*
X02716Y01923D01*
X02722*
X02716Y01929*
X02722Y01935*
X02716*
X0271Y01941*
X02704Y01935*
X02698*
X02704Y01929*
X02698Y01923*
X02704*
X0271Y01917*
X03131Y02338D02*
X03141Y02348D01*
X03151*
X03141Y02358*
X03151Y02368*
X03141*
X03131Y02378*
X03121Y02368*
X03111*
X03121Y02358*
X03111Y02348*
X03121*
X03131Y02338*
Y02346D02*
X03137Y02352D01*
X03143*
X03137Y02358*
X03143Y02364*
X03137*
X03131Y0237*
X03125Y02364*
X03119*
X03125Y02358*
X03119Y02352*
X03125*
X03131Y02346*
X03783Y02304D02*
X03793Y02314D01*
X03803*
X03793Y02324*
X03803Y02334*
X03793*
X03783Y02344*
X03773Y02334*
X03763*
X03773Y02324*
X03763Y02314*
X03773*
X03783Y02304*
Y02312D02*
X03789Y02318D01*
X03795*
X03789Y02324*
X03795Y0233*
X03789*
X03783Y02336*
X03777Y0233*
X03771*
X03777Y02324*
X03771Y02318*
X03777*
X03783Y02312*
X03745Y02395D02*
X03755Y02405D01*
X03765*
X03755Y02415*
X03765Y02425*
X03755*
X03745Y02435*
X03735Y02425*
X03725*
X03735Y02415*
X03725Y02405*
X03735*
X03745Y02395*
Y02403D02*
X03751Y02409D01*
X03757*
X03751Y02415*
X03757Y02421*
X03751*
X03745Y02427*
X03739Y02421*
X03733*
X03739Y02415*
X03733Y02409*
X03739*
X03745Y02403*
X03781Y02395D02*
X03791Y02405D01*
X03801*
X03791Y02415*
X03801Y02425*
X03791*
X03781Y02435*
X03771Y02425*
X03761*
X03771Y02415*
X03761Y02405*
X03771*
X03781Y02395*
Y02403D02*
X03787Y02409D01*
X03793*
X03787Y02415*
X03793Y02421*
X03787*
X03781Y02427*
X03775Y02421*
X03769*
X03775Y02415*
X03769Y02409*
X03775*
X03781Y02403*
X02677Y01877D02*
X02687Y01887D01*
X02697*
X02687Y01897*
X02697Y01907*
X02687*
X02677Y01917*
X02667Y01907*
X02657*
X02667Y01897*
X02657Y01887*
X02667*
X02677Y01877*
Y01885D02*
X02683Y01891D01*
X02689*
X02683Y01897*
X02689Y01903*
X02683*
X02677Y01909*
X02671Y01903*
X02665*
X02671Y01897*
X02665Y01891*
X02671*
X02677Y01885*
X03664Y02756D02*
X03674Y02766D01*
X03684*
X03674Y02776*
X03684Y02786*
X03674*
X03664Y02796*
X03654Y02786*
X03644*
X03654Y02776*
X03644Y02766*
X03654*
X03664Y02756*
Y02764D02*
X0367Y0277D01*
X03676*
X0367Y02776*
X03676Y02782*
X0367*
X03664Y02788*
X03658Y02782*
X03652*
X03658Y02776*
X03652Y0277*
X03658*
X03664Y02764*
X03639Y02784D02*
X03649Y02794D01*
X03659*
X03649Y02804*
X03659Y02814*
X03649*
X03639Y02824*
X03629Y02814*
X03619*
X03629Y02804*
X03619Y02794*
X03629*
X03639Y02784*
Y02792D02*
X03645Y02798D01*
X03651*
X03645Y02804*
X03651Y0281*
X03645*
X03639Y02816*
X03633Y0281*
X03627*
X03633Y02804*
X03627Y02798*
X03633*
X03639Y02792*
X03716Y02814D02*
X03726Y02824D01*
X03736*
X03726Y02834*
X03736Y02844*
X03726*
X03716Y02854*
X03706Y02844*
X03696*
X03706Y02834*
X03696Y02824*
X03706*
X03716Y02814*
Y02822D02*
X03722Y02828D01*
X03728*
X03722Y02834*
X03728Y0284*
X03722*
X03716Y02846*
X0371Y0284*
X03704*
X0371Y02834*
X03704Y02828*
X0371*
X03716Y02822*
X03958Y0294D02*
X03968Y0295D01*
X03978*
X03968Y0296*
X03978Y0297*
X03968*
X03958Y0298*
X03948Y0297*
X03938*
X03948Y0296*
X03938Y0295*
X03948*
X03958Y0294*
Y02948D02*
X03964Y02954D01*
X0397*
X03964Y0296*
X0397Y02966*
X03964*
X03958Y02972*
X03952Y02966*
X03946*
X03952Y0296*
X03946Y02954*
X03952*
X03958Y02948*
X03934Y02914D02*
X03944Y02924D01*
X03954*
X03944Y02934*
X03954Y02944*
X03944*
X03934Y02954*
X03924Y02944*
X03914*
X03924Y02934*
X03914Y02924*
X03924*
X03934Y02914*
Y02922D02*
X0394Y02928D01*
X03946*
X0394Y02934*
X03946Y0294*
X0394*
X03934Y02946*
X03928Y0294*
X03922*
X03928Y02934*
X03922Y02928*
X03928*
X03934Y02922*
X04225Y03032D02*
X04235Y03042D01*
X04245*
X04235Y03052*
X04245Y03062*
X04235*
X04225Y03072*
X04215Y03062*
X04205*
X04215Y03052*
X04205Y03042*
X04215*
X04225Y03032*
Y0304D02*
X04231Y03046D01*
X04237*
X04231Y03052*
X04237Y03058*
X04231*
X04225Y03064*
X04219Y03058*
X04213*
X04219Y03052*
X04213Y03046*
X04219*
X04225Y0304*
X04556Y03021D02*
X04566Y03031D01*
X04576*
X04566Y03041*
X04576Y03051*
X04566*
X04556Y03061*
X04546Y03051*
X04536*
X04546Y03041*
X04536Y03031*
X04546*
X04556Y03021*
Y03029D02*
X04562Y03035D01*
X04568*
X04562Y03041*
X04568Y03047*
X04562*
X04556Y03053*
X0455Y03047*
X04544*
X0455Y03041*
X04544Y03035*
X0455*
X04556Y03029*
Y02969D02*
X04566Y02979D01*
X04576*
X04566Y02989*
X04576Y02999*
X04566*
X04556Y03009*
X04546Y02999*
X04536*
X04546Y02989*
X04536Y02979*
X04546*
X04556Y02969*
Y02977D02*
X04562Y02983D01*
X04568*
X04562Y02989*
X04568Y02995*
X04562*
X04556Y03001*
X0455Y02995*
X04544*
X0455Y02989*
X04544Y02983*
X0455*
X04556Y02977*
X04535Y0146D02*
X04515Y015D01*
X04555*
X04535Y0146*
Y01468D02*
X04523Y01492D01*
X04547*
X04535Y01468*
X04606Y0146D02*
X04586Y015D01*
X04626*
X04606Y0146*
Y01468D02*
X04594Y01492D01*
X04618*
X04606Y01468*
X0457Y0146D02*
X0455Y015D01*
X0459*
X0457Y0146*
Y01468D02*
X04558Y01492D01*
X04582*
X0457Y01468*
X03354Y02909D02*
X03364Y02919D01*
X03374*
X03364Y02929*
X03374Y02939*
X03364*
X03354Y02949*
X03344Y02939*
X03334*
X03344Y02929*
X03334Y02919*
X03344*
X03354Y02909*
Y02917D02*
X0336Y02923D01*
X03366*
X0336Y02929*
X03366Y02935*
X0336*
X03354Y02941*
X03348Y02935*
X03342*
X03348Y02929*
X03342Y02923*
X03348*
X03354Y02917*
X03253Y02909D02*
X03263Y02919D01*
X03273*
X03263Y02929*
X03273Y02939*
X03263*
X03253Y02949*
X03243Y02939*
X03233*
X03243Y02929*
X03233Y02919*
X03243*
X03253Y02909*
Y02917D02*
X03259Y02923D01*
X03265*
X03259Y02929*
X03265Y02935*
X03259*
X03253Y02941*
X03247Y02935*
X03241*
X03247Y02929*
X03241Y02923*
X03247*
X03253Y02917*
X03179Y02643D02*
X03189Y02653D01*
X03199*
X03189Y02663*
X03199Y02673*
X03189*
X03179Y02683*
X03169Y02673*
X03159*
X03169Y02663*
X03159Y02653*
X03169*
X03179Y02643*
Y02651D02*
X03185Y02657D01*
X03191*
X03185Y02663*
X03191Y02669*
X03185*
X03179Y02675*
X03173Y02669*
X03167*
X03173Y02663*
X03167Y02657*
X03173*
X03179Y02651*
X02879Y02912D02*
X02889Y02922D01*
X02899*
X02889Y02932*
X02899Y02942*
X02889*
X02879Y02952*
X02869Y02942*
X02859*
X02869Y02932*
X02859Y02922*
X02869*
X02879Y02912*
Y0292D02*
X02885Y02926D01*
X02891*
X02885Y02932*
X02891Y02938*
X02885*
X02879Y02944*
X02873Y02938*
X02867*
X02873Y02932*
X02867Y02926*
X02873*
X02879Y0292*
X02779Y02912D02*
X02789Y02922D01*
X02799*
X02789Y02932*
X02799Y02942*
X02789*
X02779Y02952*
X02769Y02942*
X02759*
X02769Y02932*
X02759Y02922*
X02769*
X02779Y02912*
Y0292D02*
X02785Y02926D01*
X02791*
X02785Y02932*
X02791Y02938*
X02785*
X02779Y02944*
X02773Y02938*
X02767*
X02773Y02932*
X02767Y02926*
X02773*
X02779Y0292*
X02678Y02912D02*
X02688Y02922D01*
X02698*
X02688Y02932*
X02698Y02942*
X02688*
X02678Y02952*
X02668Y02942*
X02658*
X02668Y02932*
X02658Y02922*
X02668*
X02678Y02912*
Y0292D02*
X02684Y02926D01*
X0269*
X02684Y02932*
X0269Y02938*
X02684*
X02678Y02944*
X02672Y02938*
X02666*
X02672Y02932*
X02666Y02926*
X02672*
X02678Y0292*
X02578Y02912D02*
X02588Y02922D01*
X02598*
X02588Y02932*
X02598Y02942*
X02588*
X02578Y02952*
X02568Y02942*
X02558*
X02568Y02932*
X02558Y02922*
X02568*
X02578Y02912*
Y0292D02*
X02584Y02926D01*
X0259*
X02584Y02932*
X0259Y02938*
X02584*
X02578Y02944*
X02572Y02938*
X02566*
X02572Y02932*
X02566Y02926*
X02572*
X02578Y0292*
X0263Y02912D02*
X0264Y02922D01*
X0265*
X0264Y02932*
X0265Y02942*
X0264*
X0263Y02952*
X0262Y02942*
X0261*
X0262Y02932*
X0261Y02922*
X0262*
X0263Y02912*
Y0292D02*
X02636Y02926D01*
X02642*
X02636Y02932*
X02642Y02938*
X02636*
X0263Y02944*
X02624Y02938*
X02618*
X02624Y02932*
X02618Y02926*
X02624*
X0263Y0292*
X02529Y02912D02*
X02539Y02922D01*
X02549*
X02539Y02932*
X02549Y02942*
X02539*
X02529Y02952*
X02519Y02942*
X02509*
X02519Y02932*
X02509Y02922*
X02519*
X02529Y02912*
Y0292D02*
X02535Y02926D01*
X02541*
X02535Y02932*
X02541Y02938*
X02535*
X02529Y02944*
X02523Y02938*
X02517*
X02523Y02932*
X02517Y02926*
X02523*
X02529Y0292*
X03611Y02743D02*
X03621Y02753D01*
X03631*
X03621Y02763*
X03631Y02773*
X03621*
X03611Y02783*
X03601Y02773*
X03591*
X03601Y02763*
X03591Y02753*
X03601*
X03611Y02743*
Y02751D02*
X03617Y02757D01*
X03623*
X03617Y02763*
X03623Y02769*
X03617*
X03611Y02775*
X03605Y02769*
X03599*
X03605Y02763*
X03599Y02757*
X03605*
X03611Y02751*
X03848Y02753D02*
X03858Y02763D01*
X03868*
X03858Y02773*
X03868Y02783*
X03858*
X03848Y02793*
X03838Y02783*
X03828*
X03838Y02773*
X03828Y02763*
X03838*
X03848Y02753*
Y02761D02*
X03854Y02767D01*
X0386*
X03854Y02773*
X0386Y02779*
X03854*
X03848Y02785*
X03842Y02779*
X03836*
X03842Y02773*
X03836Y02767*
X03842*
X03848Y02761*
X04088Y02733D02*
X04098Y02743D01*
X04108*
X04098Y02753*
X04108Y02763*
X04098*
X04088Y02773*
X04078Y02763*
X04068*
X04078Y02753*
X04068Y02743*
X04078*
X04088Y02733*
Y02741D02*
X04094Y02747D01*
X041*
X04094Y02753*
X041Y02759*
X04094*
X04088Y02765*
X04082Y02759*
X04076*
X04082Y02753*
X04076Y02747*
X04082*
X04088Y02741*
X03938Y02792D02*
X03918Y02832D01*
X03958*
X03938Y02792*
Y028D02*
X03926Y02824D01*
X0395*
X03938Y028*
X04088Y02422D02*
X04098Y02432D01*
X04108*
X04098Y02442*
X04108Y02452*
X04098*
X04088Y02462*
X04078Y02452*
X04068*
X04078Y02442*
X04068Y02432*
X04078*
X04088Y02422*
Y0243D02*
X04094Y02436D01*
X041*
X04094Y02442*
X041Y02448*
X04094*
X04088Y02454*
X04082Y02448*
X04076*
X04082Y02442*
X04076Y02436*
X04082*
X04088Y0243*
X03938Y02361D02*
X03918Y02401D01*
X03958*
X03938Y02361*
Y02369D02*
X03926Y02393D01*
X0395*
X03938Y02369*
X0385Y024D02*
X0386Y0241D01*
X0387*
X0386Y0242*
X0387Y0243*
X0386*
X0385Y0244*
X0384Y0243*
X0383*
X0384Y0242*
X0383Y0241*
X0384*
X0385Y024*
Y02408D02*
X03856Y02414D01*
X03862*
X03856Y0242*
X03862Y02426*
X03856*
X0385Y02432*
X03844Y02426*
X03838*
X03844Y0242*
X03838Y02414*
X03844*
X0385Y02408*
X03623Y02274D02*
X03633Y02284D01*
X03643*
X03633Y02294*
X03643Y02304*
X03633*
X03623Y02314*
X03613Y02304*
X03603*
X03613Y02294*
X03603Y02284*
X03613*
X03623Y02274*
Y02282D02*
X03629Y02288D01*
X03635*
X03629Y02294*
X03635Y023*
X03629*
X03623Y02306*
X03617Y023*
X03611*
X03617Y02294*
X03611Y02288*
X03617*
X03623Y02282*
X03816Y0211D02*
X03826Y0212D01*
X03836*
X03826Y0213*
X03836Y0214*
X03826*
X03816Y0215*
X03806Y0214*
X03796*
X03806Y0213*
X03796Y0212*
X03806*
X03816Y0211*
Y02118D02*
X03822Y02124D01*
X03828*
X03822Y0213*
X03828Y02136*
X03822*
X03816Y02142*
X0381Y02136*
X03804*
X0381Y0213*
X03804Y02124*
X0381*
X03816Y02118*
X0369Y0211D02*
X0367Y0215D01*
X0371*
X0369Y0211*
Y02118D02*
X03678Y02142D01*
X03702*
X0369Y02118*
X03995Y02133D02*
X03975Y02173D01*
X04015*
X03995Y02133*
Y02141D02*
X03983Y02165D01*
X04007*
X03995Y02141*
X03855Y02314D02*
X03865Y02324D01*
X03875*
X03865Y02334*
X03875Y02344*
X03865*
X03855Y02354*
X03845Y02344*
X03835*
X03845Y02334*
X03835Y02324*
X03845*
X03855Y02314*
Y02322D02*
X03861Y02328D01*
X03867*
X03861Y02334*
X03867Y0234*
X03861*
X03855Y02346*
X03849Y0234*
X03843*
X03849Y02334*
X03843Y02328*
X03849*
X03855Y02322*
X03995Y02259D02*
X04005Y02269D01*
X04015*
X04005Y02279*
X04015Y02289*
X04005*
X03995Y02299*
X03985Y02289*
X03975*
X03985Y02279*
X03975Y02269*
X03985*
X03995Y02259*
Y02267D02*
X04001Y02273D01*
X04007*
X04001Y02279*
X04007Y02285*
X04001*
X03995Y02291*
X03989Y02285*
X03983*
X03989Y02279*
X03983Y02273*
X03989*
X03995Y02267*
X03946Y03255D02*
X03956Y03265D01*
X03966*
X03956Y03275*
X03966Y03285*
X03956*
X03946Y03295*
X03936Y03285*
X03926*
X03936Y03275*
X03926Y03265*
X03936*
X03946Y03255*
Y03263D02*
X03952Y03269D01*
X03958*
X03952Y03275*
X03958Y03281*
X03952*
X03946Y03287*
X0394Y03281*
X03934*
X0394Y03275*
X03934Y03269*
X0394*
X03946Y03263*
X04511Y03345D02*
X04521Y03355D01*
X04531*
X04521Y03365*
X04531Y03375*
X04521*
X04511Y03385*
X04501Y03375*
X04491*
X04501Y03365*
X04491Y03355*
X04501*
X04511Y03345*
Y03353D02*
X04517Y03359D01*
X04523*
X04517Y03365*
X04523Y03371*
X04517*
X04511Y03377*
X04505Y03371*
X04499*
X04505Y03365*
X04499Y03359*
X04505*
X04511Y03353*
X04422Y03192D02*
X04432Y03202D01*
X04442*
X04432Y03212*
X04442Y03222*
X04432*
X04422Y03232*
X04412Y03222*
X04402*
X04412Y03212*
X04402Y03202*
X04412*
X04422Y03192*
Y032D02*
X04428Y03206D01*
X04434*
X04428Y03212*
X04434Y03218*
X04428*
X04422Y03224*
X04416Y03218*
X0441*
X04416Y03212*
X0441Y03206*
X04416*
X04422Y032*
X0407Y02983D02*
X0408Y02993D01*
X0409*
X0408Y03003*
X0409Y03013*
X0408*
X0407Y03023*
X0406Y03013*
X0405*
X0406Y03003*
X0405Y02993*
X0406*
X0407Y02983*
Y02991D02*
X04076Y02997D01*
X04082*
X04076Y03003*
X04082Y03009*
X04076*
X0407Y03015*
X04064Y03009*
X04058*
X04064Y03003*
X04058Y02997*
X04064*
X0407Y02991*
X04048Y02912D02*
X04058Y02922D01*
X04068*
X04058Y02932*
X04068Y02942*
X04058*
X04048Y02952*
X04038Y02942*
X04028*
X04038Y02932*
X04028Y02922*
X04038*
X04048Y02912*
Y0292D02*
X04054Y02926D01*
X0406*
X04054Y02932*
X0406Y02938*
X04054*
X04048Y02944*
X04042Y02938*
X04036*
X04042Y02932*
X04036Y02926*
X04042*
X04048Y0292*
X04204Y02983D02*
X04184Y03023D01*
X04224*
X04204Y02983*
Y02991D02*
X04192Y03015D01*
X04216*
X04204Y02991*
X03956Y03138D02*
X03936Y03178D01*
X03976*
X03956Y03138*
Y03146D02*
X03944Y0317D01*
X03968*
X03956Y03146*
X0409Y03139D02*
X041Y03149D01*
X0411*
X041Y03159*
X0411Y03169*
X041*
X0409Y03179*
X0408Y03169*
X0407*
X0408Y03159*
X0407Y03149*
X0408*
X0409Y03139*
Y03147D02*
X04096Y03153D01*
X04102*
X04096Y03159*
X04102Y03165*
X04096*
X0409Y03171*
X04084Y03165*
X04078*
X04084Y03159*
X04078Y03153*
X04084*
X0409Y03147*
X04143Y03511D02*
X04153Y03521D01*
X04163*
X04153Y03531*
X04163Y03541*
X04153*
X04143Y03551*
X04133Y03541*
X04123*
X04133Y03531*
X04123Y03521*
X04133*
X04143Y03511*
Y03519D02*
X04149Y03525D01*
X04155*
X04149Y03531*
X04155Y03537*
X04149*
X04143Y03543*
X04137Y03537*
X04131*
X04137Y03531*
X04131Y03525*
X04137*
X04143Y03519*
X03996Y03507D02*
X04006Y03517D01*
X04016*
X04006Y03527*
X04016Y03537*
X04006*
X03996Y03547*
X03986Y03537*
X03976*
X03986Y03527*
X03976Y03517*
X03986*
X03996Y03507*
Y03515D02*
X04002Y03521D01*
X04008*
X04002Y03527*
X04008Y03533*
X04002*
X03996Y03539*
X0399Y03533*
X03984*
X0399Y03527*
X03984Y03521*
X0399*
X03996Y03515*
X03934Y02978D02*
X03944Y02988D01*
X03954*
X03944Y02998*
X03954Y03008*
X03944*
X03934Y03018*
X03924Y03008*
X03914*
X03924Y02998*
X03914Y02988*
X03924*
X03934Y02978*
Y02986D02*
X0394Y02992D01*
X03946*
X0394Y02998*
X03946Y03004*
X0394*
X03934Y0301*
X03928Y03004*
X03922*
X03928Y02998*
X03922Y02992*
X03928*
X03934Y02986*
Y03029D02*
X03944Y03039D01*
X03954*
X03944Y03049*
X03954Y03059*
X03944*
X03934Y03069*
X03924Y03059*
X03914*
X03924Y03049*
X03914Y03039*
X03924*
X03934Y03029*
Y03037D02*
X0394Y03043D01*
X03946*
X0394Y03049*
X03946Y03055*
X0394*
X03934Y03061*
X03928Y03055*
X03922*
X03928Y03049*
X03922Y03043*
X03928*
X03934Y03037*
X0349Y02928D02*
X035Y02938D01*
X0351*
X035Y02948*
X0351Y02958*
X035*
X0349Y02968*
X0348Y02958*
X0347*
X0348Y02948*
X0347Y02938*
X0348*
X0349Y02928*
Y02936D02*
X03496Y02942D01*
X03502*
X03496Y02948*
X03502Y02954*
X03496*
X0349Y0296*
X03484Y02954*
X03478*
X03484Y02948*
X03478Y02942*
X03484*
X0349Y02936*
X0358Y02992D02*
X0356Y03032D01*
X036*
X0358Y02992*
Y03D02*
X03568Y03024D01*
X03592*
X0358Y03*
X03818Y03275D02*
X03828Y03285D01*
X03838*
X03828Y03295*
X03838Y03305*
X03828*
X03818Y03315*
X03808Y03305*
X03798*
X03808Y03295*
X03798Y03285*
X03808*
X03818Y03275*
Y03283D02*
X03824Y03289D01*
X0383*
X03824Y03295*
X0383Y03301*
X03824*
X03818Y03307*
X03812Y03301*
X03806*
X03812Y03295*
X03806Y03289*
X03812*
X03818Y03283*
X03423Y0317D02*
X03433Y0318D01*
X03443*
X03433Y0319*
X03443Y032*
X03433*
X03423Y0321*
X03413Y032*
X03403*
X03413Y0319*
X03403Y0318*
X03413*
X03423Y0317*
Y03178D02*
X03429Y03184D01*
X03435*
X03429Y0319*
X03435Y03196*
X03429*
X03423Y03202*
X03417Y03196*
X03411*
X03417Y0319*
X03411Y03184*
X03417*
X03423Y03178*
X03655Y03153D02*
X03665Y03163D01*
X03675*
X03665Y03173*
X03675Y03183*
X03665*
X03655Y03193*
X03645Y03183*
X03635*
X03645Y03173*
X03635Y03163*
X03645*
X03655Y03153*
Y03161D02*
X03661Y03167D01*
X03667*
X03661Y03173*
X03667Y03179*
X03661*
X03655Y03185*
X03649Y03179*
X03643*
X03649Y03173*
X03643Y03167*
X03649*
X03655Y03161*
X03341Y0342D02*
X03321Y0346D01*
X03361*
X03341Y0342*
Y03428D02*
X03329Y03452D01*
X03353*
X03341Y03428*
X034Y0342D02*
X0338Y0346D01*
X0342*
X034Y0342*
Y03428D02*
X03388Y03452D01*
X03412*
X034Y03428*
X03481Y0342D02*
X03461Y0346D01*
X03501*
X03481Y0342*
Y03428D02*
X03469Y03452D01*
X03493*
X03481Y03428*
X0351Y0342D02*
X0349Y0346D01*
X0353*
X0351Y0342*
Y03428D02*
X03498Y03452D01*
X03522*
X0351Y03428*
X0354Y0342D02*
X0352Y0346D01*
X0356*
X0354Y0342*
Y03428D02*
X03528Y03452D01*
X03552*
X0354Y03428*
X0337Y0342D02*
X0335Y0346D01*
X0339*
X0337Y0342*
Y03428D02*
X03358Y03452D01*
X03382*
X0337Y03428*
X03092Y02159D02*
X03102Y02169D01*
X03112*
X03102Y02179*
X03112Y02189*
X03102*
X03092Y02199*
X03082Y02189*
X03072*
X03082Y02179*
X03072Y02169*
X03082*
X03092Y02159*
Y02167D02*
X03098Y02173D01*
X03104*
X03098Y02179*
X03104Y02185*
X03098*
X03092Y02191*
X03086Y02185*
X0308*
X03086Y02179*
X0308Y02173*
X03086*
X03092Y02167*
Y02438D02*
X03072Y02478D01*
X03112*
X03092Y02438*
Y02446D02*
X0308Y0247D01*
X03104*
X03092Y02446*
X02724Y02159D02*
X02734Y02169D01*
X02744*
X02734Y02179*
X02744Y02189*
X02734*
X02724Y02199*
X02714Y02189*
X02704*
X02714Y02179*
X02704Y02169*
X02714*
X02724Y02159*
Y02167D02*
X0273Y02173D01*
X02736*
X0273Y02179*
X02736Y02185*
X0273*
X02724Y02191*
X02718Y02185*
X02712*
X02718Y02179*
X02712Y02173*
X02718*
X02724Y02167*
X02974Y01857D02*
X02954Y01897D01*
X02994*
X02974Y01857*
Y01865D02*
X02962Y01889D01*
X02986*
X02974Y01865*
X02935Y01948D02*
X02945Y01958D01*
X02955*
X02945Y01968*
X02955Y01978*
X02945*
X02935Y01988*
X02925Y01978*
X02915*
X02925Y01968*
X02915Y01958*
X02925*
X02935Y01948*
Y01956D02*
X02941Y01962D01*
X02947*
X02941Y01968*
X02947Y01974*
X02941*
X02935Y0198*
X02929Y01974*
X02923*
X02929Y01968*
X02923Y01962*
X02929*
X02935Y01956*
X02852Y01877D02*
X02862Y01887D01*
X02872*
X02862Y01897*
X02872Y01907*
X02862*
X02852Y01917*
X02842Y01907*
X02832*
X02842Y01897*
X02832Y01887*
X02842*
X02852Y01877*
Y01885D02*
X02858Y01891D01*
X02864*
X02858Y01897*
X02864Y01903*
X02858*
X02852Y01909*
X02846Y01903*
X0284*
X02846Y01897*
X0284Y01891*
X02846*
X02852Y01885*
X04129Y02753D02*
X04139Y02763D01*
X04149*
X04139Y02773*
X04149Y02783*
X04139*
X04129Y02793*
X04119Y02783*
X04109*
X04119Y02773*
X04109Y02763*
X04119*
X04129Y02753*
Y02761D02*
X04135Y02767D01*
X04141*
X04135Y02773*
X04141Y02779*
X04135*
X04129Y02785*
X04123Y02779*
X04117*
X04123Y02773*
X04117Y02767*
X04123*
X04129Y02761*
X0459Y02092D02*
X0457Y02132D01*
X0461*
X0459Y02092*
Y021D02*
X04578Y02124D01*
X04602*
X0459Y021*
Y02056D02*
X0457Y02096D01*
X0461*
X0459Y02056*
Y02064D02*
X04578Y02088D01*
X04602*
X0459Y02064*
X04551Y02056D02*
X04531Y02096D01*
X04571*
X04551Y02056*
Y02064D02*
X04539Y02088D01*
X04563*
X04551Y02064*
X04494Y02025D02*
X04474Y02065D01*
X04514*
X04494Y02025*
Y02033D02*
X04482Y02057D01*
X04506*
X04494Y02033*
X04531Y02025D02*
X04511Y02065D01*
X04551*
X04531Y02025*
Y02033D02*
X04519Y02057D01*
X04543*
X04531Y02033*
X0457Y02025D02*
X0455Y02065D01*
X0459*
X0457Y02025*
Y02033D02*
X04558Y02057D01*
X04582*
X0457Y02033*
X04765Y02027D02*
X04745Y02067D01*
X04785*
X04765Y02027*
Y02035D02*
X04753Y02059D01*
X04777*
X04765Y02035*
Y0206D02*
X04745Y021D01*
X04785*
X04765Y0206*
Y02068D02*
X04753Y02092D01*
X04777*
X04765Y02068*
X04364Y01379D02*
X04344Y01419D01*
X04384*
X04364Y01379*
Y01387D02*
X04352Y01411D01*
X04376*
X04364Y01387*
Y01413D02*
X04344Y01453D01*
X04384*
X04364Y01413*
Y01421D02*
X04352Y01445D01*
X04376*
X04364Y01421*
X04811Y01417D02*
X04791Y01457D01*
X04831*
X04811Y01417*
Y01425D02*
X04799Y01449D01*
X04823*
X04811Y01425*
Y01375D02*
X04791Y01415D01*
X04831*
X04811Y01375*
Y01383D02*
X04799Y01407D01*
X04823*
X04811Y01383*
X03253Y0322D02*
X03263Y0323D01*
X03273*
X03263Y0324*
X03273Y0325*
X03263*
X03253Y0326*
X03243Y0325*
X03233*
X03243Y0324*
X03233Y0323*
X03243*
X03253Y0322*
Y03228D02*
X03259Y03234D01*
X03265*
X03259Y0324*
X03265Y03246*
X03259*
X03253Y03252*
X03247Y03246*
X03241*
X03247Y0324*
X03241Y03234*
X03247*
X03253Y03228*
X01568Y03604D02*
X01548Y03644D01*
X01588*
X01568Y03604*
Y03612D02*
X01556Y03636D01*
X0158*
X01568Y03612*
X01627Y03604D02*
X01607Y03644D01*
X01647*
X01627Y03604*
Y03612D02*
X01615Y03636D01*
X01639*
X01627Y03612*
X01598Y03604D02*
X01578Y03644D01*
X01618*
X01598Y03604*
Y03612D02*
X01586Y03636D01*
X0161*
X01598Y03612*
X01403Y03605D02*
X01383Y03645D01*
X01423*
X01403Y03605*
Y03613D02*
X01391Y03637D01*
X01415*
X01403Y03613*
X01531Y03605D02*
X01511Y03645D01*
X01551*
X01531Y03605*
Y03613D02*
X01519Y03637D01*
X01543*
X01531Y03613*
X01501Y03605D02*
X01481Y03645D01*
X01521*
X01501Y03605*
Y03613D02*
X01489Y03637D01*
X01513*
X01501Y03613*
X01472Y03605D02*
X01452Y03645D01*
X01492*
X01472Y03605*
Y03613D02*
X0146Y03637D01*
X01484*
X01472Y03613*
X01433Y03605D02*
X01413Y03645D01*
X01453*
X01433Y03605*
Y03613D02*
X01421Y03637D01*
X01445*
X01433Y03613*
X01374Y03605D02*
X01354Y03645D01*
X01394*
X01374Y03605*
Y03613D02*
X01362Y03637D01*
X01386*
X01374Y03613*
X03238Y01785D02*
X03218Y01825D01*
X03258*
X03238Y01785*
Y01793D02*
X03226Y01817D01*
X0325*
X03238Y01793*
X03295Y01763D02*
X03275Y01803D01*
X03315*
X03295Y01763*
Y01771D02*
X03283Y01795D01*
X03307*
X03295Y01771*
X03151Y01509D02*
X03131Y01549D01*
X03171*
X03151Y01509*
Y01517D02*
X03139Y01541D01*
X03163*
X03151Y01517*
X03462Y01623D02*
X03442Y01663D01*
X03482*
X03462Y01623*
Y01631D02*
X0345Y01655D01*
X03474*
X03462Y01631*
X03501Y0158D02*
X03481Y0162D01*
X03521*
X03501Y0158*
Y01588D02*
X03489Y01612D01*
X03513*
X03501Y01588*
Y01623D02*
X03481Y01663D01*
X03521*
X03501Y01623*
Y01631D02*
X03489Y01655D01*
X03513*
X03501Y01631*
Y01667D02*
X03481Y01707D01*
X03521*
X03501Y01667*
Y01675D02*
X03489Y01699D01*
X03513*
X03501Y01675*
X03462Y0158D02*
X03442Y0162D01*
X03482*
X03462Y0158*
Y01588D02*
X0345Y01612D01*
X03474*
X03462Y01588*
Y01667D02*
X03442Y01707D01*
X03482*
X03462Y01667*
Y01675D02*
X0345Y01699D01*
X03474*
X03462Y01675*
X03423Y01667D02*
X03403Y01707D01*
X03443*
X03423Y01667*
Y01675D02*
X03411Y01699D01*
X03435*
X03423Y01675*
Y01623D02*
X03403Y01663D01*
X03443*
X03423Y01623*
Y01631D02*
X03411Y01655D01*
X03435*
X03423Y01631*
Y0158D02*
X03403Y0162D01*
X03443*
X03423Y0158*
Y01588D02*
X03411Y01612D01*
X03435*
X03423Y01588*
X00736Y03632D02*
X00716Y03672D01*
X00756*
X00736Y03632*
Y0364D02*
X00724Y03664D01*
X00748*
X00736Y0364*
X02578Y03219D02*
X02588Y03229D01*
X02598*
X02588Y03239*
X02598Y03249*
X02588*
X02578Y03259*
X02568Y03249*
X02558*
X02568Y03239*
X02558Y03229*
X02568*
X02578Y03219*
Y03227D02*
X02584Y03233D01*
X0259*
X02584Y03239*
X0259Y03245*
X02584*
X02578Y03251*
X02572Y03245*
X02566*
X02572Y03239*
X02566Y03233*
X02572*
X02578Y03227*
X02679Y03219D02*
X02689Y03229D01*
X02699*
X02689Y03239*
X02699Y03249*
X02689*
X02679Y03259*
X02669Y03249*
X02659*
X02669Y03239*
X02659Y03229*
X02669*
X02679Y03219*
Y03227D02*
X02685Y03233D01*
X02691*
X02685Y03239*
X02691Y03245*
X02685*
X02679Y03251*
X02673Y03245*
X02667*
X02673Y03239*
X02667Y03233*
X02673*
X02679Y03227*
X02779Y03219D02*
X02789Y03229D01*
X02799*
X02789Y03239*
X02799Y03249*
X02789*
X02779Y03259*
X02769Y03249*
X02759*
X02769Y03239*
X02759Y03229*
X02769*
X02779Y03219*
Y03227D02*
X02785Y03233D01*
X02791*
X02785Y03239*
X02791Y03245*
X02785*
X02779Y03251*
X02773Y03245*
X02767*
X02773Y03239*
X02767Y03233*
X02773*
X02779Y03227*
X0288Y03219D02*
X0289Y03229D01*
X029*
X0289Y03239*
X029Y03249*
X0289*
X0288Y03259*
X0287Y03249*
X0286*
X0287Y03239*
X0286Y03229*
X0287*
X0288Y03219*
Y03227D02*
X02886Y03233D01*
X02892*
X02886Y03239*
X02892Y03245*
X02886*
X0288Y03251*
X02874Y03245*
X02868*
X02874Y03239*
X02868Y03233*
X02874*
X0288Y03227*
X03354Y0322D02*
X03364Y0323D01*
X03374*
X03364Y0324*
X03374Y0325*
X03364*
X03354Y0326*
X03344Y0325*
X03334*
X03344Y0324*
X03334Y0323*
X03344*
X03354Y0322*
Y03228D02*
X0336Y03234D01*
X03366*
X0336Y0324*
X03366Y03246*
X0336*
X03354Y03252*
X03348Y03246*
X03342*
X03348Y0324*
X03342Y03234*
X03348*
X03354Y03228*
X002Y03507D02*
X0018Y03547D01*
X0022*
X002Y03507*
Y03515D02*
X00188Y03539D01*
X00212*
X002Y03515*
Y03456D02*
X0018Y03496D01*
X0022*
X002Y03456*
Y03464D02*
X00188Y03488D01*
X00212*
X002Y03464*
X00301Y03757D02*
X00281Y03797D01*
X00321*
X00301Y03757*
Y03765D02*
X00289Y03789D01*
X00313*
X00301Y03765*
X00698Y03854D02*
X00678Y03894D01*
X00718*
X00698Y03854*
Y03862D02*
X00686Y03886D01*
X0071*
X00698Y03862*
X00586Y03757D02*
X00566Y03797D01*
X00606*
X00586Y03757*
Y03765D02*
X00574Y03789D01*
X00598*
X00586Y03765*
X00686Y03509D02*
X00666Y03549D01*
X00706*
X00686Y03509*
Y03517D02*
X00674Y03541D01*
X00698*
X00686Y03517*
Y03457D02*
X00666Y03497D01*
X00706*
X00686Y03457*
Y03465D02*
X00674Y03489D01*
X00698*
X00686Y03465*
X03492Y0057D02*
X03502Y0058D01*
X03512*
X03502Y0059*
X03512Y006*
X03502*
X03492Y0061*
X03482Y006*
X03472*
X03482Y0059*
X03472Y0058*
X03482*
X03492Y0057*
Y00578D02*
X03498Y00584D01*
X03504*
X03498Y0059*
X03504Y00596*
X03498*
X03492Y00602*
X03486Y00596*
X0348*
X03486Y0059*
X0348Y00584*
X03486*
X03492Y00578*
X02753Y01194D02*
X02763Y01204D01*
X02773*
X02763Y01214*
X02773Y01224*
X02763*
X02753Y01234*
X02743Y01224*
X02733*
X02743Y01214*
X02733Y01204*
X02743*
X02753Y01194*
Y01202D02*
X02759Y01208D01*
X02765*
X02759Y01214*
X02765Y0122*
X02759*
X02753Y01226*
X02747Y0122*
X02741*
X02747Y01214*
X02741Y01208*
X02747*
X02753Y01202*
X03748Y00206D02*
X03728Y00246D01*
X03768*
X03748Y00206*
Y00214D02*
X03736Y00238D01*
X0376*
X03748Y00214*
X03216Y00174D02*
X03196Y00214D01*
X03236*
X03216Y00174*
Y00182D02*
X03204Y00206D01*
X03228*
X03216Y00182*
X03177Y00174D02*
X03157Y00214D01*
X03197*
X03177Y00174*
Y00182D02*
X03165Y00206D01*
X03189*
X03177Y00182*
X03359Y00606D02*
X03339Y00646D01*
X03379*
X03359Y00606*
Y00614D02*
X03347Y00638D01*
X03371*
X03359Y00614*
X03398Y00606D02*
X03378Y00646D01*
X03418*
X03398Y00606*
Y00614D02*
X03386Y00638D01*
X0341*
X03398Y00614*
X03413Y01454D02*
X03393Y01494D01*
X03433*
X03413Y01454*
Y01462D02*
X03401Y01486D01*
X03425*
X03413Y01462*
X03458Y01454D02*
X03438Y01494D01*
X03478*
X03458Y01454*
Y01462D02*
X03446Y01486D01*
X0347*
X03458Y01462*
X03629Y01452D02*
X03609Y01492D01*
X03649*
X03629Y01452*
Y0146D02*
X03617Y01484D01*
X03641*
X03629Y0146*
X03675Y01452D02*
X03655Y01492D01*
X03695*
X03675Y01452*
Y0146D02*
X03663Y01484D01*
X03687*
X03675Y0146*
X03398Y00644D02*
X03378Y00684D01*
X03418*
X03398Y00644*
Y00652D02*
X03386Y00676D01*
X0341*
X03398Y00652*
X03359Y00644D02*
X03339Y00684D01*
X03379*
X03359Y00644*
Y00652D02*
X03347Y00676D01*
X03371*
X03359Y00652*
X02841Y01108D02*
X02851Y01118D01*
X02861*
X02851Y01128*
X02861Y01138*
X02851*
X02841Y01148*
X02831Y01138*
X02821*
X02831Y01128*
X02821Y01118*
X02831*
X02841Y01108*
Y01116D02*
X02847Y01122D01*
X02853*
X02847Y01128*
X02853Y01134*
X02847*
X02841Y0114*
X02835Y01134*
X02829*
X02835Y01128*
X02829Y01122*
X02835*
X02841Y01116*
X02966Y01399D02*
X02976Y01409D01*
X02986*
X02976Y01419*
X02986Y01429*
X02976*
X02966Y01439*
X02956Y01429*
X02946*
X02956Y01419*
X02946Y01409*
X02956*
X02966Y01399*
Y01407D02*
X02972Y01413D01*
X02978*
X02972Y01419*
X02978Y01425*
X02972*
X02966Y01431*
X0296Y01425*
X02954*
X0296Y01419*
X02954Y01413*
X0296*
X02966Y01407*
Y01446D02*
X02976Y01456D01*
X02986*
X02976Y01466*
X02986Y01476*
X02976*
X02966Y01486*
X02956Y01476*
X02946*
X02956Y01466*
X02946Y01456*
X02956*
X02966Y01446*
Y01454D02*
X02972Y0146D01*
X02978*
X02972Y01466*
X02978Y01472*
X02972*
X02966Y01478*
X0296Y01472*
X02954*
X0296Y01466*
X02954Y0146*
X0296*
X02966Y01454*
Y01422D02*
X02976Y01432D01*
X02986*
X02976Y01442*
X02986Y01452*
X02976*
X02966Y01462*
X02956Y01452*
X02946*
X02956Y01442*
X02946Y01432*
X02956*
X02966Y01422*
Y0143D02*
X02972Y01436D01*
X02978*
X02972Y01442*
X02978Y01448*
X02972*
X02966Y01454*
X0296Y01448*
X02954*
X0296Y01442*
X02954Y01436*
X0296*
X02966Y0143*
Y0147D02*
X02976Y0148D01*
X02986*
X02976Y0149*
X02986Y015*
X02976*
X02966Y0151*
X02956Y015*
X02946*
X02956Y0149*
X02946Y0148*
X02956*
X02966Y0147*
Y01478D02*
X02972Y01484D01*
X02978*
X02972Y0149*
X02978Y01496*
X02972*
X02966Y01502*
X0296Y01496*
X02954*
X0296Y0149*
X02954Y01484*
X0296*
X02966Y01478*
X0299Y01399D02*
X03Y01409D01*
X0301*
X03Y01419*
X0301Y01429*
X03*
X0299Y01439*
X0298Y01429*
X0297*
X0298Y01419*
X0297Y01409*
X0298*
X0299Y01399*
Y01407D02*
X02996Y01413D01*
X03002*
X02996Y01419*
X03002Y01425*
X02996*
X0299Y01431*
X02984Y01425*
X02978*
X02984Y01419*
X02978Y01413*
X02984*
X0299Y01407*
Y0147D02*
X03Y0148D01*
X0301*
X03Y0149*
X0301Y015*
X03*
X0299Y0151*
X0298Y015*
X0297*
X0298Y0149*
X0297Y0148*
X0298*
X0299Y0147*
Y01478D02*
X02996Y01484D01*
X03002*
X02996Y0149*
X03002Y01496*
X02996*
X0299Y01502*
X02984Y01496*
X02978*
X02984Y0149*
X02978Y01484*
X02984*
X0299Y01478*
Y01422D02*
X03Y01432D01*
X0301*
X03Y01442*
X0301Y01452*
X03*
X0299Y01462*
X0298Y01452*
X0297*
X0298Y01442*
X0297Y01432*
X0298*
X0299Y01422*
Y0143D02*
X02996Y01436D01*
X03002*
X02996Y01442*
X03002Y01448*
X02996*
X0299Y01454*
X02984Y01448*
X02978*
X02984Y01442*
X02978Y01436*
X02984*
X0299Y0143*
Y01446D02*
X03Y01456D01*
X0301*
X03Y01466*
X0301Y01476*
X03*
X0299Y01486*
X0298Y01476*
X0297*
X0298Y01466*
X0297Y01456*
X0298*
X0299Y01446*
Y01454D02*
X02996Y0146D01*
X03002*
X02996Y01466*
X03002Y01472*
X02996*
X0299Y01478*
X02984Y01472*
X02978*
X02984Y01466*
X02978Y0146*
X02984*
X0299Y01454*
X03187Y01415D02*
X03167Y01455D01*
X03207*
X03187Y01415*
Y01423D02*
X03175Y01447D01*
X03199*
X03187Y01423*
Y01454D02*
X03167Y01494D01*
X03207*
X03187Y01454*
Y01462D02*
X03175Y01486D01*
X03199*
X03187Y01462*
X03246Y01415D02*
X03226Y01455D01*
X03266*
X03246Y01415*
Y01423D02*
X03234Y01447D01*
X03258*
X03246Y01423*
Y01454D02*
X03226Y01494D01*
X03266*
X03246Y01454*
Y01462D02*
X03234Y01486D01*
X03258*
X03246Y01462*
X03305Y01178D02*
X03285Y01218D01*
X03325*
X03305Y01178*
Y01186D02*
X03293Y0121D01*
X03317*
X03305Y01186*
Y01218D02*
X03285Y01258D01*
X03325*
X03305Y01218*
Y01226D02*
X03293Y0125D01*
X03317*
X03305Y01226*
Y01257D02*
X03285Y01297D01*
X03325*
X03305Y01257*
Y01265D02*
X03293Y01289D01*
X03317*
X03305Y01265*
Y01296D02*
X03285Y01336D01*
X03325*
X03305Y01296*
Y01304D02*
X03293Y01328D01*
X03317*
X03305Y01304*
Y01336D02*
X03285Y01376D01*
X03325*
X03305Y01336*
Y01344D02*
X03293Y01368D01*
X03317*
X03305Y01344*
Y01375D02*
X03285Y01415D01*
X03325*
X03305Y01375*
Y01383D02*
X03293Y01407D01*
X03317*
X03305Y01383*
Y01415D02*
X03285Y01455D01*
X03325*
X03305Y01415*
Y01423D02*
X03293Y01447D01*
X03317*
X03305Y01423*
Y01454D02*
X03285Y01494D01*
X03325*
X03305Y01454*
Y01462D02*
X03293Y01486D01*
X03317*
X03305Y01462*
X02907Y00942D02*
X02917Y00952D01*
X02927*
X02917Y00962*
X02927Y00972*
X02917*
X02907Y00982*
X02897Y00972*
X02887*
X02897Y00962*
X02887Y00952*
X02897*
X02907Y00942*
Y0095D02*
X02913Y00956D01*
X02919*
X02913Y00962*
X02919Y00968*
X02913*
X02907Y00974*
X02901Y00968*
X02895*
X02901Y00962*
X02895Y00956*
X02901*
X02907Y0095*
X02931Y00918D02*
X02941Y00928D01*
X02951*
X02941Y00938*
X02951Y00948*
X02941*
X02931Y00958*
X02921Y00948*
X02911*
X02921Y00938*
X02911Y00928*
X02921*
X02931Y00918*
Y00926D02*
X02937Y00932D01*
X02943*
X02937Y00938*
X02943Y00944*
X02937*
X02931Y0095*
X02925Y00944*
X02919*
X02925Y00938*
X02919Y00932*
X02925*
X02931Y00926*
X02907Y00918D02*
X02917Y00928D01*
X02927*
X02917Y00938*
X02927Y00948*
X02917*
X02907Y00958*
X02897Y00948*
X02887*
X02897Y00938*
X02887Y00928*
X02897*
X02907Y00918*
Y00926D02*
X02913Y00932D01*
X02919*
X02913Y00938*
X02919Y00944*
X02913*
X02907Y0095*
X02901Y00944*
X02895*
X02901Y00938*
X02895Y00932*
X02901*
X02907Y00926*
X02931Y00942D02*
X02941Y00952D01*
X02951*
X02941Y00962*
X02951Y00972*
X02941*
X02931Y00982*
X02921Y00972*
X02911*
X02921Y00962*
X02911Y00952*
X02921*
X02931Y00942*
Y0095D02*
X02937Y00956D01*
X02943*
X02937Y00962*
X02943Y00968*
X02937*
X02931Y00974*
X02925Y00968*
X02919*
X02925Y00962*
X02919Y00956*
X02925*
X02931Y0095*
Y01104D02*
X02941Y01114D01*
X02951*
X02941Y01124*
X02951Y01134*
X02941*
X02931Y01144*
X02921Y01134*
X02911*
X02921Y01124*
X02911Y01114*
X02921*
X02931Y01104*
Y01112D02*
X02937Y01118D01*
X02943*
X02937Y01124*
X02943Y0113*
X02937*
X02931Y01136*
X02925Y0113*
X02919*
X02925Y01124*
X02919Y01118*
X02925*
X02931Y01112*
X02907Y01104D02*
X02917Y01114D01*
X02927*
X02917Y01124*
X02927Y01134*
X02917*
X02907Y01144*
X02897Y01134*
X02887*
X02897Y01124*
X02887Y01114*
X02897*
X02907Y01104*
Y01112D02*
X02913Y01118D01*
X02919*
X02913Y01124*
X02919Y0113*
X02913*
X02907Y01136*
X02901Y0113*
X02895*
X02901Y01124*
X02895Y01118*
X02901*
X02907Y01112*
X02931Y01438D02*
X02941Y01448D01*
X02951*
X02941Y01458*
X02951Y01468*
X02941*
X02931Y01478*
X02921Y01468*
X02911*
X02921Y01458*
X02911Y01448*
X02921*
X02931Y01438*
Y01446D02*
X02937Y01452D01*
X02943*
X02937Y01458*
X02943Y01464*
X02937*
X02931Y0147*
X02925Y01464*
X02919*
X02925Y01458*
X02919Y01452*
X02925*
X02931Y01446*
X02907Y01438D02*
X02917Y01448D01*
X02927*
X02917Y01458*
X02927Y01468*
X02917*
X02907Y01478*
X02897Y01468*
X02887*
X02897Y01458*
X02887Y01448*
X02897*
X02907Y01438*
Y01446D02*
X02913Y01452D01*
X02919*
X02913Y01458*
X02919Y01464*
X02913*
X02907Y0147*
X02901Y01464*
X02895*
X02901Y01458*
X02895Y01452*
X02901*
X02907Y01446*
Y01415D02*
X02917Y01425D01*
X02927*
X02917Y01435*
X02927Y01445*
X02917*
X02907Y01455*
X02897Y01445*
X02887*
X02897Y01435*
X02887Y01425*
X02897*
X02907Y01415*
Y01423D02*
X02913Y01429D01*
X02919*
X02913Y01435*
X02919Y01441*
X02913*
X02907Y01447*
X02901Y01441*
X02895*
X02901Y01435*
X02895Y01429*
X02901*
X02907Y01423*
X02931Y01415D02*
X02941Y01425D01*
X02951*
X02941Y01435*
X02951Y01445*
X02941*
X02931Y01455*
X02921Y01445*
X02911*
X02921Y01435*
X02911Y01425*
X02921*
X02931Y01415*
Y01423D02*
X02937Y01429D01*
X02943*
X02937Y01435*
X02943Y01441*
X02937*
X02931Y01447*
X02925Y01441*
X02919*
X02925Y01435*
X02919Y01429*
X02925*
X02931Y01423*
Y01391D02*
X02941Y01401D01*
X02951*
X02941Y01411*
X02951Y01421*
X02941*
X02931Y01431*
X02921Y01421*
X02911*
X02921Y01411*
X02911Y01401*
X02921*
X02931Y01391*
Y01399D02*
X02937Y01405D01*
X02943*
X02937Y01411*
X02943Y01417*
X02937*
X02931Y01423*
X02925Y01417*
X02919*
X02925Y01411*
X02919Y01405*
X02925*
X02931Y01399*
X02907Y01391D02*
X02917Y01401D01*
X02927*
X02917Y01411*
X02927Y01421*
X02917*
X02907Y01431*
X02897Y01421*
X02887*
X02897Y01411*
X02887Y01401*
X02897*
X02907Y01391*
Y01399D02*
X02913Y01405D01*
X02919*
X02913Y01411*
X02919Y01417*
X02913*
X02907Y01423*
X02901Y01417*
X02895*
X02901Y01411*
X02895Y01405*
X02901*
X02907Y01399*
X0282Y01363D02*
X0283Y01373D01*
X0284*
X0283Y01383*
X0284Y01393*
X0283*
X0282Y01403*
X0281Y01393*
X028*
X0281Y01383*
X028Y01373*
X0281*
X0282Y01363*
Y01371D02*
X02826Y01377D01*
X02832*
X02826Y01383*
X02832Y01389*
X02826*
X0282Y01395*
X02814Y01389*
X02808*
X02814Y01383*
X02808Y01377*
X02814*
X0282Y01371*
X02675Y01352D02*
X02685Y01362D01*
X02695*
X02685Y01372*
X02695Y01382*
X02685*
X02675Y01392*
X02665Y01382*
X02655*
X02665Y01372*
X02655Y01362*
X02665*
X02675Y01352*
Y0136D02*
X02681Y01366D01*
X02687*
X02681Y01372*
X02687Y01378*
X02681*
X02675Y01384*
X02669Y01378*
X02663*
X02669Y01372*
X02663Y01366*
X02669*
X02675Y0136*
X0262Y01251D02*
X0263Y01261D01*
X0264*
X0263Y01271*
X0264Y01281*
X0263*
X0262Y01291*
X0261Y01281*
X026*
X0261Y01271*
X026Y01261*
X0261*
X0262Y01251*
Y01259D02*
X02626Y01265D01*
X02632*
X02626Y01271*
X02632Y01277*
X02626*
X0262Y01283*
X02614Y01277*
X02608*
X02614Y01271*
X02608Y01265*
X02614*
X0262Y01259*
X02753Y01265D02*
X02763Y01275D01*
X02773*
X02763Y01285*
X02773Y01295*
X02763*
X02753Y01305*
X02743Y01295*
X02733*
X02743Y01285*
X02733Y01275*
X02743*
X02753Y01265*
Y01273D02*
X02759Y01279D01*
X02765*
X02759Y01285*
X02765Y01291*
X02759*
X02753Y01297*
X02747Y01291*
X02741*
X02747Y01285*
X02741Y01279*
X02747*
X02753Y01273*
X02757Y01111D02*
X02767Y01121D01*
X02777*
X02767Y01131*
X02777Y01141*
X02767*
X02757Y01151*
X02747Y01141*
X02737*
X02747Y01131*
X02737Y01121*
X02747*
X02757Y01111*
Y01119D02*
X02763Y01125D01*
X02769*
X02763Y01131*
X02769Y01137*
X02763*
X02757Y01143*
X02751Y01137*
X02745*
X02751Y01131*
X02745Y01125*
X02751*
X02757Y01119*
X02803Y00978D02*
X02813Y00988D01*
X02823*
X02813Y00998*
X02823Y01008*
X02813*
X02803Y01018*
X02793Y01008*
X02783*
X02793Y00998*
X02783Y00988*
X02793*
X02803Y00978*
Y00986D02*
X02809Y00992D01*
X02815*
X02809Y00998*
X02815Y01004*
X02809*
X02803Y0101*
X02797Y01004*
X02791*
X02797Y00998*
X02791Y00992*
X02797*
X02803Y00986*
Y01009D02*
X02813Y01019D01*
X02823*
X02813Y01029*
X02823Y01039*
X02813*
X02803Y01049*
X02793Y01039*
X02783*
X02793Y01029*
X02783Y01019*
X02793*
X02803Y01009*
Y01017D02*
X02809Y01023D01*
X02815*
X02809Y01029*
X02815Y01035*
X02809*
X02803Y01041*
X02797Y01035*
X02791*
X02797Y01029*
X02791Y01023*
X02797*
X02803Y01017*
X0282Y01064D02*
X0283Y01074D01*
X0284*
X0283Y01084*
X0284Y01094*
X0283*
X0282Y01104*
X0281Y01094*
X028*
X0281Y01084*
X028Y01074*
X0281*
X0282Y01064*
Y01072D02*
X02826Y01078D01*
X02832*
X02826Y01084*
X02832Y0109*
X02826*
X0282Y01096*
X02814Y0109*
X02808*
X02814Y01084*
X02808Y01078*
X02814*
X0282Y01072*
G54D151*
X0424Y03775D02*
D01*
X0424Y03776*
X0424Y03778*
X0424Y03779*
X0424Y03781*
X04239Y03782*
X04239Y03783*
X04238Y03784*
X04237Y03786*
X04237Y03787*
X04236Y03788*
X04235Y03789*
X04234Y0379*
X04233Y03791*
X04232Y03792*
X0423Y03792*
X04229Y03793*
X04228Y03794*
X04227Y03794*
X04225Y03794*
X04224Y03795*
X04223Y03795*
X04221Y03795*
X0422*
X04218Y03795*
X04217Y03795*
X04216Y03794*
X04214Y03794*
X04213Y03794*
X04212Y03793*
X0421Y03792*
X04209Y03792*
X04208Y03791*
X04207Y0379*
X04206Y03789*
X04205Y03788*
X04204Y03787*
X04204Y03786*
X04203Y03784*
X04202Y03783*
X04202Y03782*
X04201Y03781*
X04201Y03779*
X04201Y03778*
X04201Y03776*
X042Y03775*
X04201Y03774*
X04201Y03772*
X04201Y03771*
X04201Y0377*
X04202Y03768*
X04202Y03767*
X04203Y03766*
X04204Y03764*
X04204Y03763*
X04205Y03762*
X04206Y03761*
X04207Y0376*
X04208Y03759*
X04209Y03758*
X0421Y03758*
X04212Y03757*
X04213Y03757*
X04214Y03756*
X04216Y03756*
X04217Y03755*
X04218Y03755*
X0422Y03755*
X04221*
X04223Y03755*
X04224Y03755*
X04225Y03756*
X04227Y03756*
X04228Y03757*
X04229Y03757*
X0423Y03758*
X04232Y03758*
X04233Y03759*
X04234Y0376*
X04235Y03761*
X04236Y03762*
X04237Y03763*
X04237Y03764*
X04238Y03766*
X04239Y03767*
X04239Y03768*
X0424Y0377*
X0424Y03771*
X0424Y03772*
X0424Y03774*
X0424Y03775*
Y0409D02*
D01*
X0424Y04091*
X0424Y04093*
X0424Y04094*
X0424Y04096*
X04239Y04097*
X04239Y04098*
X04238Y04099*
X04237Y04101*
X04237Y04102*
X04236Y04103*
X04235Y04104*
X04234Y04105*
X04233Y04106*
X04232Y04107*
X0423Y04107*
X04229Y04108*
X04228Y04109*
X04227Y04109*
X04225Y04109*
X04224Y0411*
X04223Y0411*
X04221Y0411*
X0422*
X04218Y0411*
X04217Y0411*
X04216Y04109*
X04214Y04109*
X04213Y04109*
X04212Y04108*
X0421Y04107*
X04209Y04107*
X04208Y04106*
X04207Y04105*
X04206Y04104*
X04205Y04103*
X04204Y04102*
X04204Y04101*
X04203Y04099*
X04202Y04098*
X04202Y04097*
X04201Y04096*
X04201Y04094*
X04201Y04093*
X04201Y04091*
X042Y0409*
X04201Y04089*
X04201Y04087*
X04201Y04086*
X04201Y04085*
X04202Y04083*
X04202Y04082*
X04203Y04081*
X04204Y04079*
X04204Y04078*
X04205Y04077*
X04206Y04076*
X04207Y04075*
X04208Y04074*
X04209Y04073*
X0421Y04073*
X04212Y04072*
X04213Y04072*
X04214Y04071*
X04216Y04071*
X04217Y0407*
X04218Y0407*
X0422Y0407*
X04221*
X04223Y0407*
X04224Y0407*
X04225Y04071*
X04227Y04071*
X04228Y04072*
X04229Y04072*
X0423Y04073*
X04232Y04073*
X04233Y04074*
X04234Y04075*
X04235Y04076*
X04236Y04077*
X04237Y04078*
X04237Y04079*
X04238Y04081*
X04239Y04082*
X04239Y04083*
X0424Y04085*
X0424Y04086*
X0424Y04087*
X0424Y04089*
X0424Y0409*
X03256Y03775D02*
D01*
X03256Y03776*
X03256Y03778*
X03256Y03779*
X03256Y03781*
X03255Y03782*
X03255Y03783*
X03254Y03784*
X03253Y03786*
X03253Y03787*
X03252Y03788*
X03251Y03789*
X0325Y0379*
X03249Y03791*
X03248Y03792*
X03246Y03792*
X03245Y03793*
X03244Y03794*
X03243Y03794*
X03241Y03794*
X0324Y03795*
X03239Y03795*
X03237Y03795*
X03236*
X03234Y03795*
X03233Y03795*
X03232Y03794*
X0323Y03794*
X03229Y03794*
X03228Y03793*
X03226Y03792*
X03225Y03792*
X03224Y03791*
X03223Y0379*
X03222Y03789*
X03221Y03788*
X0322Y03787*
X0322Y03786*
X03219Y03784*
X03218Y03783*
X03218Y03782*
X03217Y03781*
X03217Y03779*
X03217Y03778*
X03217Y03776*
X03216Y03775*
X03217Y03774*
X03217Y03772*
X03217Y03771*
X03217Y0377*
X03218Y03768*
X03218Y03767*
X03219Y03766*
X0322Y03764*
X0322Y03763*
X03221Y03762*
X03222Y03761*
X03223Y0376*
X03224Y03759*
X03225Y03758*
X03226Y03758*
X03228Y03757*
X03229Y03757*
X0323Y03756*
X03232Y03756*
X03233Y03755*
X03234Y03755*
X03236Y03755*
X03237*
X03239Y03755*
X0324Y03755*
X03241Y03756*
X03243Y03756*
X03244Y03757*
X03245Y03757*
X03246Y03758*
X03248Y03758*
X03249Y03759*
X0325Y0376*
X03251Y03761*
X03252Y03762*
X03253Y03763*
X03253Y03764*
X03254Y03766*
X03255Y03767*
X03255Y03768*
X03256Y0377*
X03256Y03771*
X03256Y03772*
X03256Y03774*
X03256Y03775*
Y0409D02*
D01*
X03256Y04091*
X03256Y04093*
X03256Y04094*
X03256Y04096*
X03255Y04097*
X03255Y04098*
X03254Y04099*
X03253Y04101*
X03253Y04102*
X03252Y04103*
X03251Y04104*
X0325Y04105*
X03249Y04106*
X03248Y04107*
X03246Y04107*
X03245Y04108*
X03244Y04109*
X03243Y04109*
X03241Y04109*
X0324Y0411*
X03239Y0411*
X03237Y0411*
X03236*
X03234Y0411*
X03233Y0411*
X03232Y04109*
X0323Y04109*
X03229Y04109*
X03228Y04108*
X03226Y04107*
X03225Y04107*
X03224Y04106*
X03223Y04105*
X03222Y04104*
X03221Y04103*
X0322Y04102*
X0322Y04101*
X03219Y04099*
X03218Y04098*
X03218Y04097*
X03217Y04096*
X03217Y04094*
X03217Y04093*
X03217Y04091*
X03216Y0409*
X03217Y04089*
X03217Y04087*
X03217Y04086*
X03217Y04085*
X03218Y04083*
X03218Y04082*
X03219Y04081*
X0322Y04079*
X0322Y04078*
X03221Y04077*
X03222Y04076*
X03223Y04075*
X03224Y04074*
X03225Y04073*
X03226Y04073*
X03228Y04072*
X03229Y04072*
X0323Y04071*
X03232Y04071*
X03233Y0407*
X03234Y0407*
X03236Y0407*
X03237*
X03239Y0407*
X0324Y0407*
X03241Y04071*
X03243Y04071*
X03244Y04072*
X03245Y04072*
X03246Y04073*
X03248Y04073*
X03249Y04074*
X0325Y04075*
X03251Y04076*
X03252Y04077*
X03253Y04078*
X03253Y04079*
X03254Y04081*
X03255Y04082*
X03255Y04083*
X03256Y04085*
X03256Y04086*
X03256Y04087*
X03256Y04089*
X03256Y0409*
X01941Y0409D02*
D01*
X01941Y04091*
X01941Y04093*
X0194Y04094*
X0194Y04095*
X0194Y04097*
X01939Y04098*
X01939Y04099*
X01938Y041*
X01937Y04102*
X01936Y04103*
X01935Y04104*
X01934Y04105*
X01933Y04106*
X01932Y04106*
X01931Y04107*
X0193Y04108*
X01928Y04108*
X01927Y04109*
X01926Y04109*
X01924Y0411*
X01923Y0411*
X01922Y0411*
X0192*
X01919Y0411*
X01917Y0411*
X01916Y04109*
X01915Y04109*
X01913Y04108*
X01912Y04108*
X01911Y04107*
X0191Y04106*
X01909Y04106*
X01908Y04105*
X01906Y04104*
X01906Y04103*
X01905Y04102*
X01904Y041*
X01903Y04099*
X01903Y04098*
X01902Y04097*
X01902Y04095*
X01901Y04094*
X01901Y04093*
X01901Y04091*
X01901Y0409*
X01901Y04088*
X01901Y04087*
X01901Y04086*
X01902Y04084*
X01902Y04083*
X01903Y04082*
X01903Y0408*
X01904Y04079*
X01905Y04078*
X01906Y04077*
X01906Y04076*
X01908Y04075*
X01909Y04074*
X0191Y04073*
X01911Y04073*
X01912Y04072*
X01913Y04071*
X01915Y04071*
X01916Y0407*
X01917Y0407*
X01919Y0407*
X0192Y0407*
X01922*
X01923Y0407*
X01924Y0407*
X01926Y0407*
X01927Y04071*
X01928Y04071*
X0193Y04072*
X01931Y04073*
X01932Y04073*
X01933Y04074*
X01934Y04075*
X01935Y04076*
X01936Y04077*
X01937Y04078*
X01938Y04079*
X01939Y0408*
X01939Y04082*
X0194Y04083*
X0194Y04084*
X0194Y04086*
X01941Y04087*
X01941Y04088*
X01941Y0409*
Y03775D02*
D01*
X01941Y03776*
X01941Y03778*
X0194Y03779*
X0194Y0378*
X0194Y03782*
X01939Y03783*
X01939Y03784*
X01938Y03785*
X01937Y03787*
X01936Y03788*
X01935Y03789*
X01934Y0379*
X01933Y03791*
X01932Y03791*
X01931Y03792*
X0193Y03793*
X01928Y03793*
X01927Y03794*
X01926Y03794*
X01924Y03795*
X01923Y03795*
X01922Y03795*
X0192*
X01919Y03795*
X01917Y03795*
X01916Y03794*
X01915Y03794*
X01913Y03793*
X01912Y03793*
X01911Y03792*
X0191Y03791*
X01909Y03791*
X01908Y0379*
X01906Y03789*
X01906Y03788*
X01905Y03787*
X01904Y03785*
X01903Y03784*
X01903Y03783*
X01902Y03782*
X01902Y0378*
X01901Y03779*
X01901Y03778*
X01901Y03776*
X01901Y03775*
X01901Y03773*
X01901Y03772*
X01901Y03771*
X01902Y03769*
X01902Y03768*
X01903Y03767*
X01903Y03765*
X01904Y03764*
X01905Y03763*
X01906Y03762*
X01906Y03761*
X01908Y0376*
X01909Y03759*
X0191Y03758*
X01911Y03758*
X01912Y03757*
X01913Y03756*
X01915Y03756*
X01916Y03755*
X01917Y03755*
X01919Y03755*
X0192Y03755*
X01922*
X01923Y03755*
X01924Y03755*
X01926Y03755*
X01927Y03756*
X01928Y03756*
X0193Y03757*
X01931Y03758*
X01932Y03758*
X01933Y03759*
X01934Y0376*
X01935Y03761*
X01936Y03762*
X01937Y03763*
X01938Y03764*
X01939Y03765*
X01939Y03767*
X0194Y03768*
X0194Y03769*
X0194Y03771*
X01941Y03772*
X01941Y03773*
X01941Y03775*
X02925Y0409D02*
D01*
X02925Y04091*
X02925Y04093*
X02924Y04094*
X02924Y04095*
X02924Y04097*
X02923Y04098*
X02923Y04099*
X02922Y041*
X02921Y04102*
X0292Y04103*
X02919Y04104*
X02918Y04105*
X02917Y04106*
X02916Y04106*
X02915Y04107*
X02914Y04108*
X02912Y04108*
X02911Y04109*
X0291Y04109*
X02908Y0411*
X02907Y0411*
X02906Y0411*
X02904*
X02903Y0411*
X02901Y0411*
X029Y04109*
X02899Y04109*
X02897Y04108*
X02896Y04108*
X02895Y04107*
X02894Y04106*
X02893Y04106*
X02892Y04105*
X0289Y04104*
X0289Y04103*
X02889Y04102*
X02888Y041*
X02887Y04099*
X02887Y04098*
X02886Y04097*
X02886Y04095*
X02885Y04094*
X02885Y04093*
X02885Y04091*
X02885Y0409*
X02885Y04088*
X02885Y04087*
X02885Y04086*
X02886Y04084*
X02886Y04083*
X02887Y04082*
X02887Y0408*
X02888Y04079*
X02889Y04078*
X0289Y04077*
X0289Y04076*
X02892Y04075*
X02893Y04074*
X02894Y04073*
X02895Y04073*
X02896Y04072*
X02897Y04071*
X02899Y04071*
X029Y0407*
X02901Y0407*
X02903Y0407*
X02904Y0407*
X02906*
X02907Y0407*
X02908Y0407*
X0291Y0407*
X02911Y04071*
X02912Y04071*
X02914Y04072*
X02915Y04073*
X02916Y04073*
X02917Y04074*
X02918Y04075*
X02919Y04076*
X0292Y04077*
X02921Y04078*
X02922Y04079*
X02923Y0408*
X02923Y04082*
X02924Y04083*
X02924Y04084*
X02924Y04086*
X02925Y04087*
X02925Y04088*
X02925Y0409*
Y03775D02*
D01*
X02925Y03776*
X02925Y03778*
X02924Y03779*
X02924Y0378*
X02924Y03782*
X02923Y03783*
X02923Y03784*
X02922Y03785*
X02921Y03787*
X0292Y03788*
X02919Y03789*
X02918Y0379*
X02917Y03791*
X02916Y03791*
X02915Y03792*
X02914Y03793*
X02912Y03793*
X02911Y03794*
X0291Y03794*
X02908Y03795*
X02907Y03795*
X02906Y03795*
X02904*
X02903Y03795*
X02901Y03795*
X029Y03794*
X02899Y03794*
X02897Y03793*
X02896Y03793*
X02895Y03792*
X02894Y03791*
X02893Y03791*
X02892Y0379*
X0289Y03789*
X0289Y03788*
X02889Y03787*
X02888Y03785*
X02887Y03784*
X02887Y03783*
X02886Y03782*
X02886Y0378*
X02885Y03779*
X02885Y03778*
X02885Y03776*
X02885Y03775*
X02885Y03773*
X02885Y03772*
X02885Y03771*
X02886Y03769*
X02886Y03768*
X02887Y03767*
X02887Y03765*
X02888Y03764*
X02889Y03763*
X0289Y03762*
X0289Y03761*
X02892Y0376*
X02893Y03759*
X02894Y03758*
X02895Y03758*
X02896Y03757*
X02897Y03756*
X02899Y03756*
X029Y03755*
X02901Y03755*
X02903Y03755*
X02904Y03755*
X02906*
X02907Y03755*
X02908Y03755*
X0291Y03755*
X02911Y03756*
X02912Y03756*
X02914Y03757*
X02915Y03758*
X02916Y03758*
X02917Y03759*
X02918Y0376*
X02919Y03761*
X0292Y03762*
X02921Y03763*
X02922Y03764*
X02923Y03765*
X02923Y03767*
X02924Y03768*
X02924Y03769*
X02924Y03771*
X02925Y03772*
X02925Y03773*
X02925Y03775*
X0475Y00141D02*
D01*
X0475Y00143*
X0475Y00144*
X04749Y00145*
X04749Y00147*
X04749Y00148*
X04748Y00149*
X04747Y00151*
X04747Y00152*
X04746Y00153*
X04745Y00154*
X04744Y00155*
X04743Y00156*
X04742Y00157*
X04741Y00158*
X0474Y00159*
X04739Y00159*
X04737Y0016*
X04736Y0016*
X04735Y00161*
X04733Y00161*
X04732Y00161*
X04731Y00161*
X04729*
X04728Y00161*
X04726Y00161*
X04725Y00161*
X04724Y0016*
X04722Y0016*
X04721Y00159*
X0472Y00159*
X04719Y00158*
X04718Y00157*
X04716Y00156*
X04715Y00155*
X04714Y00154*
X04714Y00153*
X04713Y00152*
X04712Y00151*
X04712Y00149*
X04711Y00148*
X04711Y00147*
X0471Y00145*
X0471Y00144*
X0471Y00143*
X0471Y00141*
X0471Y0014*
X0471Y00138*
X0471Y00137*
X04711Y00136*
X04711Y00134*
X04712Y00133*
X04712Y00132*
X04713Y00131*
X04714Y00129*
X04714Y00128*
X04715Y00127*
X04716Y00126*
X04718Y00125*
X04719Y00125*
X0472Y00124*
X04721Y00123*
X04722Y00123*
X04724Y00122*
X04725Y00122*
X04726Y00122*
X04728Y00121*
X04729Y00121*
X04731*
X04732Y00121*
X04733Y00122*
X04735Y00122*
X04736Y00122*
X04737Y00123*
X04739Y00123*
X0474Y00124*
X04741Y00125*
X04742Y00125*
X04743Y00126*
X04744Y00127*
X04745Y00128*
X04746Y00129*
X04747Y00131*
X04747Y00132*
X04748Y00133*
X04749Y00134*
X04749Y00136*
X04749Y00137*
X0475Y00138*
X0475Y0014*
X0475Y00141*
Y04133D02*
D01*
X0475Y04135*
X0475Y04136*
X04749Y04138*
X04749Y04139*
X04749Y0414*
X04748Y04141*
X04747Y04143*
X04747Y04144*
X04746Y04145*
X04745Y04146*
X04744Y04147*
X04743Y04148*
X04742Y04149*
X04741Y0415*
X0474Y04151*
X04739Y04151*
X04737Y04152*
X04736Y04152*
X04735Y04153*
X04733Y04153*
X04732Y04153*
X04731Y04153*
X04729*
X04728Y04153*
X04726Y04153*
X04725Y04153*
X04724Y04152*
X04722Y04152*
X04721Y04151*
X0472Y04151*
X04719Y0415*
X04718Y04149*
X04716Y04148*
X04715Y04147*
X04714Y04146*
X04714Y04145*
X04713Y04144*
X04712Y04143*
X04712Y04141*
X04711Y0414*
X04711Y04139*
X0471Y04138*
X0471Y04136*
X0471Y04135*
X0471Y04133*
X0471Y04132*
X0471Y04131*
X0471Y04129*
X04711Y04128*
X04711Y04127*
X04712Y04125*
X04712Y04124*
X04713Y04123*
X04714Y04122*
X04714Y04121*
X04715Y04119*
X04716Y04118*
X04718Y04118*
X04719Y04117*
X0472Y04116*
X04721Y04115*
X04722Y04115*
X04724Y04114*
X04725Y04114*
X04726Y04114*
X04728Y04113*
X04729Y04113*
X04731*
X04732Y04113*
X04733Y04114*
X04735Y04114*
X04736Y04114*
X04737Y04115*
X04739Y04115*
X0474Y04116*
X04741Y04117*
X04742Y04118*
X04743Y04118*
X04744Y04119*
X04745Y04121*
X04746Y04122*
X04747Y04123*
X04747Y04124*
X04748Y04125*
X04749Y04127*
X04749Y04128*
X04749Y04129*
X0475Y04131*
X0475Y04132*
X0475Y04133*
X00161D02*
D01*
X00161Y04135*
X00161Y04136*
X00161Y04138*
X0016Y04139*
X0016Y0414*
X0016Y04141*
X00159Y04143*
X00158Y04144*
X00157Y04145*
X00157Y04146*
X00156Y04147*
X00155Y04148*
X00154Y04149*
X00152Y0415*
X00151Y04151*
X0015Y04151*
X00149Y04152*
X00147Y04152*
X00146Y04153*
X00145Y04153*
X00143Y04153*
X00142Y04153*
X00141*
X00139Y04153*
X00138Y04153*
X00136Y04153*
X00135Y04152*
X00134Y04152*
X00132Y04151*
X00131Y04151*
X0013Y0415*
X00129Y04149*
X00128Y04148*
X00127Y04147*
X00126Y04146*
X00125Y04145*
X00124Y04144*
X00124Y04143*
X00123Y04141*
X00122Y0414*
X00122Y04139*
X00122Y04138*
X00121Y04136*
X00121Y04135*
X00121Y04133*
X00121Y04132*
X00121Y04131*
X00122Y04129*
X00122Y04128*
X00122Y04127*
X00123Y04125*
X00124Y04124*
X00124Y04123*
X00125Y04122*
X00126Y04121*
X00127Y04119*
X00128Y04118*
X00129Y04118*
X0013Y04117*
X00131Y04116*
X00132Y04115*
X00134Y04115*
X00135Y04114*
X00136Y04114*
X00138Y04114*
X00139Y04113*
X00141Y04113*
X00142*
X00143Y04113*
X00145Y04114*
X00146Y04114*
X00147Y04114*
X00149Y04115*
X0015Y04115*
X00151Y04116*
X00152Y04117*
X00154Y04118*
X00155Y04118*
X00156Y04119*
X00157Y04121*
X00157Y04122*
X00158Y04123*
X00159Y04124*
X0016Y04125*
X0016Y04127*
X0016Y04128*
X00161Y04129*
X00161Y04131*
X00161Y04132*
X00161Y04133*
Y00141D02*
D01*
X00161Y00143*
X00161Y00144*
X00161Y00145*
X0016Y00147*
X0016Y00148*
X0016Y00149*
X00159Y00151*
X00158Y00152*
X00157Y00153*
X00157Y00154*
X00156Y00155*
X00155Y00156*
X00154Y00157*
X00152Y00158*
X00151Y00159*
X0015Y00159*
X00149Y0016*
X00147Y0016*
X00146Y00161*
X00145Y00161*
X00143Y00161*
X00142Y00161*
X00141*
X00139Y00161*
X00138Y00161*
X00136Y00161*
X00135Y0016*
X00134Y0016*
X00132Y00159*
X00131Y00159*
X0013Y00158*
X00129Y00157*
X00128Y00156*
X00127Y00155*
X00126Y00154*
X00125Y00153*
X00124Y00152*
X00124Y00151*
X00123Y00149*
X00122Y00148*
X00122Y00147*
X00122Y00145*
X00121Y00144*
X00121Y00143*
X00121Y00141*
X00121Y0014*
X00121Y00138*
X00122Y00137*
X00122Y00136*
X00122Y00134*
X00123Y00133*
X00124Y00132*
X00124Y00131*
X00125Y00129*
X00126Y00128*
X00127Y00127*
X00128Y00126*
X00129Y00125*
X0013Y00125*
X00131Y00124*
X00132Y00123*
X00134Y00123*
X00135Y00122*
X00136Y00122*
X00138Y00122*
X00139Y00121*
X00141Y00121*
X00142*
X00143Y00121*
X00145Y00122*
X00146Y00122*
X00147Y00122*
X00149Y00123*
X0015Y00123*
X00151Y00124*
X00152Y00125*
X00154Y00125*
X00155Y00126*
X00156Y00127*
X00157Y00128*
X00157Y00129*
X00158Y00131*
X00159Y00132*
X0016Y00133*
X0016Y00134*
X0016Y00136*
X00161Y00137*
X00161Y00138*
X00161Y0014*
X00161Y00141*
G54D152*
X04742Y00141D02*
D01*
X04742Y00142*
X04742Y00143*
X04742Y00144*
X04741Y00145*
X04741Y00145*
X04741Y00146*
X0474Y00147*
X0474Y00148*
X0474Y00148*
X04739Y00149*
X04738Y0015*
X04738Y0015*
X04737Y00151*
X04737Y00151*
X04736Y00152*
X04735Y00152*
X04734Y00152*
X04734Y00153*
X04733Y00153*
X04732Y00153*
X04731Y00153*
X0473Y00153*
X04729*
X04729Y00153*
X04728Y00153*
X04727Y00153*
X04726Y00153*
X04725Y00152*
X04725Y00152*
X04724Y00152*
X04723Y00151*
X04722Y00151*
X04722Y0015*
X04721Y0015*
X04721Y00149*
X0472Y00148*
X0472Y00148*
X04719Y00147*
X04719Y00146*
X04719Y00145*
X04718Y00145*
X04718Y00144*
X04718Y00143*
X04718Y00142*
X04718Y00141*
X04718Y0014*
X04718Y0014*
X04718Y00139*
X04718Y00138*
X04719Y00137*
X04719Y00136*
X04719Y00136*
X0472Y00135*
X0472Y00134*
X04721Y00134*
X04721Y00133*
X04722Y00132*
X04722Y00132*
X04723Y00131*
X04724Y00131*
X04725Y0013*
X04725Y0013*
X04726Y0013*
X04727Y0013*
X04728Y00129*
X04729Y00129*
X04729Y00129*
X0473*
X04731Y00129*
X04732Y00129*
X04733Y0013*
X04734Y0013*
X04734Y0013*
X04735Y0013*
X04736Y00131*
X04737Y00131*
X04737Y00132*
X04738Y00132*
X04738Y00133*
X04739Y00134*
X0474Y00134*
X0474Y00135*
X0474Y00136*
X04741Y00136*
X04741Y00137*
X04741Y00138*
X04742Y00139*
X04742Y0014*
X04742Y0014*
X04742Y00141*
Y04133D02*
D01*
X04742Y04134*
X04742Y04135*
X04742Y04136*
X04741Y04137*
X04741Y04137*
X04741Y04138*
X0474Y04139*
X0474Y0414*
X0474Y0414*
X04739Y04141*
X04738Y04142*
X04738Y04142*
X04737Y04143*
X04737Y04143*
X04736Y04144*
X04735Y04144*
X04734Y04144*
X04734Y04145*
X04733Y04145*
X04732Y04145*
X04731Y04145*
X0473Y04145*
X04729*
X04729Y04145*
X04728Y04145*
X04727Y04145*
X04726Y04145*
X04725Y04144*
X04725Y04144*
X04724Y04144*
X04723Y04143*
X04722Y04143*
X04722Y04142*
X04721Y04142*
X04721Y04141*
X0472Y0414*
X0472Y0414*
X04719Y04139*
X04719Y04138*
X04719Y04137*
X04718Y04137*
X04718Y04136*
X04718Y04135*
X04718Y04134*
X04718Y04133*
X04718Y04133*
X04718Y04132*
X04718Y04131*
X04718Y0413*
X04719Y04129*
X04719Y04128*
X04719Y04128*
X0472Y04127*
X0472Y04126*
X04721Y04126*
X04721Y04125*
X04722Y04124*
X04722Y04124*
X04723Y04123*
X04724Y04123*
X04725Y04123*
X04725Y04122*
X04726Y04122*
X04727Y04122*
X04728Y04122*
X04729Y04121*
X04729Y04121*
X0473*
X04731Y04121*
X04732Y04122*
X04733Y04122*
X04734Y04122*
X04734Y04122*
X04735Y04123*
X04736Y04123*
X04737Y04123*
X04737Y04124*
X04738Y04124*
X04738Y04125*
X04739Y04126*
X0474Y04126*
X0474Y04127*
X0474Y04128*
X04741Y04128*
X04741Y04129*
X04741Y0413*
X04742Y04131*
X04742Y04132*
X04742Y04133*
X04742Y04133*
X00153D02*
D01*
X00153Y04134*
X00153Y04135*
X00153Y04136*
X00153Y04137*
X00153Y04137*
X00152Y04138*
X00152Y04139*
X00151Y0414*
X00151Y0414*
X0015Y04141*
X0015Y04142*
X00149Y04142*
X00149Y04143*
X00148Y04143*
X00147Y04144*
X00146Y04144*
X00146Y04144*
X00145Y04145*
X00144Y04145*
X00143Y04145*
X00142Y04145*
X00142Y04145*
X00141*
X0014Y04145*
X00139Y04145*
X00138Y04145*
X00138Y04145*
X00137Y04144*
X00136Y04144*
X00135Y04144*
X00135Y04143*
X00134Y04143*
X00133Y04142*
X00133Y04142*
X00132Y04141*
X00132Y0414*
X00131Y0414*
X00131Y04139*
X0013Y04138*
X0013Y04137*
X0013Y04137*
X00129Y04136*
X00129Y04135*
X00129Y04134*
X00129Y04133*
X00129Y04133*
X00129Y04132*
X00129Y04131*
X0013Y0413*
X0013Y04129*
X0013Y04128*
X00131Y04128*
X00131Y04127*
X00132Y04126*
X00132Y04126*
X00133Y04125*
X00133Y04124*
X00134Y04124*
X00135Y04123*
X00135Y04123*
X00136Y04123*
X00137Y04122*
X00138Y04122*
X00138Y04122*
X00139Y04122*
X0014Y04121*
X00141Y04121*
X00142*
X00142Y04121*
X00143Y04122*
X00144Y04122*
X00145Y04122*
X00146Y04122*
X00146Y04123*
X00147Y04123*
X00148Y04123*
X00149Y04124*
X00149Y04124*
X0015Y04125*
X0015Y04126*
X00151Y04126*
X00151Y04127*
X00152Y04128*
X00152Y04128*
X00153Y04129*
X00153Y0413*
X00153Y04131*
X00153Y04132*
X00153Y04133*
X00153Y04133*
Y00141D02*
D01*
X00153Y00142*
X00153Y00143*
X00153Y00144*
X00153Y00145*
X00153Y00145*
X00152Y00146*
X00152Y00147*
X00151Y00148*
X00151Y00148*
X0015Y00149*
X0015Y0015*
X00149Y0015*
X00149Y00151*
X00148Y00151*
X00147Y00152*
X00146Y00152*
X00146Y00152*
X00145Y00153*
X00144Y00153*
X00143Y00153*
X00142Y00153*
X00142Y00153*
X00141*
X0014Y00153*
X00139Y00153*
X00138Y00153*
X00138Y00153*
X00137Y00152*
X00136Y00152*
X00135Y00152*
X00135Y00151*
X00134Y00151*
X00133Y0015*
X00133Y0015*
X00132Y00149*
X00132Y00148*
X00131Y00148*
X00131Y00147*
X0013Y00146*
X0013Y00145*
X0013Y00145*
X00129Y00144*
X00129Y00143*
X00129Y00142*
X00129Y00141*
X00129Y0014*
X00129Y0014*
X00129Y00139*
X0013Y00138*
X0013Y00137*
X0013Y00136*
X00131Y00136*
X00131Y00135*
X00132Y00134*
X00132Y00134*
X00133Y00133*
X00133Y00132*
X00134Y00132*
X00135Y00131*
X00135Y00131*
X00136Y0013*
X00137Y0013*
X00138Y0013*
X00138Y0013*
X00139Y00129*
X0014Y00129*
X00141Y00129*
X00142*
X00142Y00129*
X00143Y00129*
X00144Y0013*
X00145Y0013*
X00146Y0013*
X00146Y0013*
X00147Y00131*
X00148Y00131*
X00149Y00132*
X00149Y00132*
X0015Y00133*
X0015Y00134*
X00151Y00134*
X00151Y00135*
X00152Y00136*
X00152Y00136*
X00153Y00137*
X00153Y00138*
X00153Y00139*
X00153Y0014*
X00153Y0014*
X00153Y00141*
M02*